<?xml version="1.0" encoding="UTF-8" standalone="no"?><!DOCTYPE score-partwise PUBLIC "-//Recordare//DTD MusicXML 3.1 Partwise//EN" "http://www.musicxml.org/dtds/partwise.dtd"><score-partwise version="3.1"><identification><rights>Copyright, All rights reserved</rights><encoding><software>Flat</software><encoding-date>2020-05-04</encoding-date></encoding><source>https://flat.io/score/5b63d5babde84e6fdac570b7-amazing-grace</source></identification><defaults><scaling><millimeters>7</millimeters><tenths>40</tenths></scaling><page-layout><page-height>1596.5714285714287</page-height><page-width>1233.7142857142858</page-width><page-margins type="both"><left-margin>72.57142857142857</left-margin><right-margin>72.57142857142857</right-margin><top-margin>72.57142857142857</top-margin><bottom-margin>72.57142857142857</bottom-margin></page-margins></page-layout><system-layout><system-distance>115.2</system-distance></system-layout><staff-layout><staff-distance>72.57142857142857</staff-distance></staff-layout></defaults><credit><credit-type>title</credit-type><credit-words>amazing grace</credit-words></credit><part-list><score-part id="P1"><part-name>Trumpet</part-name><part-abbreviation>Tpt.</part-abbreviation><score-instrument id="P1-I1"><instrument-name>Trumpet</instrument-name></score-instrument><midi-instrument id="P1-I1"><midi-channel>1</midi-channel><midi-program>57</midi-program><volume>100</volume></midi-instrument></score-part></part-list><part id="P1"><measure number="1"><attributes><divisions>2</divisions><key><fifths>2</fifths></key><time><beats>4</beats><beat-type>4</beat-type></time><clef><sign>G</sign><line>2</line></clef><staff-details><staff-lines>5</staff-lines></staff-details><transpose><diatonic>-1</diatonic><chromatic>-2</chromatic></transpose></attributes><sound tempo="95"/><sound/><direction placement="above"><direction-type><metronome><beat-unit>quarter</beat-unit><per-minute>95</per-minute></metronome></direction-type><staff>1</staff></direction><note><pitch><step>D</step><octave>4</octave></pitch><duration>2</duration><voice>1</voice><type>quarter</type><staff>1</staff><notations><slur type="start" number="1"/></notations></note><note><pitch><step>G</step><octave>4</octave></pitch><duration>4</duration><voice>1</voice><type>half</type><staff>1</staff><notations><slur type="stop" number="1"/></notations></note><note><pitch><step>B</step><octave>4</octave></pitch><duration>1</duration><voice>1</voice><type>eighth</type><staff>1</staff><beam number="1">begin</beam><notations><slur type="start" number="1"/></notations></note><note><pitch><step>A</step><octave>4</octave></pitch><duration>1</duration><voice>1</voice><type>eighth</type><staff>1</staff><beam number="1">end</beam></note></measure><measure number="2"><attributes/><note><pitch><step>G</step><octave>4</octave></pitch><duration>1</duration><voice>1</voice><type>eighth</type><staff>1</staff><notations><slur type="stop" number="1"/></notations></note><note><pitch><step>B</step><octave>4</octave></pitch><duration>4</duration><voice>1</voice><type>half</type><staff>1</staff></note><note><pitch><step>A</step><octave>4</octave></pitch><duration>3</duration><voice>1</voice><type>quarter</type><dot/><staff>1</staff><notations><slur type="start" number="1"/></notations></note></measure><measure number="3"><attributes/><note><pitch><step>G</step><octave>4</octave></pitch><duration>4</duration><voice>1</voice><type>half</type><staff>1</staff><notations><slur type="stop" number="1"/></notations></note><note><pitch><step>E</step><octave>4</octave></pitch><duration>2</duration><voice>1</voice><type>quarter</type><staff>1</staff><notations><slur type="start" number="1"/></notations></note><note><pitch><step>D</step><octave>4</octave></pitch><duration>2</duration><tie type="start"/><voice>1</voice><type>quarter</type><staff>1</staff><notations><tied type="start"/></notations></note></measure><measure number="4"><attributes/><note><pitch><step>D</step><octave>4</octave></pitch><duration>2</duration><tie type="stop"/><voice>1</voice><type>quarter</type><staff>1</staff><notations><tied type="stop"/><slur type="stop" number="1"/></notations></note><note><pitch><step>D</step><octave>4</octave></pitch><duration>1</duration><voice>1</voice><type>eighth</type><staff>1</staff><beam number="1">begin</beam><notations><slur type="start" number="1"/></notations></note><note><pitch><step>G</step><octave>4</octave></pitch><duration>1</duration><voice>1</voice><type>eighth</type><staff>1</staff><beam number="1">end</beam><notations><slur type="stop" number="1"/></notations></note><note><pitch><step>G</step><octave>4</octave></pitch><duration>4</duration><voice>1</voice><type>half</type><staff>1</staff></note></measure><measure number="5"><attributes/><note><pitch><step>B</step><octave>4</octave></pitch><duration>1</duration><voice>1</voice><type>eighth</type><staff>1</staff><beam number="1">begin</beam><notations><slur type="start" number="1"/></notations></note><note><pitch><step>A</step><octave>4</octave></pitch><duration>1</duration><voice>1</voice><type>eighth</type><staff>1</staff><beam number="1">end</beam></note><note><pitch><step>G</step><octave>4</octave></pitch><duration>1</duration><voice>1</voice><type>eighth</type><staff>1</staff><notations><slur type="stop" number="1"/></notations></note><note><pitch><step>B</step><octave>4</octave></pitch><duration>4</duration><voice>1</voice><type>half</type><staff>1</staff></note><note><pitch><step>A</step><octave>4</octave></pitch><duration>1</duration><voice>1</voice><type>eighth</type><staff>1</staff><notations><slur type="start" number="1"/></notations></note></measure><measure number="6"><attributes/><note><pitch><step>D</step><octave>5</octave></pitch><duration>1</duration><voice>1</voice><type>eighth</type><staff>1</staff><notations><slur type="stop" number="1"/></notations></note><note><pitch><step>D</step><octave>5</octave></pitch><duration>6</duration><voice>1</voice><type>half</type><dot/><staff>1</staff><notations><slur type="start" number="1"/></notations></note><note><pitch><step>D</step><octave>5</octave></pitch><duration>1</duration><tie type="start"/><voice>1</voice><type>eighth</type><staff>1</staff><notations><tied type="start"/></notations></note></measure><measure number="7"><attributes/><note><pitch><step>D</step><octave>5</octave></pitch><duration>1</duration><tie type="stop"/><voice>1</voice><type>eighth</type><staff>1</staff><notations><tied type="stop"/><slur type="stop" number="1"/></notations></note><note><rest/><duration>2</duration><voice>1</voice><type>quarter</type><staff>1</staff></note><note><pitch><step>B</step><octave>4</octave></pitch><duration>2</duration><voice>1</voice><type>quarter</type><staff>1</staff></note><note><pitch><step>D</step><octave>5</octave></pitch><duration>3</duration><voice>1</voice><type>quarter</type><dot/><staff>1</staff><notations><slur type="start" number="1"/></notations></note></measure><measure number="8"><attributes/><note><pitch><step>B</step><octave>4</octave></pitch><duration>1</duration><voice>1</voice><type>eighth</type><staff>1</staff><beam number="1">begin</beam><notations><slur type="stop" number="1"/></notations></note><note><pitch><step>D</step><octave>5</octave></pitch><duration>1</duration><voice>1</voice><type>eighth</type><staff>1</staff><beam number="1">end</beam><notations><slur type="start" number="1"/></notations></note><note><pitch><step>B</step><octave>4</octave></pitch><duration>1</duration><voice>1</voice><type>eighth</type><staff>1</staff><notations><slur type="stop" number="1"/></notations></note><note><pitch><step>G</step><octave>4</octave></pitch><duration>4</duration><voice>1</voice><type>half</type><staff>1</staff></note><note><pitch><step>D</step><octave>4</octave></pitch><duration>1</duration><tie type="start"/><voice>1</voice><type>eighth</type><staff>1</staff><notations><tied type="start"/></notations></note></measure><measure number="9"><attributes/><note><pitch><step>D</step><octave>4</octave></pitch><duration>1</duration><tie type="stop"/><voice>1</voice><type>eighth</type><staff>1</staff><notations><tied type="stop"/><slur type="start" number="1"/></notations></note><note><pitch><step>E</step><octave>4</octave></pitch><duration>2</duration><voice>1</voice><type>quarter</type><staff>1</staff><notations><slur type="stop" number="1"/></notations></note><note><pitch><step>G</step><octave>4</octave></pitch><duration>1</duration><voice>1</voice><type>eighth</type><staff>1</staff></note><note><pitch><step>G</step><octave>4</octave></pitch><duration>1</duration><voice>1</voice><type>eighth</type><staff>1</staff><beam number="1">begin</beam><notations><slur type="start" number="1"/></notations></note><note><pitch><step>E</step><octave>4</octave></pitch><duration>1</duration><voice>1</voice><type>eighth</type><staff>1</staff><beam number="1">end</beam><notations><slur type="stop" number="1"/></notations></note><note><pitch><step>D</step><octave>4</octave></pitch><duration>2</duration><tie type="start"/><voice>1</voice><type>quarter</type><staff>1</staff><notations><tied type="start"/></notations></note></measure><measure number="10"><attributes/><note><pitch><step>D</step><octave>4</octave></pitch><duration>2</duration><tie type="stop"/><voice>1</voice><type>quarter</type><staff>1</staff><notations><tied type="stop"/></notations></note><note><pitch><step>D</step><octave>4</octave></pitch><duration>2</duration><voice>1</voice><type>quarter</type><staff>1</staff><notations><slur type="start" number="1"/></notations></note><note><pitch><step>G</step><octave>4</octave></pitch><duration>4</duration><voice>1</voice><type>half</type><staff>1</staff><notations><slur type="stop" number="1"/></notations></note></measure><measure number="11"><attributes/><note><pitch><step>B</step><octave>4</octave></pitch><duration>1</duration><voice>1</voice><type>eighth</type><staff>1</staff><beam number="1">begin</beam><notations><slur type="start" number="1"/></notations></note><note><pitch><step>G</step><octave>4</octave></pitch><duration>1</duration><voice>1</voice><type>eighth</type><staff>1</staff><beam number="1">end</beam><notations><slur type="stop" number="1"/></notations></note><note><pitch><step>B</step><octave>4</octave></pitch><duration>4</duration><voice>1</voice><type>half</type><staff>1</staff></note><note><pitch><step>A</step><octave>4</octave></pitch><duration>2</duration><voice>1</voice><type>quarter</type><staff>1</staff></note></measure><measure number="12"><attributes/><note><pitch><step>G</step><octave>4</octave></pitch><duration>6</duration><voice>1</voice><type>half</type><dot/><staff>1</staff></note><note><rest/><duration>2</duration><voice>1</voice><type>quarter</type><staff>1</staff></note></measure><measure number="13"><attributes/><note><rest/><duration>2</duration><voice>1</voice><type>quarter</type><staff>1</staff></note><note><rest/><duration>2</duration><voice>1</voice><type>quarter</type><staff>1</staff></note><note><rest/><duration>2</duration><voice>1</voice><type>quarter</type><staff>1</staff></note><note><rest/><duration>2</duration><voice>1</voice><type>quarter</type><staff>1</staff></note><barline location="right"><bar-style>light-heavy</bar-style></barline></measure></part></score-partwise>