<?xml version="1.0" encoding="UTF-8" standalone="no"?><!DOCTYPE score-partwise PUBLIC "-//Recordare//DTD MusicXML 3.1 Partwise//EN" "http://www.musicxml.org/dtds/partwise.dtd"><score-partwise version="3.1"><identification><creator type="composer">Traditional</creator><creator type="lyricist">Robert Burns 1788</creator><creator type="arranger">Arranged by Aliese Watts 2019</creator><rights>CC0 - Public Domain</rights><encoding><software>Flat</software><encoding-date>2020-05-04</encoding-date></encoding><source>https://flat.io/score/5d8775e69bebce5e92deafad-auld-lang-syne</source></identification><defaults><scaling><millimeters>7</millimeters><tenths>40</tenths></scaling><page-layout><page-height>1697.142857142857</page-height><page-width>1200</page-width><page-margins type="both"><left-margin>98.28571428571429</left-margin><right-margin>98.28571428571429</right-margin><top-margin>98.28571428571429</top-margin><bottom-margin>98.28571428571429</bottom-margin></page-margins></page-layout><system-layout><system-distance>115.2</system-distance></system-layout><staff-layout><staff-distance>72.57142857142857</staff-distance></staff-layout></defaults><credit><credit-type>title</credit-type><credit-words>Auld Lang Syne </credit-words></credit><part-list><score-part id="P1"><part-name>Piano</part-name><part-abbreviation>Pno.</part-abbreviation><score-instrument id="P1-I1"><instrument-name>Piano</instrument-name></score-instrument><midi-instrument id="P1-I1"><midi-channel>1</midi-channel><midi-program>1</midi-program><volume>100</volume></midi-instrument></score-part></part-list><part id="P1"><measure number="1"><attributes><divisions>16</divisions><key><fifths>-1</fifths></key><time><beats>4</beats><beat-type>4</beat-type></time><staves>2</staves><clef number="1"><sign>G</sign><line>2</line></clef><clef number="2"><sign>F</sign><line>4</line></clef><staff-details><staff-lines>5</staff-lines></staff-details></attributes><sound tempo="120"/><sound/><direction placement="above"><direction-type><metronome><beat-unit>quarter</beat-unit><per-minute>120</per-minute></metronome></direction-type><staff>1</staff></direction><harmony type="explicit" placement="above"><root><root-step>C</root-step></root><kind>major</kind><staff>1</staff></harmony><note><rest/><duration>48</duration><voice>1</voice><type>half</type><dot/><staff>1</staff></note><note><pitch><step>C</step><octave>4</octave></pitch><duration>16</duration><voice>1</voice><type>quarter</type><staff>1</staff><lyric number="1"><syllabic>single</syllabic><text>Should</text></lyric></note><backup><duration>64</duration></backup><note><rest/><duration>64</duration><voice>2</voice><type>whole</type><staff>2</staff></note></measure><measure number="2"><barline location="left"><bar-style>heavy-light</bar-style><repeat direction="forward" times="1" winged="none"/></barline><attributes><divisions>4</divisions></attributes><harmony type="explicit" placement="above"><root><root-step>F</root-step></root><kind>major</kind><staff>1</staff></harmony><note><pitch><step>F</step><octave>4</octave></pitch><duration>6</duration><voice>1</voice><type>quarter</type><dot/><staff>1</staff><lyric number="1"><syllabic>single</syllabic><text>auld</text></lyric><lyric number="2"><syllabic>begin</syllabic><text>sure</text></lyric><lyric number="3"><syllabic>single</syllabic><text>twa</text></lyric><lyric number="4"><syllabic>single</syllabic><text>twa</text></lyric><lyric number="5"><syllabic>single</syllabic><text>there's</text></lyric></note><note><pitch><step>F</step><octave>4</octave></pitch><duration>2</duration><voice>1</voice><type>eighth</type><staff>1</staff><lyric number="1"><syllabic>single</syllabic><text>aq-</text></lyric><lyric number="2"><syllabic>end</syllabic><text>ly</text></lyric><lyric number="3"><syllabic>single</syllabic><text>hae</text></lyric><lyric number="4"><syllabic>single</syllabic><text>hae</text></lyric><lyric number="5"><syllabic>single</syllabic><text>a</text></lyric></note><note><pitch><step>F</step><octave>4</octave></pitch><duration>4</duration><voice>1</voice><type>quarter</type><staff>1</staff><lyric number="1"><syllabic>single</syllabic><text>ua-</text></lyric><lyric number="2"><syllabic>single</syllabic><text>ye'll</text></lyric><lyric number="3"><syllabic>single</syllabic><text>run</text></lyric><lyric number="4"><syllabic>single</syllabic><text>paidl'd</text></lyric><lyric number="5"><syllabic>single</syllabic><text>hand</text></lyric></note><note><pitch><step>A</step><octave>4</octave></pitch><duration>4</duration><voice>1</voice><type>quarter</type><staff>1</staff><lyric number="1"><syllabic>single</syllabic><text>tance</text></lyric><lyric number="2"><syllabic>single</syllabic><text>be</text></lyric><lyric number="3"><syllabic>begin</syllabic><text>a</text></lyric><lyric number="4"><syllabic>single</syllabic><text>i'</text></lyric><lyric number="5"><syllabic>single</syllabic><text>my</text></lyric></note><backup><duration>16</duration></backup><note><pitch><step>C</step><octave>3</octave></pitch><duration>12</duration><voice>2</voice><type>half</type><dot/><staff>2</staff></note><note><chord/><pitch><step>F</step><octave>3</octave></pitch><duration>12</duration><voice>2</voice><type>half</type><dot/><staff>2</staff></note><note><chord/><pitch><step>A</step><octave>3</octave></pitch><duration>12</duration><voice>2</voice><type>half</type><dot/><staff>2</staff></note><note><pitch><step>A</step><octave>3</octave></pitch><duration>4</duration><voice>2</voice><type>quarter</type><staff>2</staff></note></measure><measure number="3"><attributes/><harmony type="explicit" placement="above"><root><root-step>C</root-step></root><kind>major</kind><staff>1</staff></harmony><note><pitch><step>G</step><octave>4</octave></pitch><duration>6</duration><voice>1</voice><type>quarter</type><dot/><staff>1</staff><lyric number="1"><syllabic>single</syllabic><text>be</text></lyric><lyric number="2"><syllabic>single</syllabic><text>your</text></lyric><lyric number="3"><syllabic>end</syllabic><text>bout</text></lyric><lyric number="4"><syllabic>single</syllabic><text>the</text></lyric><lyric number="5"><syllabic>begin</syllabic><text>trus</text></lyric></note><note><pitch><step>F</step><octave>4</octave></pitch><duration>2</duration><voice>1</voice><type>eighth</type><staff>1</staff><lyric number="1"><syllabic>single</syllabic><text>for-</text></lyric><lyric number="2"><syllabic>begin</syllabic><text>pint</text></lyric><lyric number="3"><syllabic>single</syllabic><text>the</text></lyric><lyric number="4"><syllabic>begin</syllabic><text>burn</text></lyric><lyric number="5"><syllabic>end</syllabic><text>ty</text></lyric></note><note><pitch><step>G</step><octave>4</octave></pitch><duration>4</duration><voice>1</voice><type>quarter</type><staff>1</staff><lyric number="1"><syllabic>single</syllabic><text>got,</text></lyric><lyric number="2"><syllabic>end</syllabic><text>stop,</text></lyric><lyric number="3"><syllabic>single</syllabic><text>braes,</text></lyric><lyric number="5"><syllabic>single</syllabic><text>fierce!</text></lyric></note><note><pitch><step>A</step><octave>4</octave></pitch><duration>4</duration><voice>1</voice><type>quarter</type><staff>1</staff><lyric number="1"><syllabic>single</syllabic><text>And</text></lyric><lyric number="2"><syllabic>single</syllabic><text>And</text></lyric><lyric number="3"><syllabic>single</syllabic><text>And</text></lyric><lyric number="4"><syllabic>single</syllabic><text>Frae</text></lyric><lyric number="5"><syllabic>single</syllabic><text>And</text></lyric></note><backup><duration>16</duration></backup><note><pitch><step>E</step><octave>3</octave></pitch><duration>12</duration><voice>2</voice><type>half</type><dot/><staff>2</staff></note><note><chord/><pitch><step>G</step><octave>3</octave></pitch><duration>12</duration><voice>2</voice><type>half</type><dot/><staff>2</staff></note><note><chord/><pitch><step>C</step><octave>3</octave></pitch><duration>12</duration><voice>2</voice><type>half</type><dot/><staff>2</staff></note><note><pitch><step>A</step><octave>3</octave></pitch><duration>4</duration><voice>2</voice><type>quarter</type><staff>2</staff></note></measure><measure number="4"><attributes/><harmony type="explicit" placement="above"><root><root-step>F</root-step></root><kind>major</kind><staff>1</staff></harmony><note><pitch><step>F</step><octave>4</octave></pitch><duration>6</duration><voice>1</voice><type>quarter</type><dot/><staff>1</staff><lyric number="1"><syllabic>single</syllabic><text>nev-</text></lyric><lyric number="2"><syllabic>begin</syllabic><text>sure</text></lyric><lyric number="3"><syllabic>single</syllabic><text>pu'd</text></lyric><lyric number="4"><syllabic>begin</syllabic><text>morn</text></lyric><lyric number="5"><syllabic>single</syllabic><text>gie's</text></lyric></note><note><pitch><step>F</step><octave>4</octave></pitch><duration>2</duration><voice>1</voice><type>eighth</type><staff>1</staff><lyric number="1"><syllabic>single</syllabic><text>er</text></lyric><lyric number="2"><syllabic>end</syllabic><text>ly</text></lyric><lyric number="3"><syllabic>single</syllabic><text>the</text></lyric><lyric number="4"><syllabic>end</syllabic><text>ing</text></lyric><lyric number="5"><syllabic>single</syllabic><text>a</text></lyric></note><note><pitch><step>A</step><octave>4</octave></pitch><duration>4</duration><voice>1</voice><type>quarter</type><staff>1</staff><lyric number="1"><syllabic>single</syllabic><text>brought</text></lyric><lyric number="2"><syllabic>single</syllabic><text>I'll</text></lyric><lyric number="3"><syllabic>begin</syllabic><text>gow</text></lyric><lyric number="4"><syllabic>single</syllabic><text>sun</text></lyric><lyric number="5"><syllabic>single</syllabic><text>hand</text></lyric></note><note><pitch><step>C</step><octave>5</octave></pitch><duration>4</duration><voice>1</voice><type>quarter</type><staff>1</staff><lyric number="1"><syllabic>single</syllabic><text>to</text></lyric><lyric number="2"><syllabic>single</syllabic><text>be</text></lyric><lyric number="3"><syllabic>end</syllabic><text>ans</text></lyric><lyric number="4"><syllabic>single</syllabic><text>till</text></lyric><lyric number="5"><syllabic>single</syllabic><text>o'</text></lyric></note><backup><duration>16</duration></backup><note><pitch><step>F</step><octave>3</octave></pitch><duration>12</duration><voice>2</voice><type>half</type><dot/><staff>2</staff></note><note><chord/><pitch><step>A</step><octave>3</octave></pitch><duration>12</duration><voice>2</voice><type>half</type><dot/><staff>2</staff></note><note><chord/><pitch><step>C</step><octave>3</octave></pitch><duration>12</duration><voice>2</voice><type>half</type><dot/><staff>2</staff></note><note><pitch><step>C</step><octave>3</octave></pitch><duration>4</duration><voice>2</voice><type>quarter</type><staff>2</staff></note></measure><measure number="5"><attributes/><harmony type="explicit" placement="above"><root><root-step>B</root-step><root-alter>-1</root-alter></root><kind>major</kind><staff>1</staff></harmony><note><pitch><step>D</step><octave>5</octave></pitch><duration>12</duration><voice>1</voice><type>half</type><dot/><staff>1</staff><lyric number="1"><syllabic>single</syllabic><text>mind,</text></lyric><lyric number="2"><syllabic>single</syllabic><text>mine!</text></lyric><lyric number="3"><syllabic>single</syllabic><text>fine;</text></lyric><lyric number="4"><syllabic>single</syllabic><text>dine;</text></lyric><lyric number="5"><syllabic>single</syllabic><text>thine!</text></lyric></note><note><pitch><step>D</step><octave>5</octave></pitch><duration>4</duration><voice>1</voice><type>quarter</type><staff>1</staff><lyric number="1"><syllabic>single</syllabic><text>Should</text></lyric><lyric number="2"><syllabic>single</syllabic><text>And</text></lyric><lyric number="3"><syllabic>single</syllabic><text>But</text></lyric><lyric number="4"><syllabic>single</syllabic><text>But</text></lyric><lyric number="5"><syllabic>single</syllabic><text>And</text></lyric></note><backup><duration>16</duration></backup><note><pitch><step>D</step><octave>3</octave></pitch><duration>12</duration><voice>2</voice><type>half</type><dot/><staff>2</staff></note><note><chord/><pitch><step>F</step><octave>3</octave></pitch><duration>12</duration><voice>2</voice><type>half</type><dot/><staff>2</staff></note><note><chord/><pitch><step>B</step><alter>-1</alter><octave>2</octave></pitch><duration>12</duration><voice>2</voice><type>half</type><dot/><staff>2</staff></note><note><pitch><step>D</step><octave>3</octave></pitch><duration>4</duration><voice>2</voice><type>quarter</type><staff>2</staff></note></measure><measure number="6"><attributes/><harmony type="explicit" placement="above"><root><root-step>F</root-step></root><kind>major</kind><staff>1</staff></harmony><note><pitch><step>C</step><octave>5</octave></pitch><duration>6</duration><voice>1</voice><type>quarter</type><dot/><staff>1</staff><lyric number="1"><syllabic>single</syllabic><text>auld</text></lyric><lyric number="2"><syllabic>single</syllabic><text>we'll</text></lyric><lyric number="3"><syllabic>single</syllabic><text>we've</text></lyric><lyric number="4"><syllabic>single</syllabic><text>seas</text></lyric><lyric number="5"><syllabic>single</syllabic><text>we'll</text></lyric></note><note><pitch><step>A</step><octave>4</octave></pitch><duration>2</duration><voice>1</voice><type>eighth</type><staff>1</staff><lyric number="1"><syllabic>single</syllabic><text>aq-</text></lyric><lyric number="2"><syllabic>single</syllabic><text>take</text></lyric><lyric number="3"><syllabic>single</syllabic><text>wander'd</text></lyric><lyric number="4"><syllabic>begin</syllabic><text>bet</text></lyric><lyric number="5"><syllabic>single</syllabic><text>tak</text></lyric></note><note><pitch><step>A</step><octave>4</octave></pitch><duration>4</duration><voice>1</voice><type>quarter</type><staff>1</staff><lyric number="1"><syllabic>single</syllabic><text>ua-</text></lyric><lyric number="2"><syllabic>single</syllabic><text>a</text></lyric><lyric number="3"><syllabic>single</syllabic><text>mony</text></lyric><lyric number="4"><syllabic>end</syllabic><text>ween</text></lyric><lyric number="5"><syllabic>single</syllabic><text>a</text></lyric></note><note><pitch><step>F</step><octave>4</octave></pitch><duration>4</duration><voice>1</voice><type>quarter</type><staff>1</staff><lyric number="1"><syllabic>single</syllabic><text>tance</text></lyric><lyric number="2"><syllabic>single</syllabic><text>cupo'</text></lyric><lyric number="3"><syllabic>single</syllabic><text>a</text></lyric><lyric number="4"><syllabic>single</syllabic><text>us</text></lyric><lyric number="5"><syllabic>single</syllabic><text>right</text></lyric></note><backup><duration>16</duration></backup><note><pitch><step>C</step><octave>3</octave></pitch><duration>12</duration><voice>2</voice><type>half</type><dot/><staff>2</staff></note><note><chord/><pitch><step>F</step><octave>3</octave></pitch><duration>12</duration><voice>2</voice><type>half</type><dot/><staff>2</staff></note><note><chord/><pitch><step>A</step><octave>3</octave></pitch><duration>12</duration><voice>2</voice><type>half</type><dot/><staff>2</staff></note><note><pitch><step>F</step><octave>3</octave></pitch><duration>4</duration><voice>2</voice><type>quarter</type><staff>2</staff></note></measure><measure number="7"><attributes/><harmony type="explicit" placement="above"><root><root-step>G</root-step></root><kind>minor</kind><staff>1</staff></harmony><note><pitch><step>G</step><octave>4</octave></pitch><duration>6</duration><voice>1</voice><type>quarter</type><dot/><staff>1</staff><lyric number="1"><syllabic>single</syllabic><text>be</text></lyric><lyric number="2"><syllabic>begin</syllabic><text>kind</text></lyric><lyric number="3"><syllabic>single</syllabic><text>a</text></lyric><lyric number="4"><syllabic>single</syllabic><text>braid</text></lyric><lyric number="5"><syllabic>single</syllabic><text>gude</text></lyric></note><note><pitch><step>F</step><octave>4</octave></pitch><duration>2</duration><voice>1</voice><type>eighth</type><staff>1</staff><lyric number="1"><syllabic>single</syllabic><text>for-</text></lyric><lyric number="2"><syllabic>end</syllabic><text>ness</text></lyric><lyric number="3"><syllabic>single</syllabic><text>weary</text></lyric><lyric number="4"><syllabic>single</syllabic><text>hae</text></lyric><lyric number="5"><syllabic>single</syllabic><text>willy</text></lyric></note><note><pitch><step>G</step><octave>4</octave></pitch><duration>4</duration><voice>1</voice><type>quarter</type><staff>1</staff><lyric number="1"><syllabic>single</syllabic><text>got,</text></lyric><lyric number="2"><syllabic>single</syllabic><text>yet,</text></lyric><lyric number="3"><syllabic>single</syllabic><text>foot,</text></lyric><lyric number="4"><syllabic>single</syllabic><text>roar'd,</text></lyric><lyric number="5"><syllabic>single</syllabic><text>wraught,</text></lyric></note><note><pitch><step>A</step><octave>4</octave></pitch><duration>4</duration><voice>1</voice><type>quarter</type><staff>1</staff><lyric number="1"><syllabic>single</syllabic><text>And</text></lyric><lyric number="2"><syllabic>single</syllabic><text>For</text></lyric><lyric number="3"><syllabic>single</syllabic><text>Sin</text></lyric><lyric number="4"><syllabic>single</syllabic><text>Sin</text></lyric><lyric number="5"><syllabic>single</syllabic><text>For</text></lyric></note><backup><duration>16</duration></backup><note><pitch><step>D</step><octave>3</octave></pitch><duration>12</duration><voice>2</voice><type>half</type><dot/><staff>2</staff></note><note><chord/><pitch><step>G</step><octave>3</octave></pitch><duration>12</duration><voice>2</voice><type>half</type><dot/><staff>2</staff></note><note><chord/><pitch><step>B</step><alter>-1</alter><octave>3</octave></pitch><duration>12</duration><voice>2</voice><type>half</type><dot/><staff>2</staff></note><note><pitch><step>A</step><octave>3</octave></pitch><duration>4</duration><voice>2</voice><type>quarter</type><staff>2</staff></note></measure><measure number="8"><attributes/><harmony type="explicit" placement="above"><root><root-step>D</root-step></root><kind>minor</kind><staff>1</staff></harmony><note><pitch><step>F</step><octave>4</octave></pitch><duration>4</duration><voice>1</voice><type>quarter</type><staff>1</staff><notations><slur type="start" number="1"/></notations><lyric number="1"><syllabic>single</syllabic><text>auld-</text></lyric></note><note><pitch><step>D</step><octave>4</octave></pitch><duration>4</duration><voice>1</voice><type>quarter</type><staff>1</staff><notations><slur type="stop" number="1"/></notations></note><harmony type="explicit" placement="above"><root><root-step>B</root-step><root-alter>-1</root-alter></root><kind>major</kind><staff>1</staff></harmony><note><pitch><step>D</step><octave>4</octave></pitch><duration>4</duration><voice>1</voice><type>quarter</type><staff>1</staff><notations><slur type="start" number="1"/></notations><lyric number="1"><syllabic>single</syllabic><text>lang-</text></lyric></note><harmony type="explicit" placement="above"><root><root-step>C</root-step></root><kind>major</kind><staff>1</staff></harmony><note><pitch><step>C</step><octave>4</octave></pitch><duration>4</duration><voice>1</voice><type>quarter</type><staff>1</staff><notations><slur type="stop" number="1"/></notations></note><backup><duration>16</duration></backup><note><pitch><step>D</step><octave>3</octave></pitch><duration>8</duration><voice>2</voice><type>half</type><staff>2</staff></note><note><chord/><pitch><step>F</step><octave>3</octave></pitch><duration>8</duration><voice>2</voice><type>half</type><staff>2</staff></note><note><chord/><pitch><step>A</step><octave>3</octave></pitch><duration>8</duration><voice>2</voice><type>half</type><staff>2</staff></note><note><pitch><step>B</step><alter>-1</alter><octave>2</octave></pitch><duration>4</duration><voice>2</voice><type>quarter</type><staff>2</staff></note><note><chord/><pitch><step>D</step><octave>3</octave></pitch><duration>4</duration><voice>2</voice><type>quarter</type><staff>2</staff></note><note><chord/><pitch><step>F</step><octave>3</octave></pitch><duration>4</duration><voice>2</voice><type>quarter</type><staff>2</staff></note><note><pitch><step>C</step><octave>3</octave></pitch><duration>4</duration><voice>2</voice><type>quarter</type><staff>2</staff></note><note><chord/><pitch><step>E</step><octave>3</octave></pitch><duration>4</duration><voice>2</voice><type>quarter</type><staff>2</staff></note><note><chord/><pitch><step>G</step><octave>3</octave></pitch><duration>4</duration><voice>2</voice><type>quarter</type><staff>2</staff></note></measure><measure number="9"><attributes/><harmony type="explicit" placement="above"><root><root-step>F</root-step></root><kind>major</kind><staff>1</staff></harmony><note><pitch><step>F</step><octave>4</octave></pitch><duration>12</duration><voice>1</voice><type>half</type><dot/><staff>1</staff><lyric number="1"><syllabic>single</syllabic><text>syne,-</text></lyric></note><note><pitch><step>D</step><octave>5</octave></pitch><duration>4</duration><voice>1</voice><type>quarter</type><staff>1</staff><lyric number="1"><syllabic>single</syllabic><text>For</text></lyric></note><backup><duration>16</duration></backup><note><pitch><step>C</step><octave>3</octave></pitch><duration>12</duration><voice>2</voice><type>half</type><dot/><staff>2</staff></note><note><chord/><pitch><step>F</step><octave>3</octave></pitch><duration>12</duration><voice>2</voice><type>half</type><dot/><staff>2</staff></note><note><chord/><pitch><step>A</step><octave>3</octave></pitch><duration>12</duration><voice>2</voice><type>half</type><dot/><staff>2</staff></note><note><pitch><step>D</step><octave>3</octave></pitch><duration>4</duration><voice>2</voice><type>quarter</type><staff>2</staff></note></measure><measure number="10"><attributes/><harmony type="explicit" placement="above"><root><root-step>F</root-step></root><kind>major</kind><staff>1</staff></harmony><note><pitch><step>C</step><octave>5</octave></pitch><duration>6</duration><voice>1</voice><type>quarter</type><dot/><staff>1</staff><notations><slur type="start" number="1"/></notations><lyric number="1"><syllabic>single</syllabic><text>auld-</text></lyric></note><note><pitch><step>A</step><octave>4</octave></pitch><duration>2</duration><voice>1</voice><type>eighth</type><staff>1</staff><notations><slur type="stop" number="1"/></notations></note><note><pitch><step>A</step><octave>4</octave></pitch><duration>4</duration><voice>1</voice><type>quarter</type><staff>1</staff><notations><slur type="start" number="1"/></notations><lyric number="1"><syllabic>single</syllabic><text>lang-</text></lyric></note><note><pitch><step>F</step><octave>4</octave></pitch><duration>4</duration><voice>1</voice><type>quarter</type><staff>1</staff><notations><slur type="stop" number="1"/></notations></note><backup><duration>16</duration></backup><note><pitch><step>C</step><octave>3</octave></pitch><duration>12</duration><voice>2</voice><type>half</type><dot/><staff>2</staff></note><note><chord/><pitch><step>F</step><octave>3</octave></pitch><duration>12</duration><voice>2</voice><type>half</type><dot/><staff>2</staff></note><note><chord/><pitch><step>A</step><octave>3</octave></pitch><duration>12</duration><voice>2</voice><type>half</type><dot/><staff>2</staff></note><note><pitch><step>F</step><octave>3</octave></pitch><duration>4</duration><voice>2</voice><type>quarter</type><staff>2</staff></note></measure><measure number="11"><attributes/><harmony type="explicit" placement="above"><root><root-step>B</root-step><root-alter>-1</root-alter></root><kind>major</kind><staff>1</staff></harmony><note><pitch><step>F</step><octave>4</octave></pitch><duration>6</duration><voice>1</voice><type>quarter</type><dot/><staff>1</staff><lyric number="1"><syllabic>single</syllabic><text>syne,</text></lyric></note><note><pitch><step>F</step><octave>4</octave></pitch><duration>2</duration><voice>1</voice><type>eighth</type><staff>1</staff><lyric number="1"><syllabic>single</syllabic><text>My</text></lyric></note><note><pitch><step>F</step><octave>4</octave></pitch><duration>4</duration><voice>1</voice><type>quarter</type><staff>1</staff><lyric number="1"><syllabic>single</syllabic><text>Jo,</text></lyric></note><note><pitch><step>D</step><octave>5</octave></pitch><duration>4</duration><voice>1</voice><type>quarter</type><staff>1</staff><lyric number="1"><syllabic>single</syllabic><text>For</text></lyric></note><backup><duration>16</duration></backup><note><pitch><step>B</step><alter>-1</alter><octave>2</octave></pitch><duration>12</duration><voice>2</voice><type>half</type><dot/><staff>2</staff></note><note><chord/><pitch><step>D</step><octave>3</octave></pitch><duration>12</duration><voice>2</voice><type>half</type><dot/><staff>2</staff></note><note><chord/><pitch><step>F</step><octave>3</octave></pitch><duration>12</duration><voice>2</voice><type>half</type><dot/><staff>2</staff></note><note><pitch><step>D</step><octave>3</octave></pitch><duration>4</duration><voice>2</voice><type>quarter</type><staff>2</staff></note></measure><measure number="12"><attributes/><harmony type="explicit" placement="above"><root><root-step>F</root-step></root><kind>major</kind><staff>1</staff></harmony><note><pitch><step>C</step><octave>5</octave></pitch><duration>6</duration><voice>1</voice><type>quarter</type><dot/><staff>1</staff><notations><slur type="start" number="1"/></notations><lyric number="1"><syllabic>single</syllabic><text>auld-</text></lyric></note><note><pitch><step>A</step><octave>4</octave></pitch><duration>2</duration><voice>1</voice><type>eighth</type><staff>1</staff><notations><slur type="stop" number="1"/></notations></note><note><pitch><step>A</step><octave>4</octave></pitch><duration>4</duration><voice>1</voice><type>quarter</type><staff>1</staff><notations><slur type="start" number="1"/></notations><lyric number="1"><syllabic>single</syllabic><text>lang-</text></lyric></note><note><pitch><step>C</step><octave>5</octave></pitch><duration>4</duration><voice>1</voice><type>quarter</type><staff>1</staff><notations><slur type="stop" number="1"/></notations></note><backup><duration>16</duration></backup><note><pitch><step>C</step><octave>3</octave></pitch><duration>12</duration><voice>2</voice><type>half</type><dot/><staff>2</staff></note><note><chord/><pitch><step>F</step><octave>3</octave></pitch><duration>12</duration><voice>2</voice><type>half</type><dot/><staff>2</staff></note><note><chord/><pitch><step>A</step><octave>3</octave></pitch><duration>12</duration><voice>2</voice><type>half</type><dot/><staff>2</staff></note><note><pitch><step>C</step><octave>3</octave></pitch><duration>4</duration><voice>2</voice><type>quarter</type><staff>2</staff></note></measure><measure number="13"><attributes/><harmony type="explicit" placement="above"><root><root-step>B</root-step><root-alter>-1</root-alter></root><kind>major</kind><staff>1</staff></harmony><note><pitch><step>D</step><octave>5</octave></pitch><duration>12</duration><voice>1</voice><type>half</type><dot/><staff>1</staff><lyric number="1"><syllabic>single</syllabic><text>syne, -</text></lyric></note><note><pitch><step>D</step><octave>5</octave></pitch><duration>4</duration><voice>1</voice><type>quarter</type><staff>1</staff><lyric number="1"><syllabic>single</syllabic><text>We'll</text></lyric></note><backup><duration>16</duration></backup><note><pitch><step>B</step><alter>-1</alter><octave>2</octave></pitch><duration>12</duration><voice>2</voice><type>half</type><dot/><staff>2</staff></note><note><chord/><pitch><step>D</step><octave>3</octave></pitch><duration>12</duration><voice>2</voice><type>half</type><dot/><staff>2</staff></note><note><chord/><pitch><step>F</step><octave>3</octave></pitch><duration>12</duration><voice>2</voice><type>half</type><dot/><staff>2</staff></note><note><pitch><step>D</step><octave>3</octave></pitch><duration>4</duration><voice>2</voice><type>quarter</type><staff>2</staff></note></measure><measure number="14"><attributes/><harmony type="explicit" placement="above"><root><root-step>F</root-step></root><kind>major</kind><staff>1</staff></harmony><note><pitch><step>C</step><octave>5</octave></pitch><duration>6</duration><voice>1</voice><type>quarter</type><dot/><staff>1</staff><lyric number="1"><syllabic>single</syllabic><text>take</text></lyric></note><note><pitch><step>A</step><octave>4</octave></pitch><duration>2</duration><voice>1</voice><type>eighth</type><staff>1</staff><lyric number="1"><syllabic>single</syllabic><text>a</text></lyric></note><note><pitch><step>A</step><octave>4</octave></pitch><duration>4</duration><voice>1</voice><type>quarter</type><staff>1</staff><lyric number="1"><syllabic>single</syllabic><text>cup</text></lyric></note><note><pitch><step>F</step><octave>4</octave></pitch><duration>4</duration><voice>1</voice><type>quarter</type><staff>1</staff><lyric number="1"><syllabic>single</syllabic><text>of</text></lyric></note><backup><duration>16</duration></backup><note><pitch><step>C</step><octave>3</octave></pitch><duration>12</duration><voice>2</voice><type>half</type><dot/><staff>2</staff></note><note><chord/><pitch><step>F</step><octave>3</octave></pitch><duration>12</duration><voice>2</voice><type>half</type><dot/><staff>2</staff></note><note><chord/><pitch><step>A</step><octave>3</octave></pitch><duration>12</duration><voice>2</voice><type>half</type><dot/><staff>2</staff></note><note><pitch><step>F</step><octave>3</octave></pitch><duration>4</duration><voice>2</voice><type>quarter</type><staff>2</staff></note></measure><measure number="15"><attributes/><harmony type="explicit" placement="above"><root><root-step>C</root-step></root><kind>major</kind><staff>1</staff></harmony><note><pitch><step>G</step><octave>4</octave></pitch><duration>6</duration><voice>1</voice><type>quarter</type><dot/><staff>1</staff><lyric number="1"><syllabic>single</syllabic><text>kind-</text></lyric></note><note><pitch><step>F</step><octave>4</octave></pitch><duration>2</duration><voice>1</voice><type>eighth</type><staff>1</staff><lyric number="1"><syllabic>single</syllabic><text>ness</text></lyric></note><note><pitch><step>G</step><octave>4</octave></pitch><duration>4</duration><voice>1</voice><type>quarter</type><staff>1</staff><lyric number="1"><syllabic>single</syllabic><text>yet</text></lyric></note><note><pitch><step>A</step><octave>4</octave></pitch><duration>4</duration><voice>1</voice><type>quarter</type><staff>1</staff><lyric number="1"><syllabic>single</syllabic><text>for</text></lyric></note><backup><duration>16</duration></backup><note><pitch><step>C</step><octave>3</octave></pitch><duration>12</duration><voice>2</voice><type>half</type><dot/><staff>2</staff></note><note><chord/><pitch><step>E</step><octave>3</octave></pitch><duration>12</duration><voice>2</voice><type>half</type><dot/><staff>2</staff></note><note><chord/><pitch><step>G</step><octave>3</octave></pitch><duration>12</duration><voice>2</voice><type>half</type><dot/><staff>2</staff></note><note><pitch><step>A</step><octave>3</octave></pitch><duration>4</duration><voice>2</voice><type>quarter</type><staff>2</staff></note></measure><measure number="16"><attributes><divisions>8</divisions></attributes><harmony type="explicit" placement="above"><root><root-step>D</root-step></root><kind>minor</kind><staff>1</staff></harmony><note><pitch><step>F</step><octave>4</octave></pitch><duration>8</duration><voice>1</voice><type>quarter</type><staff>1</staff><notations><slur type="start" number="1"/></notations><lyric number="1"><syllabic>single</syllabic><text>auld</text></lyric></note><note><pitch><step>D</step><octave>4</octave></pitch><duration>8</duration><voice>1</voice><type>quarter</type><staff>1</staff><notations><slur type="stop" number="1"/></notations></note><harmony type="explicit" placement="above"><root><root-step>B</root-step><root-alter>-1</root-alter></root><kind>major</kind><staff>1</staff></harmony><note><pitch><step>D</step><octave>4</octave></pitch><duration>8</duration><voice>1</voice><type>quarter</type><staff>1</staff><notations><slur type="start" number="1"/></notations><lyric number="1"><syllabic>single</syllabic><text>lang-</text></lyric></note><harmony type="explicit" placement="above"><root><root-step>C</root-step></root><kind>major</kind><staff>1</staff></harmony><note><pitch><step>C</step><octave>4</octave></pitch><duration>8</duration><voice>1</voice><type>quarter</type><staff>1</staff><notations><slur type="stop" number="1"/></notations></note><backup><duration>32</duration></backup><note><pitch><step>D</step><octave>3</octave></pitch><duration>16</duration><voice>2</voice><type>half</type><staff>2</staff></note><note><chord/><pitch><step>F</step><octave>3</octave></pitch><duration>16</duration><voice>2</voice><type>half</type><staff>2</staff></note><note><chord/><pitch><step>A</step><octave>3</octave></pitch><duration>16</duration><voice>2</voice><type>half</type><staff>2</staff></note><note><pitch><step>D</step><octave>3</octave></pitch><duration>8</duration><voice>2</voice><type>quarter</type><staff>2</staff></note><note><chord/><pitch><step>F</step><octave>3</octave></pitch><duration>8</duration><voice>2</voice><type>quarter</type><staff>2</staff></note><note><chord/><pitch><step>B</step><alter>-1</alter><octave>2</octave></pitch><duration>8</duration><voice>2</voice><type>quarter</type><staff>2</staff></note><note><pitch><step>C</step><octave>3</octave></pitch><duration>8</duration><voice>2</voice><type>quarter</type><staff>2</staff></note><note><chord/><pitch><step>E</step><octave>3</octave></pitch><duration>8</duration><voice>2</voice><type>quarter</type><staff>2</staff></note><note><chord/><pitch><step>G</step><octave>3</octave></pitch><duration>8</duration><voice>2</voice><type>quarter</type><staff>2</staff></note></measure><measure number="17"><barline location="left"><bar-style>regular</bar-style><ending number="1" type="start"/></barline><attributes><divisions>4</divisions></attributes><harmony type="explicit" placement="above"><root><root-step>F</root-step></root><kind>major</kind><staff>1</staff></harmony><note><pitch><step>F</step><octave>4</octave></pitch><duration>12</duration><voice>1</voice><type>half</type><dot/><staff>1</staff><lyric number="1"><syllabic>single</syllabic><text>syne. -</text></lyric></note><note><pitch><step>C</step><octave>4</octave></pitch><duration>4</duration><voice>1</voice><type>quarter</type><staff>1</staff><lyric number="1"><syllabic>single</syllabic><text>And</text></lyric><lyric number="2"><syllabic>single</syllabic><text>We</text></lyric><lyric number="3"><syllabic>single</syllabic><text>We</text></lyric><lyric number="4"><syllabic>single</syllabic><text>And</text></lyric></note><backup><duration>16</duration></backup><note><pitch><step>C</step><octave>3</octave></pitch><duration>12</duration><voice>2</voice><type>half</type><dot/><staff>2</staff></note><note><chord/><pitch><step>F</step><octave>3</octave></pitch><duration>12</duration><voice>2</voice><type>half</type><dot/><staff>2</staff></note><note><chord/><pitch><step>A</step><octave>3</octave></pitch><duration>12</duration><voice>2</voice><type>half</type><dot/><staff>2</staff></note><note><pitch><step>C</step><octave>3</octave></pitch><duration>4</duration><voice>2</voice><type>quarter</type><staff>2</staff></note><barline location="right"><bar-style>light-heavy</bar-style><ending number="1" type="stop"/><repeat direction="backward" times="1" winged="none"/></barline></measure><measure number="18"><barline location="left"><bar-style>regular</bar-style><ending number="2" type="start"/></barline><attributes/><harmony type="explicit" placement="above"><root><root-step>F</root-step></root><kind>major</kind><staff>1</staff></harmony><note><rest/><duration>16</duration><voice>1</voice><type>whole</type><staff>1</staff><lyric number="1"><syllabic>single</syllabic><text>Syne.</text></lyric></note><backup><duration>16</duration></backup><note><pitch><step>C</step><octave>3</octave></pitch><duration>16</duration><voice>2</voice><type>whole</type><staff>2</staff></note><note><chord/><pitch><step>F</step><octave>3</octave></pitch><duration>16</duration><voice>2</voice><type>whole</type><staff>2</staff></note><note><chord/><pitch><step>A</step><octave>3</octave></pitch><duration>16</duration><voice>2</voice><type>whole</type><staff>2</staff></note><barline location="right"><bar-style>regular</bar-style><ending number="2" type="discontinue"/></barline></measure></part></score-partwise>