<?xml version="1.0" encoding="UTF-8" standalone="no"?><!DOCTYPE score-partwise PUBLIC "-//Recordare//DTD MusicXML 3.1 Partwise//EN" "http://www.musicxml.org/dtds/partwise.dtd"><score-partwise version="3.1"><identification><creator type="arranger">Aliese Watts</creator><rights>Melody by William James Kirkpatrick, Public Domain</rights><encoding><software>Flat</software><encoding-date>2020-05-04</encoding-date></encoding><source>https://flat.io/score/5b8d6e7adbc6cf0212c3e0bf-away-in-a-manger-cradle-song</source></identification><defaults><scaling><millimeters>7</millimeters><tenths>40</tenths></scaling><page-layout><page-height>1596.5714285714287</page-height><page-width>1233.7142857142858</page-width><page-margins type="both"><left-margin>72.57142857142857</left-margin><right-margin>72.57142857142857</right-margin><top-margin>72.57142857142857</top-margin><bottom-margin>72.57142857142857</bottom-margin></page-margins></page-layout><system-layout><system-distance>115.2</system-distance></system-layout><staff-layout><staff-distance>72.57142857142857</staff-distance></staff-layout></defaults><credit><credit-type>title</credit-type><credit-words>Away In A Manger (Cradle Song)</credit-words></credit><credit><credit-type>subtitle</credit-type><credit-words>Arranged by Aliese Watts 2019</credit-words></credit><part-list><score-part id="P1"><part-name>Grand Piano</part-name><part-abbreviation>Pno.</part-abbreviation><score-instrument id="P1-I1"><instrument-name>Grand Piano</instrument-name></score-instrument><midi-instrument id="P1-I1"><midi-channel>1</midi-channel><midi-program>1</midi-program><volume>100</volume></midi-instrument></score-part></part-list><part id="P1"><measure number="1"><attributes><divisions>1</divisions><key><fifths>-1</fifths></key><time><beats>3</beats><beat-type>4</beat-type></time><staves>2</staves><clef number="1"><sign>G</sign><line>2</line></clef><clef number="2"><sign>F</sign><line>4</line></clef><staff-details><staff-lines>5</staff-lines></staff-details></attributes><sound tempo="100"/><sound/><direction placement="above"><direction-type><metronome><beat-unit>quarter</beat-unit><per-minute>100</per-minute></metronome></direction-type><staff>1</staff></direction><note><rest/><duration>2</duration><voice>1</voice><type>half</type><staff>1</staff></note><note><pitch><step>C</step><octave>4</octave></pitch><duration>1</duration><voice>1</voice><type>quarter</type><staff>1</staff><lyric number="1"><syllabic>single</syllabic><text>A</text></lyric></note><backup><duration>3</duration></backup><note><rest/><duration>3</duration><voice>2</voice><type>half</type><dot/><staff>2</staff></note></measure><measure number="2"><barline location="left"><bar-style>heavy-light</bar-style><repeat direction="forward" times="1" winged="none"/></barline><attributes><divisions>2</divisions></attributes><note><pitch><step>F</step><octave>4</octave></pitch><duration>2</duration><voice>1</voice><type>quarter</type><staff>1</staff><lyric number="1"><syllabic>single</syllabic><text>way</text></lyric><lyric number="2"><syllabic>single</syllabic><text>cat</text></lyric><lyric number="3"><syllabic>single</syllabic><text>near</text></lyric></note><note><pitch><step>F</step><octave>4</octave></pitch><duration>2</duration><voice>1</voice><type>quarter</type><staff>1</staff><lyric number="1"><syllabic>single</syllabic><text>in</text></lyric><lyric number="2"><syllabic>single</syllabic><text>tle</text></lyric><lyric number="3"><syllabic>single</syllabic><text>me</text></lyric></note><note><pitch><step>G</step><octave>4</octave></pitch><duration>1</duration><voice>1</voice><type>eighth</type><staff>1</staff><beam number="1">begin</beam><lyric number="1"><syllabic>single</syllabic><text>a-</text></lyric><lyric number="2"><syllabic>begin</syllabic><text>are</text></lyric><lyric number="3"><syllabic>begin</syllabic><text>Lord</text></lyric></note><note><pitch><step>A</step><octave>4</octave></pitch><duration>1</duration><voice>1</voice><type>eighth</type><staff>1</staff><beam number="1">end</beam></note><backup><duration>6</duration></backup><note><pitch><step>A</step><octave>3</octave></pitch><duration>2</duration><voice>2</voice><type>quarter</type><staff>2</staff></note><note><chord/><pitch><step>F</step><octave>3</octave></pitch><duration>2</duration><voice>2</voice><type>quarter</type><staff>2</staff></note><note><chord/><pitch><step>C</step><octave>3</octave></pitch><duration>2</duration><voice>2</voice><type>quarter</type><staff>2</staff></note><note><pitch><step>A</step><octave>3</octave></pitch><duration>2</duration><voice>2</voice><type>quarter</type><staff>2</staff></note><note><pitch><step>B</step><alter>-1</alter><octave>3</octave></pitch><duration>2</duration><voice>2</voice><type>quarter</type><staff>2</staff></note></measure><measure number="3"><attributes/><note><pitch><step>F</step><octave>4</octave></pitch><duration>2</duration><voice>1</voice><type>quarter</type><staff>1</staff><lyric number="1"><syllabic>single</syllabic><text>man-</text></lyric><lyric number="2"><syllabic>begin</syllabic><text>low</text></lyric><lyric number="3"><syllabic>begin</syllabic><text>Je</text></lyric></note><note><pitch><step>F</step><octave>4</octave></pitch><duration>2</duration><voice>1</voice><type>quarter</type><staff>1</staff><lyric number="1"><syllabic>single</syllabic><text>ger</text></lyric><lyric number="2"><syllabic>end</syllabic><text>ing</text></lyric><lyric number="3"><syllabic>end</syllabic><text>sus</text></lyric></note><note><pitch><step>A</step><octave>4</octave></pitch><duration>1</duration><voice>1</voice><type>eighth</type><staff>1</staff><beam number="1">begin</beam><lyric number="1"><syllabic>single</syllabic><text>no-</text></lyric><lyric number="2"><syllabic>begin</syllabic><text>the</text></lyric><lyric number="3"><syllabic>begin</syllabic><text>I</text></lyric></note><note><pitch><step>B</step><alter>-1</alter><octave>4</octave></pitch><duration>1</duration><voice>1</voice><type>eighth</type><staff>1</staff><beam number="1">end</beam></note><backup><duration>6</duration></backup><note><pitch><step>F</step><octave>3</octave></pitch><duration>2</duration><voice>2</voice><type>quarter</type><staff>2</staff></note><note><chord/><pitch><step>A</step><octave>3</octave></pitch><duration>2</duration><voice>2</voice><type>quarter</type><staff>2</staff></note><note><chord/><pitch><step>C</step><octave>3</octave></pitch><duration>2</duration><voice>2</voice><type>quarter</type><staff>2</staff></note><note><pitch><step>A</step><octave>3</octave></pitch><duration>2</duration><voice>2</voice><type>quarter</type><staff>2</staff></note><note><pitch><step>C</step><octave>4</octave></pitch><duration>2</duration><voice>2</voice><type>quarter</type><staff>2</staff></note></measure><measure number="4"><attributes/><note><pitch><step>C</step><octave>5</octave></pitch><duration>2</duration><voice>1</voice><type>quarter</type><staff>1</staff><lyric number="1"><syllabic>single</syllabic><text>room</text></lyric><lyric number="2"><syllabic>begin</syllabic><text>ba</text></lyric><lyric number="3"><syllabic>single</syllabic><text>ask</text></lyric></note><note><pitch><step>C</step><octave>5</octave></pitch><duration>2</duration><voice>1</voice><type>quarter</type><staff>1</staff><lyric number="1"><syllabic>single</syllabic><text>for</text></lyric><lyric number="2"><syllabic>end</syllabic><text>by</text></lyric><lyric number="3"><syllabic>single</syllabic><text>thee</text></lyric></note><note><pitch><step>D</step><octave>5</octave></pitch><duration>2</duration><voice>1</voice><type>quarter</type><staff>1</staff><lyric number="1"><syllabic>single</syllabic><text>a</text></lyric><lyric number="2"><syllabic>single</syllabic><text>a</text></lyric><lyric number="3"><syllabic>single</syllabic><text>to</text></lyric></note><backup><duration>6</duration></backup><note><pitch><step>F</step><octave>3</octave></pitch><duration>2</duration><voice>2</voice><type>quarter</type><staff>2</staff></note><note><chord/><pitch><step>A</step><octave>3</octave></pitch><duration>2</duration><voice>2</voice><type>quarter</type><staff>2</staff></note><note><chord/><pitch><step>C</step><octave>4</octave></pitch><duration>2</duration><voice>2</voice><type>quarter</type><staff>2</staff></note><note><pitch><step>A</step><octave>3</octave></pitch><duration>2</duration><voice>2</voice><type>quarter</type><staff>2</staff></note><note><pitch><step>B</step><alter>-1</alter><octave>3</octave></pitch><duration>2</duration><voice>2</voice><type>quarter</type><staff>2</staff></note></measure><measure number="5"><attributes/><note><pitch><step>B</step><alter>-1</alter><octave>4</octave></pitch><duration>4</duration><voice>1</voice><type>half</type><staff>1</staff><lyric number="1"><syllabic>single</syllabic><text>crib,</text></lyric><lyric number="2"><syllabic>single</syllabic><text>wake,</text></lyric><lyric number="3"><syllabic>single</syllabic><text>stay</text></lyric></note><note><pitch><step>G</step><octave>4</octave></pitch><duration>1</duration><voice>1</voice><type>eighth</type><staff>1</staff><beam number="1">begin</beam><lyric number="1"><syllabic>single</syllabic><text>The-</text></lyric><lyric number="2"><syllabic>single</syllabic><text>The</text></lyric><lyric number="3"><syllabic>begin</syllabic><text>close</text></lyric></note><note><pitch><step>A</step><octave>4</octave></pitch><duration>1</duration><voice>1</voice><type>eighth</type><staff>1</staff><beam number="1">end</beam></note><backup><duration>6</duration></backup><note><pitch><step>C</step><octave>3</octave></pitch><duration>4</duration><voice>2</voice><type>half</type><staff>2</staff></note><note><chord/><pitch><step>E</step><octave>3</octave></pitch><duration>4</duration><voice>2</voice><type>half</type><staff>2</staff></note><note><chord/><pitch><step>G</step><octave>3</octave></pitch><duration>4</duration><voice>2</voice><type>half</type><staff>2</staff></note><note><pitch><step>B</step><alter>-1</alter><octave>3</octave></pitch><duration>2</duration><voice>2</voice><type>quarter</type><staff>2</staff></note></measure><measure number="6"><attributes/><note><pitch><step>B</step><alter>-1</alter><octave>4</octave></pitch><duration>2</duration><voice>1</voice><type>quarter</type><staff>1</staff><lyric number="1"><syllabic>single</syllabic><text>lit-</text></lyric><lyric number="2"><syllabic>begin</syllabic><text>lit</text></lyric><lyric number="3"><syllabic>single</syllabic><text>by</text></lyric></note><note><pitch><step>B</step><alter>-1</alter><octave>4</octave></pitch><duration>2</duration><voice>1</voice><type>quarter</type><staff>1</staff><lyric number="1"><syllabic>single</syllabic><text>tle</text></lyric><lyric number="2"><syllabic>end</syllabic><text>tle</text></lyric><lyric number="3"><syllabic>single</syllabic><text>me</text></lyric></note><note><pitch><step>C</step><octave>5</octave></pitch><duration>2</duration><voice>1</voice><type>quarter</type><staff>1</staff><lyric number="1"><syllabic>single</syllabic><text>lord</text></lyric><lyric number="2"><syllabic>single</syllabic><text>lord</text></lyric><lyric number="3"><syllabic>begin</syllabic><text>for</text></lyric></note><backup><duration>6</duration></backup><note><pitch><step>D</step><octave>3</octave></pitch><duration>2</duration><voice>2</voice><type>quarter</type><staff>2</staff></note><note><chord/><pitch><step>G</step><octave>3</octave></pitch><duration>2</duration><voice>2</voice><type>quarter</type><staff>2</staff></note><note><chord/><pitch><step>B</step><alter>-1</alter><octave>3</octave></pitch><duration>2</duration><voice>2</voice><type>quarter</type><staff>2</staff></note><note><pitch><step>F</step><octave>3</octave></pitch><duration>2</duration><voice>2</voice><type>quarter</type><staff>2</staff></note><note><pitch><step>G</step><octave>3</octave></pitch><duration>2</duration><voice>2</voice><type>quarter</type><staff>2</staff></note></measure><measure number="7"><attributes/><note><pitch><step>A</step><octave>4</octave></pitch><duration>2</duration><voice>1</voice><type>quarter</type><staff>1</staff><lyric number="1"><syllabic>single</syllabic><text>Je-</text></lyric><lyric number="2"><syllabic>begin</syllabic><text>Je</text></lyric><lyric number="3"><syllabic>middle</syllabic><text>ev</text></lyric></note><note><pitch><step>A</step><octave>4</octave></pitch><duration>2</duration><voice>1</voice><type>quarter</type><staff>1</staff><lyric number="1"><syllabic>single</syllabic><text>sus</text></lyric><lyric number="2"><syllabic>end</syllabic><text>sus</text></lyric><lyric number="3"><syllabic>end</syllabic><text>er</text></lyric></note><note><pitch><step>F</step><octave>4</octave></pitch><duration>1</duration><voice>1</voice><type>eighth</type><staff>1</staff><beam number="1">begin</beam><lyric number="1"><syllabic>single</syllabic><text>lay-</text></lyric><lyric number="2"><syllabic>begin</syllabic><text>no</text></lyric><lyric number="3"><syllabic>begin</syllabic><text>and</text></lyric></note><note><pitch><step>A</step><octave>4</octave></pitch><duration>1</duration><voice>1</voice><type>eighth</type><staff>1</staff><beam number="1">end</beam></note><backup><duration>6</duration></backup><note><pitch><step>F</step><octave>3</octave></pitch><duration>2</duration><voice>2</voice><type>quarter</type><staff>2</staff></note><note><chord/><pitch><step>A</step><octave>3</octave></pitch><duration>2</duration><voice>2</voice><type>quarter</type><staff>2</staff></note><note><chord/><pitch><step>C</step><octave>4</octave></pitch><duration>2</duration><voice>2</voice><type>quarter</type><staff>2</staff></note><note><pitch><step>C</step><octave>4</octave></pitch><duration>2</duration><voice>2</voice><type>quarter</type><staff>2</staff></note><note><pitch><step>A</step><octave>3</octave></pitch><duration>2</duration><voice>2</voice><type>quarter</type><staff>2</staff></note></measure><measure number="8"><attributes/><note><pitch><step>G</step><octave>4</octave></pitch><duration>2</duration><voice>1</voice><type>quarter</type><staff>1</staff><lyric number="1"><syllabic>single</syllabic><text>down</text></lyric><lyric number="2"><syllabic>begin</syllabic><text>cry</text></lyric><lyric number="3"><syllabic>single</syllabic><text>love</text></lyric></note><note><pitch><step>D</step><octave>4</octave></pitch><duration>2</duration><voice>1</voice><type>quarter</type><staff>1</staff><lyric number="1"><syllabic>single</syllabic><text>his</text></lyric><lyric number="2"><syllabic>end</syllabic><text>ing</text></lyric><lyric number="3"><syllabic>single</syllabic><text>me</text></lyric></note><note><pitch><step>F</step><octave>4</octave></pitch><duration>2</duration><voice>1</voice><type>quarter</type><staff>1</staff><lyric number="1"><syllabic>single</syllabic><text>sweet</text></lyric><lyric number="2"><syllabic>single</syllabic><text>he</text></lyric><lyric number="3"><syllabic>single</syllabic><text>I</text></lyric></note><backup><duration>6</duration></backup><note><pitch><step>D</step><octave>3</octave></pitch><duration>2</duration><voice>2</voice><type>quarter</type><staff>2</staff></note><note><chord/><pitch><step>F</step><octave>3</octave></pitch><duration>2</duration><voice>2</voice><type>quarter</type><staff>2</staff></note><note><chord/><pitch><step>B</step><alter>-1</alter><octave>3</octave></pitch><duration>2</duration><voice>2</voice><type>quarter</type><staff>2</staff></note><note><pitch><step>F</step><octave>3</octave></pitch><duration>2</duration><voice>2</voice><type>quarter</type><staff>2</staff></note><note><pitch><step>A</step><octave>3</octave></pitch><duration>2</duration><voice>2</voice><type>quarter</type><staff>2</staff></note></measure><measure number="9"><attributes/><note><pitch><step>E</step><octave>4</octave></pitch><duration>4</duration><voice>1</voice><type>half</type><staff>1</staff><lyric number="1"><syllabic>single</syllabic><text>head,</text></lyric><lyric number="2"><syllabic>single</syllabic><text>makes,</text></lyric><lyric number="3"><syllabic>single</syllabic><text>pray,</text></lyric></note><note><pitch><step>C</step><octave>4</octave></pitch><duration>2</duration><voice>1</voice><type>quarter</type><staff>1</staff><lyric number="1"><syllabic>single</syllabic><text>The</text></lyric><lyric number="2"><syllabic>single</syllabic><text>I</text></lyric><lyric number="3"><syllabic>single</syllabic><text>Bless</text></lyric></note><backup><duration>6</duration></backup><note><pitch><step>C</step><octave>3</octave></pitch><duration>4</duration><voice>2</voice><type>half</type><staff>2</staff></note><note><chord/><pitch><step>E</step><octave>3</octave></pitch><duration>4</duration><voice>2</voice><type>half</type><staff>2</staff></note><note><chord/><pitch><step>G</step><octave>3</octave></pitch><duration>4</duration><voice>2</voice><type>half</type><staff>2</staff></note><note><pitch><step>C</step><octave>3</octave></pitch><duration>2</duration><voice>2</voice><type>quarter</type><staff>2</staff></note></measure><measure number="10"><attributes/><note><pitch><step>F</step><octave>4</octave></pitch><duration>2</duration><voice>1</voice><type>quarter</type><staff>1</staff><lyric number="1"><syllabic>single</syllabic><text>stars</text></lyric><lyric number="2"><syllabic>single</syllabic><text>love</text></lyric><lyric number="3"><syllabic>single</syllabic><text>all</text></lyric></note><note><pitch><step>F</step><octave>4</octave></pitch><duration>2</duration><voice>1</voice><type>quarter</type><staff>1</staff><lyric number="1"><syllabic>single</syllabic><text>in</text></lyric><lyric number="2"><syllabic>single</syllabic><text>thee</text></lyric><lyric number="3"><syllabic>single</syllabic><text>the</text></lyric></note><note><pitch><step>G</step><octave>4</octave></pitch><duration>1</duration><voice>1</voice><type>eighth</type><staff>1</staff><beam number="1">begin</beam><lyric number="1"><syllabic>single</syllabic><text>the-</text></lyric><lyric number="2"><syllabic>begin</syllabic><text>Lord</text></lyric><lyric number="3"><syllabic>begin</syllabic><text>dear</text></lyric></note><note><pitch><step>A</step><octave>4</octave></pitch><duration>1</duration><voice>1</voice><type>eighth</type><staff>1</staff><beam number="1">end</beam></note><backup><duration>6</duration></backup><note><pitch><step>F</step><octave>3</octave></pitch><duration>2</duration><voice>2</voice><type>quarter</type><staff>2</staff></note><note><chord/><pitch><step>A</step><octave>3</octave></pitch><duration>2</duration><voice>2</voice><type>quarter</type><staff>2</staff></note><note><chord/><pitch><step>C</step><octave>3</octave></pitch><duration>2</duration><voice>2</voice><type>quarter</type><staff>2</staff></note><note><pitch><step>A</step><octave>3</octave></pitch><duration>2</duration><voice>2</voice><type>quarter</type><staff>2</staff></note><note><pitch><step>B</step><alter>-1</alter><octave>3</octave></pitch><duration>2</duration><voice>2</voice><type>quarter</type><staff>2</staff></note></measure><measure number="11"><attributes/><note><pitch><step>F</step><octave>4</octave></pitch><duration>2</duration><voice>1</voice><type>quarter</type><staff>1</staff><lyric number="1"><syllabic>single</syllabic><text>bright</text></lyric><lyric number="2"><syllabic>begin</syllabic><text>Je</text></lyric><lyric number="3"><syllabic>begin</syllabic><text>chil</text></lyric></note><note><pitch><step>F</step><octave>4</octave></pitch><duration>2</duration><voice>1</voice><type>quarter</type><staff>1</staff><lyric number="1"><syllabic>single</syllabic><text>sky</text></lyric><lyric number="2"><syllabic>end</syllabic><text>sus</text></lyric><lyric number="3"><syllabic>end</syllabic><text>dren</text></lyric></note><note><pitch><step>A</step><octave>4</octave></pitch><duration>1</duration><voice>1</voice><type>eighth</type><staff>1</staff><beam number="1">begin</beam><lyric number="1"><syllabic>single</syllabic><text>look-</text></lyric><lyric number="2"><syllabic>begin</syllabic><text>look</text></lyric><lyric number="3"><syllabic>begin</syllabic><text>in</text></lyric></note><note><pitch><step>B</step><alter>-1</alter><octave>4</octave></pitch><duration>1</duration><voice>1</voice><type>eighth</type><staff>1</staff><beam number="1">end</beam><lyric number="1"><syllabic>single</syllabic><text>ed</text></lyric></note><backup><duration>6</duration></backup><note><pitch><step>F</step><octave>3</octave></pitch><duration>2</duration><voice>2</voice><type>quarter</type><staff>2</staff></note><note><chord/><pitch><step>A</step><octave>3</octave></pitch><duration>2</duration><voice>2</voice><type>quarter</type><staff>2</staff></note><note><chord/><pitch><step>C</step><octave>3</octave></pitch><duration>2</duration><voice>2</voice><type>quarter</type><staff>2</staff></note><note><pitch><step>A</step><octave>3</octave></pitch><duration>2</duration><voice>2</voice><type>quarter</type><staff>2</staff></note><note><pitch><step>C</step><octave>4</octave></pitch><duration>2</duration><voice>2</voice><type>quarter</type><staff>2</staff></note></measure><measure number="12"><attributes/><note><pitch><step>C</step><octave>5</octave></pitch><duration>2</duration><voice>1</voice><type>quarter</type><staff>1</staff><lyric number="1"><syllabic>single</syllabic><text>down</text></lyric><lyric number="2"><syllabic>single</syllabic><text>down</text></lyric><lyric number="3"><syllabic>single</syllabic><text>thy</text></lyric></note><note><pitch><step>C</step><octave>5</octave></pitch><duration>2</duration><voice>1</voice><type>quarter</type><staff>1</staff><lyric number="1"><syllabic>single</syllabic><text>where</text></lyric><lyric number="2"><syllabic>single</syllabic><text>from</text></lyric><lyric number="3"><syllabic>begin</syllabic><text>ten</text></lyric></note><note><pitch><step>D</step><octave>5</octave></pitch><duration>2</duration><voice>1</voice><type>quarter</type><staff>1</staff><lyric number="1"><syllabic>single</syllabic><text>he</text></lyric><lyric number="2"><syllabic>single</syllabic><text>the</text></lyric><lyric number="3"><syllabic>end</syllabic><text>der</text></lyric></note><backup><duration>6</duration></backup><note><pitch><step>F</step><octave>3</octave></pitch><duration>2</duration><voice>2</voice><type>quarter</type><staff>2</staff></note><note><chord/><pitch><step>A</step><octave>3</octave></pitch><duration>2</duration><voice>2</voice><type>quarter</type><staff>2</staff></note><note><chord/><pitch><step>C</step><octave>4</octave></pitch><duration>2</duration><voice>2</voice><type>quarter</type><staff>2</staff></note><note><pitch><step>A</step><octave>3</octave></pitch><duration>2</duration><voice>2</voice><type>quarter</type><staff>2</staff></note><note><pitch><step>B</step><alter>-1</alter><octave>3</octave></pitch><duration>2</duration><voice>2</voice><type>quarter</type><staff>2</staff></note></measure><measure number="13"><attributes/><note><pitch><step>B</step><alter>-1</alter><octave>4</octave></pitch><duration>4</duration><voice>1</voice><type>half</type><staff>1</staff><lyric number="1"><syllabic>single</syllabic><text>lay,</text></lyric><lyric number="2"><syllabic>single</syllabic><text>sky,</text></lyric><lyric number="3"><syllabic>single</syllabic><text>care,</text></lyric></note><note><pitch><step>G</step><octave>4</octave></pitch><duration>1</duration><voice>1</voice><type>eighth</type><staff>1</staff><beam number="1">begin</beam><lyric number="1"><syllabic>single</syllabic><text>The-</text></lyric><lyric number="2"><syllabic>begin</syllabic><text>And</text></lyric><lyric number="3"><syllabic>begin</syllabic><text>And</text></lyric></note><note><pitch><step>A</step><octave>4</octave></pitch><duration>1</duration><voice>1</voice><type>eighth</type><staff>1</staff><beam number="1">end</beam></note><backup><duration>6</duration></backup><note><pitch><step>C</step><octave>3</octave></pitch><duration>4</duration><voice>2</voice><type>half</type><staff>2</staff></note><note><chord/><pitch><step>E</step><octave>3</octave></pitch><duration>4</duration><voice>2</voice><type>half</type><staff>2</staff></note><note><chord/><pitch><step>G</step><octave>3</octave></pitch><duration>4</duration><voice>2</voice><type>half</type><staff>2</staff></note><note><pitch><step>B</step><alter>-1</alter><octave>3</octave></pitch><duration>2</duration><voice>2</voice><type>quarter</type><staff>2</staff></note></measure><measure number="14"><attributes/><note><pitch><step>B</step><alter>-1</alter><octave>4</octave></pitch><duration>2</duration><voice>1</voice><type>quarter</type><staff>1</staff><lyric number="1"><syllabic>single</syllabic><text>lit-</text></lyric><lyric number="2"><syllabic>single</syllabic><text>stay</text></lyric><lyric number="3"><syllabic>single</syllabic><text>fit</text></lyric></note><note><pitch><step>B</step><alter>-1</alter><octave>4</octave></pitch><duration>2</duration><voice>1</voice><type>quarter</type><staff>1</staff><lyric number="1"><syllabic>single</syllabic><text>tle</text></lyric><lyric number="2"><syllabic>single</syllabic><text>by</text></lyric><lyric number="3"><syllabic>single</syllabic><text>us</text></lyric></note><note><pitch><step>C</step><octave>5</octave></pitch><duration>2</duration><voice>1</voice><type>quarter</type><staff>1</staff><lyric number="1"><syllabic>single</syllabic><text>lord</text></lyric><lyric number="2"><syllabic>single</syllabic><text>my</text></lyric><lyric number="3"><syllabic>single</syllabic><text>for</text></lyric></note><backup><duration>6</duration></backup><note><pitch><step>D</step><octave>3</octave></pitch><duration>2</duration><voice>2</voice><type>quarter</type><staff>2</staff></note><note><chord/><pitch><step>F</step><octave>3</octave></pitch><duration>2</duration><voice>2</voice><type>quarter</type><staff>2</staff></note><note><chord/><pitch><step>B</step><alter>-1</alter><octave>3</octave></pitch><duration>2</duration><voice>2</voice><type>quarter</type><staff>2</staff></note><note><pitch><step>F</step><octave>3</octave></pitch><duration>2</duration><voice>2</voice><type>quarter</type><staff>2</staff></note><note><pitch><step>G</step><octave>3</octave></pitch><duration>2</duration><voice>2</voice><type>quarter</type><staff>2</staff></note></measure><measure number="15"><attributes/><note><pitch><step>A</step><octave>4</octave></pitch><duration>2</duration><voice>1</voice><type>quarter</type><staff>1</staff><lyric number="1"><syllabic>single</syllabic><text>Je-</text></lyric><lyric number="2"><syllabic>single</syllabic><text>side</text></lyric><lyric number="3"><syllabic>begin</syllabic><text>hea</text></lyric></note><note><pitch><step>A</step><octave>4</octave></pitch><duration>2</duration><voice>1</voice><type>quarter</type><staff>1</staff><lyric number="1"><syllabic>single</syllabic><text>sus</text></lyric><lyric number="2"><syllabic>begin</syllabic><text>un</text></lyric><lyric number="3"><syllabic>end</syllabic><text>ven</text></lyric></note><note><pitch><step>F</step><octave>4</octave></pitch><duration>1</duration><voice>1</voice><type>eighth</type><staff>1</staff><beam number="1">begin</beam><lyric number="1"><syllabic>single</syllabic><text>a-</text></lyric><lyric number="2"><syllabic>middle</syllabic><text>til</text></lyric><lyric number="3"><syllabic>begin</syllabic><text>to</text></lyric></note><note><pitch><step>A</step><octave>4</octave></pitch><duration>1</duration><voice>1</voice><type>eighth</type><staff>1</staff><beam number="1">end</beam></note><backup><duration>6</duration></backup><note><pitch><step>F</step><octave>3</octave></pitch><duration>2</duration><voice>2</voice><type>quarter</type><staff>2</staff></note><note><chord/><pitch><step>A</step><octave>3</octave></pitch><duration>2</duration><voice>2</voice><type>quarter</type><staff>2</staff></note><note><chord/><pitch><step>C</step><octave>4</octave></pitch><duration>2</duration><voice>2</voice><type>quarter</type><staff>2</staff></note><note><pitch><step>C</step><octave>4</octave></pitch><duration>2</duration><voice>2</voice><type>quarter</type><staff>2</staff></note><note><pitch><step>A</step><octave>3</octave></pitch><duration>2</duration><voice>2</voice><type>quarter</type><staff>2</staff></note></measure><measure number="16"><attributes/><note><pitch><step>G</step><octave>4</octave></pitch><duration>2</duration><voice>1</voice><type>quarter</type><staff>1</staff><lyric number="1"><syllabic>single</syllabic><text>sleep</text></lyric><lyric number="2"><syllabic>begin</syllabic><text>morn</text></lyric><lyric number="3"><syllabic>single</syllabic><text>live</text></lyric></note><note><pitch><step>D</step><octave>4</octave></pitch><duration>2</duration><voice>1</voice><type>quarter</type><staff>1</staff><lyric number="1"><syllabic>single</syllabic><text>on</text></lyric><lyric number="2"><syllabic>end</syllabic><text>ing</text></lyric><lyric number="3"><syllabic>single</syllabic><text>with</text></lyric></note><note><pitch><step>E</step><octave>4</octave></pitch><duration>2</duration><voice>1</voice><type>quarter</type><staff>1</staff><lyric number="1"><syllabic>single</syllabic><text>the</text></lyric><lyric number="2"><syllabic>single</syllabic><text>is</text></lyric><lyric number="3"><syllabic>single</syllabic><text>thee</text></lyric></note><backup><duration>6</duration></backup><note><pitch><step>D</step><octave>3</octave></pitch><duration>2</duration><voice>2</voice><type>quarter</type><staff>2</staff></note><note><chord/><pitch><step>G</step><octave>3</octave></pitch><duration>2</duration><voice>2</voice><type>quarter</type><staff>2</staff></note><note><chord/><pitch><step>B</step><alter>-1</alter><octave>3</octave></pitch><duration>2</duration><voice>2</voice><type>quarter</type><staff>2</staff></note><note><pitch><step>F</step><octave>3</octave></pitch><duration>2</duration><voice>2</voice><type>quarter</type><staff>2</staff></note><note><pitch><step>G</step><octave>3</octave></pitch><duration>2</duration><voice>2</voice><type>quarter</type><staff>2</staff></note></measure><measure number="17"><barline location="left"><bar-style>regular</bar-style><ending number="1" type="start"/></barline><attributes/><note><pitch><step>F</step><octave>4</octave></pitch><duration>4</duration><voice>1</voice><type>half</type><staff>1</staff><lyric number="1"><syllabic>single</syllabic><text>hay,</text></lyric><lyric number="2"><syllabic>single</syllabic><text>nigh.</text></lyric></note><note><pitch><step>C</step><octave>4</octave></pitch><duration>2</duration><voice>1</voice><type>quarter</type><staff>1</staff><lyric number="1"><syllabic>single</syllabic><text>The</text></lyric><lyric number="2"><syllabic>single</syllabic><text>Be</text></lyric></note><backup><duration>6</duration></backup><note><pitch><step>F</step><octave>3</octave></pitch><duration>6</duration><voice>2</voice><type>half</type><dot/><staff>2</staff></note><note><chord/><pitch><step>A</step><octave>3</octave></pitch><duration>6</duration><voice>2</voice><type>half</type><dot/><staff>2</staff></note><note><chord/><pitch><step>C</step><octave>4</octave></pitch><duration>6</duration><voice>2</voice><type>half</type><dot/><staff>2</staff></note><barline location="right"><bar-style>light-heavy</bar-style><ending number="1" type="stop"/><repeat direction="backward" times="1" winged="none"/></barline></measure><measure number="18"><barline location="left"><bar-style>regular</bar-style><ending number="2" type="start"/></barline><attributes/><note><pitch><step>F</step><octave>4</octave></pitch><duration>6</duration><voice>1</voice><type>half</type><dot/><staff>1</staff><lyric number="3"><syllabic>single</syllabic><text>there</text></lyric></note><backup><duration>6</duration></backup><note><pitch><step>C</step><octave>4</octave></pitch><duration>6</duration><voice>2</voice><type>half</type><dot/><staff>2</staff></note><note><chord/><pitch><step>F</step><octave>3</octave></pitch><duration>6</duration><voice>2</voice><type>half</type><dot/><staff>2</staff></note><note><chord/><pitch><step>A</step><octave>3</octave></pitch><duration>6</duration><voice>2</voice><type>half</type><dot/><staff>2</staff></note><barline location="right"><bar-style>light-heavy</bar-style><ending number="2" type="stop"/></barline></measure></part></score-partwise>