<?xml version="1.0" encoding="UTF-8" standalone="no"?><!DOCTYPE score-partwise PUBLIC "-//Recordare//DTD MusicXML 3.1 Partwise//EN" "http://www.musicxml.org/dtds/partwise.dtd"><score-partwise version="3.1"><identification><creator type="composer">Traditional</creator><creator type="lyricist">Lyrics by Thomas Oliphant</creator><rights>CC0 - Public Domain</rights><encoding><software>Flat</software><encoding-date>2020-05-04</encoding-date></encoding><source>https://flat.io/score/5d7415208946ab542ec86a75-deck-the-halls</source></identification><defaults><scaling><millimeters>7</millimeters><tenths>40</tenths></scaling><page-layout><page-height>1697.142857142857</page-height><page-width>1200</page-width><page-margins type="both"><left-margin>98.28571428571429</left-margin><right-margin>98.28571428571429</right-margin><top-margin>98.28571428571429</top-margin><bottom-margin>98.28571428571429</bottom-margin></page-margins></page-layout><system-layout><system-distance>115.2</system-distance></system-layout><staff-layout><staff-distance>72.57142857142857</staff-distance></staff-layout></defaults><credit><credit-type>title</credit-type><credit-words>Deck The Halls</credit-words></credit><credit><credit-type>subtitle</credit-type><credit-words>Arranged by Aliese Watts 2019</credit-words></credit><part-list><score-part id="P1"><part-name>Piano</part-name><part-abbreviation>Pno.</part-abbreviation><score-instrument id="P1-I1"><instrument-name>Piano</instrument-name></score-instrument><midi-instrument id="P1-I1"><midi-channel>1</midi-channel><midi-program>1</midi-program><volume>100</volume></midi-instrument></score-part></part-list><part id="P1"><measure number="1"><attributes><divisions>2</divisions><key><fifths>0</fifths></key><time><beats>4</beats><beat-type>4</beat-type></time><staves>2</staves><clef number="1"><sign>G</sign><line>2</line></clef><clef number="2"><sign>F</sign><line>4</line></clef><staff-details><staff-lines>5</staff-lines></staff-details></attributes><sound tempo="135"/><sound/><direction placement="above"><direction-type><metronome><beat-unit>quarter</beat-unit><per-minute>135</per-minute></metronome></direction-type><staff>1</staff></direction><note><pitch><step>G</step><octave>4</octave></pitch><duration>3</duration><voice>1</voice><type>quarter</type><dot/><staff>1</staff><lyric number="1"><syllabic>single</syllabic><text>Deck</text></lyric><lyric number="2"><syllabic>single</syllabic><text>See</text></lyric><lyric number="3"><syllabic>single</syllabic><text>Fast</text></lyric></note><note><pitch><step>F</step><octave>4</octave></pitch><duration>1</duration><voice>1</voice><type>eighth</type><staff>1</staff><lyric number="1"><syllabic>single</syllabic><text>the</text></lyric><lyric number="2"><syllabic>single</syllabic><text>the</text></lyric><lyric number="3"><syllabic>begin</syllabic><text>a</text></lyric></note><note><pitch><step>E</step><octave>4</octave></pitch><duration>2</duration><voice>1</voice><type>quarter</type><staff>1</staff><lyric number="1"><syllabic>single</syllabic><text>halls</text></lyric><lyric number="2"><syllabic>begin</syllabic><text>blaz</text></lyric><lyric number="3"><syllabic>end</syllabic><text>way</text></lyric></note><note><pitch><step>D</step><octave>4</octave></pitch><duration>2</duration><voice>1</voice><type>quarter</type><staff>1</staff><lyric number="1"><syllabic>single</syllabic><text>with</text></lyric><lyric number="2"><syllabic>end</syllabic><text>ing</text></lyric><lyric number="3"><syllabic>single</syllabic><text>the</text></lyric></note><backup><duration>8</duration></backup><note><pitch><step>C</step><octave>3</octave></pitch><duration>4</duration><voice>2</voice><type>half</type><staff>2</staff></note><note><pitch><step>G</step><octave>3</octave></pitch><duration>4</duration><voice>2</voice><type>half</type><staff>2</staff></note></measure><measure number="2"><attributes/><note><pitch><step>C</step><octave>4</octave></pitch><duration>2</duration><voice>1</voice><type>quarter</type><staff>1</staff><lyric number="1"><syllabic>single</syllabic><text>boughs</text></lyric><lyric number="2"><syllabic>single</syllabic><text>yule</text></lyric><lyric number="3"><syllabic>single</syllabic><text>new</text></lyric></note><note><pitch><step>D</step><octave>4</octave></pitch><duration>2</duration><voice>1</voice><type>quarter</type><staff>1</staff><lyric number="1"><syllabic>single</syllabic><text>of</text></lyric><lyric number="2"><syllabic>begin</syllabic><text>be</text></lyric><lyric number="3"><syllabic>single</syllabic><text>year</text></lyric></note><note><pitch><step>E</step><octave>4</octave></pitch><duration>2</duration><voice>1</voice><type>quarter</type><staff>1</staff><lyric number="1"><syllabic>single</syllabic><text>ho-</text></lyric><lyric number="2"><syllabic>middle</syllabic><text>fore</text></lyric><lyric number="3"><syllabic>begin</syllabic><text>pass</text></lyric></note><note><pitch><step>C</step><octave>4</octave></pitch><duration>2</duration><voice>1</voice><type>quarter</type><staff>1</staff><lyric number="1"><syllabic>single</syllabic><text>ly,</text></lyric><lyric number="2"><syllabic>end</syllabic><text>us,</text></lyric><lyric number="3"><syllabic>end</syllabic><text>es,</text></lyric></note><backup><duration>8</duration></backup><note><pitch><step>C</step><octave>3</octave></pitch><duration>4</duration><voice>2</voice><type>half</type><staff>2</staff></note><note><pitch><step>G</step><octave>3</octave></pitch><duration>4</duration><voice>2</voice><type>half</type><staff>2</staff></note></measure><measure number="3"><attributes><divisions>4</divisions></attributes><note><pitch><step>D</step><octave>4</octave></pitch><duration>2</duration><voice>1</voice><type>eighth</type><staff>1</staff><beam number="1">begin</beam><lyric number="1"><syllabic>single</syllabic><text>Fa</text></lyric></note><note><pitch><step>E</step><octave>4</octave></pitch><duration>2</duration><voice>1</voice><type>eighth</type><staff>1</staff><beam number="1">end</beam><lyric number="1"><syllabic>single</syllabic><text>la</text></lyric></note><note><pitch><step>F</step><octave>4</octave></pitch><duration>2</duration><voice>1</voice><type>eighth</type><staff>1</staff><beam number="1">begin</beam><lyric number="1"><syllabic>single</syllabic><text>la</text></lyric></note><note><pitch><step>D</step><octave>4</octave></pitch><duration>2</duration><voice>1</voice><type>eighth</type><staff>1</staff><beam number="1">end</beam><lyric number="1"><syllabic>single</syllabic><text>la</text></lyric></note><note><pitch><step>E</step><octave>4</octave></pitch><duration>6</duration><voice>1</voice><type>quarter</type><dot/><staff>1</staff><lyric number="1"><syllabic>single</syllabic><text>la,</text></lyric></note><note><pitch><step>D</step><octave>4</octave></pitch><duration>2</duration><voice>1</voice><type>eighth</type><staff>1</staff><lyric number="1"><syllabic>single</syllabic><text>La</text></lyric></note><backup><duration>16</duration></backup><note><pitch><step>G</step><octave>2</octave></pitch><duration>8</duration><voice>2</voice><type>half</type><staff>2</staff></note><note><pitch><step>C</step><octave>3</octave></pitch><duration>8</duration><voice>2</voice><type>half</type><staff>2</staff></note><note><chord/><pitch><step>G</step><octave>3</octave></pitch><duration>8</duration><voice>2</voice><type>half</type><staff>2</staff></note></measure><measure number="4"><attributes/><note><pitch><step>C</step><octave>4</octave></pitch><duration>4</duration><voice>1</voice><type>quarter</type><staff>1</staff><lyric number="1"><syllabic>single</syllabic><text>la</text></lyric></note><note><pitch><step>B</step><octave>3</octave></pitch><duration>4</duration><voice>1</voice><type>quarter</type><staff>1</staff><lyric number="1"><syllabic>single</syllabic><text>la</text></lyric></note><note><pitch><step>C</step><octave>4</octave></pitch><duration>8</duration><voice>1</voice><type>half</type><staff>1</staff><lyric number="1"><syllabic>single</syllabic><text>la,</text></lyric></note><backup><duration>16</duration></backup><note><pitch><step>C</step><octave>3</octave></pitch><duration>8</duration><voice>2</voice><type>half</type><staff>2</staff></note><note><pitch><step>C</step><octave>2</octave></pitch><duration>8</duration><voice>2</voice><type>half</type><staff>2</staff></note><note><chord/><pitch><step>C</step><octave>3</octave></pitch><duration>8</duration><voice>2</voice><type>half</type><staff>2</staff></note></measure><measure number="5"><attributes/><note><pitch><step>G</step><octave>4</octave></pitch><duration>6</duration><voice>1</voice><type>quarter</type><dot/><staff>1</staff><lyric number="1"><syllabic>single</syllabic><text>'Tis</text></lyric><lyric number="2"><syllabic>single</syllabic><text>Strike</text></lyric><lyric number="3"><syllabic>single</syllabic><text>Hail</text></lyric></note><note><pitch><step>F</step><octave>4</octave></pitch><duration>2</duration><voice>1</voice><type>eighth</type><staff>1</staff><lyric number="1"><syllabic>single</syllabic><text>the</text></lyric><lyric number="2"><syllabic>single</syllabic><text>the</text></lyric><lyric number="3"><syllabic>single</syllabic><text>the</text></lyric></note><note><pitch><step>E</step><octave>4</octave></pitch><duration>4</duration><voice>1</voice><type>quarter</type><staff>1</staff><lyric number="1"><syllabic>single</syllabic><text>sea-</text></lyric><lyric number="2"><syllabic>single</syllabic><text>harp</text></lyric><lyric number="3"><syllabic>single</syllabic><text>new</text></lyric></note><note><pitch><step>D</step><octave>4</octave></pitch><duration>4</duration><voice>1</voice><type>quarter</type><staff>1</staff><lyric number="1"><syllabic>single</syllabic><text>son</text></lyric><lyric number="2"><syllabic>single</syllabic><text>and</text></lyric><lyric number="3"><syllabic>single</syllabic><text>year,</text></lyric></note><backup><duration>16</duration></backup><note><pitch><step>C</step><octave>3</octave></pitch><duration>8</duration><voice>2</voice><type>half</type><staff>2</staff></note><note><pitch><step>G</step><octave>3</octave></pitch><duration>8</duration><voice>2</voice><type>half</type><staff>2</staff></note></measure><measure number="6"><attributes/><note><pitch><step>C</step><octave>4</octave></pitch><duration>4</duration><voice>1</voice><type>quarter</type><staff>1</staff><lyric number="1"><syllabic>single</syllabic><text>to</text></lyric><lyric number="2"><syllabic>single</syllabic><text>join</text></lyric><lyric number="3"><syllabic>single</syllabic><text>lads</text></lyric></note><note><pitch><step>D</step><octave>4</octave></pitch><duration>4</duration><voice>1</voice><type>quarter</type><staff>1</staff><lyric number="1"><syllabic>single</syllabic><text>be</text></lyric><lyric number="2"><syllabic>single</syllabic><text>the</text></lyric><lyric number="3"><syllabic>single</syllabic><text>and</text></lyric></note><note><pitch><step>E</step><octave>4</octave></pitch><duration>4</duration><voice>1</voice><type>quarter</type><staff>1</staff><lyric number="1"><syllabic>single</syllabic><text>jol-</text></lyric><lyric number="2"><syllabic>begin</syllabic><text>cho</text></lyric><lyric number="3"><syllabic>begin</syllabic><text>lass</text></lyric></note><note><pitch><step>C</step><octave>4</octave></pitch><duration>4</duration><voice>1</voice><type>quarter</type><staff>1</staff><lyric number="1"><syllabic>single</syllabic><text>ly,</text></lyric><lyric number="2"><syllabic>end</syllabic><text>rus,</text></lyric><lyric number="3"><syllabic>end</syllabic><text>es</text></lyric></note><backup><duration>16</duration></backup><note><pitch><step>C</step><octave>3</octave></pitch><duration>8</duration><voice>2</voice><type>half</type><staff>2</staff></note><note><pitch><step>G</step><octave>3</octave></pitch><duration>8</duration><voice>2</voice><type>half</type><staff>2</staff></note></measure><measure number="7"><attributes/><note><pitch><step>D</step><octave>4</octave></pitch><duration>2</duration><voice>1</voice><type>eighth</type><staff>1</staff><beam number="1">begin</beam><lyric number="1"><syllabic>single</syllabic><text>Fa</text></lyric></note><note><pitch><step>E</step><octave>4</octave></pitch><duration>2</duration><voice>1</voice><type>eighth</type><staff>1</staff><beam number="1">end</beam><lyric number="1"><syllabic>single</syllabic><text>la</text></lyric></note><note><pitch><step>F</step><octave>4</octave></pitch><duration>2</duration><voice>1</voice><type>eighth</type><staff>1</staff><beam number="1">begin</beam><lyric number="1"><syllabic>single</syllabic><text>la</text></lyric></note><note><pitch><step>D</step><octave>4</octave></pitch><duration>2</duration><voice>1</voice><type>eighth</type><staff>1</staff><beam number="1">end</beam><lyric number="1"><syllabic>single</syllabic><text>la</text></lyric></note><note><pitch><step>E</step><octave>4</octave></pitch><duration>6</duration><voice>1</voice><type>quarter</type><dot/><staff>1</staff><lyric number="1"><syllabic>single</syllabic><text>la,</text></lyric></note><note><pitch><step>D</step><octave>4</octave></pitch><duration>2</duration><voice>1</voice><type>eighth</type><staff>1</staff><lyric number="1"><syllabic>single</syllabic><text>La</text></lyric></note><backup><duration>16</duration></backup><note><pitch><step>G</step><octave>2</octave></pitch><duration>8</duration><voice>2</voice><type>half</type><staff>2</staff></note><note><pitch><step>G</step><octave>3</octave></pitch><duration>8</duration><voice>2</voice><type>half</type><staff>2</staff></note><note><chord/><pitch><step>C</step><octave>3</octave></pitch><duration>8</duration><voice>2</voice><type>half</type><staff>2</staff></note></measure><measure number="8"><attributes/><note><pitch><step>C</step><octave>4</octave></pitch><duration>4</duration><voice>1</voice><type>quarter</type><staff>1</staff><lyric number="1"><syllabic>single</syllabic><text>la</text></lyric></note><note><pitch><step>B</step><octave>3</octave></pitch><duration>4</duration><voice>1</voice><type>quarter</type><staff>1</staff><lyric number="1"><syllabic>single</syllabic><text>la</text></lyric></note><note><pitch><step>C</step><octave>4</octave></pitch><duration>8</duration><voice>1</voice><type>half</type><staff>1</staff><lyric number="1"><syllabic>single</syllabic><text>la,</text></lyric></note><backup><duration>16</duration></backup><note><pitch><step>C</step><octave>3</octave></pitch><duration>8</duration><voice>2</voice><type>half</type><staff>2</staff></note><note><pitch><step>C</step><octave>2</octave></pitch><duration>8</duration><voice>2</voice><type>half</type><staff>2</staff></note><note><chord/><pitch><step>C</step><octave>3</octave></pitch><duration>8</duration><voice>2</voice><type>half</type><staff>2</staff></note></measure><measure number="9"><attributes/><note><pitch><step>D</step><octave>4</octave></pitch><duration>6</duration><voice>1</voice><type>quarter</type><dot/><staff>1</staff><lyric number="1"><syllabic>single</syllabic><text>Don</text></lyric><lyric number="2"><syllabic>begin</syllabic><text>Fol</text></lyric><lyric number="3"><syllabic>single</syllabic><text>Sing</text></lyric></note><note><pitch><step>E</step><octave>4</octave></pitch><duration>2</duration><voice>1</voice><type>eighth</type><staff>1</staff><lyric number="1"><syllabic>single</syllabic><text>we</text></lyric><lyric number="2"><syllabic>end</syllabic><text>low</text></lyric><lyric number="3"><syllabic>single</syllabic><text>we</text></lyric></note><note><pitch><step>F</step><octave>4</octave></pitch><duration>4</duration><voice>1</voice><type>quarter</type><staff>1</staff><lyric number="1"><syllabic>single</syllabic><text>now</text></lyric><lyric number="2"><syllabic>single</syllabic><text>me</text></lyric><lyric number="3"><syllabic>begin</syllabic><text>joy</text></lyric></note><note><pitch><step>D</step><octave>4</octave></pitch><duration>4</duration><voice>1</voice><type>quarter</type><staff>1</staff><lyric number="1"><syllabic>single</syllabic><text>our</text></lyric><lyric number="2"><syllabic>single</syllabic><text>in</text></lyric><lyric number="3"><syllabic>end</syllabic><text>ous</text></lyric></note><backup><duration>16</duration></backup><note><pitch><step>G</step><octave>3</octave></pitch><duration>8</duration><voice>2</voice><type>half</type><staff>2</staff></note><note><pitch><step>G</step><octave>2</octave></pitch><duration>8</duration><voice>2</voice><type>half</type><staff>2</staff></note></measure><measure number="10"><attributes/><note><pitch><step>E</step><octave>4</octave></pitch><duration>6</duration><voice>1</voice><type>quarter</type><dot/><staff>1</staff><lyric number="1"><syllabic>single</syllabic><text>gay</text></lyric><lyric number="2"><syllabic>begin</syllabic><text>mer</text></lyric><lyric number="3"><syllabic>single</syllabic><text>all</text></lyric></note><note><pitch><step>F</step><octave>4</octave></pitch><duration>2</duration><voice>1</voice><type>eighth</type><staff>1</staff><lyric number="1"><syllabic>single</syllabic><text>a-</text></lyric><lyric number="2"><syllabic>end</syllabic><text>ry</text></lyric><lyric number="3"><syllabic>begin</syllabic><text>to</text></lyric></note><note><pitch><step>G</step><octave>4</octave></pitch><duration>4</duration><voice>1</voice><type>quarter</type><staff>1</staff><lyric number="1"><syllabic>single</syllabic><text>pa-</text></lyric><lyric number="2"><syllabic>begin</syllabic><text>mea</text></lyric><lyric number="3"><syllabic>middle</syllabic><text>geth</text></lyric></note><note><pitch><step>E</step><octave>4</octave></pitch><duration>4</duration><voice>1</voice><type>quarter</type><staff>1</staff><lyric number="1"><syllabic>single</syllabic><text>rel,</text></lyric><lyric number="2"><syllabic>end</syllabic><text>sure,</text></lyric><lyric number="3"><syllabic>end</syllabic><text>er,</text></lyric></note><backup><duration>16</duration></backup><note><pitch><step>C</step><octave>3</octave></pitch><duration>8</duration><voice>2</voice><type>half</type><staff>2</staff></note><note><pitch><step>C</step><octave>2</octave></pitch><duration>8</duration><voice>2</voice><type>half</type><staff>2</staff></note></measure><measure number="11"><attributes/><note><pitch><step>E</step><octave>4</octave></pitch><duration>2</duration><voice>1</voice><type>eighth</type><staff>1</staff><beam number="1">begin</beam><lyric number="1"><syllabic>single</syllabic><text>Fa</text></lyric></note><note><pitch><step>F</step><alter>1</alter><octave>4</octave></pitch><duration>2</duration><voice>1</voice><type>eighth</type><accidental>sharp</accidental><staff>1</staff><beam number="1">end</beam><lyric number="1"><syllabic>single</syllabic><text>la</text></lyric></note><note><pitch><step>G</step><octave>4</octave></pitch><duration>4</duration><voice>1</voice><type>quarter</type><staff>1</staff><lyric number="1"><syllabic>single</syllabic><text>la,</text></lyric></note><note><pitch><step>A</step><octave>4</octave></pitch><duration>2</duration><voice>1</voice><type>eighth</type><staff>1</staff><beam number="1">begin</beam><lyric number="1"><syllabic>single</syllabic><text>La</text></lyric></note><note><pitch><step>B</step><octave>4</octave></pitch><duration>2</duration><voice>1</voice><type>eighth</type><staff>1</staff><beam number="1">end</beam><lyric number="1"><syllabic>single</syllabic><text>la</text></lyric></note><note><pitch><step>C</step><octave>5</octave></pitch><duration>4</duration><voice>1</voice><type>quarter</type><staff>1</staff><lyric number="1"><syllabic>single</syllabic><text>la,</text></lyric></note><backup><duration>16</duration></backup><note><pitch><step>C</step><octave>3</octave></pitch><duration>8</duration><voice>2</voice><type>half</type><staff>2</staff></note><note><pitch><step>F</step><octave>3</octave></pitch><duration>8</duration><voice>2</voice><type>half</type><staff>2</staff></note></measure><measure number="12"><attributes/><note><pitch><step>B</step><octave>4</octave></pitch><duration>4</duration><voice>1</voice><type>quarter</type><staff>1</staff><lyric number="1"><syllabic>single</syllabic><text>La</text></lyric></note><note><pitch><step>A</step><octave>4</octave></pitch><duration>4</duration><voice>1</voice><type>quarter</type><staff>1</staff><lyric number="1"><syllabic>single</syllabic><text>la</text></lyric></note><note><pitch><step>G</step><octave>4</octave></pitch><duration>8</duration><voice>1</voice><type>half</type><staff>1</staff><lyric number="1"><syllabic>single</syllabic><text>la,</text></lyric></note><backup><duration>16</duration></backup><note><pitch><step>G</step><octave>3</octave></pitch><duration>8</duration><voice>2</voice><type>half</type><staff>2</staff></note><note><pitch><step>C</step><octave>3</octave></pitch><duration>8</duration><voice>2</voice><type>half</type><staff>2</staff></note></measure><measure number="13"><attributes/><note><pitch><step>G</step><octave>4</octave></pitch><duration>6</duration><voice>1</voice><type>quarter</type><dot/><staff>1</staff><lyric number="1"><syllabic>single</syllabic><text>Troll</text></lyric><lyric number="2"><syllabic>single</syllabic><text>While</text></lyric><lyric number="3"><syllabic>begin</syllabic><text>Heed</text></lyric></note><note><pitch><step>F</step><octave>4</octave></pitch><duration>2</duration><voice>1</voice><type>eighth</type><staff>1</staff><lyric number="1"><syllabic>single</syllabic><text>the</text></lyric><lyric number="2"><syllabic>single</syllabic><text>I</text></lyric><lyric number="3"><syllabic>end</syllabic><text>lessl</text></lyric></note><note><pitch><step>E</step><octave>4</octave></pitch><duration>4</duration><voice>1</voice><type>quarter</type><staff>1</staff><lyric number="1"><syllabic>single</syllabic><text>an-</text></lyric><lyric number="2"><syllabic>single</syllabic><text>tell</text></lyric><lyric number="3"><syllabic>single</syllabic><text>of</text></lyric></note><note><pitch><step>D</step><octave>4</octave></pitch><duration>4</duration><voice>1</voice><type>quarter</type><staff>1</staff><lyric number="1"><syllabic>single</syllabic><text>cient</text></lyric><lyric number="2"><syllabic>single</syllabic><text>of</text></lyric><lyric number="3"><syllabic>single</syllabic><text>the</text></lyric></note><backup><duration>16</duration></backup><note><pitch><step>C</step><octave>3</octave></pitch><duration>8</duration><voice>2</voice><type>half</type><staff>2</staff></note><note><pitch><step>G</step><octave>3</octave></pitch><duration>8</duration><voice>2</voice><type>half</type><staff>2</staff></note></measure><measure number="14"><attributes/><note><pitch><step>E</step><octave>4</octave></pitch><duration>6</duration><voice>1</voice><type>quarter</type><dot/><staff>1</staff><lyric number="1"><syllabic>single</syllabic><text>Yule-</text></lyric><lyric number="2"><syllabic>begin</syllabic><text>Yule</text></lyric><lyric number="3"><syllabic>single</syllabic><text>wind</text></lyric></note><note><pitch><step>F</step><octave>4</octave></pitch><duration>2</duration><voice>1</voice><type>eighth</type><staff>1</staff><lyric number="1"><syllabic>single</syllabic><text>tide</text></lyric><lyric number="2"><syllabic>end</syllabic><text>tide</text></lyric><lyric number="3"><syllabic>single</syllabic><text>and</text></lyric></note><note><pitch><step>G</step><octave>4</octave></pitch><duration>4</duration><voice>1</voice><type>quarter</type><staff>1</staff><lyric number="1"><syllabic>single</syllabic><text>Ca-</text></lyric><lyric number="2"><syllabic>begin</syllabic><text>trea</text></lyric><lyric number="3"><syllabic>begin</syllabic><text>wea</text></lyric></note><note><pitch><step>E</step><octave>4</octave></pitch><duration>4</duration><voice>1</voice><type>quarter</type><staff>1</staff><lyric number="1"><syllabic>single</syllabic><text>rol,</text></lyric><lyric number="2"><syllabic>end</syllabic><text>sure,</text></lyric><lyric number="3"><syllabic>end</syllabic><text>ther,</text></lyric></note><backup><duration>16</duration></backup><note><pitch><step>C</step><octave>3</octave></pitch><duration>8</duration><voice>2</voice><type>half</type><staff>2</staff></note><note><pitch><step>C</step><octave>4</octave></pitch><duration>8</duration><voice>2</voice><type>half</type><staff>2</staff></note></measure><measure number="15"><attributes/><note><pitch><step>A</step><octave>4</octave></pitch><duration>2</duration><voice>1</voice><type>eighth</type><staff>1</staff><beam number="1">begin</beam><lyric number="1"><syllabic>single</syllabic><text>Fa</text></lyric></note><note><pitch><step>A</step><octave>4</octave></pitch><duration>2</duration><voice>1</voice><type>eighth</type><staff>1</staff><beam number="1">end</beam><lyric number="1"><syllabic>single</syllabic><text>la</text></lyric></note><note><pitch><step>A</step><octave>4</octave></pitch><duration>2</duration><voice>1</voice><type>eighth</type><staff>1</staff><beam number="1">begin</beam><lyric number="1"><syllabic>single</syllabic><text>la</text></lyric></note><note><pitch><step>A</step><octave>4</octave></pitch><duration>2</duration><voice>1</voice><type>eighth</type><staff>1</staff><beam number="1">end</beam><lyric number="1"><syllabic>single</syllabic><text>la</text></lyric></note><note><pitch><step>G</step><octave>4</octave></pitch><duration>6</duration><voice>1</voice><type>quarter</type><dot/><staff>1</staff><lyric number="1"><syllabic>single</syllabic><text>la,</text></lyric></note><note><pitch><step>F</step><octave>4</octave></pitch><duration>2</duration><voice>1</voice><type>eighth</type><staff>1</staff><lyric number="1"><syllabic>single</syllabic><text>La</text></lyric></note><backup><duration>16</duration></backup><note><pitch><step>F</step><octave>3</octave></pitch><duration>8</duration><voice>2</voice><type>half</type><staff>2</staff></note><note><pitch><step>C</step><octave>4</octave></pitch><duration>8</duration><voice>2</voice><type>half</type><staff>2</staff></note></measure><measure number="16"><attributes/><note><pitch><step>E</step><octave>4</octave></pitch><duration>4</duration><voice>1</voice><type>quarter</type><staff>1</staff><lyric number="1"><syllabic>single</syllabic><text>la</text></lyric></note><note><pitch><step>D</step><octave>4</octave></pitch><duration>4</duration><voice>1</voice><type>quarter</type><staff>1</staff><lyric number="1"><syllabic>single</syllabic><text>la</text></lyric></note><note><pitch><step>C</step><octave>4</octave></pitch><duration>8</duration><voice>1</voice><type>half</type><staff>1</staff><lyric number="1"><syllabic>single</syllabic><text>la.</text></lyric></note><backup><duration>16</duration></backup><note><pitch><step>C</step><octave>3</octave></pitch><duration>8</duration><voice>2</voice><type>half</type><staff>2</staff></note><note><pitch><step>C</step><octave>3</octave></pitch><duration>8</duration><voice>2</voice><type>half</type><staff>2</staff></note><note><chord/><pitch><step>C</step><octave>2</octave></pitch><duration>8</duration><voice>2</voice><type>half</type><staff>2</staff></note><barline location="right"><bar-style>light-heavy</bar-style><repeat direction="backward" times="1" winged="none"/></barline></measure><measure number="17"><attributes/><note><pitch><step>A</step><octave>4</octave></pitch><duration>4</duration><voice>1</voice><type>quarter</type><staff>1</staff><lyric number="1"><syllabic>single</syllabic><text>Fa</text></lyric></note><note><pitch><step>A</step><octave>4</octave></pitch><duration>4</duration><voice>1</voice><type>quarter</type><staff>1</staff><lyric number="1"><syllabic>single</syllabic><text>la</text></lyric></note><note><pitch><step>A</step><octave>4</octave></pitch><duration>4</duration><voice>1</voice><type>quarter</type><staff>1</staff><lyric number="1"><syllabic>single</syllabic><text>la</text></lyric></note><note><pitch><step>A</step><octave>4</octave></pitch><duration>4</duration><voice>1</voice><type>quarter</type><staff>1</staff><lyric number="1"><syllabic>single</syllabic><text>la</text></lyric></note><backup><duration>16</duration></backup><note><pitch><step>F</step><octave>3</octave></pitch><duration>16</duration><voice>2</voice><type>whole</type><staff>2</staff></note><note><chord/><pitch><step>A</step><octave>3</octave></pitch><duration>16</duration><voice>2</voice><type>whole</type><staff>2</staff></note><note><chord/><pitch><step>C</step><octave>4</octave></pitch><duration>16</duration><voice>2</voice><type>whole</type><staff>2</staff></note></measure><measure number="18"><attributes/><note><pitch><step>G</step><octave>4</octave></pitch><duration>12</duration><voice>1</voice><type>half</type><dot/><staff>1</staff><lyric number="1"><syllabic>single</syllabic><text>la,</text></lyric></note><note><pitch><step>F</step><octave>4</octave></pitch><duration>4</duration><voice>1</voice><type>quarter</type><staff>1</staff><lyric number="1"><syllabic>single</syllabic><text>La</text></lyric></note><backup><duration>16</duration></backup><note><pitch><step>C</step><octave>3</octave></pitch><duration>12</duration><voice>2</voice><type>half</type><dot/><staff>2</staff></note><note><chord/><pitch><step>G</step><octave>3</octave></pitch><duration>12</duration><voice>2</voice><type>half</type><dot/><staff>2</staff></note><note><chord/><pitch><step>E</step><octave>3</octave></pitch><duration>12</duration><voice>2</voice><type>half</type><dot/><staff>2</staff></note><note><pitch><step>C</step><octave>3</octave></pitch><duration>4</duration><voice>2</voice><type>quarter</type><staff>2</staff></note><note><chord/><pitch><step>F</step><octave>3</octave></pitch><duration>4</duration><voice>2</voice><type>quarter</type><staff>2</staff></note><note><chord/><pitch><step>A</step><octave>3</octave></pitch><duration>4</duration><voice>2</voice><type>quarter</type><staff>2</staff></note></measure><measure number="19"><attributes/><note><pitch><step>E</step><octave>4</octave></pitch><duration>8</duration><voice>1</voice><type>half</type><staff>1</staff><lyric number="1"><syllabic>single</syllabic><text>la</text></lyric></note><note><pitch><step>D</step><octave>4</octave></pitch><duration>8</duration><voice>1</voice><type>half</type><staff>1</staff><lyric number="1"><syllabic>single</syllabic><text>la</text></lyric></note><backup><duration>16</duration></backup><note><pitch><step>C</step><octave>3</octave></pitch><duration>8</duration><voice>2</voice><type>half</type><staff>2</staff></note><note><chord/><pitch><step>E</step><octave>3</octave></pitch><duration>8</duration><voice>2</voice><type>half</type><staff>2</staff></note><note><chord/><pitch><step>G</step><octave>3</octave></pitch><duration>8</duration><voice>2</voice><type>half</type><staff>2</staff></note><note><pitch><step>D</step><octave>3</octave></pitch><duration>8</duration><voice>2</voice><type>half</type><staff>2</staff></note><note><chord/><pitch><step>G</step><octave>3</octave></pitch><duration>8</duration><voice>2</voice><type>half</type><staff>2</staff></note><note><chord/><pitch><step>B</step><octave>3</octave></pitch><duration>8</duration><voice>2</voice><type>half</type><staff>2</staff></note></measure><measure number="20"><attributes/><note><pitch><step>C</step><octave>4</octave></pitch><duration>16</duration><voice>1</voice><type>whole</type><staff>1</staff><lyric number="1"><syllabic>single</syllabic><text>la-.</text></lyric></note><backup><duration>16</duration></backup><note><pitch><step>C</step><octave>3</octave></pitch><duration>16</duration><voice>2</voice><type>whole</type><staff>2</staff></note><note><chord/><pitch><step>E</step><octave>3</octave></pitch><duration>16</duration><voice>2</voice><type>whole</type><staff>2</staff></note><note><chord/><pitch><step>G</step><octave>3</octave></pitch><duration>16</duration><voice>2</voice><type>whole</type><staff>2</staff></note><barline location="right"><bar-style>light-heavy</bar-style></barline></measure></part></score-partwise>