<?xml version="1.0" encoding="UTF-8" standalone="no"?><!DOCTYPE score-partwise PUBLIC "-//Recordare//DTD MusicXML 3.1 Partwise//EN" "http://www.musicxml.org/dtds/partwise.dtd"><score-partwise version="3.1"><identification><creator type="composer">George Ratcliffe Woodward</creator><rights>CC0 - Public Domain</rights><encoding><software>Flat</software><encoding-date>2020-05-04</encoding-date></encoding><source>https://flat.io/score/5d98a89cfb17dd2a6f870870-ding-dong-merrily-on-high</source></identification><defaults><scaling><millimeters>7</millimeters><tenths>40</tenths></scaling><page-layout><page-height>1697.142857142857</page-height><page-width>1200</page-width><page-margins type="both"><left-margin>98.28571428571429</left-margin><right-margin>98.28571428571429</right-margin><top-margin>98.28571428571429</top-margin><bottom-margin>98.28571428571429</bottom-margin></page-margins></page-layout><system-layout><system-distance>115.2</system-distance></system-layout><staff-layout><staff-distance>72.57142857142857</staff-distance></staff-layout></defaults><credit><credit-type>title</credit-type><credit-words>Ding Dong Merrily On High</credit-words></credit><credit><credit-type>subtitle</credit-type><credit-words>Arranged by Aliese Watts 2019</credit-words></credit><part-list><score-part id="P1"><part-name>Piano</part-name><part-abbreviation>Pno.</part-abbreviation><score-instrument id="P1-I1"><instrument-name>Piano</instrument-name></score-instrument><midi-instrument id="P1-I1"><midi-channel>1</midi-channel><midi-program>1</midi-program><volume>100</volume></midi-instrument></score-part></part-list><part id="P1"><measure number="1"><attributes><divisions>2</divisions><key><fifths>3</fifths></key><time><beats>4</beats><beat-type>4</beat-type></time><staves>2</staves><clef number="1"><sign>G</sign><line>2</line></clef><clef number="2"><sign>F</sign><line>4</line></clef><staff-details><staff-lines>5</staff-lines></staff-details></attributes><sound tempo="120"/><sound/><direction placement="above"><direction-type><metronome><beat-unit>quarter</beat-unit><per-minute>120</per-minute></metronome></direction-type><staff>1</staff></direction><harmony type="explicit" placement="above"><root><root-step>A</root-step></root><kind>major</kind><staff>1</staff></harmony><note><pitch><step>A</step><octave>4</octave></pitch><duration>2</duration><voice>1</voice><type>quarter</type><staff>1</staff><lyric number="1"><syllabic>single</syllabic><text>Ding</text></lyric><lyric number="2"><syllabic>single</syllabic><text>E'en</text></lyric><lyric number="3"><syllabic>single</syllabic><text>Pray</text></lyric></note><note><pitch><step>A</step><octave>4</octave></pitch><duration>2</duration><voice>1</voice><type>quarter</type><staff>1</staff><lyric number="1"><syllabic>single</syllabic><text>dong</text></lyric><lyric number="2"><syllabic>single</syllabic><text>so</text></lyric><lyric number="3"><syllabic>single</syllabic><text>you,</text></lyric></note><harmony type="explicit" placement="above"><root><root-step>D</root-step></root><kind>major</kind><staff>1</staff></harmony><note><pitch><step>B</step><octave>4</octave></pitch><duration>1</duration><voice>1</voice><type>eighth</type><staff>1</staff><beam number="1">begin</beam><lyric number="1"><syllabic>single</syllabic><text>mer-</text></lyric><lyric number="2"><syllabic>begin</syllabic><text>here</text></lyric><lyric number="3"><syllabic>begin</syllabic><text>dut</text></lyric></note><note><pitch><step>A</step><octave>4</octave></pitch><duration>1</duration><voice>1</voice><type>eighth</type><staff>1</staff><beam number="1">end</beam><lyric number="1"><syllabic>single</syllabic><text>ri-</text></lyric><lyric number="2"><syllabic>middle</syllabic><text>be</text></lyric><lyric number="3"><syllabic>middle</syllabic><text>i</text></lyric></note><note><pitch><step>G</step><alter>1</alter><octave>4</octave></pitch><duration>1</duration><voice>1</voice><type>eighth</type><staff>1</staff><beam number="1">begin</beam><lyric number="1"><syllabic>single</syllabic><text>ly</text></lyric><lyric number="2"><syllabic>end</syllabic><text>low,</text></lyric><lyric number="3"><syllabic>middle</syllabic><text>ful</text></lyric></note><note><pitch><step>F</step><alter>1</alter><octave>4</octave></pitch><duration>1</duration><voice>1</voice><type>eighth</type><staff>1</staff><beam number="1">end</beam><lyric number="1"><syllabic>single</syllabic><text>on</text></lyric><lyric number="2"><syllabic>begin</syllabic><text>be</text></lyric><lyric number="3"><syllabic>end</syllabic><text>ly</text></lyric></note><backup><duration>8</duration></backup><note><pitch><step>A</step><octave>2</octave></pitch><duration>4</duration><voice>2</voice><type>half</type><staff>2</staff></note><note><pitch><step>A</step><octave>3</octave></pitch><duration>4</duration><voice>2</voice><type>half</type><staff>2</staff></note></measure><measure number="2"><attributes/><harmony type="explicit" placement="above"><root><root-step>E</root-step></root><kind>major</kind><staff>1</staff></harmony><note><pitch><step>E</step><octave>4</octave></pitch><duration>6</duration><voice>1</voice><type>half</type><dot/><staff>1</staff><lyric number="1"><syllabic>single</syllabic><text>high,</text></lyric><lyric number="2"><syllabic>end</syllabic><text>low,</text></lyric><lyric number="3"><syllabic>single</syllabic><text>prime,</text></lyric></note><note><pitch><step>E</step><octave>4</octave></pitch><duration>2</duration><voice>1</voice><type>quarter</type><staff>1</staff><lyric number="1"><syllabic>single</syllabic><text>In</text></lyric><lyric number="2"><syllabic>single</syllabic><text>Let</text></lyric><lyric number="3"><syllabic>single</syllabic><text>Your</text></lyric></note><backup><duration>8</duration></backup><note><pitch><step>E</step><octave>2</octave></pitch><duration>4</duration><voice>2</voice><type>half</type><staff>2</staff></note><note><pitch><step>E</step><octave>3</octave></pitch><duration>4</duration><voice>2</voice><type>half</type><staff>2</staff></note></measure><measure number="3"><attributes/><harmony type="explicit" placement="above"><root><root-step>D</root-step></root><kind>major</kind><staff>1</staff></harmony><note><pitch><step>F</step><alter>1</alter><octave>4</octave></pitch><duration>2</duration><voice>1</voice><type>quarter</type><staff>1</staff><lyric number="1"><syllabic>single</syllabic><text>hea-</text></lyric><lyric number="2"><syllabic>begin</syllabic><text>stee</text></lyric><lyric number="3"><syllabic>begin</syllabic><text>mat</text></lyric></note><note><pitch><step>A</step><octave>4</octave></pitch><duration>2</duration><voice>1</voice><type>quarter</type><staff>1</staff><lyric number="1"><syllabic>single</syllabic><text>v'n</text></lyric><lyric number="2"><syllabic>end</syllabic><text>ple</text></lyric><lyric number="3"><syllabic>end</syllabic><text>in</text></lyric></note><harmony type="explicit" placement="above"><root><root-step>E</root-step></root><kind>major</kind><staff>1</staff></harmony><note><pitch><step>A</step><octave>4</octave></pitch><duration>2</duration><voice>1</voice><type>quarter</type><staff>1</staff><lyric number="1"><syllabic>single</syllabic><text>bells</text></lyric><lyric number="2"><syllabic>single</syllabic><text>bells</text></lyric><lyric number="3"><syllabic>single</syllabic><text>chime,</text></lyric></note><note><pitch><step>G</step><alter>1</alter><octave>4</octave></pitch><duration>2</duration><voice>1</voice><type>quarter</type><staff>1</staff><lyric number="1"><syllabic>single</syllabic><text>are</text></lyric><lyric number="2"><syllabic>single</syllabic><text>be</text></lyric><lyric number="3"><syllabic>single</syllabic><text>ye</text></lyric></note><backup><duration>8</duration></backup><note><pitch><step>D</step><octave>3</octave></pitch><duration>4</duration><voice>2</voice><type>half</type><staff>2</staff></note><note><pitch><step>E</step><octave>3</octave></pitch><duration>4</duration><voice>2</voice><type>half</type><staff>2</staff></note></measure><measure number="4"><attributes/><harmony type="explicit" placement="above"><root><root-step>A</root-step></root><kind>major</kind><staff>1</staff></harmony><note><pitch><step>A</step><octave>4</octave></pitch><duration>4</duration><voice>1</voice><type>half</type><staff>1</staff><lyric number="1"><syllabic>single</syllabic><text>ring-</text></lyric><lyric number="2"><syllabic>begin</syllabic><text>swun</text></lyric><lyric number="3"><syllabic>begin</syllabic><text>rin</text></lyric></note><note><pitch><step>A</step><octave>4</octave></pitch><duration>4</duration><voice>1</voice><type>half</type><staff>1</staff><lyric number="1"><syllabic>single</syllabic><text>ing,</text></lyric><lyric number="2"><syllabic>end</syllabic><text>gen,</text></lyric><lyric number="3"><syllabic>end</syllabic><text>gers,</text></lyric></note><backup><duration>8</duration></backup><note><pitch><step>A</step><octave>2</octave></pitch><duration>4</duration><voice>2</voice><type>half</type><staff>2</staff></note><note><pitch><step>A</step><octave>3</octave></pitch><duration>4</duration><voice>2</voice><type>half</type><staff>2</staff></note></measure><measure number="5"><attributes/><harmony type="explicit" placement="above"><root><root-step>A</root-step></root><kind>major</kind><staff>1</staff></harmony><note><pitch><step>A</step><octave>4</octave></pitch><duration>2</duration><voice>1</voice><type>quarter</type><staff>1</staff><lyric number="1"><syllabic>single</syllabic><text>Ding</text></lyric><lyric number="2"><syllabic>single</syllabic><text>And</text></lyric><lyric number="3"><syllabic>single</syllabic><text>May</text></lyric></note><note><pitch><step>A</step><octave>4</octave></pitch><duration>2</duration><voice>1</voice><type>quarter</type><staff>1</staff><lyric number="1"><syllabic>single</syllabic><text>dong</text></lyric><lyric number="2"><syllabic>begin</syllabic><text>'Io,</text></lyric><lyric number="3"><syllabic>single</syllabic><text>you</text></lyric></note><harmony type="explicit" placement="above"><root><root-step>D</root-step></root><kind>major</kind><staff>1</staff></harmony><note><pitch><step>B</step><octave>4</octave></pitch><duration>1</duration><voice>1</voice><type>eighth</type><staff>1</staff><beam number="1">begin</beam><lyric number="1"><syllabic>single</syllabic><text>ve-</text></lyric><lyric number="3"><syllabic>begin</syllabic><text>beaut</text></lyric></note><note><pitch><step>A</step><octave>4</octave></pitch><duration>1</duration><voice>1</voice><type>eighth</type><staff>1</staff><beam number="1">end</beam><lyric number="1"><syllabic>single</syllabic><text>ri-</text></lyric><lyric number="2"><syllabic>begin</syllabic><text>io</text></lyric><lyric number="3"><syllabic>middle</syllabic><text>i</text></lyric></note><note><pitch><step>G</step><alter>1</alter><octave>4</octave></pitch><duration>1</duration><voice>1</voice><type>eighth</type><staff>1</staff><beam number="1">begin</beam><lyric number="1"><syllabic>single</syllabic><text>ly</text></lyric><lyric number="3"><syllabic>middle</syllabic><text>ful</text></lyric></note><note><pitch><step>F</step><alter>1</alter><octave>4</octave></pitch><duration>1</duration><voice>1</voice><type>eighth</type><staff>1</staff><beam number="1">end</beam><lyric number="1"><syllabic>single</syllabic><text>the</text></lyric><lyric number="2"><syllabic>begin</syllabic><text>io!</text></lyric><lyric number="3"><syllabic>end</syllabic><text>ly</text></lyric></note><backup><duration>8</duration></backup><note><pitch><step>A</step><octave>2</octave></pitch><duration>4</duration><voice>2</voice><type>half</type><staff>2</staff></note><note><pitch><step>A</step><octave>3</octave></pitch><duration>4</duration><voice>2</voice><type>half</type><staff>2</staff></note></measure><measure number="6"><attributes/><harmony type="explicit" placement="above"><root><root-step>E</root-step></root><kind>major</kind><staff>1</staff></harmony><note><pitch><step>E</step><octave>4</octave></pitch><duration>6</duration><voice>1</voice><type>half</type><dot/><staff>1</staff><lyric number="1"><syllabic>single</syllabic><text>sky,</text></lyric><lyric number="3"><syllabic>single</syllabic><text>rime,</text></lyric></note><note><pitch><step>E</step><octave>4</octave></pitch><duration>2</duration><voice>1</voice><type>quarter</type><staff>1</staff><lyric number="1"><syllabic>single</syllabic><text>Is</text></lyric><lyric number="2"><syllabic>single</syllabic><text>By</text></lyric><lyric number="3"><syllabic>single</syllabic><text>Your</text></lyric></note><backup><duration>8</duration></backup><note><pitch><step>E</step><octave>2</octave></pitch><duration>4</duration><voice>2</voice><type>half</type><staff>2</staff></note><note><pitch><step>E</step><octave>3</octave></pitch><duration>4</duration><voice>2</voice><type>half</type><staff>2</staff></note></measure><measure number="7"><attributes/><harmony type="explicit" placement="above"><root><root-step>D</root-step></root><kind>major</kind><staff>1</staff></harmony><note><pitch><step>F</step><alter>1</alter><octave>4</octave></pitch><duration>2</duration><voice>1</voice><type>quarter</type><staff>1</staff><lyric number="1"><syllabic>single</syllabic><text>Riv'n</text></lyric><lyric number="2"><syllabic>single</syllabic><text>priest</text></lyric><lyric number="3"><syllabic>begin</syllabic><text>eve</text></lyric></note><note><pitch><step>A</step><octave>4</octave></pitch><duration>2</duration><voice>1</voice><type>quarter</type><staff>1</staff><lyric number="1"><syllabic>single</syllabic><text>with</text></lyric><lyric number="2"><syllabic>single</syllabic><text>and</text></lyric><lyric number="3"><syllabic>end</syllabic><text>time</text></lyric></note><harmony type="explicit" placement="above"><root><root-step>E</root-step></root><kind>major</kind><staff>1</staff></harmony><note><pitch><step>A</step><octave>4</octave></pitch><duration>2</duration><voice>1</voice><type>quarter</type><staff>1</staff><lyric number="1"><syllabic>single</syllabic><text>An-</text></lyric><lyric number="2"><syllabic>begin</syllabic><text>peo</text></lyric><lyric number="3"><syllabic>single</syllabic><text>song,</text></lyric></note><note><pitch><step>G</step><alter>1</alter><octave>4</octave></pitch><duration>2</duration><voice>1</voice><type>quarter</type><staff>1</staff><lyric number="1"><syllabic>single</syllabic><text>gel</text></lyric><lyric number="2"><syllabic>end</syllabic><text>ple</text></lyric><lyric number="3"><syllabic>single</syllabic><text>ye</text></lyric></note><backup><duration>8</duration></backup><note><pitch><step>D</step><octave>3</octave></pitch><duration>4</duration><voice>2</voice><type>half</type><staff>2</staff></note><note><pitch><step>E</step><octave>3</octave></pitch><duration>4</duration><voice>2</voice><type>half</type><staff>2</staff></note></measure><measure number="8"><attributes/><harmony type="explicit" placement="above"><root><root-step>A</root-step></root><kind>major</kind><staff>1</staff></harmony><note><pitch><step>A</step><octave>4</octave></pitch><duration>4</duration><voice>1</voice><type>half</type><staff>1</staff><lyric number="1"><syllabic>single</syllabic><text>sing-</text></lyric><lyric number="2"><syllabic>begin</syllabic><text>sun</text></lyric><lyric number="3"><syllabic>begin</syllabic><text>sin</text></lyric></note><note><pitch><step>A</step><octave>4</octave></pitch><duration>4</duration><voice>1</voice><type>half</type><staff>1</staff><lyric number="1"><syllabic>single</syllabic><text>Ing,</text></lyric><lyric number="2"><syllabic>end</syllabic><text>gen,</text></lyric><lyric number="3"><syllabic>end</syllabic><text>gers,</text></lyric></note><backup><duration>8</duration></backup><note><pitch><step>A</step><octave>2</octave></pitch><duration>4</duration><voice>2</voice><type>half</type><staff>2</staff></note><note><pitch><step>A</step><octave>3</octave></pitch><duration>4</duration><voice>2</voice><type>half</type><staff>2</staff></note></measure><measure number="9"><attributes/><harmony type="explicit" placement="above"><root><root-step>A</root-step></root><kind>major</kind><staff>1</staff></harmony><note><pitch><step>E</step><octave>5</octave></pitch><duration>3</duration><voice>1</voice><type>quarter</type><dot/><staff>1</staff><lyric number="1"><syllabic>single</syllabic><text>Glo---</text></lyric></note><note><pitch><step>D</step><octave>5</octave></pitch><duration>1</duration><voice>1</voice><type>eighth</type><staff>1</staff><lyric number="1"><syllabic>single</syllabic><text>-----</text></lyric></note><note><pitch><step>C</step><alter>1</alter><octave>5</octave></pitch><duration>1</duration><voice>1</voice><type>eighth</type><staff>1</staff><beam number="1">begin</beam><lyric number="1"><syllabic>single</syllabic><text>-------</text></lyric></note><note><pitch><step>D</step><octave>5</octave></pitch><duration>1</duration><voice>1</voice><type>eighth</type><staff>1</staff><beam number="1">end</beam><lyric number="1"><syllabic>single</syllabic><text>-------</text></lyric></note><note><pitch><step>E</step><octave>5</octave></pitch><duration>1</duration><voice>1</voice><type>eighth</type><staff>1</staff><beam number="1">begin</beam><lyric number="1"><syllabic>single</syllabic><text>---------</text></lyric></note><note><pitch><step>C</step><alter>1</alter><octave>5</octave></pitch><duration>1</duration><voice>1</voice><type>eighth</type><staff>1</staff><beam number="1">end</beam><lyric number="1"><syllabic>single</syllabic><text>-------</text></lyric></note><backup><duration>8</duration></backup><note><pitch><step>A</step><octave>3</octave></pitch><duration>4</duration><voice>2</voice><type>half</type><staff>2</staff></note><note><pitch><step>C</step><alter>1</alter><octave>4</octave></pitch><duration>4</duration><voice>2</voice><type>half</type><staff>2</staff></note></measure><measure number="10"><attributes/><harmony type="explicit" placement="above"><root><root-step>E</root-step></root><kind>major</kind><staff>1</staff></harmony><note><pitch><step>D</step><octave>5</octave></pitch><duration>3</duration><voice>1</voice><type>quarter</type><dot/><staff>1</staff><lyric number="1"><syllabic>single</syllabic><text>o----</text></lyric></note><note><pitch><step>C</step><alter>1</alter><octave>5</octave></pitch><duration>1</duration><voice>1</voice><type>eighth</type><staff>1</staff><lyric number="1"><syllabic>single</syllabic><text>----</text></lyric></note><note><pitch><step>B</step><octave>4</octave></pitch><duration>1</duration><voice>1</voice><type>eighth</type><staff>1</staff><beam number="1">begin</beam><lyric number="1"><syllabic>single</syllabic><text>----</text></lyric></note><note><pitch><step>C</step><alter>1</alter><octave>5</octave></pitch><duration>1</duration><voice>1</voice><type>eighth</type><staff>1</staff><beam number="1">end</beam><lyric number="1"><syllabic>single</syllabic><text>----</text></lyric></note><note><pitch><step>D</step><octave>5</octave></pitch><duration>1</duration><voice>1</voice><type>eighth</type><staff>1</staff><beam number="1">begin</beam><lyric number="1"><syllabic>single</syllabic><text>-----</text></lyric></note><note><pitch><step>B</step><octave>4</octave></pitch><duration>1</duration><voice>1</voice><type>eighth</type><staff>1</staff><beam number="1">end</beam><lyric number="1"><syllabic>single</syllabic><text>----</text></lyric></note><backup><duration>8</duration></backup><note><pitch><step>E</step><octave>3</octave></pitch><duration>4</duration><voice>2</voice><type>half</type><staff>2</staff></note><note><pitch><step>G</step><alter>1</alter><octave>3</octave></pitch><duration>4</duration><voice>2</voice><type>half</type><staff>2</staff></note></measure><measure number="11"><attributes/><harmony type="explicit" placement="above"><root><root-step>F</root-step><root-alter>1</root-alter></root><kind>minor</kind><staff>1</staff></harmony><note><pitch><step>C</step><alter>1</alter><octave>5</octave></pitch><duration>3</duration><voice>1</voice><type>quarter</type><dot/><staff>1</staff><lyric number="1"><syllabic>single</syllabic><text>o----</text></lyric></note><note><pitch><step>B</step><octave>4</octave></pitch><duration>1</duration><voice>1</voice><type>eighth</type><staff>1</staff><lyric number="1"><syllabic>single</syllabic><text>----</text></lyric></note><note><pitch><step>A</step><octave>4</octave></pitch><duration>1</duration><voice>1</voice><type>eighth</type><staff>1</staff><beam number="1">begin</beam><lyric number="1"><syllabic>single</syllabic><text>----</text></lyric></note><note><pitch><step>B</step><octave>4</octave></pitch><duration>1</duration><voice>1</voice><type>eighth</type><staff>1</staff><beam number="1">end</beam><lyric number="1"><syllabic>single</syllabic><text>----</text></lyric></note><note><pitch><step>C</step><alter>1</alter><octave>5</octave></pitch><duration>1</duration><voice>1</voice><type>eighth</type><staff>1</staff><beam number="1">begin</beam><lyric number="1"><syllabic>single</syllabic><text>----</text></lyric></note><note><pitch><step>A</step><octave>4</octave></pitch><duration>1</duration><voice>1</voice><type>eighth</type><staff>1</staff><beam number="1">end</beam><lyric number="1"><syllabic>single</syllabic><text>----</text></lyric></note><backup><duration>8</duration></backup><note><pitch><step>F</step><alter>1</alter><octave>3</octave></pitch><duration>4</duration><voice>2</voice><type>half</type><staff>2</staff></note><note><pitch><step>A</step><octave>3</octave></pitch><duration>4</duration><voice>2</voice><type>half</type><staff>2</staff></note></measure><measure number="12"><attributes/><harmony type="explicit" placement="above"><root><root-step>E</root-step></root><kind>major</kind><staff>1</staff></harmony><note><pitch><step>B</step><octave>4</octave></pitch><duration>3</duration><voice>1</voice><type>quarter</type><dot/><staff>1</staff><lyric number="1"><syllabic>single</syllabic><text>o----</text></lyric></note><note><pitch><step>A</step><octave>4</octave></pitch><duration>1</duration><voice>1</voice><type>eighth</type><staff>1</staff><lyric number="1"><syllabic>single</syllabic><text>----</text></lyric></note><note><pitch><step>G</step><alter>1</alter><octave>4</octave></pitch><duration>1</duration><voice>1</voice><type>eighth</type><staff>1</staff><beam number="1">begin</beam><lyric number="1"><syllabic>single</syllabic><text>----</text></lyric></note><note><pitch><step>A</step><octave>4</octave></pitch><duration>1</duration><voice>1</voice><type>eighth</type><staff>1</staff><beam number="1">end</beam><lyric number="1"><syllabic>single</syllabic><text>----</text></lyric></note><note><pitch><step>B</step><octave>4</octave></pitch><duration>1</duration><voice>1</voice><type>eighth</type><staff>1</staff><beam number="1">begin</beam><lyric number="1"><syllabic>single</syllabic><text>----</text></lyric></note><note><pitch><step>G</step><alter>1</alter><octave>4</octave></pitch><duration>1</duration><voice>1</voice><type>eighth</type><staff>1</staff><beam number="1">end</beam><lyric number="1"><syllabic>single</syllabic><text>----</text></lyric></note><backup><duration>8</duration></backup><note><pitch><step>E</step><octave>3</octave></pitch><duration>4</duration><voice>2</voice><type>half</type><staff>2</staff></note><note><pitch><step>G</step><alter>1</alter><octave>3</octave></pitch><duration>4</duration><voice>2</voice><type>half</type><staff>2</staff></note></measure><measure number="13"><attributes/><harmony type="explicit" placement="above"><root><root-step>D</root-step></root><kind>major</kind><staff>1</staff></harmony><note><pitch><step>A</step><octave>4</octave></pitch><duration>3</duration><voice>1</voice><type>quarter</type><dot/><staff>1</staff><lyric number="1"><syllabic>single</syllabic><text>o----</text></lyric></note><note><pitch><step>G</step><alter>1</alter><octave>4</octave></pitch><duration>1</duration><voice>1</voice><type>eighth</type><staff>1</staff><lyric number="1"><syllabic>single</syllabic><text>----</text></lyric></note><note><pitch><step>F</step><alter>1</alter><octave>4</octave></pitch><duration>1</duration><voice>1</voice><type>eighth</type><staff>1</staff><beam number="1">begin</beam><lyric number="1"><syllabic>single</syllabic><text>----</text></lyric></note><note><pitch><step>G</step><alter>1</alter><octave>4</octave></pitch><duration>1</duration><voice>1</voice><type>eighth</type><staff>1</staff><beam number="1">end</beam><lyric number="1"><syllabic>single</syllabic><text>----</text></lyric></note><note><pitch><step>A</step><octave>4</octave></pitch><duration>1</duration><voice>1</voice><type>eighth</type><staff>1</staff><beam number="1">begin</beam><lyric number="1"><syllabic>single</syllabic><text>----</text></lyric></note><note><pitch><step>F</step><alter>1</alter><octave>4</octave></pitch><duration>1</duration><voice>1</voice><type>eighth</type><staff>1</staff><beam number="1">end</beam><lyric number="1"><syllabic>single</syllabic><text>----</text></lyric></note><backup><duration>8</duration></backup><note><pitch><step>D</step><octave>3</octave></pitch><duration>4</duration><voice>2</voice><type>half</type><staff>2</staff></note><note><pitch><step>F</step><alter>1</alter><octave>3</octave></pitch><duration>4</duration><voice>2</voice><type>half</type><staff>2</staff></note></measure><measure number="14"><attributes><divisions>4</divisions></attributes><harmony type="explicit" placement="above"><root><root-step>C</root-step><root-alter>1</root-alter></root><kind>minor</kind><staff>1</staff></harmony><note><pitch><step>G</step><alter>1</alter><octave>4</octave></pitch><duration>6</duration><voice>1</voice><type>quarter</type><dot/><staff>1</staff><lyric number="1"><syllabic>single</syllabic><text>o----</text></lyric></note><note><pitch><step>F</step><alter>1</alter><octave>4</octave></pitch><duration>2</duration><voice>1</voice><type>eighth</type><staff>1</staff><lyric number="1"><syllabic>single</syllabic><text>ri-</text></lyric></note><note><pitch><step>E</step><octave>4</octave></pitch><duration>4</duration><voice>1</voice><type>quarter</type><staff>1</staff><lyric number="1"><syllabic>single</syllabic><text>a,</text></lyric></note><note><pitch><step>E</step><octave>4</octave></pitch><duration>4</duration><voice>1</voice><type>quarter</type><staff>1</staff><lyric number="1"><syllabic>single</syllabic><text>Ho-</text></lyric></note><backup><duration>16</duration></backup><note><pitch><step>C</step><alter>1</alter><octave>3</octave></pitch><duration>8</duration><voice>2</voice><type>half</type><staff>2</staff></note><note><pitch><step>E</step><octave>3</octave></pitch><duration>8</duration><voice>2</voice><type>half</type><staff>2</staff></note></measure><measure number="15"><attributes/><harmony type="explicit" placement="above"><root><root-step>D</root-step></root><kind>major</kind><staff>1</staff></harmony><note><pitch><step>F</step><alter>1</alter><octave>4</octave></pitch><duration>4</duration><voice>1</voice><type>quarter</type><staff>1</staff><lyric number="1"><syllabic>single</syllabic><text>san-</text></lyric></note><note><pitch><step>A</step><octave>4</octave></pitch><duration>4</duration><voice>1</voice><type>quarter</type><staff>1</staff><lyric number="1"><syllabic>single</syllabic><text>na</text></lyric></note><harmony type="explicit" placement="above"><root><root-step>E</root-step></root><kind>major</kind><staff>1</staff></harmony><note><pitch><step>A</step><octave>4</octave></pitch><duration>4</duration><voice>1</voice><type>quarter</type><staff>1</staff><lyric number="1"><syllabic>single</syllabic><text>in</text></lyric></note><note><pitch><step>G</step><alter>1</alter><octave>4</octave></pitch><duration>4</duration><voice>1</voice><type>quarter</type><staff>1</staff><lyric number="1"><syllabic>single</syllabic><text>ex-</text></lyric></note><backup><duration>16</duration></backup><note><pitch><step>D</step><octave>3</octave></pitch><duration>8</duration><voice>2</voice><type>half</type><staff>2</staff></note><note><pitch><step>E</step><octave>3</octave></pitch><duration>8</duration><voice>2</voice><type>half</type><staff>2</staff></note></measure><measure number="16"><attributes/><harmony type="explicit" placement="above"><root><root-step>A</root-step></root><kind>major</kind><staff>1</staff></harmony><note><pitch><step>A</step><octave>4</octave></pitch><duration>8</duration><voice>1</voice><type>half</type><staff>1</staff><lyric number="1"><syllabic>single</syllabic><text>cel-</text></lyric></note><note><pitch><step>A</step><octave>4</octave></pitch><duration>8</duration><voice>1</voice><type>half</type><staff>1</staff><lyric number="1"><syllabic>single</syllabic><text>sis.</text></lyric></note><backup><duration>16</duration></backup><note><pitch><step>A</step><octave>2</octave></pitch><duration>8</duration><voice>2</voice><type>half</type><staff>2</staff></note><note><pitch><step>C</step><alter>1</alter><octave>3</octave></pitch><duration>8</duration><voice>2</voice><type>half</type><staff>2</staff></note><note><chord/><pitch><step>E</step><octave>3</octave></pitch><duration>8</duration><voice>2</voice><type>half</type><staff>2</staff></note><note><chord/><pitch><step>A</step><octave>3</octave></pitch><duration>8</duration><voice>2</voice><type>half</type><staff>2</staff></note><barline location="right"><bar-style>light-heavy</bar-style><repeat direction="backward" times="1" winged="none"/></barline></measure></part></score-partwise>