<?xml version="1.0" encoding="UTF-8" standalone="no"?><!DOCTYPE score-partwise PUBLIC "-//Recordare//DTD MusicXML 3.1 Partwise//EN" "http://www.musicxml.org/dtds/partwise.dtd"><score-partwise version="3.1"><identification><creator type="composer">Traditional </creator><creator type="lyricist">Arranged by Aliese Watts 2019</creator><rights>CC0 - Public Domain</rights><encoding><software>Flat</software><encoding-date>2020-05-04</encoding-date></encoding><source>https://flat.io/score/5de27f4a8ab03b3c4ec00672-jacobs-ladder</source></identification><defaults><scaling><millimeters>7</millimeters><tenths>40</tenths></scaling><page-layout><page-height>1697.142857142857</page-height><page-width>1200</page-width><page-margins type="both"><left-margin>98.28571428571429</left-margin><right-margin>98.28571428571429</right-margin><top-margin>98.28571428571429</top-margin><bottom-margin>98.28571428571429</bottom-margin></page-margins></page-layout><system-layout><system-distance>115.2</system-distance></system-layout><staff-layout><staff-distance>72.57142857142857</staff-distance></staff-layout></defaults><credit><credit-type>title</credit-type><credit-words>Jacob's Ladder</credit-words></credit><credit><credit-type>subtitle</credit-type><credit-words>African Spiritual </credit-words></credit><part-list><score-part id="P1"><part-name>Piano</part-name><part-abbreviation>Pno.</part-abbreviation><score-instrument id="P1-I1"><instrument-name>Piano</instrument-name></score-instrument><midi-instrument id="P1-I1"><midi-channel>1</midi-channel><midi-program>1</midi-program><volume>100</volume></midi-instrument></score-part></part-list><part id="P1"><measure number="1"><attributes><divisions>4</divisions><key><fifths>-3</fifths></key><time><beats>4</beats><beat-type>4</beat-type></time><staves>2</staves><clef number="1"><sign>G</sign><line>2</line></clef><clef number="2"><sign>F</sign><line>4</line></clef><staff-details><staff-lines>5</staff-lines></staff-details></attributes><sound tempo="115"/><sound/><direction placement="above"><direction-type><metronome><beat-unit>quarter</beat-unit><per-minute>115</per-minute></metronome></direction-type><staff>1</staff></direction><note><pitch><step>C</step><octave>4</octave></pitch><duration>4</duration><voice>1</voice><type>quarter</type><staff>1</staff><lyric number="1"><syllabic>single</syllabic><text>We</text></lyric></note><note><pitch><step>C</step><octave>4</octave></pitch><duration>12</duration><voice>1</voice><type>half</type><dot/><staff>1</staff><lyric number="1"><syllabic>single</syllabic><text>are</text></lyric></note><backup><duration>16</duration></backup><note><pitch><step>C</step><octave>2</octave></pitch><duration>4</duration><voice>2</voice><type>quarter</type><staff>2</staff></note><note><pitch><step>C</step><octave>3</octave></pitch><duration>4</duration><voice>2</voice><type>quarter</type><staff>2</staff></note><note><pitch><step>C</step><octave>2</octave></pitch><duration>4</duration><voice>2</voice><type>quarter</type><staff>2</staff></note><note><pitch><step>C</step><octave>3</octave></pitch><duration>4</duration><voice>2</voice><type>quarter</type><staff>2</staff></note></measure><measure number="2"><attributes/><note><pitch><step>C</step><octave>4</octave></pitch><duration>4</duration><voice>1</voice><type>quarter</type><staff>1</staff><lyric number="1"><syllabic>single</syllabic><text>climb-</text></lyric></note><note><pitch><step>C</step><octave>4</octave></pitch><duration>8</duration><voice>1</voice><type>half</type><staff>1</staff><lyric number="1"><syllabic>single</syllabic><text>in</text></lyric></note><note><rest/><duration>4</duration><voice>1</voice><type>quarter</type><staff>1</staff></note><backup><duration>16</duration></backup><note><pitch><step>C</step><octave>2</octave></pitch><duration>4</duration><voice>2</voice><type>quarter</type><staff>2</staff></note><note><pitch><step>C</step><octave>3</octave></pitch><duration>4</duration><voice>2</voice><type>quarter</type><staff>2</staff></note><note><pitch><step>C</step><octave>2</octave></pitch><duration>4</duration><voice>2</voice><type>quarter</type><staff>2</staff></note><note><pitch><step>C</step><octave>3</octave></pitch><duration>4</duration><voice>2</voice><type>quarter</type><staff>2</staff></note></measure><measure number="3"><attributes><divisions>2</divisions></attributes><note><pitch><step>E</step><alter>-1</alter><octave>4</octave></pitch><duration>2</duration><voice>1</voice><type>quarter</type><staff>1</staff><lyric number="1"><syllabic>single</syllabic><text>Ja-</text></lyric></note><note><pitch><step>E</step><alter>-1</alter><octave>4</octave></pitch><duration>6</duration><voice>1</voice><type>half</type><dot/><staff>1</staff><lyric number="1"><syllabic>single</syllabic><text>cob's</text></lyric></note><backup><duration>8</duration></backup><note><pitch><step>E</step><alter>-1</alter><octave>2</octave></pitch><duration>2</duration><voice>2</voice><type>quarter</type><staff>2</staff></note><note><pitch><step>E</step><alter>-1</alter><octave>3</octave></pitch><duration>2</duration><voice>2</voice><type>quarter</type><staff>2</staff></note><note><pitch><step>E</step><alter>-1</alter><octave>2</octave></pitch><duration>2</duration><voice>2</voice><type>quarter</type><staff>2</staff></note><note><pitch><step>E</step><alter>-1</alter><octave>3</octave></pitch><duration>2</duration><voice>2</voice><type>quarter</type><staff>2</staff></note></measure><measure number="4"><attributes/><note><pitch><step>E</step><alter>-1</alter><octave>4</octave></pitch><duration>2</duration><voice>1</voice><type>quarter</type><staff>1</staff><lyric number="1"><syllabic>single</syllabic><text>lad-</text></lyric></note><note><pitch><step>C</step><octave>4</octave></pitch><duration>6</duration><voice>1</voice><type>half</type><dot/><staff>1</staff><lyric number="1"><syllabic>single</syllabic><text>der,</text></lyric></note><backup><duration>8</duration></backup><note><pitch><step>C</step><octave>2</octave></pitch><duration>2</duration><voice>2</voice><type>quarter</type><staff>2</staff></note><note><pitch><step>C</step><octave>3</octave></pitch><duration>2</duration><voice>2</voice><type>quarter</type><staff>2</staff></note><note><pitch><step>C</step><octave>2</octave></pitch><duration>2</duration><voice>2</voice><type>quarter</type><staff>2</staff></note><note><pitch><step>C</step><octave>3</octave></pitch><duration>2</duration><voice>2</voice><type>quarter</type><staff>2</staff></note></measure><measure number="5"><attributes/><note><pitch><step>B</step><alter>-1</alter><octave>3</octave></pitch><duration>2</duration><voice>1</voice><type>quarter</type><staff>1</staff><lyric number="1"><syllabic>single</syllabic><text>We</text></lyric></note><note><pitch><step>B</step><alter>-1</alter><octave>3</octave></pitch><duration>6</duration><voice>1</voice><type>half</type><dot/><staff>1</staff><lyric number="1"><syllabic>single</syllabic><text>are</text></lyric></note><backup><duration>8</duration></backup><note><pitch><step>B</step><alter>-1</alter><octave>2</octave></pitch><duration>2</duration><voice>2</voice><type>quarter</type><staff>2</staff></note><note><pitch><step>B</step><alter>-1</alter><octave>2</octave></pitch><duration>2</duration><voice>2</voice><type>quarter</type><staff>2</staff></note><note><pitch><step>B</step><alter>-1</alter><octave>2</octave></pitch><duration>2</duration><voice>2</voice><type>quarter</type><staff>2</staff></note><note><pitch><step>B</step><alter>-1</alter><octave>2</octave></pitch><duration>2</duration><voice>2</voice><type>quarter</type><staff>2</staff></note></measure><measure number="6"><attributes/><note><pitch><step>B</step><alter>-1</alter><octave>3</octave></pitch><duration>2</duration><voice>1</voice><type>quarter</type><staff>1</staff><lyric number="1"><syllabic>single</syllabic><text>climb-</text></lyric></note><note><pitch><step>B</step><alter>-1</alter><octave>3</octave></pitch><duration>6</duration><voice>1</voice><type>half</type><dot/><staff>1</staff><lyric number="1"><syllabic>single</syllabic><text>ing</text></lyric></note><backup><duration>8</duration></backup><note><pitch><step>B</step><alter>-1</alter><octave>2</octave></pitch><duration>2</duration><voice>2</voice><type>quarter</type><staff>2</staff></note><note><pitch><step>B</step><alter>-1</alter><octave>2</octave></pitch><duration>2</duration><voice>2</voice><type>quarter</type><staff>2</staff></note><note><pitch><step>B</step><alter>-1</alter><octave>2</octave></pitch><duration>2</duration><voice>2</voice><type>quarter</type><staff>2</staff></note><note><pitch><step>B</step><alter>-1</alter><octave>2</octave></pitch><duration>2</duration><voice>2</voice><type>quarter</type><staff>2</staff></note></measure><measure number="7"><attributes/><note><pitch><step>C</step><alter>1</alter><octave>4</octave></pitch><duration>2</duration><voice>1</voice><type>quarter</type><accidental>sharp</accidental><staff>1</staff><lyric number="1"><syllabic>single</syllabic><text>Ja-</text></lyric></note><note><pitch><step>F</step><octave>4</octave></pitch><duration>6</duration><voice>1</voice><type>half</type><dot/><staff>1</staff><lyric number="1"><syllabic>single</syllabic><text>cob's</text></lyric></note><backup><duration>8</duration></backup><note><pitch><step>C</step><alter>1</alter><octave>2</octave></pitch><duration>2</duration><voice>2</voice><type>quarter</type><accidental>sharp</accidental><staff>2</staff></note><note><pitch><step>C</step><alter>1</alter><octave>3</octave></pitch><duration>2</duration><voice>2</voice><type>quarter</type><accidental>sharp</accidental><staff>2</staff></note><note><pitch><step>C</step><alter>1</alter><octave>2</octave></pitch><duration>2</duration><voice>2</voice><type>quarter</type><staff>2</staff></note><note><pitch><step>C</step><alter>1</alter><octave>3</octave></pitch><duration>2</duration><voice>2</voice><type>quarter</type><staff>2</staff></note></measure><measure number="8"><attributes/><note><pitch><step>C</step><alter>1</alter><octave>4</octave></pitch><duration>2</duration><voice>1</voice><type>quarter</type><accidental>sharp</accidental><staff>1</staff><lyric number="1"><syllabic>single</syllabic><text>lad-</text></lyric></note><note><pitch><step>B</step><alter>-1</alter><octave>3</octave></pitch><duration>6</duration><voice>1</voice><type>half</type><dot/><staff>1</staff><lyric number="1"><syllabic>single</syllabic><text>der,</text></lyric></note><backup><duration>8</duration></backup><note><pitch><step>C</step><alter>1</alter><octave>2</octave></pitch><duration>2</duration><voice>2</voice><type>quarter</type><accidental>sharp</accidental><staff>2</staff></note><note><pitch><step>C</step><alter>1</alter><octave>3</octave></pitch><duration>2</duration><voice>2</voice><type>quarter</type><accidental>sharp</accidental><staff>2</staff></note><note><pitch><step>C</step><alter>1</alter><octave>2</octave></pitch><duration>2</duration><voice>2</voice><type>quarter</type><staff>2</staff></note><note><pitch><step>C</step><alter>1</alter><octave>3</octave></pitch><duration>2</duration><voice>2</voice><type>quarter</type><staff>2</staff></note></measure><measure number="9"><attributes/><note><pitch><step>A</step><alter>-1</alter><octave>4</octave></pitch><duration>2</duration><voice>1</voice><type>quarter</type><staff>1</staff><lyric number="1"><syllabic>single</syllabic><text>We</text></lyric></note><note><pitch><step>A</step><alter>-1</alter><octave>4</octave></pitch><duration>6</duration><voice>1</voice><type>half</type><dot/><staff>1</staff><lyric number="1"><syllabic>single</syllabic><text>are</text></lyric></note><backup><duration>8</duration></backup><note><pitch><step>A</step><alter>-1</alter><octave>2</octave></pitch><duration>2</duration><voice>2</voice><type>quarter</type><staff>2</staff></note><note><pitch><step>A</step><alter>-1</alter><octave>3</octave></pitch><duration>2</duration><voice>2</voice><type>quarter</type><staff>2</staff></note><note><pitch><step>A</step><alter>-1</alter><octave>2</octave></pitch><duration>2</duration><voice>2</voice><type>quarter</type><staff>2</staff></note><note><pitch><step>A</step><alter>-1</alter><octave>3</octave></pitch><duration>2</duration><voice>2</voice><type>quarter</type><staff>2</staff></note></measure><measure number="10"><attributes/><note><pitch><step>A</step><alter>-1</alter><octave>4</octave></pitch><duration>2</duration><voice>1</voice><type>quarter</type><staff>1</staff><lyric number="1"><syllabic>single</syllabic><text>climb-</text></lyric></note><note><pitch><step>A</step><alter>-1</alter><octave>4</octave></pitch><duration>6</duration><voice>1</voice><type>half</type><dot/><staff>1</staff><lyric number="1"><syllabic>single</syllabic><text>ing</text></lyric></note><backup><duration>8</duration></backup><note><pitch><step>A</step><alter>-1</alter><octave>2</octave></pitch><duration>2</duration><voice>2</voice><type>quarter</type><staff>2</staff></note><note><pitch><step>A</step><alter>-1</alter><octave>3</octave></pitch><duration>2</duration><voice>2</voice><type>quarter</type><staff>2</staff></note><note><pitch><step>A</step><alter>-1</alter><octave>2</octave></pitch><duration>2</duration><voice>2</voice><type>quarter</type><staff>2</staff></note><note><pitch><step>A</step><alter>-1</alter><octave>3</octave></pitch><duration>2</duration><voice>2</voice><type>quarter</type><staff>2</staff></note></measure><measure number="11"><attributes/><note><pitch><step>A</step><alter>-1</alter><octave>4</octave></pitch><duration>2</duration><voice>1</voice><type>quarter</type><staff>1</staff><lyric number="1"><syllabic>single</syllabic><text>Ja-</text></lyric></note><note><pitch><step>A</step><alter>-1</alter><octave>4</octave></pitch><duration>6</duration><voice>1</voice><type>half</type><dot/><staff>1</staff><lyric number="1"><syllabic>single</syllabic><text>cob's</text></lyric></note><backup><duration>8</duration></backup><note><pitch><step>A</step><alter>-1</alter><octave>2</octave></pitch><duration>2</duration><voice>2</voice><type>quarter</type><staff>2</staff></note><note><pitch><step>A</step><alter>-1</alter><octave>3</octave></pitch><duration>2</duration><voice>2</voice><type>quarter</type><staff>2</staff></note><note><pitch><step>A</step><alter>-1</alter><octave>2</octave></pitch><duration>2</duration><voice>2</voice><type>quarter</type><staff>2</staff></note><note><pitch><step>A</step><alter>-1</alter><octave>3</octave></pitch><duration>2</duration><voice>2</voice><type>quarter</type><staff>2</staff></note></measure><measure number="12"><attributes/><note><pitch><step>B</step><alter>-1</alter><octave>4</octave></pitch><duration>2</duration><voice>1</voice><type>quarter</type><staff>1</staff><lyric number="1"><syllabic>single</syllabic><text>lad-</text></lyric></note><note><pitch><step>A</step><alter>-1</alter><octave>4</octave></pitch><duration>6</duration><voice>1</voice><type>half</type><dot/><staff>1</staff><lyric number="1"><syllabic>single</syllabic><text>der,</text></lyric></note><backup><duration>8</duration></backup><note><pitch><step>B</step><alter>-1</alter><octave>2</octave></pitch><duration>2</duration><voice>2</voice><type>quarter</type><staff>2</staff></note><note><pitch><step>A</step><alter>-1</alter><octave>2</octave></pitch><duration>2</duration><voice>2</voice><type>quarter</type><staff>2</staff></note><note><pitch><step>A</step><alter>-1</alter><octave>2</octave></pitch><duration>2</duration><voice>2</voice><type>quarter</type><staff>2</staff></note><note><pitch><step>A</step><alter>-1</alter><octave>2</octave></pitch><duration>2</duration><voice>2</voice><type>quarter</type><staff>2</staff></note></measure><measure number="13"><attributes/><note><pitch><step>C</step><octave>4</octave></pitch><duration>2</duration><voice>1</voice><type>quarter</type><staff>1</staff><lyric number="1"><syllabic>single</syllabic><text>Sol-</text></lyric></note><note><pitch><step>C</step><octave>4</octave></pitch><duration>6</duration><voice>1</voice><type>half</type><dot/><staff>1</staff><lyric number="1"><syllabic>single</syllabic><text>diers</text></lyric></note><backup><duration>8</duration></backup><note><pitch><step>C</step><octave>2</octave></pitch><duration>2</duration><voice>2</voice><type>quarter</type><staff>2</staff></note><note><pitch><step>C</step><octave>3</octave></pitch><duration>2</duration><voice>2</voice><type>quarter</type><staff>2</staff></note><note><pitch><step>C</step><octave>2</octave></pitch><duration>2</duration><voice>2</voice><type>quarter</type><staff>2</staff></note><note><pitch><step>C</step><octave>3</octave></pitch><duration>2</duration><voice>2</voice><type>quarter</type><staff>2</staff></note></measure><measure number="14"><attributes/><note><pitch><step>C</step><octave>4</octave></pitch><duration>2</duration><voice>1</voice><type>quarter</type><staff>1</staff><lyric number="1"><syllabic>single</syllabic><text>of</text></lyric></note><note><pitch><step>B</step><alter>-1</alter><octave>3</octave></pitch><duration>6</duration><voice>1</voice><type>half</type><dot/><staff>1</staff><lyric number="1"><syllabic>single</syllabic><text>the</text></lyric></note><backup><duration>8</duration></backup><note><pitch><step>C</step><octave>2</octave></pitch><duration>2</duration><voice>2</voice><type>quarter</type><staff>2</staff></note><note><pitch><step>B</step><alter>-1</alter><octave>2</octave></pitch><duration>2</duration><voice>2</voice><type>quarter</type><staff>2</staff></note><note><pitch><step>B</step><alter>-1</alter><octave>2</octave></pitch><duration>2</duration><voice>2</voice><type>quarter</type><staff>2</staff></note><note><pitch><step>B</step><alter>-1</alter><octave>2</octave></pitch><duration>2</duration><voice>2</voice><type>quarter</type><staff>2</staff></note></measure><measure number="15"><attributes/><note><pitch><step>A</step><alter>-1</alter><octave>3</octave></pitch><duration>8</duration><voice>1</voice><type>whole</type><staff>1</staff><lyric number="1"><syllabic>single</syllabic><text>cross,</text></lyric></note><backup><duration>8</duration></backup><note><pitch><step>A</step><alter>-1</alter><octave>2</octave></pitch><duration>8</duration><voice>2</voice><type>whole</type><staff>2</staff></note></measure><measure number="16"><attributes/><note><pitch><step>C</step><octave>4</octave></pitch><duration>2</duration><voice>1</voice><type>quarter</type><staff>1</staff><lyric number="1"><syllabic>single</syllabic><text>Eve-</text></lyric></note><note><pitch><step>C</step><octave>4</octave></pitch><duration>6</duration><voice>1</voice><type>half</type><dot/><staff>1</staff><lyric number="1"><syllabic>single</syllabic><text>ry</text></lyric></note><backup><duration>8</duration></backup><note><pitch><step>C</step><octave>2</octave></pitch><duration>2</duration><voice>2</voice><type>quarter</type><staff>2</staff></note><note><pitch><step>C</step><octave>3</octave></pitch><duration>2</duration><voice>2</voice><type>quarter</type><staff>2</staff></note><note><pitch><step>C</step><octave>2</octave></pitch><duration>2</duration><voice>2</voice><type>quarter</type><staff>2</staff></note><note><pitch><step>C</step><octave>3</octave></pitch><duration>2</duration><voice>2</voice><type>quarter</type><staff>2</staff></note></measure><measure number="17"><attributes/><note><pitch><step>C</step><octave>4</octave></pitch><duration>2</duration><voice>1</voice><type>quarter</type><staff>1</staff><lyric number="1"><syllabic>single</syllabic><text>round</text></lyric></note><note><pitch><step>C</step><octave>4</octave></pitch><duration>6</duration><voice>1</voice><type>half</type><dot/><staff>1</staff><lyric number="1"><syllabic>single</syllabic><text>goes</text></lyric></note><backup><duration>8</duration></backup><note><pitch><step>C</step><octave>2</octave></pitch><duration>2</duration><voice>2</voice><type>quarter</type><staff>2</staff></note><note><pitch><step>C</step><octave>3</octave></pitch><duration>2</duration><voice>2</voice><type>quarter</type><staff>2</staff></note><note><pitch><step>C</step><octave>2</octave></pitch><duration>2</duration><voice>2</voice><type>quarter</type><staff>2</staff></note><note><pitch><step>C</step><octave>3</octave></pitch><duration>2</duration><voice>2</voice><type>quarter</type><staff>2</staff></note></measure><measure number="18"><attributes/><note><pitch><step>E</step><alter>-1</alter><octave>4</octave></pitch><duration>2</duration><voice>1</voice><type>quarter</type><staff>1</staff><lyric number="1"><syllabic>single</syllabic><text>high-</text></lyric></note><note><pitch><step>E</step><alter>-1</alter><octave>4</octave></pitch><duration>6</duration><voice>1</voice><type>half</type><dot/><staff>1</staff><lyric number="1"><syllabic>single</syllabic><text>er,</text></lyric></note><backup><duration>8</duration></backup><note><pitch><step>E</step><alter>-1</alter><octave>2</octave></pitch><duration>2</duration><voice>2</voice><type>quarter</type><staff>2</staff></note><note><pitch><step>E</step><alter>-1</alter><octave>3</octave></pitch><duration>2</duration><voice>2</voice><type>quarter</type><staff>2</staff></note><note><pitch><step>E</step><alter>-1</alter><octave>2</octave></pitch><duration>2</duration><voice>2</voice><type>quarter</type><staff>2</staff></note><note><pitch><step>E</step><alter>-1</alter><octave>3</octave></pitch><duration>2</duration><voice>2</voice><type>quarter</type><staff>2</staff></note></measure><measure number="19"><attributes/><note><pitch><step>E</step><alter>-1</alter><octave>4</octave></pitch><duration>2</duration><voice>1</voice><type>quarter</type><staff>1</staff><lyric number="1"><syllabic>single</syllabic><text>high</text></lyric></note><note><pitch><step>C</step><octave>4</octave></pitch><duration>6</duration><voice>1</voice><type>half</type><dot/><staff>1</staff><lyric number="1"><syllabic>single</syllabic><text>er,</text></lyric></note><backup><duration>8</duration></backup><note><pitch><step>C</step><octave>2</octave></pitch><duration>2</duration><voice>2</voice><type>quarter</type><staff>2</staff></note><note><pitch><step>C</step><octave>3</octave></pitch><duration>2</duration><voice>2</voice><type>quarter</type><staff>2</staff></note><note><pitch><step>C</step><octave>2</octave></pitch><duration>2</duration><voice>2</voice><type>quarter</type><staff>2</staff></note><note><pitch><step>C</step><octave>3</octave></pitch><duration>2</duration><voice>2</voice><type>quarter</type><staff>2</staff></note></measure><measure number="20"><attributes/><note><pitch><step>B</step><alter>-1</alter><octave>3</octave></pitch><duration>2</duration><voice>1</voice><type>quarter</type><staff>1</staff><lyric number="1"><syllabic>single</syllabic><text>Eve-</text></lyric></note><note><pitch><step>B</step><alter>-1</alter><octave>3</octave></pitch><duration>6</duration><voice>1</voice><type>half</type><dot/><staff>1</staff><lyric number="1"><syllabic>single</syllabic><text>ry</text></lyric></note><backup><duration>8</duration></backup><note><pitch><step>B</step><alter>-1</alter><octave>2</octave></pitch><duration>2</duration><voice>2</voice><type>quarter</type><staff>2</staff></note><note><pitch><step>B</step><alter>-1</alter><octave>2</octave></pitch><duration>2</duration><voice>2</voice><type>quarter</type><staff>2</staff></note><note><pitch><step>B</step><alter>-1</alter><octave>2</octave></pitch><duration>2</duration><voice>2</voice><type>quarter</type><staff>2</staff></note><note><pitch><step>B</step><alter>-1</alter><octave>2</octave></pitch><duration>2</duration><voice>2</voice><type>quarter</type><staff>2</staff></note></measure><measure number="21"><attributes/><note><pitch><step>B</step><alter>-1</alter><octave>3</octave></pitch><duration>2</duration><voice>1</voice><type>quarter</type><staff>1</staff><lyric number="1"><syllabic>single</syllabic><text>round</text></lyric></note><note><pitch><step>B</step><alter>-1</alter><octave>3</octave></pitch><duration>6</duration><voice>1</voice><type>half</type><dot/><staff>1</staff><lyric number="1"><syllabic>single</syllabic><text>goes</text></lyric></note><backup><duration>8</duration></backup><note><pitch><step>B</step><alter>-1</alter><octave>2</octave></pitch><duration>2</duration><voice>2</voice><type>quarter</type><staff>2</staff></note><note><pitch><step>B</step><alter>-1</alter><octave>2</octave></pitch><duration>2</duration><voice>2</voice><type>quarter</type><staff>2</staff></note><note><pitch><step>B</step><alter>-1</alter><octave>2</octave></pitch><duration>2</duration><voice>2</voice><type>quarter</type><staff>2</staff></note><note><pitch><step>B</step><alter>-1</alter><octave>2</octave></pitch><duration>2</duration><voice>2</voice><type>quarter</type><staff>2</staff></note></measure><measure number="22"><attributes/><note><pitch><step>C</step><alter>1</alter><octave>4</octave></pitch><duration>2</duration><voice>1</voice><type>quarter</type><accidental>sharp</accidental><staff>1</staff><lyric number="1"><syllabic>single</syllabic><text>high-</text></lyric></note><note><pitch><step>F</step><octave>4</octave></pitch><duration>6</duration><voice>1</voice><type>half</type><dot/><staff>1</staff><lyric number="1"><syllabic>single</syllabic><text>er</text></lyric></note><backup><duration>8</duration></backup><note><pitch><step>C</step><alter>1</alter><octave>2</octave></pitch><duration>2</duration><voice>2</voice><type>quarter</type><accidental>sharp</accidental><staff>2</staff></note><note><pitch><step>C</step><alter>1</alter><octave>3</octave></pitch><duration>2</duration><voice>2</voice><type>quarter</type><accidental>sharp</accidental><staff>2</staff></note><note><pitch><step>C</step><alter>1</alter><octave>2</octave></pitch><duration>2</duration><voice>2</voice><type>quarter</type><staff>2</staff></note><note><pitch><step>C</step><alter>1</alter><octave>3</octave></pitch><duration>2</duration><voice>2</voice><type>quarter</type><staff>2</staff></note></measure><measure number="23"><attributes/><note><pitch><step>C</step><alter>1</alter><octave>4</octave></pitch><duration>2</duration><voice>1</voice><type>quarter</type><accidental>sharp</accidental><staff>1</staff><lyric number="1"><syllabic>single</syllabic><text>high-</text></lyric></note><note><pitch><step>B</step><alter>-1</alter><octave>3</octave></pitch><duration>6</duration><voice>1</voice><type>half</type><dot/><staff>1</staff><lyric number="1"><syllabic>single</syllabic><text>er,</text></lyric></note><backup><duration>8</duration></backup><note><pitch><step>C</step><alter>1</alter><octave>2</octave></pitch><duration>2</duration><voice>2</voice><type>quarter</type><accidental>sharp</accidental><staff>2</staff></note><note><pitch><step>C</step><alter>1</alter><octave>3</octave></pitch><duration>2</duration><voice>2</voice><type>quarter</type><accidental>sharp</accidental><staff>2</staff></note><note><pitch><step>C</step><alter>1</alter><octave>2</octave></pitch><duration>2</duration><voice>2</voice><type>quarter</type><staff>2</staff></note><note><pitch><step>C</step><alter>1</alter><octave>3</octave></pitch><duration>2</duration><voice>2</voice><type>quarter</type><staff>2</staff></note></measure><measure number="24"><attributes/><note><pitch><step>A</step><alter>-1</alter><octave>4</octave></pitch><duration>2</duration><voice>1</voice><type>quarter</type><staff>1</staff><lyric number="1"><syllabic>single</syllabic><text>Eve-</text></lyric></note><note><pitch><step>A</step><alter>-1</alter><octave>4</octave></pitch><duration>6</duration><voice>1</voice><type>half</type><dot/><staff>1</staff><lyric number="1"><syllabic>single</syllabic><text>ry</text></lyric></note><backup><duration>8</duration></backup><note><pitch><step>A</step><alter>-1</alter><octave>2</octave></pitch><duration>2</duration><voice>2</voice><type>quarter</type><staff>2</staff></note><note><pitch><step>A</step><alter>-1</alter><octave>3</octave></pitch><duration>2</duration><voice>2</voice><type>quarter</type><staff>2</staff></note><note><pitch><step>A</step><alter>-1</alter><octave>2</octave></pitch><duration>2</duration><voice>2</voice><type>quarter</type><staff>2</staff></note><note><pitch><step>A</step><alter>-1</alter><octave>3</octave></pitch><duration>2</duration><voice>2</voice><type>quarter</type><staff>2</staff></note></measure><measure number="25"><attributes/><note><pitch><step>A</step><alter>-1</alter><octave>4</octave></pitch><duration>2</duration><voice>1</voice><type>quarter</type><staff>1</staff><lyric number="1"><syllabic>single</syllabic><text>round,</text></lyric></note><note><pitch><step>A</step><alter>-1</alter><octave>4</octave></pitch><duration>6</duration><voice>1</voice><type>half</type><dot/><staff>1</staff><lyric number="1"><syllabic>single</syllabic><text>goes</text></lyric></note><backup><duration>8</duration></backup><note><pitch><step>A</step><alter>-1</alter><octave>2</octave></pitch><duration>2</duration><voice>2</voice><type>quarter</type><staff>2</staff></note><note><pitch><step>A</step><alter>-1</alter><octave>3</octave></pitch><duration>2</duration><voice>2</voice><type>quarter</type><staff>2</staff></note><note><pitch><step>A</step><alter>-1</alter><octave>2</octave></pitch><duration>2</duration><voice>2</voice><type>quarter</type><staff>2</staff></note><note><pitch><step>A</step><alter>-1</alter><octave>3</octave></pitch><duration>2</duration><voice>2</voice><type>quarter</type><staff>2</staff></note></measure><measure number="26"><attributes/><note><pitch><step>A</step><alter>-1</alter><octave>4</octave></pitch><duration>2</duration><voice>1</voice><type>quarter</type><staff>1</staff><lyric number="1"><syllabic>single</syllabic><text>high-</text></lyric></note><note><pitch><step>A</step><alter>-1</alter><octave>4</octave></pitch><duration>6</duration><voice>1</voice><type>half</type><dot/><staff>1</staff><lyric number="1"><syllabic>single</syllabic><text>er,</text></lyric></note><backup><duration>8</duration></backup><note><pitch><step>A</step><alter>-1</alter><octave>2</octave></pitch><duration>2</duration><voice>2</voice><type>quarter</type><staff>2</staff></note><note><pitch><step>A</step><alter>-1</alter><octave>3</octave></pitch><duration>2</duration><voice>2</voice><type>quarter</type><staff>2</staff></note><note><pitch><step>A</step><alter>-1</alter><octave>2</octave></pitch><duration>2</duration><voice>2</voice><type>quarter</type><staff>2</staff></note><note><pitch><step>A</step><alter>-1</alter><octave>3</octave></pitch><duration>2</duration><voice>2</voice><type>quarter</type><staff>2</staff></note></measure><measure number="27"><attributes/><note><pitch><step>B</step><alter>-1</alter><octave>4</octave></pitch><duration>2</duration><voice>1</voice><type>quarter</type><staff>1</staff><lyric number="1"><syllabic>single</syllabic><text>high-</text></lyric></note><note><pitch><step>A</step><alter>-1</alter><octave>4</octave></pitch><duration>6</duration><voice>1</voice><type>half</type><dot/><staff>1</staff><lyric number="1"><syllabic>single</syllabic><text>er,</text></lyric></note><backup><duration>8</duration></backup><note><pitch><step>B</step><alter>-1</alter><octave>2</octave></pitch><duration>2</duration><voice>2</voice><type>quarter</type><staff>2</staff></note><note><pitch><step>A</step><alter>-1</alter><octave>2</octave></pitch><duration>2</duration><voice>2</voice><type>quarter</type><staff>2</staff></note><note><pitch><step>A</step><alter>-1</alter><octave>2</octave></pitch><duration>2</duration><voice>2</voice><type>quarter</type><staff>2</staff></note><note><pitch><step>A</step><alter>-1</alter><octave>2</octave></pitch><duration>2</duration><voice>2</voice><type>quarter</type><staff>2</staff></note></measure><measure number="28"><attributes/><note><pitch><step>C</step><octave>4</octave></pitch><duration>2</duration><voice>1</voice><type>quarter</type><staff>1</staff><lyric number="1"><syllabic>single</syllabic><text>Sol-</text></lyric></note><note><pitch><step>C</step><octave>4</octave></pitch><duration>6</duration><voice>1</voice><type>half</type><dot/><staff>1</staff><lyric number="1"><syllabic>single</syllabic><text>diers</text></lyric></note><backup><duration>8</duration></backup><note><pitch><step>C</step><octave>2</octave></pitch><duration>2</duration><voice>2</voice><type>quarter</type><staff>2</staff></note><note><pitch><step>C</step><octave>3</octave></pitch><duration>2</duration><voice>2</voice><type>quarter</type><staff>2</staff></note><note><pitch><step>C</step><octave>2</octave></pitch><duration>2</duration><voice>2</voice><type>quarter</type><staff>2</staff></note><note><pitch><step>C</step><octave>3</octave></pitch><duration>2</duration><voice>2</voice><type>quarter</type><staff>2</staff></note></measure><measure number="29"><attributes/><note><pitch><step>C</step><octave>4</octave></pitch><duration>2</duration><voice>1</voice><type>quarter</type><staff>1</staff><lyric number="1"><syllabic>single</syllabic><text>of</text></lyric></note><note><pitch><step>B</step><alter>-1</alter><octave>3</octave></pitch><duration>6</duration><voice>1</voice><type>half</type><dot/><staff>1</staff><lyric number="1"><syllabic>single</syllabic><text>the</text></lyric></note><backup><duration>8</duration></backup><note><pitch><step>C</step><octave>2</octave></pitch><duration>2</duration><voice>2</voice><type>quarter</type><staff>2</staff></note><note><pitch><step>B</step><alter>-1</alter><octave>2</octave></pitch><duration>2</duration><voice>2</voice><type>quarter</type><staff>2</staff></note><note><pitch><step>B</step><alter>-1</alter><octave>2</octave></pitch><duration>2</duration><voice>2</voice><type>quarter</type><staff>2</staff></note><note><pitch><step>B</step><alter>-1</alter><octave>2</octave></pitch><duration>2</duration><voice>2</voice><type>quarter</type><staff>2</staff></note></measure><measure number="30"><attributes/><note><pitch><step>A</step><alter>-1</alter><octave>3</octave></pitch><duration>8</duration><voice>1</voice><type>whole</type><staff>1</staff><lyric number="1"><syllabic>single</syllabic><text>cross.</text></lyric></note><backup><duration>8</duration></backup><note><pitch><step>A</step><alter>-1</alter><octave>2</octave></pitch><duration>8</duration><voice>2</voice><type>whole</type><staff>2</staff></note><barline location="right"><bar-style>light-heavy</bar-style><repeat direction="backward" times="1" winged="none"/></barline></measure></part></score-partwise>