<?xml version="1.0" encoding="UTF-8" standalone="no"?><!DOCTYPE score-partwise PUBLIC "-//Recordare//DTD MusicXML 3.1 Partwise//EN" "http://www.musicxml.org/dtds/partwise.dtd"><score-partwise version="3.1"><identification><creator type="composer">James Lord Pierpoint</creator><rights>Public Domain.  Arranged by Aliese Watts 2019</rights><encoding><software>Flat</software><encoding-date>2020-05-04</encoding-date></encoding><source>https://flat.io/score/5bb50e5ea9558e18cbadba50-jingle-bells</source></identification><defaults><scaling><millimeters>7</millimeters><tenths>40</tenths></scaling><page-layout><page-height>1596.5714285714287</page-height><page-width>1233.7142857142858</page-width><page-margins type="both"><left-margin>72.57142857142857</left-margin><right-margin>72.57142857142857</right-margin><top-margin>72.57142857142857</top-margin><bottom-margin>72.57142857142857</bottom-margin></page-margins></page-layout><system-layout><system-distance>115.2</system-distance></system-layout><staff-layout><staff-distance>72.57142857142857</staff-distance></staff-layout></defaults><credit><credit-type>title</credit-type><credit-words>Jingle Bells</credit-words></credit><part-list><score-part id="P1"><part-name>Grand Piano</part-name><part-abbreviation>Pno.</part-abbreviation><score-instrument id="P1-I1"><instrument-name>Grand Piano</instrument-name></score-instrument><midi-instrument id="P1-I1"><midi-channel>1</midi-channel><midi-program>1</midi-program><volume>100</volume></midi-instrument></score-part></part-list><part id="P1"><measure number="1"><attributes><divisions>1</divisions><key><fifths>0</fifths></key><time><beats>4</beats><beat-type>4</beat-type></time><staves>2</staves><clef number="1"><sign>G</sign><line>2</line></clef><clef number="2"><sign>F</sign><line>4</line></clef><staff-details><staff-lines>5</staff-lines></staff-details></attributes><sound tempo="120"/><sound/><direction placement="above"><direction-type><metronome><beat-unit>quarter</beat-unit><per-minute>120</per-minute></metronome></direction-type><staff>1</staff></direction><direction placement="above"><direction-type><words>C</words></direction-type><staff>1</staff></direction><note><pitch><step>G</step><octave>4</octave></pitch><duration>1</duration><voice>1</voice><type>quarter</type><staff>1</staff><lyric number="1"><syllabic>single</syllabic><text>Da-</text></lyric></note><note><pitch><step>E</step><octave>5</octave></pitch><duration>1</duration><voice>1</voice><type>quarter</type><staff>1</staff><lyric number="1"><syllabic>single</syllabic><text>shing</text></lyric></note><note><pitch><step>D</step><octave>5</octave></pitch><duration>1</duration><voice>1</voice><type>quarter</type><staff>1</staff><lyric number="1"><syllabic>single</syllabic><text>through</text></lyric></note><note><pitch><step>C</step><octave>5</octave></pitch><duration>1</duration><voice>1</voice><type>quarter</type><staff>1</staff><lyric number="1"><syllabic>single</syllabic><text>the</text></lyric></note><backup><duration>4</duration></backup><note><pitch><step>C</step><octave>3</octave></pitch><duration>1</duration><voice>2</voice><type>quarter</type><staff>2</staff></note><note><pitch><step>C</step><octave>3</octave></pitch><duration>1</duration><voice>2</voice><type>quarter</type><staff>2</staff></note><note><chord/><pitch><step>E</step><octave>3</octave></pitch><duration>1</duration><voice>2</voice><type>quarter</type><staff>2</staff></note><note><chord/><pitch><step>G</step><octave>3</octave></pitch><duration>1</duration><voice>2</voice><type>quarter</type><staff>2</staff></note><note><pitch><step>C</step><octave>3</octave></pitch><duration>1</duration><voice>2</voice><type>quarter</type><staff>2</staff></note><note><pitch><step>C</step><octave>3</octave></pitch><duration>1</duration><voice>2</voice><type>quarter</type><staff>2</staff></note><note><chord/><pitch><step>E</step><octave>3</octave></pitch><duration>1</duration><voice>2</voice><type>quarter</type><staff>2</staff></note><note><chord/><pitch><step>G</step><octave>3</octave></pitch><duration>1</duration><voice>2</voice><type>quarter</type><staff>2</staff></note></measure><measure number="2"><attributes><divisions>4</divisions></attributes><direction placement="above"><direction-type><words>C</words></direction-type><staff>1</staff></direction><note><pitch><step>G</step><octave>4</octave></pitch><duration>12</duration><voice>1</voice><type>half</type><dot/><staff>1</staff><lyric number="1"><syllabic>single</syllabic><text>snow,</text></lyric></note><note><pitch><step>G</step><octave>4</octave></pitch><duration>2</duration><voice>1</voice><type>eighth</type><staff>1</staff><beam number="1">begin</beam><lyric number="1"><syllabic>single</syllabic><text>In</text></lyric></note><note><pitch><step>G</step><octave>4</octave></pitch><duration>2</duration><voice>1</voice><type>eighth</type><staff>1</staff><beam number="1">end</beam><lyric number="1"><syllabic>single</syllabic><text>a</text></lyric></note><backup><duration>16</duration></backup><note><pitch><step>C</step><octave>3</octave></pitch><duration>4</duration><voice>2</voice><type>quarter</type><staff>2</staff></note><note><pitch><step>C</step><octave>3</octave></pitch><duration>4</duration><voice>2</voice><type>quarter</type><staff>2</staff></note><note><chord/><pitch><step>E</step><octave>3</octave></pitch><duration>4</duration><voice>2</voice><type>quarter</type><staff>2</staff></note><note><chord/><pitch><step>G</step><octave>3</octave></pitch><duration>4</duration><voice>2</voice><type>quarter</type><staff>2</staff></note><note><pitch><step>C</step><octave>3</octave></pitch><duration>4</duration><voice>2</voice><type>quarter</type><staff>2</staff></note><note><pitch><step>C</step><octave>3</octave></pitch><duration>4</duration><voice>2</voice><type>quarter</type><staff>2</staff></note><note><chord/><pitch><step>E</step><octave>3</octave></pitch><duration>4</duration><voice>2</voice><type>quarter</type><staff>2</staff></note><note><chord/><pitch><step>G</step><octave>3</octave></pitch><duration>4</duration><voice>2</voice><type>quarter</type><staff>2</staff></note></measure><measure number="3"><attributes><divisions>2</divisions></attributes><direction placement="above"><direction-type><words>C</words></direction-type><staff>1</staff></direction><note><pitch><step>G</step><octave>4</octave></pitch><duration>2</duration><voice>1</voice><type>quarter</type><staff>1</staff><lyric number="1"><syllabic>single</syllabic><text>one</text></lyric></note><note><pitch><step>E</step><octave>5</octave></pitch><duration>2</duration><voice>1</voice><type>quarter</type><staff>1</staff><lyric number="1"><syllabic>single</syllabic><text>horse</text></lyric></note><note><pitch><step>D</step><octave>5</octave></pitch><duration>2</duration><voice>1</voice><type>quarter</type><staff>1</staff><lyric number="1"><syllabic>single</syllabic><text>o-</text></lyric></note><note><pitch><step>C</step><octave>5</octave></pitch><duration>2</duration><voice>1</voice><type>quarter</type><staff>1</staff><lyric number="1"><syllabic>single</syllabic><text>pen</text></lyric></note><backup><duration>8</duration></backup><note><pitch><step>C</step><octave>3</octave></pitch><duration>2</duration><voice>2</voice><type>quarter</type><staff>2</staff></note><note><pitch><step>C</step><octave>3</octave></pitch><duration>2</duration><voice>2</voice><type>quarter</type><staff>2</staff></note><note><chord/><pitch><step>E</step><octave>3</octave></pitch><duration>2</duration><voice>2</voice><type>quarter</type><staff>2</staff></note><note><chord/><pitch><step>G</step><octave>3</octave></pitch><duration>2</duration><voice>2</voice><type>quarter</type><staff>2</staff></note><note><pitch><step>C</step><octave>3</octave></pitch><duration>2</duration><voice>2</voice><type>quarter</type><staff>2</staff></note><note><pitch><step>C</step><octave>3</octave></pitch><duration>2</duration><voice>2</voice><type>quarter</type><staff>2</staff></note><note><chord/><pitch><step>E</step><octave>3</octave></pitch><duration>2</duration><voice>2</voice><type>quarter</type><staff>2</staff></note><note><chord/><pitch><step>G</step><octave>3</octave></pitch><duration>2</duration><voice>2</voice><type>quarter</type><staff>2</staff></note></measure><measure number="4"><attributes/><direction placement="above"><direction-type><words>F</words></direction-type><staff>1</staff></direction><note><pitch><step>A</step><octave>4</octave></pitch><duration>8</duration><voice>1</voice><type>whole</type><staff>1</staff><lyric number="1"><syllabic>single</syllabic><text>sleigh,</text></lyric></note><backup><duration>8</duration></backup><note><pitch><step>F</step><octave>3</octave></pitch><duration>2</duration><voice>2</voice><type>quarter</type><staff>2</staff></note><note><pitch><step>F</step><octave>3</octave></pitch><duration>2</duration><voice>2</voice><type>quarter</type><staff>2</staff></note><note><chord/><pitch><step>A</step><octave>3</octave></pitch><duration>2</duration><voice>2</voice><type>quarter</type><staff>2</staff></note><note><chord/><pitch><step>C</step><octave>4</octave></pitch><duration>2</duration><voice>2</voice><type>quarter</type><staff>2</staff></note><note><pitch><step>F</step><octave>3</octave></pitch><duration>2</duration><voice>2</voice><type>quarter</type><staff>2</staff></note><note><pitch><step>F</step><octave>3</octave></pitch><duration>2</duration><voice>2</voice><type>quarter</type><staff>2</staff></note><note><chord/><pitch><step>A</step><octave>3</octave></pitch><duration>2</duration><voice>2</voice><type>quarter</type><staff>2</staff></note><note><chord/><pitch><step>C</step><octave>4</octave></pitch><duration>2</duration><voice>2</voice><type>quarter</type><staff>2</staff></note></measure><measure number="5"><attributes/><direction placement="above"><direction-type><words>F</words></direction-type><staff>1</staff></direction><note><pitch><step>A</step><octave>4</octave></pitch><duration>2</duration><voice>1</voice><type>quarter</type><staff>1</staff><lyric number="1"><syllabic>single</syllabic><text>O'er</text></lyric></note><note><pitch><step>F</step><octave>5</octave></pitch><duration>2</duration><voice>1</voice><type>quarter</type><staff>1</staff><lyric number="1"><syllabic>single</syllabic><text>the</text></lyric></note><note><pitch><step>E</step><octave>5</octave></pitch><duration>2</duration><voice>1</voice><type>quarter</type><staff>1</staff><lyric number="1"><syllabic>single</syllabic><text>fields</text></lyric></note><note><pitch><step>D</step><octave>5</octave></pitch><duration>2</duration><voice>1</voice><type>quarter</type><staff>1</staff><lyric number="1"><syllabic>single</syllabic><text>we</text></lyric></note><backup><duration>8</duration></backup><note><pitch><step>F</step><octave>3</octave></pitch><duration>2</duration><voice>2</voice><type>quarter</type><staff>2</staff></note><note><pitch><step>F</step><octave>3</octave></pitch><duration>2</duration><voice>2</voice><type>quarter</type><staff>2</staff></note><note><chord/><pitch><step>A</step><octave>3</octave></pitch><duration>2</duration><voice>2</voice><type>quarter</type><staff>2</staff></note><note><chord/><pitch><step>C</step><octave>4</octave></pitch><duration>2</duration><voice>2</voice><type>quarter</type><staff>2</staff></note><note><pitch><step>F</step><octave>3</octave></pitch><duration>2</duration><voice>2</voice><type>quarter</type><staff>2</staff></note><note><pitch><step>F</step><octave>3</octave></pitch><duration>2</duration><voice>2</voice><type>quarter</type><staff>2</staff></note><note><chord/><pitch><step>A</step><octave>3</octave></pitch><duration>2</duration><voice>2</voice><type>quarter</type><staff>2</staff></note><note><chord/><pitch><step>C</step><octave>4</octave></pitch><duration>2</duration><voice>2</voice><type>quarter</type><staff>2</staff></note></measure><measure number="6"><attributes/><direction placement="above"><direction-type><words>G7</words></direction-type><staff>1</staff></direction><note><pitch><step>B</step><octave>4</octave></pitch><duration>8</duration><voice>1</voice><type>whole</type><staff>1</staff><lyric number="1"><syllabic>single</syllabic><text>go,</text></lyric></note><backup><duration>8</duration></backup><note><pitch><step>G</step><octave>3</octave></pitch><duration>2</duration><voice>2</voice><type>quarter</type><staff>2</staff></note><note><pitch><step>G</step><octave>3</octave></pitch><duration>2</duration><voice>2</voice><type>quarter</type><staff>2</staff></note><note><chord/><pitch><step>B</step><octave>3</octave></pitch><duration>2</duration><voice>2</voice><type>quarter</type><staff>2</staff></note><note><chord/><pitch><step>D</step><octave>4</octave></pitch><duration>2</duration><voice>2</voice><type>quarter</type><staff>2</staff></note><note><chord/><pitch><step>F</step><octave>4</octave></pitch><duration>2</duration><voice>2</voice><type>quarter</type><staff>2</staff></note><note><pitch><step>G</step><octave>3</octave></pitch><duration>2</duration><voice>2</voice><type>quarter</type><staff>2</staff></note><note><pitch><step>G</step><octave>3</octave></pitch><duration>2</duration><voice>2</voice><type>quarter</type><staff>2</staff></note><note><chord/><pitch><step>B</step><octave>3</octave></pitch><duration>2</duration><voice>2</voice><type>quarter</type><staff>2</staff></note><note><chord/><pitch><step>D</step><octave>4</octave></pitch><duration>2</duration><voice>2</voice><type>quarter</type><staff>2</staff></note><note><chord/><pitch><step>F</step><octave>4</octave></pitch><duration>2</duration><voice>2</voice><type>quarter</type><staff>2</staff></note></measure><measure number="7"><attributes/><direction placement="above"><direction-type><words>G7</words></direction-type><staff>1</staff></direction><note><pitch><step>G</step><octave>5</octave></pitch><duration>2</duration><voice>1</voice><type>quarter</type><staff>1</staff><lyric number="1"><syllabic>single</syllabic><text>Laugh-</text></lyric></note><note><pitch><step>G</step><octave>5</octave></pitch><duration>2</duration><voice>1</voice><type>quarter</type><staff>1</staff><lyric number="1"><syllabic>single</syllabic><text>ing</text></lyric></note><note><pitch><step>F</step><octave>5</octave></pitch><duration>2</duration><voice>1</voice><type>quarter</type><staff>1</staff><lyric number="1"><syllabic>single</syllabic><text>all</text></lyric></note><note><pitch><step>D</step><octave>5</octave></pitch><duration>2</duration><voice>1</voice><type>quarter</type><staff>1</staff><lyric number="1"><syllabic>single</syllabic><text>the</text></lyric></note><backup><duration>8</duration></backup><note><pitch><step>G</step><octave>3</octave></pitch><duration>2</duration><voice>2</voice><type>quarter</type><staff>2</staff></note><note><pitch><step>G</step><octave>3</octave></pitch><duration>2</duration><voice>2</voice><type>quarter</type><staff>2</staff></note><note><chord/><pitch><step>B</step><octave>3</octave></pitch><duration>2</duration><voice>2</voice><type>quarter</type><staff>2</staff></note><note><chord/><pitch><step>D</step><octave>4</octave></pitch><duration>2</duration><voice>2</voice><type>quarter</type><staff>2</staff></note><note><chord/><pitch><step>F</step><octave>4</octave></pitch><duration>2</duration><voice>2</voice><type>quarter</type><staff>2</staff></note><note><pitch><step>G</step><octave>3</octave></pitch><duration>2</duration><voice>2</voice><type>quarter</type><staff>2</staff></note><note><pitch><step>G</step><octave>3</octave></pitch><duration>2</duration><voice>2</voice><type>quarter</type><staff>2</staff></note><note><chord/><pitch><step>B</step><octave>3</octave></pitch><duration>2</duration><voice>2</voice><type>quarter</type><staff>2</staff></note><note><chord/><pitch><step>D</step><octave>4</octave></pitch><duration>2</duration><voice>2</voice><type>quarter</type><staff>2</staff></note><note><chord/><pitch><step>F</step><octave>4</octave></pitch><duration>2</duration><voice>2</voice><type>quarter</type><staff>2</staff></note></measure><measure number="8"><attributes/><direction placement="above"><direction-type><words>C</words></direction-type><staff>1</staff></direction><note><pitch><step>E</step><octave>5</octave></pitch><duration>8</duration><voice>1</voice><type>whole</type><staff>1</staff><lyric number="1"><syllabic>single</syllabic><text>way,</text></lyric></note><backup><duration>8</duration></backup><note><pitch><step>C</step><octave>3</octave></pitch><duration>2</duration><voice>2</voice><type>quarter</type><staff>2</staff></note><note><pitch><step>C</step><octave>3</octave></pitch><duration>2</duration><voice>2</voice><type>quarter</type><staff>2</staff></note><note><chord/><pitch><step>E</step><octave>3</octave></pitch><duration>2</duration><voice>2</voice><type>quarter</type><staff>2</staff></note><note><chord/><pitch><step>G</step><octave>3</octave></pitch><duration>2</duration><voice>2</voice><type>quarter</type><staff>2</staff></note><note><pitch><step>C</step><octave>3</octave></pitch><duration>2</duration><voice>2</voice><type>quarter</type><staff>2</staff></note><note><pitch><step>C</step><octave>3</octave></pitch><duration>2</duration><voice>2</voice><type>quarter</type><staff>2</staff></note><note><chord/><pitch><step>E</step><octave>3</octave></pitch><duration>2</duration><voice>2</voice><type>quarter</type><staff>2</staff></note><note><chord/><pitch><step>G</step><octave>3</octave></pitch><duration>2</duration><voice>2</voice><type>quarter</type><staff>2</staff></note></measure><measure number="9"><attributes/><direction placement="above"><direction-type><words>C</words></direction-type><staff>1</staff></direction><note><pitch><step>G</step><octave>4</octave></pitch><duration>2</duration><voice>1</voice><type>quarter</type><staff>1</staff><lyric number="1"><syllabic>single</syllabic><text>Bells</text></lyric></note><note><pitch><step>E</step><octave>5</octave></pitch><duration>2</duration><voice>1</voice><type>quarter</type><staff>1</staff><lyric number="1"><syllabic>single</syllabic><text>on</text></lyric></note><note><pitch><step>D</step><octave>5</octave></pitch><duration>2</duration><voice>1</voice><type>quarter</type><staff>1</staff><lyric number="1"><syllabic>single</syllabic><text>Bob-</text></lyric></note><note><pitch><step>C</step><octave>5</octave></pitch><duration>2</duration><voice>1</voice><type>quarter</type><staff>1</staff><lyric number="1"><syllabic>single</syllabic><text>tail</text></lyric></note><backup><duration>8</duration></backup><note><pitch><step>C</step><octave>3</octave></pitch><duration>2</duration><voice>2</voice><type>quarter</type><staff>2</staff></note><note><pitch><step>C</step><octave>3</octave></pitch><duration>2</duration><voice>2</voice><type>quarter</type><staff>2</staff></note><note><chord/><pitch><step>E</step><octave>3</octave></pitch><duration>2</duration><voice>2</voice><type>quarter</type><staff>2</staff></note><note><chord/><pitch><step>G</step><octave>3</octave></pitch><duration>2</duration><voice>2</voice><type>quarter</type><staff>2</staff></note><note><pitch><step>C</step><octave>3</octave></pitch><duration>2</duration><voice>2</voice><type>quarter</type><staff>2</staff></note><note><pitch><step>C</step><octave>3</octave></pitch><duration>2</duration><voice>2</voice><type>quarter</type><staff>2</staff></note><note><chord/><pitch><step>E</step><octave>3</octave></pitch><duration>2</duration><voice>2</voice><type>quarter</type><staff>2</staff></note><note><chord/><pitch><step>G</step><octave>3</octave></pitch><duration>2</duration><voice>2</voice><type>quarter</type><staff>2</staff></note></measure><measure number="10"><attributes/><direction placement="above"><direction-type><words>C</words></direction-type><staff>1</staff></direction><note><pitch><step>G</step><octave>4</octave></pitch><duration>8</duration><voice>1</voice><type>whole</type><staff>1</staff><lyric number="1"><syllabic>single</syllabic><text>ring,</text></lyric></note><backup><duration>8</duration></backup><note><pitch><step>C</step><octave>3</octave></pitch><duration>2</duration><voice>2</voice><type>quarter</type><staff>2</staff></note><note><pitch><step>C</step><octave>3</octave></pitch><duration>2</duration><voice>2</voice><type>quarter</type><staff>2</staff></note><note><chord/><pitch><step>E</step><octave>3</octave></pitch><duration>2</duration><voice>2</voice><type>quarter</type><staff>2</staff></note><note><chord/><pitch><step>G</step><octave>3</octave></pitch><duration>2</duration><voice>2</voice><type>quarter</type><staff>2</staff></note><note><pitch><step>C</step><octave>3</octave></pitch><duration>2</duration><voice>2</voice><type>quarter</type><staff>2</staff></note><note><pitch><step>C</step><octave>3</octave></pitch><duration>2</duration><voice>2</voice><type>quarter</type><staff>2</staff></note><note><chord/><pitch><step>E</step><octave>3</octave></pitch><duration>2</duration><voice>2</voice><type>quarter</type><staff>2</staff></note><note><chord/><pitch><step>G</step><octave>3</octave></pitch><duration>2</duration><voice>2</voice><type>quarter</type><staff>2</staff></note></measure><measure number="11"><attributes/><direction placement="above"><direction-type><words>C</words></direction-type><staff>1</staff></direction><note><pitch><step>G</step><octave>4</octave></pitch><duration>2</duration><voice>1</voice><type>quarter</type><staff>1</staff><lyric number="1"><syllabic>single</syllabic><text>Mak-</text></lyric></note><note><pitch><step>E</step><octave>5</octave></pitch><duration>2</duration><voice>1</voice><type>quarter</type><staff>1</staff><lyric number="1"><syllabic>single</syllabic><text>ing</text></lyric></note><note><pitch><step>D</step><octave>5</octave></pitch><duration>2</duration><voice>1</voice><type>quarter</type><staff>1</staff><lyric number="1"><syllabic>single</syllabic><text>spir-</text></lyric></note><note><pitch><step>C</step><octave>5</octave></pitch><duration>2</duration><voice>1</voice><type>quarter</type><staff>1</staff><lyric number="1"><syllabic>single</syllabic><text>its</text></lyric></note><backup><duration>8</duration></backup><note><pitch><step>C</step><octave>3</octave></pitch><duration>2</duration><voice>2</voice><type>quarter</type><staff>2</staff></note><note><pitch><step>C</step><octave>3</octave></pitch><duration>2</duration><voice>2</voice><type>quarter</type><staff>2</staff></note><note><chord/><pitch><step>E</step><octave>3</octave></pitch><duration>2</duration><voice>2</voice><type>quarter</type><staff>2</staff></note><note><chord/><pitch><step>G</step><octave>3</octave></pitch><duration>2</duration><voice>2</voice><type>quarter</type><staff>2</staff></note><note><pitch><step>C</step><octave>3</octave></pitch><duration>2</duration><voice>2</voice><type>quarter</type><staff>2</staff></note><note><pitch><step>C</step><octave>3</octave></pitch><duration>2</duration><voice>2</voice><type>quarter</type><staff>2</staff></note><note><chord/><pitch><step>E</step><octave>3</octave></pitch><duration>2</duration><voice>2</voice><type>quarter</type><staff>2</staff></note><note><chord/><pitch><step>G</step><octave>3</octave></pitch><duration>2</duration><voice>2</voice><type>quarter</type><staff>2</staff></note></measure><measure number="12"><attributes/><direction placement="above"><direction-type><words>F</words></direction-type><staff>1</staff></direction><note><pitch><step>A</step><octave>4</octave></pitch><duration>6</duration><voice>1</voice><type>half</type><dot/><staff>1</staff><lyric number="1"><syllabic>single</syllabic><text>bright,</text></lyric></note><note><pitch><step>A</step><octave>4</octave></pitch><duration>2</duration><voice>1</voice><type>quarter</type><staff>1</staff><lyric number="1"><syllabic>single</syllabic><text>What</text></lyric></note><backup><duration>8</duration></backup><note><pitch><step>F</step><octave>3</octave></pitch><duration>2</duration><voice>2</voice><type>quarter</type><staff>2</staff></note><note><pitch><step>F</step><octave>3</octave></pitch><duration>2</duration><voice>2</voice><type>quarter</type><staff>2</staff></note><note><chord/><pitch><step>A</step><octave>3</octave></pitch><duration>2</duration><voice>2</voice><type>quarter</type><staff>2</staff></note><note><chord/><pitch><step>C</step><octave>4</octave></pitch><duration>2</duration><voice>2</voice><type>quarter</type><staff>2</staff></note><note><pitch><step>F</step><octave>3</octave></pitch><duration>2</duration><voice>2</voice><type>quarter</type><staff>2</staff></note><note><pitch><step>F</step><octave>3</octave></pitch><duration>2</duration><voice>2</voice><type>quarter</type><staff>2</staff></note><note><chord/><pitch><step>A</step><octave>3</octave></pitch><duration>2</duration><voice>2</voice><type>quarter</type><staff>2</staff></note><note><chord/><pitch><step>C</step><octave>4</octave></pitch><duration>2</duration><voice>2</voice><type>quarter</type><staff>2</staff></note></measure><measure number="13"><attributes/><direction placement="above"><direction-type><words>F</words></direction-type><staff>1</staff></direction><note><pitch><step>A</step><octave>4</octave></pitch><duration>2</duration><voice>1</voice><type>quarter</type><staff>1</staff><lyric number="1"><syllabic>single</syllabic><text>fun</text></lyric></note><note><pitch><step>F</step><octave>5</octave></pitch><duration>2</duration><voice>1</voice><type>quarter</type><staff>1</staff><lyric number="1"><syllabic>single</syllabic><text>it</text></lyric></note><note><pitch><step>E</step><octave>5</octave></pitch><duration>2</duration><voice>1</voice><type>quarter</type><staff>1</staff><lyric number="1"><syllabic>single</syllabic><text>is</text></lyric></note><note><pitch><step>D</step><octave>5</octave></pitch><duration>2</duration><voice>1</voice><type>quarter</type><staff>1</staff><lyric number="1"><syllabic>single</syllabic><text>to</text></lyric></note><backup><duration>8</duration></backup><note><pitch><step>F</step><octave>3</octave></pitch><duration>2</duration><voice>2</voice><type>quarter</type><staff>2</staff></note><note><pitch><step>F</step><octave>3</octave></pitch><duration>2</duration><voice>2</voice><type>quarter</type><staff>2</staff></note><note><chord/><pitch><step>A</step><octave>3</octave></pitch><duration>2</duration><voice>2</voice><type>quarter</type><staff>2</staff></note><note><chord/><pitch><step>C</step><octave>4</octave></pitch><duration>2</duration><voice>2</voice><type>quarter</type><staff>2</staff></note><note><pitch><step>F</step><octave>3</octave></pitch><duration>2</duration><voice>2</voice><type>quarter</type><staff>2</staff></note><note><pitch><step>F</step><octave>3</octave></pitch><duration>2</duration><voice>2</voice><type>quarter</type><staff>2</staff></note><note><chord/><pitch><step>A</step><octave>3</octave></pitch><duration>2</duration><voice>2</voice><type>quarter</type><staff>2</staff></note><note><chord/><pitch><step>C</step><octave>4</octave></pitch><duration>2</duration><voice>2</voice><type>quarter</type><staff>2</staff></note></measure><measure number="14"><attributes/><direction placement="above"><direction-type><words>G7</words></direction-type><staff>1</staff></direction><note><pitch><step>G</step><octave>5</octave></pitch><duration>2</duration><voice>1</voice><type>quarter</type><staff>1</staff><lyric number="1"><syllabic>single</syllabic><text>sing</text></lyric></note><note><pitch><step>G</step><octave>5</octave></pitch><duration>2</duration><voice>1</voice><type>quarter</type><staff>1</staff><lyric number="1"><syllabic>single</syllabic><text>and</text></lyric></note><note><pitch><step>G</step><octave>5</octave></pitch><duration>2</duration><voice>1</voice><type>quarter</type><staff>1</staff><lyric number="1"><syllabic>single</syllabic><text>ride</text></lyric></note><note><pitch><step>G</step><octave>5</octave></pitch><duration>2</duration><voice>1</voice><type>quarter</type><staff>1</staff><lyric number="1"><syllabic>single</syllabic><text>a</text></lyric></note><backup><duration>8</duration></backup><note><pitch><step>G</step><octave>3</octave></pitch><duration>2</duration><voice>2</voice><type>quarter</type><staff>2</staff></note><note><pitch><step>G</step><octave>3</octave></pitch><duration>2</duration><voice>2</voice><type>quarter</type><staff>2</staff></note><note><chord/><pitch><step>B</step><octave>3</octave></pitch><duration>2</duration><voice>2</voice><type>quarter</type><staff>2</staff></note><note><chord/><pitch><step>D</step><octave>4</octave></pitch><duration>2</duration><voice>2</voice><type>quarter</type><staff>2</staff></note><note><chord/><pitch><step>F</step><octave>4</octave></pitch><duration>2</duration><voice>2</voice><type>quarter</type><staff>2</staff></note><note><pitch><step>G</step><octave>3</octave></pitch><duration>2</duration><voice>2</voice><type>quarter</type><staff>2</staff></note><note><pitch><step>G</step><octave>3</octave></pitch><duration>2</duration><voice>2</voice><type>quarter</type><staff>2</staff></note><note><chord/><pitch><step>B</step><octave>3</octave></pitch><duration>2</duration><voice>2</voice><type>quarter</type><staff>2</staff></note><note><chord/><pitch><step>D</step><octave>4</octave></pitch><duration>2</duration><voice>2</voice><type>quarter</type><staff>2</staff></note><note><chord/><pitch><step>F</step><octave>4</octave></pitch><duration>2</duration><voice>2</voice><type>quarter</type><staff>2</staff></note></measure><measure number="15"><attributes/><direction placement="above"><direction-type><words>G7</words></direction-type><staff>1</staff></direction><note><pitch><step>A</step><octave>5</octave></pitch><duration>2</duration><voice>1</voice><type>quarter</type><staff>1</staff><lyric number="1"><syllabic>single</syllabic><text>sleigh-</text></lyric></note><note><pitch><step>G</step><octave>5</octave></pitch><duration>2</duration><voice>1</voice><type>quarter</type><staff>1</staff><lyric number="1"><syllabic>single</syllabic><text>ing</text></lyric></note><note><pitch><step>F</step><octave>5</octave></pitch><duration>2</duration><voice>1</voice><type>quarter</type><staff>1</staff><lyric number="1"><syllabic>single</syllabic><text>song</text></lyric></note><note><pitch><step>D</step><octave>5</octave></pitch><duration>2</duration><voice>1</voice><type>quarter</type><staff>1</staff><lyric number="1"><syllabic>single</syllabic><text>to-</text></lyric></note><backup><duration>8</duration></backup><note><pitch><step>G</step><octave>3</octave></pitch><duration>2</duration><voice>2</voice><type>quarter</type><staff>2</staff></note><note><pitch><step>G</step><octave>3</octave></pitch><duration>2</duration><voice>2</voice><type>quarter</type><staff>2</staff></note><note><chord/><pitch><step>B</step><octave>3</octave></pitch><duration>2</duration><voice>2</voice><type>quarter</type><staff>2</staff></note><note><chord/><pitch><step>D</step><octave>4</octave></pitch><duration>2</duration><voice>2</voice><type>quarter</type><staff>2</staff></note><note><chord/><pitch><step>F</step><octave>4</octave></pitch><duration>2</duration><voice>2</voice><type>quarter</type><staff>2</staff></note><note><pitch><step>G</step><octave>3</octave></pitch><duration>2</duration><voice>2</voice><type>quarter</type><staff>2</staff></note><note><pitch><step>G</step><octave>3</octave></pitch><duration>2</duration><voice>2</voice><type>quarter</type><staff>2</staff></note><note><chord/><pitch><step>B</step><octave>3</octave></pitch><duration>2</duration><voice>2</voice><type>quarter</type><staff>2</staff></note><note><chord/><pitch><step>D</step><octave>4</octave></pitch><duration>2</duration><voice>2</voice><type>quarter</type><staff>2</staff></note><note><chord/><pitch><step>F</step><octave>4</octave></pitch><duration>2</duration><voice>2</voice><type>quarter</type><staff>2</staff></note></measure><measure number="16"><attributes/><direction placement="above"><direction-type><words>C</words></direction-type><staff>1</staff></direction><note><pitch><step>C</step><octave>5</octave></pitch><duration>4</duration><voice>1</voice><type>half</type><staff>1</staff><lyric number="1"><syllabic>single</syllabic><text>night,</text></lyric></note><note><pitch><step>G</step><octave>5</octave></pitch><duration>4</duration><voice>1</voice><type>half</type><staff>1</staff><lyric number="1"><syllabic>single</syllabic><text>Oh</text></lyric></note><backup><duration>8</duration></backup><note><pitch><step>C</step><octave>3</octave></pitch><duration>2</duration><voice>2</voice><type>quarter</type><staff>2</staff></note><note><pitch><step>C</step><octave>3</octave></pitch><duration>2</duration><voice>2</voice><type>quarter</type><staff>2</staff></note><note><chord/><pitch><step>E</step><octave>3</octave></pitch><duration>2</duration><voice>2</voice><type>quarter</type><staff>2</staff></note><note><chord/><pitch><step>G</step><octave>3</octave></pitch><duration>2</duration><voice>2</voice><type>quarter</type><staff>2</staff></note><note><pitch><step>C</step><octave>3</octave></pitch><duration>2</duration><voice>2</voice><type>quarter</type><staff>2</staff></note><note><pitch><step>C</step><octave>3</octave></pitch><duration>2</duration><voice>2</voice><type>quarter</type><staff>2</staff></note><note><chord/><pitch><step>E</step><octave>3</octave></pitch><duration>2</duration><voice>2</voice><type>quarter</type><staff>2</staff></note><note><chord/><pitch><step>G</step><octave>3</octave></pitch><duration>2</duration><voice>2</voice><type>quarter</type><staff>2</staff></note></measure><measure number="17"><attributes/><direction placement="above"><direction-type><words>C</words></direction-type><staff>1</staff></direction><note><pitch><step>E</step><octave>5</octave></pitch><duration>2</duration><voice>1</voice><type>quarter</type><staff>1</staff><lyric number="1"><syllabic>single</syllabic><text>jin-</text></lyric></note><note><pitch><step>E</step><octave>5</octave></pitch><duration>2</duration><voice>1</voice><type>quarter</type><staff>1</staff><lyric number="1"><syllabic>single</syllabic><text>gle</text></lyric></note><note><pitch><step>E</step><octave>5</octave></pitch><duration>4</duration><voice>1</voice><type>half</type><staff>1</staff><lyric number="1"><syllabic>single</syllabic><text>bells</text></lyric></note><backup><duration>8</duration></backup><note><pitch><step>C</step><octave>3</octave></pitch><duration>2</duration><voice>2</voice><type>quarter</type><staff>2</staff></note><note><pitch><step>C</step><octave>3</octave></pitch><duration>2</duration><voice>2</voice><type>quarter</type><staff>2</staff></note><note><chord/><pitch><step>E</step><octave>3</octave></pitch><duration>2</duration><voice>2</voice><type>quarter</type><staff>2</staff></note><note><chord/><pitch><step>G</step><octave>3</octave></pitch><duration>2</duration><voice>2</voice><type>quarter</type><staff>2</staff></note><note><pitch><step>C</step><octave>3</octave></pitch><duration>2</duration><voice>2</voice><type>quarter</type><staff>2</staff></note><note><pitch><step>C</step><octave>3</octave></pitch><duration>2</duration><voice>2</voice><type>quarter</type><staff>2</staff></note><note><chord/><pitch><step>E</step><octave>3</octave></pitch><duration>2</duration><voice>2</voice><type>quarter</type><staff>2</staff></note><note><chord/><pitch><step>G</step><octave>3</octave></pitch><duration>2</duration><voice>2</voice><type>quarter</type><staff>2</staff></note></measure><measure number="18"><attributes/><direction placement="above"><direction-type><words>C</words></direction-type><staff>1</staff></direction><note><pitch><step>E</step><octave>5</octave></pitch><duration>2</duration><voice>1</voice><type>quarter</type><staff>1</staff><lyric number="1"><syllabic>single</syllabic><text>jin-</text></lyric></note><note><pitch><step>E</step><octave>5</octave></pitch><duration>2</duration><voice>1</voice><type>quarter</type><staff>1</staff><lyric number="1"><syllabic>single</syllabic><text>gle</text></lyric></note><note><pitch><step>E</step><octave>5</octave></pitch><duration>4</duration><voice>1</voice><type>half</type><staff>1</staff><lyric number="1"><syllabic>single</syllabic><text>bells</text></lyric></note><backup><duration>8</duration></backup><note><pitch><step>C</step><octave>3</octave></pitch><duration>2</duration><voice>2</voice><type>quarter</type><staff>2</staff></note><note><pitch><step>C</step><octave>3</octave></pitch><duration>2</duration><voice>2</voice><type>quarter</type><staff>2</staff></note><note><chord/><pitch><step>E</step><octave>3</octave></pitch><duration>2</duration><voice>2</voice><type>quarter</type><staff>2</staff></note><note><chord/><pitch><step>G</step><octave>3</octave></pitch><duration>2</duration><voice>2</voice><type>quarter</type><staff>2</staff></note><note><pitch><step>C</step><octave>3</octave></pitch><duration>2</duration><voice>2</voice><type>quarter</type><staff>2</staff></note><note><pitch><step>C</step><octave>3</octave></pitch><duration>2</duration><voice>2</voice><type>quarter</type><staff>2</staff></note><note><chord/><pitch><step>E</step><octave>3</octave></pitch><duration>2</duration><voice>2</voice><type>quarter</type><staff>2</staff></note><note><chord/><pitch><step>G</step><octave>3</octave></pitch><duration>2</duration><voice>2</voice><type>quarter</type><staff>2</staff></note></measure><measure number="19"><attributes/><direction placement="above"><direction-type><words>C</words></direction-type><staff>1</staff></direction><note><pitch><step>E</step><octave>5</octave></pitch><duration>2</duration><voice>1</voice><type>quarter</type><staff>1</staff><lyric number="1"><syllabic>single</syllabic><text>jin-</text></lyric></note><note><pitch><step>G</step><octave>5</octave></pitch><duration>2</duration><voice>1</voice><type>quarter</type><staff>1</staff><lyric number="1"><syllabic>single</syllabic><text>gle</text></lyric></note><note><pitch><step>C</step><octave>5</octave></pitch><duration>3</duration><voice>1</voice><type>quarter</type><dot/><staff>1</staff><lyric number="1"><syllabic>single</syllabic><text>all</text></lyric></note><note><pitch><step>D</step><octave>5</octave></pitch><duration>1</duration><voice>1</voice><type>eighth</type><staff>1</staff><lyric number="1"><syllabic>single</syllabic><text>the</text></lyric></note><backup><duration>8</duration></backup><note><pitch><step>C</step><octave>3</octave></pitch><duration>2</duration><voice>2</voice><type>quarter</type><staff>2</staff></note><note><pitch><step>C</step><octave>3</octave></pitch><duration>2</duration><voice>2</voice><type>quarter</type><staff>2</staff></note><note><chord/><pitch><step>E</step><octave>3</octave></pitch><duration>2</duration><voice>2</voice><type>quarter</type><staff>2</staff></note><note><chord/><pitch><step>G</step><octave>3</octave></pitch><duration>2</duration><voice>2</voice><type>quarter</type><staff>2</staff></note><note><pitch><step>C</step><octave>3</octave></pitch><duration>2</duration><voice>2</voice><type>quarter</type><staff>2</staff></note><note><pitch><step>C</step><octave>3</octave></pitch><duration>2</duration><voice>2</voice><type>quarter</type><staff>2</staff></note><note><chord/><pitch><step>E</step><octave>3</octave></pitch><duration>2</duration><voice>2</voice><type>quarter</type><staff>2</staff></note><note><chord/><pitch><step>G</step><octave>3</octave></pitch><duration>2</duration><voice>2</voice><type>quarter</type><staff>2</staff></note></measure><measure number="20"><attributes/><direction placement="above"><direction-type><words>C</words></direction-type><staff>1</staff></direction><note><pitch><step>E</step><octave>5</octave></pitch><duration>8</duration><voice>1</voice><type>whole</type><staff>1</staff><lyric number="1"><syllabic>single</syllabic><text>way,</text></lyric></note><backup><duration>8</duration></backup><note><pitch><step>C</step><octave>3</octave></pitch><duration>2</duration><voice>2</voice><type>quarter</type><staff>2</staff></note><note><pitch><step>C</step><octave>3</octave></pitch><duration>2</duration><voice>2</voice><type>quarter</type><staff>2</staff></note><note><chord/><pitch><step>E</step><octave>3</octave></pitch><duration>2</duration><voice>2</voice><type>quarter</type><staff>2</staff></note><note><chord/><pitch><step>G</step><octave>3</octave></pitch><duration>2</duration><voice>2</voice><type>quarter</type><staff>2</staff></note><note><pitch><step>C</step><octave>3</octave></pitch><duration>2</duration><voice>2</voice><type>quarter</type><staff>2</staff></note><note><pitch><step>C</step><octave>3</octave></pitch><duration>2</duration><voice>2</voice><type>quarter</type><staff>2</staff></note><note><chord/><pitch><step>E</step><octave>3</octave></pitch><duration>2</duration><voice>2</voice><type>quarter</type><staff>2</staff></note><note><chord/><pitch><step>G</step><octave>3</octave></pitch><duration>2</duration><voice>2</voice><type>quarter</type><staff>2</staff></note></measure><measure number="21"><attributes/><direction placement="above"><direction-type><words>F</words></direction-type><staff>1</staff></direction><note><pitch><step>F</step><octave>5</octave></pitch><duration>2</duration><voice>1</voice><type>quarter</type><staff>1</staff><lyric number="1"><syllabic>single</syllabic><text>All</text></lyric></note><note><pitch><step>F</step><octave>5</octave></pitch><duration>2</duration><voice>1</voice><type>quarter</type><staff>1</staff><lyric number="1"><syllabic>single</syllabic><text>what</text></lyric></note><note><pitch><step>F</step><octave>5</octave></pitch><duration>3</duration><voice>1</voice><type>quarter</type><dot/><staff>1</staff><lyric number="1"><syllabic>single</syllabic><text>fun</text></lyric></note><note><pitch><step>F</step><octave>5</octave></pitch><duration>1</duration><voice>1</voice><type>eighth</type><staff>1</staff><lyric number="1"><syllabic>single</syllabic><text>it</text></lyric></note><backup><duration>8</duration></backup><note><pitch><step>F</step><octave>3</octave></pitch><duration>2</duration><voice>2</voice><type>quarter</type><staff>2</staff></note><note><pitch><step>F</step><octave>3</octave></pitch><duration>2</duration><voice>2</voice><type>quarter</type><staff>2</staff></note><note><chord/><pitch><step>A</step><octave>3</octave></pitch><duration>2</duration><voice>2</voice><type>quarter</type><staff>2</staff></note><note><chord/><pitch><step>C</step><octave>4</octave></pitch><duration>2</duration><voice>2</voice><type>quarter</type><staff>2</staff></note><note><pitch><step>F</step><octave>3</octave></pitch><duration>2</duration><voice>2</voice><type>quarter</type><staff>2</staff></note><note><pitch><step>A</step><octave>3</octave></pitch><duration>2</duration><voice>2</voice><type>quarter</type><staff>2</staff></note><note><chord/><pitch><step>C</step><octave>4</octave></pitch><duration>2</duration><voice>2</voice><type>quarter</type><staff>2</staff></note><note><chord/><pitch><step>F</step><octave>3</octave></pitch><duration>2</duration><voice>2</voice><type>quarter</type><staff>2</staff></note></measure><measure number="22"><attributes/><direction placement="above"><direction-type><words>C</words></direction-type><staff>1</staff></direction><note><pitch><step>F</step><octave>5</octave></pitch><duration>2</duration><voice>1</voice><type>quarter</type><staff>1</staff><lyric number="1"><syllabic>single</syllabic><text>is</text></lyric></note><note><pitch><step>E</step><octave>5</octave></pitch><duration>2</duration><voice>1</voice><type>quarter</type><staff>1</staff><lyric number="1"><syllabic>single</syllabic><text>to</text></lyric></note><note><pitch><step>E</step><octave>5</octave></pitch><duration>2</duration><voice>1</voice><type>quarter</type><staff>1</staff><lyric number="1"><syllabic>single</syllabic><text>ride</text></lyric></note><note><pitch><step>E</step><octave>5</octave></pitch><duration>1</duration><voice>1</voice><type>eighth</type><staff>1</staff><beam number="1">begin</beam><lyric number="1"><syllabic>single</syllabic><text>in</text></lyric></note><note><pitch><step>E</step><octave>5</octave></pitch><duration>1</duration><voice>1</voice><type>eighth</type><staff>1</staff><beam number="1">end</beam><lyric number="1"><syllabic>single</syllabic><text>a</text></lyric></note><backup><duration>8</duration></backup><note><pitch><step>C</step><octave>3</octave></pitch><duration>2</duration><voice>2</voice><type>quarter</type><staff>2</staff></note><note><pitch><step>C</step><octave>3</octave></pitch><duration>2</duration><voice>2</voice><type>quarter</type><staff>2</staff></note><note><chord/><pitch><step>E</step><octave>3</octave></pitch><duration>2</duration><voice>2</voice><type>quarter</type><staff>2</staff></note><note><chord/><pitch><step>G</step><octave>3</octave></pitch><duration>2</duration><voice>2</voice><type>quarter</type><staff>2</staff></note><note><pitch><step>C</step><octave>3</octave></pitch><duration>2</duration><voice>2</voice><type>quarter</type><staff>2</staff></note><note><pitch><step>C</step><octave>3</octave></pitch><duration>2</duration><voice>2</voice><type>quarter</type><staff>2</staff></note><note><chord/><pitch><step>E</step><octave>3</octave></pitch><duration>2</duration><voice>2</voice><type>quarter</type><staff>2</staff></note><note><chord/><pitch><step>G</step><octave>3</octave></pitch><duration>2</duration><voice>2</voice><type>quarter</type><staff>2</staff></note></measure><measure number="23"><attributes/><direction placement="above"><direction-type><words>D7</words></direction-type><staff>1</staff></direction><note><pitch><step>E</step><octave>5</octave></pitch><duration>2</duration><voice>1</voice><type>quarter</type><staff>1</staff><lyric number="1"><syllabic>single</syllabic><text>one-</text></lyric></note><note><pitch><step>D</step><octave>5</octave></pitch><duration>2</duration><voice>1</voice><type>quarter</type><staff>1</staff><lyric number="1"><syllabic>single</syllabic><text>horse</text></lyric></note><note><pitch><step>D</step><octave>5</octave></pitch><duration>2</duration><voice>1</voice><type>quarter</type><staff>1</staff><lyric number="1"><syllabic>single</syllabic><text>op-</text></lyric></note><note><pitch><step>E</step><octave>5</octave></pitch><duration>2</duration><voice>1</voice><type>quarter</type><staff>1</staff><lyric number="1"><syllabic>single</syllabic><text>en</text></lyric></note><backup><duration>8</duration></backup><note><pitch><step>D</step><octave>3</octave></pitch><duration>2</duration><voice>2</voice><type>quarter</type><staff>2</staff></note><note><pitch><step>D</step><octave>3</octave></pitch><duration>2</duration><voice>2</voice><type>quarter</type><staff>2</staff></note><note><chord/><pitch><step>F</step><alter>1</alter><octave>3</octave></pitch><duration>2</duration><voice>2</voice><type>quarter</type><accidental>sharp</accidental><staff>2</staff></note><note><chord/><pitch><step>A</step><octave>3</octave></pitch><duration>2</duration><voice>2</voice><type>quarter</type><staff>2</staff></note><note><chord/><pitch><step>C</step><octave>4</octave></pitch><duration>2</duration><voice>2</voice><type>quarter</type><staff>2</staff></note><note><pitch><step>D</step><octave>3</octave></pitch><duration>2</duration><voice>2</voice><type>quarter</type><staff>2</staff></note><note><pitch><step>D</step><octave>3</octave></pitch><duration>2</duration><voice>2</voice><type>quarter</type><staff>2</staff></note><note><chord/><pitch><step>F</step><alter>1</alter><octave>3</octave></pitch><duration>2</duration><voice>2</voice><type>quarter</type><staff>2</staff></note><note><chord/><pitch><step>A</step><octave>3</octave></pitch><duration>2</duration><voice>2</voice><type>quarter</type><staff>2</staff></note><note><chord/><pitch><step>C</step><octave>4</octave></pitch><duration>2</duration><voice>2</voice><type>quarter</type><staff>2</staff></note></measure><measure number="24"><attributes/><direction placement="above"><direction-type><words>G</words></direction-type><staff>1</staff></direction><note><pitch><step>D</step><octave>5</octave></pitch><duration>4</duration><voice>1</voice><type>half</type><staff>1</staff><lyric number="1"><syllabic>single</syllabic><text>sleigh,</text></lyric></note><direction placement="above"><direction-type><words>G7</words></direction-type><staff>1</staff></direction><note><pitch><step>G</step><octave>5</octave></pitch><duration>4</duration><voice>1</voice><type>half</type><staff>1</staff><lyric number="1"><syllabic>single</syllabic><text>Oh</text></lyric></note><backup><duration>8</duration></backup><note><pitch><step>G</step><octave>3</octave></pitch><duration>2</duration><voice>2</voice><type>quarter</type><staff>2</staff></note><note><pitch><step>G</step><octave>3</octave></pitch><duration>2</duration><voice>2</voice><type>quarter</type><staff>2</staff></note><note><chord/><pitch><step>B</step><octave>3</octave></pitch><duration>2</duration><voice>2</voice><type>quarter</type><staff>2</staff></note><note><chord/><pitch><step>D</step><octave>4</octave></pitch><duration>2</duration><voice>2</voice><type>quarter</type><staff>2</staff></note><note><pitch><step>G</step><octave>3</octave></pitch><duration>2</duration><voice>2</voice><type>quarter</type><staff>2</staff></note><note><pitch><step>G</step><octave>3</octave></pitch><duration>2</duration><voice>2</voice><type>quarter</type><staff>2</staff></note><note><chord/><pitch><step>B</step><octave>3</octave></pitch><duration>2</duration><voice>2</voice><type>quarter</type><staff>2</staff></note><note><chord/><pitch><step>D</step><octave>4</octave></pitch><duration>2</duration><voice>2</voice><type>quarter</type><staff>2</staff></note><note><chord/><pitch><step>F</step><octave>4</octave></pitch><duration>2</duration><voice>2</voice><type>quarter</type><staff>2</staff></note></measure><measure number="25"><attributes/><direction placement="above"><direction-type><words>C</words></direction-type><staff>1</staff></direction><note><pitch><step>E</step><octave>5</octave></pitch><duration>2</duration><voice>1</voice><type>quarter</type><staff>1</staff><lyric number="1"><syllabic>single</syllabic><text>jin-</text></lyric></note><note><pitch><step>E</step><octave>5</octave></pitch><duration>2</duration><voice>1</voice><type>quarter</type><staff>1</staff><lyric number="1"><syllabic>single</syllabic><text>gle</text></lyric></note><note><pitch><step>E</step><octave>5</octave></pitch><duration>4</duration><voice>1</voice><type>half</type><staff>1</staff><lyric number="1"><syllabic>single</syllabic><text>bells</text></lyric></note><backup><duration>8</duration></backup><note><pitch><step>C</step><octave>3</octave></pitch><duration>2</duration><voice>2</voice><type>quarter</type><staff>2</staff></note><note><pitch><step>C</step><octave>3</octave></pitch><duration>2</duration><voice>2</voice><type>quarter</type><staff>2</staff></note><note><chord/><pitch><step>E</step><octave>3</octave></pitch><duration>2</duration><voice>2</voice><type>quarter</type><staff>2</staff></note><note><chord/><pitch><step>G</step><octave>3</octave></pitch><duration>2</duration><voice>2</voice><type>quarter</type><staff>2</staff></note><note><pitch><step>C</step><octave>3</octave></pitch><duration>2</duration><voice>2</voice><type>quarter</type><staff>2</staff></note><note><pitch><step>C</step><octave>3</octave></pitch><duration>2</duration><voice>2</voice><type>quarter</type><staff>2</staff></note><note><chord/><pitch><step>E</step><octave>3</octave></pitch><duration>2</duration><voice>2</voice><type>quarter</type><staff>2</staff></note><note><chord/><pitch><step>G</step><octave>3</octave></pitch><duration>2</duration><voice>2</voice><type>quarter</type><staff>2</staff></note></measure><measure number="26"><attributes/><direction placement="above"><direction-type><words>C</words></direction-type><staff>1</staff></direction><note><pitch><step>E</step><octave>5</octave></pitch><duration>2</duration><voice>1</voice><type>quarter</type><staff>1</staff><lyric number="1"><syllabic>single</syllabic><text>jin-</text></lyric></note><note><pitch><step>E</step><octave>5</octave></pitch><duration>2</duration><voice>1</voice><type>quarter</type><staff>1</staff><lyric number="1"><syllabic>single</syllabic><text>gle</text></lyric></note><note><pitch><step>E</step><octave>5</octave></pitch><duration>4</duration><voice>1</voice><type>half</type><staff>1</staff><lyric number="1"><syllabic>single</syllabic><text>bells</text></lyric></note><backup><duration>8</duration></backup><note><pitch><step>C</step><octave>3</octave></pitch><duration>2</duration><voice>2</voice><type>quarter</type><staff>2</staff></note><note><pitch><step>C</step><octave>3</octave></pitch><duration>2</duration><voice>2</voice><type>quarter</type><staff>2</staff></note><note><chord/><pitch><step>E</step><octave>3</octave></pitch><duration>2</duration><voice>2</voice><type>quarter</type><staff>2</staff></note><note><chord/><pitch><step>G</step><octave>3</octave></pitch><duration>2</duration><voice>2</voice><type>quarter</type><staff>2</staff></note><note><pitch><step>C</step><octave>3</octave></pitch><duration>2</duration><voice>2</voice><type>quarter</type><staff>2</staff></note><note><pitch><step>C</step><octave>3</octave></pitch><duration>2</duration><voice>2</voice><type>quarter</type><staff>2</staff></note><note><chord/><pitch><step>E</step><octave>3</octave></pitch><duration>2</duration><voice>2</voice><type>quarter</type><staff>2</staff></note><note><chord/><pitch><step>G</step><octave>3</octave></pitch><duration>2</duration><voice>2</voice><type>quarter</type><staff>2</staff></note></measure><measure number="27"><attributes/><direction placement="above"><direction-type><words>C</words></direction-type><staff>1</staff></direction><note><pitch><step>E</step><octave>5</octave></pitch><duration>2</duration><voice>1</voice><type>quarter</type><staff>1</staff><lyric number="1"><syllabic>single</syllabic><text>jin-</text></lyric></note><note><pitch><step>G</step><octave>5</octave></pitch><duration>2</duration><voice>1</voice><type>quarter</type><staff>1</staff><lyric number="1"><syllabic>single</syllabic><text>gle</text></lyric></note><note><pitch><step>C</step><octave>5</octave></pitch><duration>3</duration><voice>1</voice><type>quarter</type><dot/><staff>1</staff><lyric number="1"><syllabic>single</syllabic><text>all</text></lyric></note><note><pitch><step>D</step><octave>5</octave></pitch><duration>1</duration><voice>1</voice><type>eighth</type><staff>1</staff><lyric number="1"><syllabic>single</syllabic><text>the</text></lyric></note><backup><duration>8</duration></backup><note><pitch><step>C</step><octave>3</octave></pitch><duration>2</duration><voice>2</voice><type>quarter</type><staff>2</staff></note><note><pitch><step>C</step><octave>3</octave></pitch><duration>2</duration><voice>2</voice><type>quarter</type><staff>2</staff></note><note><chord/><pitch><step>E</step><octave>3</octave></pitch><duration>2</duration><voice>2</voice><type>quarter</type><staff>2</staff></note><note><chord/><pitch><step>G</step><octave>3</octave></pitch><duration>2</duration><voice>2</voice><type>quarter</type><staff>2</staff></note><note><pitch><step>C</step><octave>3</octave></pitch><duration>2</duration><voice>2</voice><type>quarter</type><staff>2</staff></note><note><pitch><step>C</step><octave>3</octave></pitch><duration>2</duration><voice>2</voice><type>quarter</type><staff>2</staff></note><note><chord/><pitch><step>E</step><octave>3</octave></pitch><duration>2</duration><voice>2</voice><type>quarter</type><staff>2</staff></note><note><chord/><pitch><step>G</step><octave>3</octave></pitch><duration>2</duration><voice>2</voice><type>quarter</type><staff>2</staff></note></measure><measure number="28"><attributes/><direction placement="above"><direction-type><words>C</words></direction-type><staff>1</staff></direction><note><pitch><step>E</step><octave>5</octave></pitch><duration>8</duration><voice>1</voice><type>whole</type><staff>1</staff><lyric number="1"><syllabic>single</syllabic><text>way,</text></lyric></note><backup><duration>8</duration></backup><note><pitch><step>C</step><octave>3</octave></pitch><duration>2</duration><voice>2</voice><type>quarter</type><staff>2</staff></note><note><pitch><step>C</step><octave>3</octave></pitch><duration>2</duration><voice>2</voice><type>quarter</type><staff>2</staff></note><note><chord/><pitch><step>E</step><octave>3</octave></pitch><duration>2</duration><voice>2</voice><type>quarter</type><staff>2</staff></note><note><chord/><pitch><step>G</step><octave>3</octave></pitch><duration>2</duration><voice>2</voice><type>quarter</type><staff>2</staff></note><note><pitch><step>C</step><octave>3</octave></pitch><duration>2</duration><voice>2</voice><type>quarter</type><staff>2</staff></note><note><pitch><step>C</step><octave>3</octave></pitch><duration>2</duration><voice>2</voice><type>quarter</type><staff>2</staff></note><note><chord/><pitch><step>E</step><octave>3</octave></pitch><duration>2</duration><voice>2</voice><type>quarter</type><staff>2</staff></note><note><chord/><pitch><step>G</step><octave>3</octave></pitch><duration>2</duration><voice>2</voice><type>quarter</type><staff>2</staff></note></measure><measure number="29"><attributes/><direction placement="above"><direction-type><words>F</words></direction-type><staff>1</staff></direction><note><pitch><step>F</step><octave>5</octave></pitch><duration>2</duration><voice>1</voice><type>quarter</type><staff>1</staff><lyric number="1"><syllabic>single</syllabic><text>All</text></lyric></note><note><pitch><step>F</step><octave>5</octave></pitch><duration>2</duration><voice>1</voice><type>quarter</type><staff>1</staff><lyric number="1"><syllabic>single</syllabic><text>what</text></lyric></note><note><pitch><step>F</step><octave>5</octave></pitch><duration>3</duration><voice>1</voice><type>quarter</type><dot/><staff>1</staff><lyric number="1"><syllabic>single</syllabic><text>fun</text></lyric></note><note><pitch><step>F</step><octave>5</octave></pitch><duration>1</duration><voice>1</voice><type>eighth</type><staff>1</staff><lyric number="1"><syllabic>single</syllabic><text>it</text></lyric></note><backup><duration>8</duration></backup><note><pitch><step>F</step><octave>3</octave></pitch><duration>2</duration><voice>2</voice><type>quarter</type><staff>2</staff></note><note><pitch><step>F</step><octave>3</octave></pitch><duration>2</duration><voice>2</voice><type>quarter</type><staff>2</staff></note><note><chord/><pitch><step>A</step><octave>3</octave></pitch><duration>2</duration><voice>2</voice><type>quarter</type><staff>2</staff></note><note><chord/><pitch><step>C</step><octave>4</octave></pitch><duration>2</duration><voice>2</voice><type>quarter</type><staff>2</staff></note><note><pitch><step>F</step><octave>3</octave></pitch><duration>2</duration><voice>2</voice><type>quarter</type><staff>2</staff></note><note><pitch><step>F</step><octave>3</octave></pitch><duration>2</duration><voice>2</voice><type>quarter</type><staff>2</staff></note><note><chord/><pitch><step>A</step><octave>3</octave></pitch><duration>2</duration><voice>2</voice><type>quarter</type><staff>2</staff></note><note><chord/><pitch><step>C</step><octave>4</octave></pitch><duration>2</duration><voice>2</voice><type>quarter</type><staff>2</staff></note></measure><measure number="30"><attributes/><direction placement="above"><direction-type><words>C</words></direction-type><staff>1</staff></direction><note><pitch><step>F</step><octave>5</octave></pitch><duration>2</duration><voice>1</voice><type>quarter</type><staff>1</staff><lyric number="1"><syllabic>single</syllabic><text>is</text></lyric></note><note><pitch><step>E</step><octave>5</octave></pitch><duration>2</duration><voice>1</voice><type>quarter</type><staff>1</staff><lyric number="1"><syllabic>single</syllabic><text>to</text></lyric></note><note><pitch><step>E</step><octave>5</octave></pitch><duration>2</duration><voice>1</voice><type>quarter</type><staff>1</staff><lyric number="1"><syllabic>single</syllabic><text>ride</text></lyric></note><note><pitch><step>E</step><octave>5</octave></pitch><duration>1</duration><voice>1</voice><type>eighth</type><staff>1</staff><beam number="1">begin</beam><lyric number="1"><syllabic>single</syllabic><text>in</text></lyric></note><note><pitch><step>E</step><octave>5</octave></pitch><duration>1</duration><voice>1</voice><type>eighth</type><staff>1</staff><beam number="1">end</beam><lyric number="1"><syllabic>single</syllabic><text>a</text></lyric></note><backup><duration>8</duration></backup><note><pitch><step>C</step><octave>3</octave></pitch><duration>2</duration><voice>2</voice><type>quarter</type><staff>2</staff></note><note><pitch><step>C</step><octave>3</octave></pitch><duration>2</duration><voice>2</voice><type>quarter</type><staff>2</staff></note><note><chord/><pitch><step>E</step><octave>3</octave></pitch><duration>2</duration><voice>2</voice><type>quarter</type><staff>2</staff></note><note><chord/><pitch><step>G</step><octave>3</octave></pitch><duration>2</duration><voice>2</voice><type>quarter</type><staff>2</staff></note><note><pitch><step>C</step><octave>3</octave></pitch><duration>2</duration><voice>2</voice><type>quarter</type><staff>2</staff></note><note><pitch><step>C</step><octave>3</octave></pitch><duration>2</duration><voice>2</voice><type>quarter</type><staff>2</staff></note><note><chord/><pitch><step>E</step><octave>3</octave></pitch><duration>2</duration><voice>2</voice><type>quarter</type><staff>2</staff></note><note><chord/><pitch><step>G</step><octave>3</octave></pitch><duration>2</duration><voice>2</voice><type>quarter</type><staff>2</staff></note></measure><measure number="31"><attributes/><direction placement="above"><direction-type><words>G7</words></direction-type><staff>1</staff></direction><note><pitch><step>G</step><octave>5</octave></pitch><duration>2</duration><voice>1</voice><type>quarter</type><staff>1</staff><lyric number="1"><syllabic>single</syllabic><text>one-</text></lyric></note><note><pitch><step>G</step><octave>5</octave></pitch><duration>2</duration><voice>1</voice><type>quarter</type><staff>1</staff><lyric number="1"><syllabic>single</syllabic><text>horse</text></lyric></note><note><pitch><step>F</step><octave>5</octave></pitch><duration>2</duration><voice>1</voice><type>quarter</type><staff>1</staff><lyric number="1"><syllabic>single</syllabic><text>op-</text></lyric></note><note><pitch><step>D</step><octave>5</octave></pitch><duration>2</duration><voice>1</voice><type>quarter</type><staff>1</staff><lyric number="1"><syllabic>single</syllabic><text>en</text></lyric></note><backup><duration>8</duration></backup><note><pitch><step>G</step><octave>3</octave></pitch><duration>2</duration><voice>2</voice><type>quarter</type><staff>2</staff></note><note><pitch><step>G</step><octave>3</octave></pitch><duration>2</duration><voice>2</voice><type>quarter</type><staff>2</staff></note><note><chord/><pitch><step>B</step><octave>3</octave></pitch><duration>2</duration><voice>2</voice><type>quarter</type><staff>2</staff></note><note><chord/><pitch><step>D</step><octave>4</octave></pitch><duration>2</duration><voice>2</voice><type>quarter</type><staff>2</staff></note><note><chord/><pitch><step>F</step><octave>4</octave></pitch><duration>2</duration><voice>2</voice><type>quarter</type><staff>2</staff></note><note><pitch><step>G</step><octave>3</octave></pitch><duration>2</duration><voice>2</voice><type>quarter</type><staff>2</staff></note><note><pitch><step>G</step><octave>3</octave></pitch><duration>2</duration><voice>2</voice><type>quarter</type><staff>2</staff></note><note><chord/><pitch><step>B</step><octave>3</octave></pitch><duration>2</duration><voice>2</voice><type>quarter</type><staff>2</staff></note><note><chord/><pitch><step>D</step><octave>4</octave></pitch><duration>2</duration><voice>2</voice><type>quarter</type><staff>2</staff></note><note><chord/><pitch><step>F</step><octave>4</octave></pitch><duration>2</duration><voice>2</voice><type>quarter</type><staff>2</staff></note></measure><measure number="32"><attributes/><direction placement="above"><direction-type><words>C</words></direction-type><staff>1</staff></direction><note><pitch><step>C</step><octave>5</octave></pitch><duration>8</duration><voice>1</voice><type>whole</type><staff>1</staff><lyric number="1"><syllabic>single</syllabic><text>sleigh.</text></lyric></note><backup><duration>8</duration></backup><note><pitch><step>C</step><octave>3</octave></pitch><duration>8</duration><voice>2</voice><type>whole</type><staff>2</staff></note><note><chord/><pitch><step>E</step><octave>3</octave></pitch><duration>8</duration><voice>2</voice><type>whole</type><staff>2</staff></note><note><chord/><pitch><step>G</step><octave>3</octave></pitch><duration>8</duration><voice>2</voice><type>whole</type><staff>2</staff></note><barline location="right"><bar-style>light-heavy</bar-style></barline></measure></part></score-partwise>