<?xml version="1.0" encoding="UTF-8" standalone="no"?><!DOCTYPE score-partwise PUBLIC "-//Recordare//DTD MusicXML 3.1 Partwise//EN" "http://www.musicxml.org/dtds/partwise.dtd"><score-partwise version="3.1"><identification><creator type="arranger">Soji Odugbose</creator><rights>Copyright, All rights reserved</rights><encoding><software>Flat</software><encoding-date>2020-05-04</encoding-date></encoding><source>https://flat.io/score/5e5bf62b0ac792718a0963e6-three-blind-mice</source></identification><defaults><scaling><millimeters>7</millimeters><tenths>40</tenths></scaling><page-layout><page-height>1697.142857142857</page-height><page-width>1200</page-width><page-margins type="both"><left-margin>98.28571428571429</left-margin><right-margin>98.28571428571429</right-margin><top-margin>98.28571428571429</top-margin><bottom-margin>98.28571428571429</bottom-margin></page-margins></page-layout><system-layout><system-distance>115.2</system-distance></system-layout><staff-layout><staff-distance>72.57142857142857</staff-distance></staff-layout></defaults><credit><credit-type>title</credit-type><credit-words>Three Blind Mice</credit-words></credit><part-list><score-part id="P1"><part-name>Piano</part-name><part-abbreviation>Pno.</part-abbreviation><score-instrument id="P1-I1"><instrument-name>Piano</instrument-name></score-instrument><midi-instrument id="P1-I1"><midi-channel>1</midi-channel><midi-program>1</midi-program><volume>100</volume></midi-instrument></score-part></part-list><part id="P1"><measure number="1"><attributes><divisions>1</divisions><key><fifths>0</fifths></key><time><beats>3</beats><beat-type>4</beat-type></time><staves>2</staves><clef number="1"><sign>G</sign><line>2</line></clef><clef number="2"><sign>F</sign><line>4</line></clef><staff-details><staff-lines>5</staff-lines></staff-details></attributes><sound tempo="240"/><sound/><direction placement="above"><direction-type><metronome><beat-unit>half</beat-unit><beat-unit-dot/><per-minute>80</per-minute></metronome></direction-type><staff>1</staff></direction><direction placement="below"><direction-type><dynamics><p/></dynamics></direction-type><staff>1</staff><sound dynamics="49"/></direction><note><pitch><step>E</step><octave>4</octave></pitch><duration>3</duration><voice>1</voice><type>half</type><dot/><staff>1</staff><notations><technical><fingering>3</fingering></technical></notations></note><backup><duration>3</duration></backup><note><pitch><step>C</step><octave>3</octave></pitch><duration>3</duration><voice>2</voice><type>half</type><dot/><staff>2</staff><notations><technical><fingering>5</fingering></technical></notations></note></measure><measure number="2"><attributes/><note><pitch><step>D</step><octave>4</octave></pitch><duration>3</duration><voice>1</voice><type>half</type><dot/><staff>1</staff><notations><technical><fingering>2</fingering></technical></notations></note><backup><duration>3</duration></backup><note><pitch><step>F</step><octave>3</octave></pitch><duration>3</duration><voice>2</voice><type>half</type><dot/><staff>2</staff><notations><technical><fingering>2</fingering></technical></notations></note><note><chord/><pitch><step>G</step><octave>3</octave></pitch><duration>3</duration><voice>2</voice><type>half</type><dot/><staff>2</staff><notations><technical><fingering>1</fingering></technical></notations></note></measure><measure number="3"><attributes/><note><pitch><step>C</step><octave>4</octave></pitch><duration>3</duration><voice>1</voice><type>half</type><dot/><staff>1</staff><notations><technical><fingering>1</fingering></technical></notations></note><backup><duration>3</duration></backup><note><pitch><step>C</step><octave>3</octave></pitch><duration>3</duration><voice>2</voice><type>half</type><dot/><staff>2</staff><notations><technical><fingering>5</fingering></technical></notations></note></measure><measure number="4"><attributes/><note><rest/><duration>1</duration><voice>1</voice><type>quarter</type><staff>1</staff></note><note><rest/><duration>1</duration><voice>1</voice><type>quarter</type><staff>1</staff></note><note><rest/><duration>1</duration><voice>1</voice><type>quarter</type><staff>1</staff></note><backup><duration>3</duration></backup><note><pitch><step>E</step><octave>3</octave></pitch><duration>3</duration><voice>2</voice><type>half</type><dot/><staff>2</staff><notations><technical><fingering>3</fingering></technical></notations></note><note><chord/><pitch><step>G</step><octave>3</octave></pitch><duration>3</duration><voice>2</voice><type>half</type><dot/><staff>2</staff><notations><technical><fingering>1</fingering></technical></notations></note></measure><measure number="5"><attributes/><direction placement="below"><direction-type><dynamics><mf/></dynamics></direction-type><staff>1</staff><sound dynamics="84"/></direction><note><pitch><step>E</step><octave>4</octave></pitch><duration>3</duration><voice>1</voice><type>half</type><dot/><staff>1</staff></note><backup><duration>3</duration></backup><note><pitch><step>C</step><octave>3</octave></pitch><duration>3</duration><voice>2</voice><type>half</type><dot/><staff>2</staff></note></measure><measure number="6"><attributes/><note><pitch><step>D</step><octave>4</octave></pitch><duration>3</duration><voice>1</voice><type>half</type><dot/><staff>1</staff></note><backup><duration>3</duration></backup><note><pitch><step>F</step><octave>3</octave></pitch><duration>3</duration><voice>2</voice><type>half</type><dot/><staff>2</staff></note><note><chord/><pitch><step>G</step><octave>3</octave></pitch><duration>3</duration><voice>2</voice><type>half</type><dot/><staff>2</staff></note></measure><measure number="7"><attributes/><note><pitch><step>C</step><octave>4</octave></pitch><duration>3</duration><voice>1</voice><type>half</type><dot/><staff>1</staff></note><backup><duration>3</duration></backup><note><pitch><step>C</step><octave>3</octave></pitch><duration>3</duration><voice>2</voice><type>half</type><dot/><staff>2</staff></note></measure><measure number="8"><attributes/><note><rest/><duration>1</duration><voice>1</voice><type>quarter</type><staff>1</staff></note><note><rest/><duration>1</duration><voice>1</voice><type>quarter</type><staff>1</staff></note><note><rest/><duration>1</duration><voice>1</voice><type>quarter</type><staff>1</staff></note><backup><duration>3</duration></backup><note><pitch><step>E</step><octave>3</octave></pitch><duration>3</duration><voice>2</voice><type>half</type><dot/><staff>2</staff></note><note><chord/><pitch><step>G</step><octave>3</octave></pitch><duration>3</duration><voice>2</voice><type>half</type><dot/><staff>2</staff></note></measure><measure number="9"><attributes/><direction placement="below"><direction-type><dynamics><p/></dynamics></direction-type><staff>1</staff><sound dynamics="49"/></direction><note><pitch><step>G</step><octave>4</octave></pitch><duration>3</duration><voice>1</voice><type>half</type><dot/><staff>1</staff><notations><technical><fingering>5</fingering></technical></notations></note><backup><duration>3</duration></backup><note><pitch><step>C</step><octave>3</octave></pitch><duration>3</duration><voice>2</voice><type>half</type><dot/><staff>2</staff></note></measure><measure number="10"><attributes/><note><pitch><step>F</step><octave>4</octave></pitch><duration>2</duration><voice>1</voice><type>half</type><staff>1</staff><notations><technical><fingering>4</fingering></technical></notations></note><note><pitch><step>F</step><octave>4</octave></pitch><duration>1</duration><voice>1</voice><type>quarter</type><staff>1</staff></note><backup><duration>3</duration></backup><note><pitch><step>F</step><octave>3</octave></pitch><duration>3</duration><voice>2</voice><type>half</type><dot/><staff>2</staff></note><note><chord/><pitch><step>G</step><octave>3</octave></pitch><duration>3</duration><voice>2</voice><type>half</type><dot/><staff>2</staff></note></measure><measure number="11"><attributes/><note><pitch><step>E</step><octave>4</octave></pitch><duration>3</duration><voice>1</voice><type>half</type><dot/><staff>1</staff></note><backup><duration>3</duration></backup><note><pitch><step>C</step><octave>3</octave></pitch><duration>3</duration><voice>2</voice><type>half</type><dot/><staff>2</staff></note></measure><measure number="12"><attributes/><note><rest/><duration>1</duration><voice>1</voice><type>quarter</type><staff>1</staff></note><note><rest/><duration>1</duration><voice>1</voice><type>quarter</type><staff>1</staff></note><note><rest/><duration>1</duration><voice>1</voice><type>quarter</type><staff>1</staff></note><backup><duration>3</duration></backup><note><pitch><step>E</step><octave>3</octave></pitch><duration>3</duration><voice>2</voice><type>half</type><dot/><staff>2</staff></note><note><chord/><pitch><step>G</step><octave>3</octave></pitch><duration>3</duration><voice>2</voice><type>half</type><dot/><staff>2</staff></note></measure><measure number="13"><attributes/><direction placement="below"><direction-type><dynamics><mf/></dynamics></direction-type><staff>1</staff><sound dynamics="84"/></direction><note><pitch><step>G</step><octave>4</octave></pitch><duration>3</duration><voice>1</voice><type>half</type><dot/><staff>1</staff><notations><technical><fingering>5</fingering></technical></notations></note><backup><duration>3</duration></backup><note><pitch><step>C</step><octave>3</octave></pitch><duration>3</duration><voice>2</voice><type>half</type><dot/><staff>2</staff></note></measure><measure number="14"><attributes/><note><pitch><step>F</step><octave>4</octave></pitch><duration>2</duration><voice>1</voice><type>half</type><staff>1</staff><notations><technical><fingering>4</fingering></technical></notations></note><note><pitch><step>F</step><octave>4</octave></pitch><duration>1</duration><voice>1</voice><type>quarter</type><staff>1</staff></note><backup><duration>3</duration></backup><note><pitch><step>F</step><octave>3</octave></pitch><duration>3</duration><voice>2</voice><type>half</type><dot/><staff>2</staff></note><note><chord/><pitch><step>G</step><octave>3</octave></pitch><duration>3</duration><voice>2</voice><type>half</type><dot/><staff>2</staff></note></measure><measure number="15"><attributes/><note><pitch><step>E</step><octave>4</octave></pitch><duration>3</duration><voice>1</voice><type>half</type><dot/><staff>1</staff></note><backup><duration>3</duration></backup><note><pitch><step>C</step><octave>3</octave></pitch><duration>3</duration><voice>2</voice><type>half</type><dot/><staff>2</staff></note></measure><measure number="16"><attributes/><note><rest/><duration>1</duration><voice>1</voice><type>quarter</type><staff>1</staff></note><note><rest/><duration>1</duration><voice>1</voice><type>quarter</type><staff>1</staff></note><note><pitch><step>G</step><octave>4</octave></pitch><duration>1</duration><voice>1</voice><type>quarter</type><staff>1</staff><notations><technical><fingering>2</fingering></technical></notations></note><backup><duration>3</duration></backup><note><pitch><step>E</step><octave>3</octave></pitch><duration>3</duration><voice>2</voice><type>half</type><dot/><staff>2</staff></note><note><chord/><pitch><step>G</step><octave>3</octave></pitch><duration>3</duration><voice>2</voice><type>half</type><dot/><staff>2</staff></note></measure><measure number="17"><attributes/><note><pitch><step>C</step><octave>5</octave></pitch><duration>2</duration><voice>1</voice><type>half</type><staff>1</staff><notations><technical><fingering>5</fingering></technical></notations></note><note><pitch><step>C</step><octave>5</octave></pitch><duration>1</duration><voice>1</voice><type>quarter</type><staff>1</staff></note><backup><duration>3</duration></backup><note><pitch><step>C</step><octave>3</octave></pitch><duration>3</duration><voice>2</voice><type>half</type><dot/><staff>2</staff></note></measure><measure number="18"><attributes/><note><pitch><step>B</step><octave>4</octave></pitch><duration>1</duration><voice>1</voice><type>quarter</type><staff>1</staff><notations><technical><fingering>4</fingering></technical></notations></note><note><pitch><step>A</step><octave>4</octave></pitch><duration>1</duration><voice>1</voice><type>quarter</type><staff>1</staff><notations><technical><fingering>3</fingering></technical></notations></note><note><pitch><step>B</step><octave>4</octave></pitch><duration>1</duration><voice>1</voice><type>quarter</type><staff>1</staff><notations><technical><fingering>4</fingering></technical></notations></note><backup><duration>3</duration></backup><note><pitch><step>F</step><octave>3</octave></pitch><duration>3</duration><voice>2</voice><type>half</type><dot/><staff>2</staff></note><note><chord/><pitch><step>G</step><octave>3</octave></pitch><duration>3</duration><voice>2</voice><type>half</type><dot/><staff>2</staff></note></measure><measure number="19"><attributes/><note><pitch><step>C</step><octave>5</octave></pitch><duration>2</duration><voice>1</voice><type>half</type><staff>1</staff><notations><technical><fingering>5</fingering></technical></notations></note><note><pitch><step>G</step><octave>4</octave></pitch><duration>1</duration><voice>1</voice><type>quarter</type><staff>1</staff><notations><technical><fingering>2</fingering></technical></notations></note><backup><duration>3</duration></backup><note><pitch><step>C</step><octave>3</octave></pitch><duration>3</duration><voice>2</voice><type>half</type><dot/><staff>2</staff></note></measure><measure number="20"><attributes/><note><pitch><step>G</step><octave>4</octave></pitch><duration>2</duration><voice>1</voice><type>half</type><staff>1</staff><notations><technical><fingering>2</fingering></technical></notations></note><direction placement="below"><direction-type><dynamics><p/></dynamics></direction-type><staff>1</staff><sound dynamics="49"/></direction><note><pitch><step>G</step><octave>4</octave></pitch><duration>1</duration><voice>1</voice><type>quarter</type><staff>1</staff><notations><technical><fingering>2</fingering></technical></notations></note><backup><duration>3</duration></backup><note><pitch><step>E</step><octave>3</octave></pitch><duration>3</duration><voice>2</voice><type>half</type><dot/><staff>2</staff></note><note><chord/><pitch><step>G</step><octave>3</octave></pitch><duration>3</duration><voice>2</voice><type>half</type><dot/><staff>2</staff></note></measure><measure number="21"><attributes/><note><pitch><step>C</step><octave>5</octave></pitch><duration>1</duration><voice>1</voice><type>quarter</type><staff>1</staff><notations><technical><fingering>5</fingering></technical></notations></note><note><pitch><step>C</step><octave>5</octave></pitch><duration>1</duration><voice>1</voice><type>quarter</type><staff>1</staff></note><note><pitch><step>C</step><octave>5</octave></pitch><duration>1</duration><voice>1</voice><type>quarter</type><staff>1</staff></note><backup><duration>3</duration></backup><note><pitch><step>C</step><octave>3</octave></pitch><duration>3</duration><voice>2</voice><type>half</type><dot/><staff>2</staff></note></measure><measure number="22"><attributes/><note><pitch><step>B</step><octave>4</octave></pitch><duration>1</duration><voice>1</voice><type>quarter</type><staff>1</staff><notations><technical><fingering>4</fingering></technical></notations></note><note><pitch><step>A</step><octave>4</octave></pitch><duration>1</duration><voice>1</voice><type>quarter</type><staff>1</staff><notations><technical><fingering>3</fingering></technical></notations></note><note><pitch><step>B</step><octave>4</octave></pitch><duration>1</duration><voice>1</voice><type>quarter</type><staff>1</staff><notations><technical><fingering>4</fingering></technical></notations></note><backup><duration>3</duration></backup><note><pitch><step>F</step><octave>3</octave></pitch><duration>3</duration><voice>2</voice><type>half</type><dot/><staff>2</staff></note><note><chord/><pitch><step>G</step><octave>3</octave></pitch><duration>3</duration><voice>2</voice><type>half</type><dot/><staff>2</staff></note></measure><measure number="23"><attributes/><note><pitch><step>C</step><octave>5</octave></pitch><duration>2</duration><voice>1</voice><type>half</type><staff>1</staff><notations><technical><fingering>5</fingering></technical></notations></note><note><pitch><step>G</step><octave>4</octave></pitch><duration>1</duration><voice>1</voice><type>quarter</type><staff>1</staff><notations><technical><fingering>2</fingering></technical></notations></note><backup><duration>3</duration></backup><note><pitch><step>C</step><octave>3</octave></pitch><duration>3</duration><voice>2</voice><type>half</type><dot/><staff>2</staff></note></measure><measure number="24"><attributes/><note><pitch><step>G</step><octave>4</octave></pitch><duration>2</duration><voice>1</voice><type>half</type><staff>1</staff></note><direction placement="below"><direction-type><dynamics><mf/></dynamics></direction-type><staff>1</staff><sound dynamics="84"/></direction><note><pitch><step>G</step><octave>4</octave></pitch><duration>1</duration><voice>1</voice><type>quarter</type><staff>1</staff></note><backup><duration>3</duration></backup><note><pitch><step>E</step><octave>3</octave></pitch><duration>3</duration><voice>2</voice><type>half</type><dot/><staff>2</staff></note><note><chord/><pitch><step>G</step><octave>3</octave></pitch><duration>3</duration><voice>2</voice><type>half</type><dot/><staff>2</staff></note></measure><measure number="25"><attributes/><note><pitch><step>C</step><octave>5</octave></pitch><duration>1</duration><voice>1</voice><type>quarter</type><staff>1</staff><notations><technical><fingering>5</fingering></technical></notations></note><note><pitch><step>C</step><octave>5</octave></pitch><duration>1</duration><voice>1</voice><type>quarter</type><staff>1</staff></note><note><pitch><step>C</step><octave>5</octave></pitch><duration>1</duration><voice>1</voice><type>quarter</type><staff>1</staff></note><backup><duration>3</duration></backup><note><pitch><step>C</step><octave>3</octave></pitch><duration>3</duration><voice>2</voice><type>half</type><dot/><staff>2</staff></note></measure><measure number="26"><attributes/><note><pitch><step>B</step><octave>4</octave></pitch><duration>1</duration><voice>1</voice><type>quarter</type><staff>1</staff><notations><technical><fingering>4</fingering></technical></notations></note><note><pitch><step>A</step><octave>4</octave></pitch><duration>1</duration><voice>1</voice><type>quarter</type><staff>1</staff><notations><technical><fingering>3</fingering></technical></notations></note><note><pitch><step>B</step><octave>4</octave></pitch><duration>1</duration><voice>1</voice><type>quarter</type><staff>1</staff></note><backup><duration>3</duration></backup><note><pitch><step>F</step><octave>3</octave></pitch><duration>3</duration><voice>2</voice><type>half</type><dot/><staff>2</staff></note><note><chord/><pitch><step>G</step><octave>3</octave></pitch><duration>3</duration><voice>2</voice><type>half</type><dot/><staff>2</staff></note></measure><measure number="27"><attributes/><note><pitch><step>C</step><octave>5</octave></pitch><duration>1</duration><voice>1</voice><type>quarter</type><staff>1</staff><notations><technical><fingering>5</fingering></technical></notations></note><note><pitch><step>G</step><octave>4</octave></pitch><duration>1</duration><voice>1</voice><type>quarter</type><staff>1</staff><notations><technical><fingering>2</fingering></technical></notations></note><note><pitch><step>G</step><octave>4</octave></pitch><duration>1</duration><voice>1</voice><type>quarter</type><staff>1</staff></note><backup><duration>3</duration></backup><note><pitch><step>C</step><octave>3</octave></pitch><duration>3</duration><voice>2</voice><type>half</type><dot/><staff>2</staff></note></measure><measure number="28"><attributes/><note><pitch><step>G</step><octave>4</octave></pitch><duration>2</duration><voice>1</voice><type>half</type><staff>1</staff><notations><technical><fingering>2</fingering></technical></notations></note><note><pitch><step>F</step><octave>4</octave></pitch><duration>1</duration><voice>1</voice><type>quarter</type><staff>1</staff><notations><technical><fingering>1</fingering></technical></notations></note><backup><duration>3</duration></backup><note><pitch><step>E</step><octave>3</octave></pitch><duration>3</duration><voice>2</voice><type>half</type><dot/><staff>2</staff></note><note><chord/><pitch><step>G</step><octave>3</octave></pitch><duration>3</duration><voice>2</voice><type>half</type><dot/><staff>2</staff></note></measure><measure number="29"><attributes/><note><pitch><step>E</step><octave>4</octave></pitch><duration>3</duration><voice>1</voice><type>half</type><dot/><staff>1</staff><notations><technical><fingering>3</fingering></technical></notations></note><backup><duration>3</duration></backup><note><pitch><step>C</step><octave>3</octave></pitch><duration>3</duration><voice>2</voice><type>half</type><dot/><staff>2</staff></note></measure><measure number="30"><attributes/><note><pitch><step>D</step><octave>4</octave></pitch><duration>3</duration><voice>1</voice><type>half</type><dot/><staff>1</staff><notations><technical><fingering>2</fingering></technical></notations></note><backup><duration>3</duration></backup><note><pitch><step>F</step><octave>3</octave></pitch><duration>3</duration><voice>2</voice><type>half</type><dot/><staff>2</staff></note><note><chord/><pitch><step>G</step><octave>3</octave></pitch><duration>3</duration><voice>2</voice><type>half</type><dot/><staff>2</staff></note></measure><measure number="31"><attributes/><note><pitch><step>C</step><octave>4</octave></pitch><duration>3</duration><voice>1</voice><type>half</type><dot/><staff>1</staff><notations><technical><fingering>1</fingering></technical></notations></note><backup><duration>3</duration></backup><note><pitch><step>C</step><octave>3</octave></pitch><duration>3</duration><voice>2</voice><type>half</type><dot/><staff>2</staff><notations><technical><fingering>5</fingering></technical></notations></note></measure><measure number="32"><attributes/><note><rest/><duration>3</duration><voice>1</voice><type>half</type><dot/><staff>1</staff></note><backup><duration>3</duration></backup><note><pitch><step>C</step><octave>2</octave></pitch><duration>3</duration><voice>2</voice><type>half</type><dot/><staff>2</staff><notations><technical><fingering>3</fingering></technical><articulations><accent/></articulations><fermata/></notations></note><barline location="right"><bar-style>light-heavy</bar-style></barline></measure></part></score-partwise>