<?xml version="1.0" encoding="UTF-8" standalone="no"?><!DOCTYPE score-partwise PUBLIC "-//Recordare//DTD MusicXML 3.1 Partwise//EN" "http://www.musicxml.org/dtds/partwise.dtd"><score-partwise version="3.1"><identification><creator type="composer">Arranged by Aliese Watts 2018</creator><creator type="lyricist">Rodgers and Hammerstein </creator><rights>Copyright, All rights reserved. Rodgers and Hammerstein</rights><encoding><software>Flat</software><encoding-date>2020-05-04</encoding-date></encoding><source>https://flat.io/score/5b67363074f2ad3392acbd65-my-favourite-things</source></identification><defaults><scaling><millimeters>7</millimeters><tenths>40</tenths></scaling><page-layout><page-height>1596.5714285714287</page-height><page-width>1233.7142857142858</page-width><page-margins type="both"><left-margin>72.57142857142857</left-margin><right-margin>72.57142857142857</right-margin><top-margin>72.57142857142857</top-margin><bottom-margin>72.57142857142857</bottom-margin></page-margins></page-layout><system-layout><system-distance>115.2</system-distance></system-layout><staff-layout><staff-distance>72.57142857142857</staff-distance></staff-layout></defaults><credit><credit-type>title</credit-type><credit-words>My Favourite Things</credit-words></credit><part-list><score-part id="P1"><part-name>Grand Piano</part-name><part-abbreviation>Pno.</part-abbreviation><score-instrument id="P1-I1"><instrument-name>Grand Piano</instrument-name></score-instrument><midi-instrument id="P1-I1"><midi-channel>1</midi-channel><midi-program>1</midi-program><volume>100</volume></midi-instrument></score-part></part-list><part id="P1"><measure number="1"><attributes><divisions>1</divisions><key><fifths>1</fifths></key><time><beats>3</beats><beat-type>4</beat-type></time><staves>2</staves><clef number="1"><sign>G</sign><line>2</line></clef><clef number="2"><sign>F</sign><line>4</line></clef><staff-details><staff-lines>5</staff-lines></staff-details></attributes><sound tempo="120"/><sound/><direction placement="above"><direction-type><metronome><beat-unit>quarter</beat-unit><per-minute>120</per-minute></metronome></direction-type><staff>1</staff></direction><note><pitch><step>E</step><octave>4</octave></pitch><duration>1</duration><voice>1</voice><type>quarter</type><staff>1</staff><lyric number="1"><syllabic>single</syllabic><text>Rain</text></lyric><lyric number="2"><syllabic>single</syllabic><text>Girls</text></lyric></note><note><pitch><step>B</step><octave>4</octave></pitch><duration>1</duration><voice>1</voice><type>quarter</type><staff>1</staff><lyric number="1"><syllabic>single</syllabic><text>drops</text></lyric><lyric number="2"><syllabic>single</syllabic><text>in</text></lyric></note><note><pitch><step>B</step><octave>4</octave></pitch><duration>1</duration><voice>1</voice><type>quarter</type><staff>1</staff><lyric number="1"><syllabic>single</syllabic><text>on</text></lyric><lyric number="2"><syllabic>single</syllabic><text>white</text></lyric></note><backup><duration>3</duration></backup><note><pitch><step>E</step><octave>3</octave></pitch><duration>1</duration><voice>2</voice><type>quarter</type><staff>2</staff></note><note><pitch><step>G</step><octave>3</octave></pitch><duration>1</duration><voice>2</voice><type>quarter</type><staff>2</staff></note><note><chord/><pitch><step>B</step><octave>3</octave></pitch><duration>1</duration><voice>2</voice><type>quarter</type><staff>2</staff></note><note><pitch><step>G</step><octave>3</octave></pitch><duration>1</duration><voice>2</voice><type>quarter</type><staff>2</staff></note><note><chord/><pitch><step>B</step><octave>3</octave></pitch><duration>1</duration><voice>2</voice><type>quarter</type><staff>2</staff></note></measure><measure number="2"><attributes/><note><pitch><step>F</step><alter>1</alter><octave>4</octave></pitch><duration>1</duration><voice>1</voice><type>quarter</type><staff>1</staff><lyric number="1"><syllabic>single</syllabic><text>ro</text></lyric><lyric number="2"><syllabic>begin</syllabic><text>dres</text></lyric></note><note><pitch><step>E</step><octave>4</octave></pitch><duration>1</duration><voice>1</voice><type>quarter</type><staff>1</staff><lyric number="1"><syllabic>single</syllabic><text>ses</text></lyric><lyric number="2"><syllabic>end</syllabic><text>ses</text></lyric></note><note><pitch><step>E</step><octave>4</octave></pitch><duration>1</duration><voice>1</voice><type>quarter</type><staff>1</staff><lyric number="1"><syllabic>single</syllabic><text>and</text></lyric><lyric number="2"><syllabic>single</syllabic><text>with</text></lyric></note><backup><duration>3</duration></backup><note><pitch><step>E</step><octave>3</octave></pitch><duration>1</duration><voice>2</voice><type>quarter</type><staff>2</staff></note><note><pitch><step>G</step><octave>3</octave></pitch><duration>1</duration><voice>2</voice><type>quarter</type><staff>2</staff></note><note><chord/><pitch><step>B</step><octave>3</octave></pitch><duration>1</duration><voice>2</voice><type>quarter</type><staff>2</staff></note><note><pitch><step>G</step><octave>3</octave></pitch><duration>1</duration><voice>2</voice><type>quarter</type><staff>2</staff></note><note><chord/><pitch><step>B</step><octave>3</octave></pitch><duration>1</duration><voice>2</voice><type>quarter</type><staff>2</staff></note></measure><measure number="3"><attributes/><note><pitch><step>B</step><octave>3</octave></pitch><duration>1</duration><voice>1</voice><type>quarter</type><staff>1</staff><lyric number="1"><syllabic>single</syllabic><text>whis</text></lyric><lyric number="2"><syllabic>single</syllabic><text>blue</text></lyric></note><note><pitch><step>E</step><octave>4</octave></pitch><duration>1</duration><voice>1</voice><type>quarter</type><staff>1</staff><lyric number="1"><syllabic>single</syllabic><text>kers</text></lyric><lyric number="2"><syllabic>begin</syllabic><text>sat</text></lyric></note><note><pitch><step>E</step><octave>4</octave></pitch><duration>1</duration><voice>1</voice><type>quarter</type><staff>1</staff><lyric number="1"><syllabic>single</syllabic><text>on</text></lyric><lyric number="2"><syllabic>end</syllabic><text>in</text></lyric></note><backup><duration>3</duration></backup><note><pitch><step>E</step><octave>3</octave></pitch><duration>1</duration><voice>2</voice><type>quarter</type><staff>2</staff></note><note><pitch><step>G</step><octave>3</octave></pitch><duration>1</duration><voice>2</voice><type>quarter</type><staff>2</staff></note><note><chord/><pitch><step>B</step><octave>3</octave></pitch><duration>1</duration><voice>2</voice><type>quarter</type><staff>2</staff></note><note><pitch><step>G</step><octave>3</octave></pitch><duration>1</duration><voice>2</voice><type>quarter</type><staff>2</staff></note><note><chord/><pitch><step>B</step><octave>3</octave></pitch><duration>1</duration><voice>2</voice><type>quarter</type><staff>2</staff></note></measure><measure number="4"><attributes/><note><pitch><step>F</step><alter>1</alter><octave>4</octave></pitch><duration>1</duration><voice>1</voice><type>quarter</type><staff>1</staff><lyric number="1"><syllabic>single</syllabic><text>kit</text></lyric><lyric number="2"><syllabic>begin</syllabic><text>sas</text></lyric></note><note><pitch><step>E</step><octave>4</octave></pitch><duration>1</duration><voice>1</voice><type>quarter</type><staff>1</staff><lyric number="1"><syllabic>single</syllabic><text>tens</text></lyric><lyric number="2"><syllabic>end</syllabic><text>hes</text></lyric></note><note><rest/><duration>1</duration><voice>1</voice><type>quarter</type><staff>1</staff></note><backup><duration>3</duration></backup><note><pitch><step>E</step><octave>3</octave></pitch><duration>1</duration><voice>2</voice><type>quarter</type><staff>2</staff></note><note><pitch><step>G</step><octave>3</octave></pitch><duration>1</duration><voice>2</voice><type>quarter</type><staff>2</staff></note><note><chord/><pitch><step>B</step><octave>3</octave></pitch><duration>1</duration><voice>2</voice><type>quarter</type><staff>2</staff></note><note><pitch><step>G</step><octave>3</octave></pitch><duration>1</duration><voice>2</voice><type>quarter</type><staff>2</staff></note><note><chord/><pitch><step>B</step><octave>3</octave></pitch><duration>1</duration><voice>2</voice><type>quarter</type><staff>2</staff></note></measure><measure number="5"><attributes/><note><pitch><step>E</step><octave>4</octave></pitch><duration>1</duration><voice>1</voice><type>quarter</type><staff>1</staff><lyric number="1"><syllabic>single</syllabic><text>Bright</text></lyric><lyric number="2"><syllabic>single</syllabic><text>Snow-</text></lyric></note><note><pitch><step>B</step><octave>4</octave></pitch><duration>1</duration><voice>1</voice><type>quarter</type><staff>1</staff><lyric number="1"><syllabic>begin</syllabic><text>cop</text></lyric><lyric number="2"><syllabic>single</syllabic><text>flakes</text></lyric></note><note><pitch><step>B</step><octave>4</octave></pitch><duration>1</duration><voice>1</voice><type>quarter</type><staff>1</staff><lyric number="1"><syllabic>end</syllabic><text>per</text></lyric><lyric number="2"><syllabic>single</syllabic><text>that</text></lyric></note><backup><duration>3</duration></backup><note><pitch><step>C</step><octave>3</octave></pitch><duration>1</duration><voice>2</voice><type>quarter</type><staff>2</staff></note><note><pitch><step>E</step><octave>3</octave></pitch><duration>1</duration><voice>2</voice><type>quarter</type><staff>2</staff></note><note><chord/><pitch><step>G</step><octave>3</octave></pitch><duration>1</duration><voice>2</voice><type>quarter</type><staff>2</staff></note><note><pitch><step>E</step><octave>3</octave></pitch><duration>1</duration><voice>2</voice><type>quarter</type><staff>2</staff></note><note><chord/><pitch><step>G</step><octave>3</octave></pitch><duration>1</duration><voice>2</voice><type>quarter</type><staff>2</staff></note></measure><measure number="6"><attributes/><note><pitch><step>F</step><alter>1</alter><octave>4</octave></pitch><duration>1</duration><voice>1</voice><type>quarter</type><staff>1</staff><lyric number="1"><syllabic>begin</syllabic><text>ket</text></lyric><lyric number="2"><syllabic>single</syllabic><text>stay</text></lyric></note><note><pitch><step>E</step><octave>4</octave></pitch><duration>1</duration><voice>1</voice><type>quarter</type><staff>1</staff><lyric number="1"><syllabic>end</syllabic><text>tles</text></lyric><lyric number="2"><syllabic>single</syllabic><text>on</text></lyric></note><note><pitch><step>E</step><octave>4</octave></pitch><duration>1</duration><voice>1</voice><type>quarter</type><staff>1</staff><lyric number="1"><syllabic>single</syllabic><text>and</text></lyric><lyric number="2"><syllabic>single</syllabic><text>my</text></lyric></note><backup><duration>3</duration></backup><note><pitch><step>C</step><octave>3</octave></pitch><duration>1</duration><voice>2</voice><type>quarter</type><staff>2</staff></note><note><pitch><step>E</step><octave>3</octave></pitch><duration>1</duration><voice>2</voice><type>quarter</type><staff>2</staff></note><note><chord/><pitch><step>G</step><octave>3</octave></pitch><duration>1</duration><voice>2</voice><type>quarter</type><staff>2</staff></note><note><pitch><step>G</step><octave>3</octave></pitch><duration>1</duration><voice>2</voice><type>quarter</type><staff>2</staff></note><note><chord/><pitch><step>E</step><octave>3</octave></pitch><duration>1</duration><voice>2</voice><type>quarter</type><staff>2</staff></note></measure><measure number="7"><attributes/><note><pitch><step>B</step><octave>3</octave></pitch><duration>1</duration><voice>1</voice><type>quarter</type><staff>1</staff><lyric number="1"><syllabic>single</syllabic><text>warm</text></lyric><lyric number="2"><syllabic>single</syllabic><text>nose</text></lyric></note><note><pitch><step>E</step><octave>4</octave></pitch><duration>1</duration><voice>1</voice><type>quarter</type><staff>1</staff><lyric number="1"><syllabic>begin</syllabic><text>wool</text></lyric><lyric number="2"><syllabic>single</syllabic><text>and</text></lyric></note><note><pitch><step>E</step><octave>4</octave></pitch><duration>1</duration><voice>1</voice><type>quarter</type><staff>1</staff><lyric number="1"><syllabic>end</syllabic><text>len</text></lyric><lyric number="2"><syllabic>begin</syllabic><text>eye</text></lyric></note><backup><duration>3</duration></backup><note><pitch><step>C</step><octave>3</octave></pitch><duration>1</duration><voice>2</voice><type>quarter</type><staff>2</staff></note><note><pitch><step>E</step><octave>3</octave></pitch><duration>1</duration><voice>2</voice><type>quarter</type><staff>2</staff></note><note><chord/><pitch><step>G</step><octave>3</octave></pitch><duration>1</duration><voice>2</voice><type>quarter</type><staff>2</staff></note><note><pitch><step>E</step><octave>3</octave></pitch><duration>1</duration><voice>2</voice><type>quarter</type><staff>2</staff></note><note><chord/><pitch><step>G</step><octave>3</octave></pitch><duration>1</duration><voice>2</voice><type>quarter</type><staff>2</staff></note></measure><measure number="8"><attributes/><note><pitch><step>F</step><alter>1</alter><octave>4</octave></pitch><duration>1</duration><voice>1</voice><type>quarter</type><staff>1</staff><lyric number="1"><syllabic>begin</syllabic><text>mit</text></lyric><lyric number="2"><syllabic>middle</syllabic><text>las</text></lyric></note><note><pitch><step>E</step><octave>4</octave></pitch><duration>1</duration><voice>1</voice><type>quarter</type><staff>1</staff><lyric number="1"><syllabic>end</syllabic><text>tens</text></lyric><lyric number="2"><syllabic>end</syllabic><text>hes</text></lyric></note><note><rest/><duration>1</duration><voice>1</voice><type>quarter</type><staff>1</staff></note><backup><duration>3</duration></backup><note><pitch><step>C</step><octave>3</octave></pitch><duration>1</duration><voice>2</voice><type>quarter</type><staff>2</staff></note><note><pitch><step>E</step><octave>3</octave></pitch><duration>1</duration><voice>2</voice><type>quarter</type><staff>2</staff></note><note><chord/><pitch><step>G</step><octave>3</octave></pitch><duration>1</duration><voice>2</voice><type>quarter</type><staff>2</staff></note><note><pitch><step>E</step><octave>3</octave></pitch><duration>1</duration><voice>2</voice><type>quarter</type><staff>2</staff></note><note><chord/><pitch><step>G</step><octave>3</octave></pitch><duration>1</duration><voice>2</voice><type>quarter</type><staff>2</staff></note></measure><measure number="9"><attributes/><note><pitch><step>E</step><octave>4</octave></pitch><duration>1</duration><voice>1</voice><type>quarter</type><staff>1</staff><lyric number="1"><syllabic>single</syllabic><text>Brown</text></lyric><lyric number="2"><syllabic>begin</syllabic><text>Sil</text></lyric></note><note><pitch><step>B</step><octave>4</octave></pitch><duration>1</duration><voice>1</voice><type>quarter</type><staff>1</staff><lyric number="1"><syllabic>begin</syllabic><text>pa</text></lyric><lyric number="2"><syllabic>end</syllabic><text>ver</text></lyric></note><note><pitch><step>A</step><octave>4</octave></pitch><duration>1</duration><voice>1</voice><type>quarter</type><staff>1</staff><lyric number="1"><syllabic>end</syllabic><text>per</text></lyric><lyric number="2"><syllabic>single</syllabic><text>white</text></lyric></note><backup><duration>3</duration></backup><note><pitch><step>C</step><octave>3</octave></pitch><duration>1</duration><voice>2</voice><type>quarter</type><staff>2</staff></note><note><pitch><step>E</step><octave>3</octave></pitch><duration>1</duration><voice>2</voice><type>quarter</type><staff>2</staff></note><note><chord/><pitch><step>A</step><octave>3</octave></pitch><duration>1</duration><voice>2</voice><type>quarter</type><staff>2</staff></note><note><pitch><step>E</step><octave>3</octave></pitch><duration>1</duration><voice>2</voice><type>quarter</type><staff>2</staff></note><note><chord/><pitch><step>A</step><octave>3</octave></pitch><duration>1</duration><voice>2</voice><type>quarter</type><staff>2</staff></note></measure><measure number="10"><attributes/><note><pitch><step>E</step><octave>4</octave></pitch><duration>1</duration><voice>1</voice><type>quarter</type><staff>1</staff><lyric number="1"><syllabic>begin</syllabic><text>pac</text></lyric><lyric number="2"><syllabic>begin</syllabic><text>win</text></lyric></note><note><pitch><step>F</step><alter>1</alter><octave>4</octave></pitch><duration>1</duration><voice>1</voice><type>quarter</type><staff>1</staff><lyric number="1"><syllabic>middle</syllabic><text>ag</text></lyric><lyric number="2"><syllabic>end</syllabic><text>ters</text></lyric></note><note><pitch><step>D</step><octave>4</octave></pitch><duration>1</duration><voice>1</voice><type>quarter</type><staff>1</staff><lyric number="1"><syllabic>end</syllabic><text>es</text></lyric><lyric number="2"><syllabic>single</syllabic><text>that</text></lyric></note><backup><duration>3</duration></backup><note><pitch><step>D</step><octave>3</octave></pitch><duration>1</duration><voice>2</voice><type>quarter</type><staff>2</staff></note><note><pitch><step>F</step><alter>1</alter><octave>3</octave></pitch><duration>1</duration><voice>2</voice><type>quarter</type><staff>2</staff></note><note><chord/><pitch><step>A</step><octave>3</octave></pitch><duration>1</duration><voice>2</voice><type>quarter</type><staff>2</staff></note><note><pitch><step>F</step><alter>1</alter><octave>3</octave></pitch><duration>1</duration><voice>2</voice><type>quarter</type><staff>2</staff></note><note><chord/><pitch><step>A</step><octave>3</octave></pitch><duration>1</duration><voice>2</voice><type>quarter</type><staff>2</staff></note></measure><measure number="11"><attributes/><note><pitch><step>D</step><octave>4</octave></pitch><duration>1</duration><voice>1</voice><type>quarter</type><staff>1</staff><lyric number="1"><syllabic>single</syllabic><text>tied</text></lyric><lyric number="2"><syllabic>single</syllabic><text>melt</text></lyric></note><note><pitch><step>A</step><octave>4</octave></pitch><duration>1</duration><voice>1</voice><type>quarter</type><staff>1</staff><lyric number="1"><syllabic>single</syllabic><text>up</text></lyric><lyric number="2"><syllabic>single</syllabic><text>in</text></lyric></note><note><pitch><step>G</step><octave>4</octave></pitch><duration>1</duration><voice>1</voice><type>quarter</type><staff>1</staff><lyric number="1"><syllabic>single</syllabic><text>with</text></lyric><lyric number="2"><syllabic>single</syllabic><text>to</text></lyric></note><backup><duration>3</duration></backup><note><pitch><step>D</step><octave>3</octave></pitch><duration>1</duration><voice>2</voice><type>quarter</type><staff>2</staff></note><note><pitch><step>G</step><octave>3</octave></pitch><duration>1</duration><voice>2</voice><type>quarter</type><staff>2</staff></note><note><chord/><pitch><step>B</step><octave>3</octave></pitch><duration>1</duration><voice>2</voice><type>quarter</type><staff>2</staff></note><note><pitch><step>G</step><octave>3</octave></pitch><duration>1</duration><voice>2</voice><type>quarter</type><staff>2</staff></note><note><chord/><pitch><step>B</step><octave>3</octave></pitch><duration>1</duration><voice>2</voice><type>quarter</type><staff>2</staff></note></measure><measure number="12"><attributes/><note><pitch><step>C</step><octave>4</octave></pitch><duration>3</duration><voice>1</voice><type>half</type><dot/><staff>1</staff><lyric number="1"><syllabic>single</syllabic><text>strings</text></lyric><lyric number="2"><syllabic>single</syllabic><text>springs</text></lyric></note><backup><duration>3</duration></backup><note><pitch><step>C</step><octave>3</octave></pitch><duration>1</duration><voice>2</voice><type>quarter</type><staff>2</staff></note><note><pitch><step>E</step><octave>3</octave></pitch><duration>1</duration><voice>2</voice><type>quarter</type><staff>2</staff></note><note><chord/><pitch><step>G</step><octave>3</octave></pitch><duration>1</duration><voice>2</voice><type>quarter</type><staff>2</staff></note><note><pitch><step>E</step><octave>3</octave></pitch><duration>1</duration><voice>2</voice><type>quarter</type><staff>2</staff></note><note><chord/><pitch><step>G</step><octave>3</octave></pitch><duration>1</duration><voice>2</voice><type>quarter</type><staff>2</staff></note></measure><measure number="13"><attributes/><note><pitch><step>B</step><octave>3</octave></pitch><duration>1</duration><voice>1</voice><type>quarter</type><staff>1</staff><lyric number="1"><syllabic>single</syllabic><text>These</text></lyric></note><note><pitch><step>C</step><octave>4</octave></pitch><duration>1</duration><voice>1</voice><type>quarter</type><staff>1</staff><lyric number="1"><syllabic>single</syllabic><text>are</text></lyric></note><note><pitch><step>D</step><octave>4</octave></pitch><duration>1</duration><voice>1</voice><type>quarter</type><staff>1</staff><lyric number="1"><syllabic>single</syllabic><text>a</text></lyric></note><backup><duration>3</duration></backup><note><pitch><step>D</step><octave>3</octave></pitch><duration>1</duration><voice>2</voice><type>quarter</type><staff>2</staff></note><note><pitch><step>G</step><octave>3</octave></pitch><duration>1</duration><voice>2</voice><type>quarter</type><staff>2</staff></note><note><chord/><pitch><step>B</step><octave>3</octave></pitch><duration>1</duration><voice>2</voice><type>quarter</type><staff>2</staff></note><note><pitch><step>G</step><octave>3</octave></pitch><duration>1</duration><voice>2</voice><type>quarter</type><staff>2</staff></note><note><chord/><pitch><step>B</step><octave>3</octave></pitch><duration>1</duration><voice>2</voice><type>quarter</type><staff>2</staff></note></measure><measure number="14"><attributes/><note><pitch><step>E</step><octave>4</octave></pitch><duration>1</duration><voice>1</voice><type>quarter</type><staff>1</staff><lyric number="1"><syllabic>single</syllabic><text>few</text></lyric></note><note><pitch><step>F</step><alter>1</alter><octave>4</octave></pitch><duration>1</duration><voice>1</voice><type>quarter</type><staff>1</staff><lyric number="1"><syllabic>single</syllabic><text>of</text></lyric></note><note><pitch><step>G</step><octave>4</octave></pitch><duration>1</duration><voice>1</voice><type>quarter</type><staff>1</staff><lyric number="1"><syllabic>single</syllabic><text>my</text></lyric></note><backup><duration>3</duration></backup><note><pitch><step>C</step><octave>3</octave></pitch><duration>1</duration><voice>2</voice><type>quarter</type><staff>2</staff></note><note><pitch><step>E</step><octave>3</octave></pitch><duration>1</duration><voice>2</voice><type>quarter</type><staff>2</staff></note><note><chord/><pitch><step>G</step><octave>3</octave></pitch><duration>1</duration><voice>2</voice><type>quarter</type><staff>2</staff></note><note><pitch><step>E</step><octave>3</octave></pitch><duration>1</duration><voice>2</voice><type>quarter</type><staff>2</staff></note><note><chord/><pitch><step>G</step><octave>3</octave></pitch><duration>1</duration><voice>2</voice><type>quarter</type><staff>2</staff></note></measure><measure number="15"><attributes/><note><pitch><step>A</step><octave>4</octave></pitch><duration>1</duration><voice>1</voice><type>quarter</type><staff>1</staff><lyric number="1"><syllabic>begin</syllabic><text>fav</text></lyric></note><note><pitch><step>B</step><octave>4</octave></pitch><duration>1</duration><voice>1</voice><type>quarter</type><staff>1</staff><lyric number="1"><syllabic>middle</syllabic><text>our</text></lyric></note><note><pitch><step>A</step><octave>4</octave></pitch><duration>1</duration><voice>1</voice><type>quarter</type><staff>1</staff><lyric number="1"><syllabic>end</syllabic><text>rite</text></lyric></note><backup><duration>3</duration></backup><note><pitch><step>F</step><alter>1</alter><octave>3</octave></pitch><duration>1</duration><voice>2</voice><type>quarter</type><staff>2</staff></note><note><pitch><step>A</step><octave>3</octave></pitch><duration>1</duration><voice>2</voice><type>quarter</type><staff>2</staff></note><note><chord/><pitch><step>C</step><octave>4</octave></pitch><duration>1</duration><voice>2</voice><type>quarter</type><staff>2</staff></note><note><pitch><step>A</step><octave>3</octave></pitch><duration>1</duration><voice>2</voice><type>quarter</type><staff>2</staff></note><note><chord/><pitch><step>C</step><octave>4</octave></pitch><duration>1</duration><voice>2</voice><type>quarter</type><staff>2</staff></note></measure><measure number="16"><attributes/><note><pitch><step>D</step><alter>1</alter><octave>4</octave></pitch><duration>3</duration><voice>1</voice><type>half</type><dot/><accidental>sharp</accidental><staff>1</staff><lyric number="1"><syllabic>single</syllabic><text>things</text></lyric></note><backup><duration>3</duration></backup><note><pitch><step>B</step><octave>2</octave></pitch><duration>1</duration><voice>2</voice><type>quarter</type><staff>2</staff></note><note><pitch><step>D</step><alter>1</alter><octave>3</octave></pitch><duration>1</duration><voice>2</voice><type>quarter</type><accidental>sharp</accidental><staff>2</staff></note><note><chord/><pitch><step>F</step><alter>1</alter><octave>3</octave></pitch><duration>1</duration><voice>2</voice><type>quarter</type><staff>2</staff></note><note><pitch><step>D</step><alter>1</alter><octave>3</octave></pitch><duration>1</duration><voice>2</voice><type>quarter</type><staff>2</staff></note><note><chord/><pitch><step>F</step><alter>1</alter><octave>3</octave></pitch><duration>1</duration><voice>2</voice><type>quarter</type><staff>2</staff></note></measure><measure number="17"><attributes><divisions>2</divisions></attributes><note><rest/><duration>6</duration><voice>1</voice><type>half</type><dot/><staff>1</staff></note><backup><duration>6</duration></backup><note><pitch><step>E</step><octave>3</octave></pitch><duration>2</duration><voice>2</voice><type>quarter</type><staff>2</staff></note><note><pitch><step>G</step><octave>3</octave></pitch><duration>2</duration><voice>2</voice><type>quarter</type><staff>2</staff></note><note><chord/><pitch><step>B</step><octave>3</octave></pitch><duration>2</duration><voice>2</voice><type>quarter</type><staff>2</staff></note><note><pitch><step>G</step><octave>3</octave></pitch><duration>2</duration><voice>2</voice><type>quarter</type><staff>2</staff></note><note><chord/><pitch><step>B</step><octave>3</octave></pitch><duration>2</duration><voice>2</voice><type>quarter</type><staff>2</staff></note></measure><measure number="18"><attributes/><note><rest/><duration>6</duration><voice>1</voice><type>half</type><dot/><staff>1</staff></note><backup><duration>6</duration></backup><note><pitch><step>E</step><octave>3</octave></pitch><duration>2</duration><voice>2</voice><type>quarter</type><staff>2</staff></note><note><pitch><step>G</step><octave>3</octave></pitch><duration>2</duration><voice>2</voice><type>quarter</type><staff>2</staff></note><note><chord/><pitch><step>B</step><octave>3</octave></pitch><duration>2</duration><voice>2</voice><type>quarter</type><staff>2</staff></note><note><pitch><step>G</step><octave>3</octave></pitch><duration>2</duration><voice>2</voice><type>quarter</type><staff>2</staff></note><note><chord/><pitch><step>B</step><octave>3</octave></pitch><duration>2</duration><voice>2</voice><type>quarter</type><staff>2</staff></note></measure><measure number="19"><attributes/><note><pitch><step>E</step><octave>4</octave></pitch><duration>2</duration><voice>1</voice><type>quarter</type><staff>1</staff><lyric number="1"><syllabic>single</syllabic><text>Cream</text></lyric></note><note><pitch><step>B</step><octave>4</octave></pitch><duration>2</duration><voice>1</voice><type>quarter</type><staff>1</staff><lyric number="1"><syllabic>begin</syllabic><text>col</text></lyric></note><note><pitch><step>B</step><octave>4</octave></pitch><duration>2</duration><voice>1</voice><type>quarter</type><staff>1</staff><lyric number="1"><syllabic>end</syllabic><text>oured</text></lyric></note><backup><duration>6</duration></backup><note><pitch><step>E</step><octave>3</octave></pitch><duration>2</duration><voice>2</voice><type>quarter</type><staff>2</staff></note><note><pitch><step>G</step><octave>3</octave></pitch><duration>2</duration><voice>2</voice><type>quarter</type><staff>2</staff></note><note><chord/><pitch><step>B</step><octave>3</octave></pitch><duration>2</duration><voice>2</voice><type>quarter</type><staff>2</staff></note><note><pitch><step>G</step><octave>3</octave></pitch><duration>2</duration><voice>2</voice><type>quarter</type><staff>2</staff></note><note><chord/><pitch><step>B</step><octave>3</octave></pitch><duration>2</duration><voice>2</voice><type>quarter</type><staff>2</staff></note></measure><measure number="20"><attributes/><note><pitch><step>F</step><alter>1</alter><octave>4</octave></pitch><duration>2</duration><voice>1</voice><type>quarter</type><staff>1</staff><lyric number="1"><syllabic>begin</syllabic><text>po</text></lyric></note><note><pitch><step>E</step><octave>4</octave></pitch><duration>2</duration><voice>1</voice><type>quarter</type><staff>1</staff><lyric number="1"><syllabic>end</syllabic><text>nies</text></lyric></note><note><pitch><step>E</step><octave>4</octave></pitch><duration>2</duration><voice>1</voice><type>quarter</type><staff>1</staff><lyric number="1"><syllabic>single</syllabic><text>and</text></lyric></note><backup><duration>6</duration></backup><note><pitch><step>E</step><octave>3</octave></pitch><duration>2</duration><voice>2</voice><type>quarter</type><staff>2</staff></note><note><pitch><step>G</step><octave>3</octave></pitch><duration>2</duration><voice>2</voice><type>quarter</type><staff>2</staff></note><note><chord/><pitch><step>B</step><octave>3</octave></pitch><duration>2</duration><voice>2</voice><type>quarter</type><staff>2</staff></note><note><pitch><step>G</step><octave>3</octave></pitch><duration>2</duration><voice>2</voice><type>quarter</type><staff>2</staff></note><note><chord/><pitch><step>B</step><octave>3</octave></pitch><duration>2</duration><voice>2</voice><type>quarter</type><staff>2</staff></note></measure><measure number="21"><attributes/><note><pitch><step>B</step><octave>3</octave></pitch><duration>2</duration><voice>1</voice><type>quarter</type><staff>1</staff><lyric number="1"><syllabic>single</syllabic><text>crisp</text></lyric></note><note><pitch><step>E</step><octave>4</octave></pitch><duration>2</duration><voice>1</voice><type>quarter</type><staff>1</staff><lyric number="1"><syllabic>begin</syllabic><text>ap</text></lyric></note><note><pitch><step>E</step><octave>4</octave></pitch><duration>2</duration><voice>1</voice><type>quarter</type><staff>1</staff><lyric number="1"><syllabic>end</syllabic><text>ple</text></lyric></note><backup><duration>6</duration></backup><note><pitch><step>E</step><octave>3</octave></pitch><duration>2</duration><voice>2</voice><type>quarter</type><staff>2</staff></note><note><pitch><step>G</step><octave>3</octave></pitch><duration>2</duration><voice>2</voice><type>quarter</type><staff>2</staff></note><note><chord/><pitch><step>B</step><octave>3</octave></pitch><duration>2</duration><voice>2</voice><type>quarter</type><staff>2</staff></note><note><pitch><step>G</step><octave>3</octave></pitch><duration>2</duration><voice>2</voice><type>quarter</type><staff>2</staff></note><note><chord/><pitch><step>B</step><octave>3</octave></pitch><duration>2</duration><voice>2</voice><type>quarter</type><staff>2</staff></note></measure><measure number="22"><attributes/><note><pitch><step>F</step><alter>1</alter><octave>4</octave></pitch><duration>2</duration><voice>1</voice><type>quarter</type><staff>1</staff><lyric number="1"><syllabic>begin</syllabic><text>stru</text></lyric></note><note><pitch><step>E</step><octave>4</octave></pitch><duration>2</duration><voice>1</voice><type>quarter</type><staff>1</staff><lyric number="1"><syllabic>end</syllabic><text>dels</text></lyric></note><note><rest/><duration>2</duration><voice>1</voice><type>quarter</type><staff>1</staff></note><backup><duration>6</duration></backup><note><pitch><step>E</step><octave>3</octave></pitch><duration>2</duration><voice>2</voice><type>quarter</type><staff>2</staff></note><note><pitch><step>G</step><octave>3</octave></pitch><duration>2</duration><voice>2</voice><type>quarter</type><staff>2</staff></note><note><chord/><pitch><step>B</step><octave>3</octave></pitch><duration>2</duration><voice>2</voice><type>quarter</type><staff>2</staff></note><note><pitch><step>B</step><octave>3</octave></pitch><duration>2</duration><voice>2</voice><type>quarter</type><staff>2</staff></note><note><chord/><pitch><step>G</step><octave>3</octave></pitch><duration>2</duration><voice>2</voice><type>quarter</type><staff>2</staff></note></measure><measure number="23"><attributes/><note><pitch><step>E</step><octave>4</octave></pitch><duration>2</duration><voice>1</voice><type>quarter</type><staff>1</staff><lyric number="1"><syllabic>single</syllabic><text>Door</text></lyric></note><note><pitch><step>B</step><octave>4</octave></pitch><duration>2</duration><voice>1</voice><type>quarter</type><staff>1</staff><lyric number="1"><syllabic>single</syllabic><text>bells</text></lyric></note><note><pitch><step>B</step><octave>4</octave></pitch><duration>2</duration><voice>1</voice><type>quarter</type><staff>1</staff><lyric number="1"><syllabic>single</syllabic><text>and</text></lyric></note><backup><duration>6</duration></backup><note><pitch><step>C</step><octave>3</octave></pitch><duration>2</duration><voice>2</voice><type>quarter</type><staff>2</staff></note><note><pitch><step>E</step><octave>3</octave></pitch><duration>2</duration><voice>2</voice><type>quarter</type><staff>2</staff></note><note><chord/><pitch><step>G</step><octave>3</octave></pitch><duration>2</duration><voice>2</voice><type>quarter</type><staff>2</staff></note><note><pitch><step>E</step><octave>3</octave></pitch><duration>2</duration><voice>2</voice><type>quarter</type><staff>2</staff></note><note><chord/><pitch><step>G</step><octave>3</octave></pitch><duration>2</duration><voice>2</voice><type>quarter</type><staff>2</staff></note></measure><measure number="24"><attributes/><note><pitch><step>F</step><alter>1</alter><octave>4</octave></pitch><duration>2</duration><voice>1</voice><type>quarter</type><staff>1</staff><lyric number="1"><syllabic>single</syllabic><text>sleigh</text></lyric></note><note><pitch><step>E</step><octave>4</octave></pitch><duration>2</duration><voice>1</voice><type>quarter</type><staff>1</staff><lyric number="1"><syllabic>single</syllabic><text>bells</text></lyric></note><note><pitch><step>E</step><octave>4</octave></pitch><duration>2</duration><voice>1</voice><type>quarter</type><staff>1</staff><lyric number="1"><syllabic>single</syllabic><text>and</text></lyric></note><backup><duration>6</duration></backup><note><pitch><step>C</step><octave>3</octave></pitch><duration>2</duration><voice>2</voice><type>quarter</type><staff>2</staff></note><note><pitch><step>E</step><octave>3</octave></pitch><duration>2</duration><voice>2</voice><type>quarter</type><staff>2</staff></note><note><chord/><pitch><step>G</step><octave>3</octave></pitch><duration>2</duration><voice>2</voice><type>quarter</type><staff>2</staff></note><note><pitch><step>E</step><octave>3</octave></pitch><duration>2</duration><voice>2</voice><type>quarter</type><staff>2</staff></note><note><chord/><pitch><step>G</step><octave>3</octave></pitch><duration>2</duration><voice>2</voice><type>quarter</type><staff>2</staff></note></measure><measure number="25"><attributes/><note><pitch><step>B</step><octave>3</octave></pitch><duration>2</duration><voice>1</voice><type>quarter</type><staff>1</staff><lyric number="1"><syllabic>begin</syllabic><text>Snitzel</text></lyric></note><note><pitch><step>E</step><octave>4</octave></pitch><duration>2</duration><voice>1</voice><type>quarter</type><staff>1</staff><lyric number="1"><syllabic>end</syllabic><text>el</text></lyric></note><note><pitch><step>E</step><octave>4</octave></pitch><duration>2</duration><voice>1</voice><type>quarter</type><staff>1</staff><lyric number="1"><syllabic>single</syllabic><text>with</text></lyric></note><backup><duration>6</duration></backup><note><pitch><step>C</step><octave>3</octave></pitch><duration>2</duration><voice>2</voice><type>quarter</type><staff>2</staff></note><note><pitch><step>E</step><octave>3</octave></pitch><duration>2</duration><voice>2</voice><type>quarter</type><staff>2</staff></note><note><chord/><pitch><step>G</step><octave>3</octave></pitch><duration>2</duration><voice>2</voice><type>quarter</type><staff>2</staff></note><note><pitch><step>E</step><octave>3</octave></pitch><duration>2</duration><voice>2</voice><type>quarter</type><staff>2</staff></note><note><chord/><pitch><step>G</step><octave>3</octave></pitch><duration>2</duration><voice>2</voice><type>quarter</type><staff>2</staff></note></measure><measure number="26"><attributes/><note><pitch><step>F</step><alter>1</alter><octave>4</octave></pitch><duration>2</duration><voice>1</voice><type>quarter</type><staff>1</staff><lyric number="1"><syllabic>begin</syllabic><text>noo</text></lyric></note><note><pitch><step>E</step><octave>4</octave></pitch><duration>2</duration><voice>1</voice><type>quarter</type><staff>1</staff><lyric number="1"><syllabic>end</syllabic><text>dles</text></lyric></note><note><rest/><duration>2</duration><voice>1</voice><type>quarter</type><staff>1</staff></note><backup><duration>6</duration></backup><note><pitch><step>C</step><octave>3</octave></pitch><duration>2</duration><voice>2</voice><type>quarter</type><staff>2</staff></note><note><pitch><step>E</step><octave>3</octave></pitch><duration>2</duration><voice>2</voice><type>quarter</type><staff>2</staff></note><note><chord/><pitch><step>G</step><octave>3</octave></pitch><duration>2</duration><voice>2</voice><type>quarter</type><staff>2</staff></note><note><pitch><step>E</step><octave>3</octave></pitch><duration>2</duration><voice>2</voice><type>quarter</type><staff>2</staff></note><note><chord/><pitch><step>G</step><octave>3</octave></pitch><duration>2</duration><voice>2</voice><type>quarter</type><staff>2</staff></note></measure><measure number="27"><attributes/><note><pitch><step>E</step><octave>4</octave></pitch><duration>2</duration><voice>1</voice><type>quarter</type><staff>1</staff><lyric number="1"><syllabic>single</syllabic><text>wild</text></lyric></note><note><pitch><step>B</step><octave>4</octave></pitch><duration>2</duration><voice>1</voice><type>quarter</type><staff>1</staff><lyric number="1"><syllabic>single</syllabic><text>geese</text></lyric></note><note><pitch><step>A</step><octave>4</octave></pitch><duration>2</duration><voice>1</voice><type>quarter</type><staff>1</staff><lyric number="1"><syllabic>single</syllabic><text>that</text></lyric></note><backup><duration>6</duration></backup><note><pitch><step>C</step><octave>3</octave></pitch><duration>2</duration><voice>2</voice><type>quarter</type><staff>2</staff></note><note><pitch><step>E</step><octave>3</octave></pitch><duration>2</duration><voice>2</voice><type>quarter</type><staff>2</staff></note><note><chord/><pitch><step>A</step><octave>3</octave></pitch><duration>2</duration><voice>2</voice><type>quarter</type><staff>2</staff></note><note><pitch><step>A</step><octave>3</octave></pitch><duration>2</duration><voice>2</voice><type>quarter</type><staff>2</staff></note><note><chord/><pitch><step>E</step><octave>3</octave></pitch><duration>2</duration><voice>2</voice><type>quarter</type><staff>2</staff></note></measure><measure number="28"><attributes/><note><pitch><step>E</step><octave>4</octave></pitch><duration>2</duration><voice>1</voice><type>quarter</type><staff>1</staff><lyric number="1"><syllabic>single</syllabic><text>fly</text></lyric></note><note><pitch><step>F</step><alter>1</alter><octave>4</octave></pitch><duration>2</duration><voice>1</voice><type>quarter</type><staff>1</staff><lyric number="1"><syllabic>single</syllabic><text>with</text></lyric></note><note><pitch><step>D</step><octave>4</octave></pitch><duration>2</duration><voice>1</voice><type>quarter</type><staff>1</staff><lyric number="1"><syllabic>single</syllabic><text>the</text></lyric></note><backup><duration>6</duration></backup><note><pitch><step>D</step><octave>3</octave></pitch><duration>2</duration><voice>2</voice><type>quarter</type><staff>2</staff></note><note><pitch><step>F</step><alter>1</alter><octave>3</octave></pitch><duration>2</duration><voice>2</voice><type>quarter</type><staff>2</staff></note><note><chord/><pitch><step>A</step><octave>3</octave></pitch><duration>2</duration><voice>2</voice><type>quarter</type><staff>2</staff></note><note><pitch><step>F</step><alter>1</alter><octave>3</octave></pitch><duration>2</duration><voice>2</voice><type>quarter</type><staff>2</staff></note><note><chord/><pitch><step>A</step><octave>3</octave></pitch><duration>2</duration><voice>2</voice><type>quarter</type><staff>2</staff></note></measure><measure number="29"><attributes/><note><pitch><step>D</step><octave>4</octave></pitch><duration>2</duration><voice>1</voice><type>quarter</type><staff>1</staff><lyric number="1"><syllabic>single</syllabic><text>moon</text></lyric></note><note><pitch><step>A</step><octave>4</octave></pitch><duration>2</duration><voice>1</voice><type>quarter</type><staff>1</staff><lyric number="1"><syllabic>single</syllabic><text>on</text></lyric></note><note><pitch><step>G</step><octave>4</octave></pitch><duration>2</duration><voice>1</voice><type>quarter</type><staff>1</staff><lyric number="1"><syllabic>single</syllabic><text>their</text></lyric></note><backup><duration>6</duration></backup><note><pitch><step>D</step><octave>3</octave></pitch><duration>2</duration><voice>2</voice><type>quarter</type><staff>2</staff></note><note><pitch><step>G</step><octave>3</octave></pitch><duration>2</duration><voice>2</voice><type>quarter</type><staff>2</staff></note><note><chord/><pitch><step>B</step><octave>3</octave></pitch><duration>2</duration><voice>2</voice><type>quarter</type><staff>2</staff></note><note><pitch><step>G</step><octave>3</octave></pitch><duration>2</duration><voice>2</voice><type>quarter</type><staff>2</staff></note><note><chord/><pitch><step>B</step><octave>3</octave></pitch><duration>2</duration><voice>2</voice><type>quarter</type><staff>2</staff></note></measure><measure number="30"><attributes/><note><pitch><step>C</step><octave>4</octave></pitch><duration>6</duration><voice>1</voice><type>half</type><dot/><staff>1</staff><lyric number="1"><syllabic>single</syllabic><text>wings</text></lyric></note><backup><duration>6</duration></backup><note><pitch><step>C</step><octave>3</octave></pitch><duration>2</duration><voice>2</voice><type>quarter</type><staff>2</staff></note><note><pitch><step>E</step><octave>3</octave></pitch><duration>2</duration><voice>2</voice><type>quarter</type><staff>2</staff></note><note><chord/><pitch><step>G</step><octave>3</octave></pitch><duration>2</duration><voice>2</voice><type>quarter</type><staff>2</staff></note><note><pitch><step>E</step><octave>3</octave></pitch><duration>2</duration><voice>2</voice><type>quarter</type><staff>2</staff></note><note><chord/><pitch><step>G</step><octave>3</octave></pitch><duration>2</duration><voice>2</voice><type>quarter</type><staff>2</staff></note></measure><measure number="31"><barline location="left"><bar-style>regular</bar-style><ending number="1" type="start"/></barline><attributes/><note><pitch><step>B</step><octave>3</octave></pitch><duration>2</duration><voice>1</voice><type>quarter</type><staff>1</staff><lyric number="1"><syllabic>single</syllabic><text>These</text></lyric></note><note><pitch><step>C</step><octave>4</octave></pitch><duration>2</duration><voice>1</voice><type>quarter</type><staff>1</staff><lyric number="1"><syllabic>single</syllabic><text>are</text></lyric></note><note><pitch><step>D</step><octave>4</octave></pitch><duration>2</duration><voice>1</voice><type>quarter</type><staff>1</staff><lyric number="1"><syllabic>single</syllabic><text>a</text></lyric></note><backup><duration>6</duration></backup><note><pitch><step>D</step><octave>3</octave></pitch><duration>2</duration><voice>2</voice><type>quarter</type><staff>2</staff></note><note><pitch><step>G</step><octave>3</octave></pitch><duration>2</duration><voice>2</voice><type>quarter</type><staff>2</staff></note><note><chord/><pitch><step>B</step><octave>3</octave></pitch><duration>2</duration><voice>2</voice><type>quarter</type><staff>2</staff></note><note><pitch><step>G</step><octave>3</octave></pitch><duration>2</duration><voice>2</voice><type>quarter</type><staff>2</staff></note><note><chord/><pitch><step>B</step><octave>3</octave></pitch><duration>2</duration><voice>2</voice><type>quarter</type><staff>2</staff></note><barline location="right"><bar-style>regular</bar-style><ending number="1" type="discontinue"/></barline></measure><measure number="32"><attributes/><note><pitch><step>E</step><octave>4</octave></pitch><duration>2</duration><voice>1</voice><type>quarter</type><staff>1</staff><lyric number="1"><syllabic>single</syllabic><text>few</text></lyric></note><note><pitch><step>F</step><alter>1</alter><octave>4</octave></pitch><duration>2</duration><voice>1</voice><type>quarter</type><staff>1</staff><lyric number="1"><syllabic>single</syllabic><text>of</text></lyric></note><note><pitch><step>G</step><octave>4</octave></pitch><duration>2</duration><voice>1</voice><type>quarter</type><staff>1</staff><lyric number="1"><syllabic>single</syllabic><text>my</text></lyric></note><backup><duration>6</duration></backup><note><pitch><step>C</step><octave>3</octave></pitch><duration>2</duration><voice>2</voice><type>quarter</type><staff>2</staff></note><note><pitch><step>E</step><octave>3</octave></pitch><duration>2</duration><voice>2</voice><type>quarter</type><staff>2</staff></note><note><chord/><pitch><step>G</step><octave>3</octave></pitch><duration>2</duration><voice>2</voice><type>quarter</type><staff>2</staff></note><note><pitch><step>E</step><octave>3</octave></pitch><duration>2</duration><voice>2</voice><type>quarter</type><staff>2</staff></note><note><chord/><pitch><step>G</step><octave>3</octave></pitch><duration>2</duration><voice>2</voice><type>quarter</type><staff>2</staff></note></measure><measure number="33"><attributes/><note><pitch><step>A</step><octave>4</octave></pitch><duration>2</duration><voice>1</voice><type>quarter</type><staff>1</staff><lyric number="1"><syllabic>begin</syllabic><text>fa</text></lyric></note><note><pitch><step>B</step><octave>4</octave></pitch><duration>2</duration><voice>1</voice><type>quarter</type><staff>1</staff><lyric number="1"><syllabic>middle</syllabic><text>vour</text></lyric></note><note><pitch><step>A</step><octave>4</octave></pitch><duration>2</duration><voice>1</voice><type>quarter</type><staff>1</staff><lyric number="1"><syllabic>end</syllabic><text>ite</text></lyric></note><backup><duration>6</duration></backup><note><pitch><step>F</step><alter>1</alter><octave>3</octave></pitch><duration>2</duration><voice>2</voice><type>quarter</type><staff>2</staff></note><note><pitch><step>A</step><octave>3</octave></pitch><duration>2</duration><voice>2</voice><type>quarter</type><staff>2</staff></note><note><chord/><pitch><step>C</step><octave>4</octave></pitch><duration>2</duration><voice>2</voice><type>quarter</type><staff>2</staff></note><note><pitch><step>A</step><octave>3</octave></pitch><duration>2</duration><voice>2</voice><type>quarter</type><staff>2</staff></note><note><chord/><pitch><step>C</step><octave>4</octave></pitch><duration>2</duration><voice>2</voice><type>quarter</type><staff>2</staff></note></measure><measure number="34"><attributes/><note><pitch><step>D</step><alter>1</alter><octave>4</octave></pitch><duration>6</duration><voice>1</voice><type>half</type><dot/><accidental>sharp</accidental><staff>1</staff><lyric number="1"><syllabic>single</syllabic><text>things</text></lyric></note><backup><duration>6</duration></backup><note><pitch><step>B</step><octave>2</octave></pitch><duration>2</duration><voice>2</voice><type>quarter</type><staff>2</staff></note><note><pitch><step>D</step><alter>1</alter><octave>3</octave></pitch><duration>2</duration><voice>2</voice><type>quarter</type><accidental>sharp</accidental><staff>2</staff></note><note><chord/><pitch><step>F</step><alter>1</alter><octave>3</octave></pitch><duration>2</duration><voice>2</voice><type>quarter</type><staff>2</staff></note><note><pitch><step>D</step><alter>1</alter><octave>3</octave></pitch><duration>2</duration><voice>2</voice><type>quarter</type><staff>2</staff></note><note><chord/><pitch><step>F</step><alter>1</alter><octave>3</octave></pitch><duration>2</duration><voice>2</voice><type>quarter</type><staff>2</staff></note><barline location="right"><bar-style>light-heavy</bar-style><repeat direction="backward" times="1" winged="none"/></barline></measure><measure number="35"><barline location="left"><bar-style>regular</bar-style><ending number="2" type="start"/></barline><attributes/><note><pitch><step>B</step><octave>3</octave></pitch><duration>2</duration><voice>1</voice><type>quarter</type><staff>1</staff><lyric number="1"><syllabic>single</syllabic><text>These</text></lyric></note><note><pitch><step>C</step><octave>4</octave></pitch><duration>2</duration><voice>1</voice><type>quarter</type><staff>1</staff><lyric number="1"><syllabic>single</syllabic><text>are</text></lyric></note><note><pitch><step>E</step><octave>4</octave></pitch><duration>2</duration><voice>1</voice><type>quarter</type><staff>1</staff><lyric number="1"><syllabic>single</syllabic><text>a</text></lyric></note><backup><duration>6</duration></backup><note><pitch><step>D</step><octave>3</octave></pitch><duration>2</duration><voice>2</voice><type>quarter</type><staff>2</staff></note><note><pitch><step>G</step><octave>3</octave></pitch><duration>2</duration><voice>2</voice><type>quarter</type><staff>2</staff></note><note><chord/><pitch><step>B</step><octave>3</octave></pitch><duration>2</duration><voice>2</voice><type>quarter</type><staff>2</staff></note><note><pitch><step>G</step><octave>3</octave></pitch><duration>2</duration><voice>2</voice><type>quarter</type><staff>2</staff></note><note><chord/><pitch><step>B</step><octave>3</octave></pitch><duration>2</duration><voice>2</voice><type>quarter</type><staff>2</staff></note><barline location="right"><bar-style>regular</bar-style><ending number="2" type="discontinue"/></barline></measure><measure number="36"><attributes/><note><pitch><step>E</step><octave>4</octave></pitch><duration>2</duration><voice>1</voice><type>quarter</type><staff>1</staff><lyric number="1"><syllabic>single</syllabic><text>few</text></lyric></note><note><pitch><step>F</step><alter>1</alter><octave>4</octave></pitch><duration>2</duration><voice>1</voice><type>quarter</type><staff>1</staff><lyric number="1"><syllabic>single</syllabic><text>of</text></lyric></note><note><pitch><step>G</step><octave>4</octave></pitch><duration>2</duration><voice>1</voice><type>quarter</type><staff>1</staff><lyric number="1"><syllabic>single</syllabic><text>my</text></lyric></note><backup><duration>6</duration></backup><note><pitch><step>C</step><octave>3</octave></pitch><duration>2</duration><voice>2</voice><type>quarter</type><staff>2</staff></note><note><pitch><step>E</step><octave>3</octave></pitch><duration>2</duration><voice>2</voice><type>quarter</type><staff>2</staff></note><note><chord/><pitch><step>G</step><octave>3</octave></pitch><duration>2</duration><voice>2</voice><type>quarter</type><staff>2</staff></note><note><pitch><step>E</step><octave>3</octave></pitch><duration>2</duration><voice>2</voice><type>quarter</type><staff>2</staff></note><note><chord/><pitch><step>G</step><octave>3</octave></pitch><duration>2</duration><voice>2</voice><type>quarter</type><staff>2</staff></note></measure><measure number="37"><attributes/><note><pitch><step>A</step><octave>4</octave></pitch><duration>2</duration><voice>1</voice><type>quarter</type><staff>1</staff><lyric number="1"><syllabic>begin</syllabic><text>fa</text></lyric></note><note><pitch><step>A</step><alter>1</alter><octave>4</octave></pitch><duration>2</duration><voice>1</voice><type>quarter</type><accidental>sharp</accidental><staff>1</staff><lyric number="1"><syllabic>end</syllabic><text>vour</text></lyric></note><note><pitch><step>B</step><octave>4</octave></pitch><duration>2</duration><voice>1</voice><type>quarter</type><staff>1</staff><lyric number="1"><syllabic>single</syllabic><text>ite</text></lyric></note><backup><duration>6</duration></backup><note><pitch><step>F</step><alter>1</alter><octave>3</octave></pitch><duration>2</duration><voice>2</voice><type>quarter</type><staff>2</staff></note><note><pitch><step>C</step><octave>4</octave></pitch><duration>2</duration><voice>2</voice><type>quarter</type><staff>2</staff></note><note><chord/><pitch><step>A</step><alter>1</alter><octave>3</octave></pitch><duration>2</duration><voice>2</voice><type>quarter</type><accidental>sharp</accidental><staff>2</staff></note><note><pitch><step>A</step><octave>3</octave></pitch><duration>2</duration><voice>2</voice><type>quarter</type><accidental>natural</accidental><staff>2</staff></note><note><chord/><pitch><step>C</step><octave>4</octave></pitch><duration>2</duration><voice>2</voice><type>quarter</type><staff>2</staff></note></measure><measure number="38"><attributes/><note><pitch><step>C</step><octave>5</octave></pitch><duration>6</duration><voice>1</voice><type>half</type><dot/><staff>1</staff><lyric number="1"><syllabic>single</syllabic><text>things</text></lyric></note><backup><duration>6</duration></backup><note><pitch><step>C</step><octave>4</octave></pitch><duration>6</duration><voice>2</voice><type>half</type><dot/><staff>2</staff></note><note><chord/><pitch><step>A</step><octave>3</octave></pitch><duration>6</duration><voice>2</voice><type>half</type><dot/><staff>2</staff></note><note><chord/><pitch><step>F</step><alter>1</alter><octave>3</octave></pitch><duration>6</duration><voice>2</voice><type>half</type><dot/><staff>2</staff></note><note><chord/><pitch><step>B</step><octave>2</octave></pitch><duration>6</duration><voice>2</voice><type>half</type><dot/><staff>2</staff></note></measure><measure number="39"><attributes/><note><rest/><duration>2</duration><voice>1</voice><type>quarter</type><staff>1</staff></note><note><pitch><step>B</step><octave>4</octave></pitch><duration>2</duration><voice>1</voice><type>quarter</type><staff>1</staff><lyric number="1"><syllabic>single</syllabic><text>When</text></lyric></note><note><pitch><step>B</step><octave>4</octave></pitch><duration>2</duration><voice>1</voice><type>quarter</type><staff>1</staff><lyric number="1"><syllabic>single</syllabic><text>the</text></lyric></note><backup><duration>6</duration></backup><note><pitch><step>E</step><octave>3</octave></pitch><duration>2</duration><voice>2</voice><type>quarter</type><staff>2</staff></note><note><chord/><pitch><step>G</step><octave>3</octave></pitch><duration>2</duration><voice>2</voice><type>quarter</type><staff>2</staff></note><note><chord/><pitch><step>B</step><octave>3</octave></pitch><duration>2</duration><voice>2</voice><type>quarter</type><staff>2</staff></note><note><rest/><duration>4</duration><voice>2</voice><type>half</type><staff>2</staff></note></measure><measure number="40"><attributes/><note><pitch><step>B</step><octave>4</octave></pitch><duration>4</duration><voice>1</voice><type>half</type><staff>1</staff><lyric number="1"><syllabic>single</syllabic><text>dog</text></lyric></note><note><pitch><step>E</step><octave>4</octave></pitch><duration>2</duration><voice>1</voice><type>quarter</type><staff>1</staff><lyric number="1"><syllabic>single</syllabic><text>bites</text></lyric></note><backup><duration>6</duration></backup><note><pitch><step>E</step><octave>3</octave></pitch><duration>2</duration><voice>2</voice><type>quarter</type><staff>2</staff></note><note><chord/><pitch><step>G</step><octave>3</octave></pitch><duration>2</duration><voice>2</voice><type>quarter</type><staff>2</staff></note><note><chord/><pitch><step>B</step><octave>3</octave></pitch><duration>2</duration><voice>2</voice><type>quarter</type><staff>2</staff></note><note><rest/><duration>4</duration><voice>2</voice><type>half</type><staff>2</staff></note></measure><measure number="41"><attributes/><note><rest/><duration>2</duration><voice>1</voice><type>quarter</type><staff>1</staff></note><note><pitch><step>A</step><octave>4</octave></pitch><duration>2</duration><voice>1</voice><type>quarter</type><staff>1</staff><lyric number="1"><syllabic>single</syllabic><text>when</text></lyric></note><note><pitch><step>A</step><octave>4</octave></pitch><duration>2</duration><voice>1</voice><type>quarter</type><staff>1</staff><lyric number="1"><syllabic>single</syllabic><text>the</text></lyric></note><backup><duration>6</duration></backup><note><pitch><step>F</step><alter>1</alter><octave>3</octave></pitch><duration>6</duration><voice>2</voice><type>half</type><dot/><staff>2</staff></note><note><chord/><pitch><step>A</step><octave>3</octave></pitch><duration>6</duration><voice>2</voice><type>half</type><dot/><staff>2</staff></note><note><chord/><pitch><step>C</step><octave>4</octave></pitch><duration>6</duration><voice>2</voice><type>half</type><dot/><staff>2</staff></note><note><chord/><pitch><step>E</step><octave>3</octave></pitch><duration>6</duration><voice>2</voice><type>half</type><dot/><staff>2</staff></note></measure><measure number="42"><attributes/><note><pitch><step>A</step><octave>4</octave></pitch><duration>4</duration><voice>1</voice><type>half</type><staff>1</staff><lyric number="1"><syllabic>single</syllabic><text>bee</text></lyric></note><note><pitch><step>D</step><alter>1</alter><octave>4</octave></pitch><duration>2</duration><voice>1</voice><type>quarter</type><accidental>sharp</accidental><staff>1</staff><lyric number="1"><syllabic>single</syllabic><text>stings</text></lyric></note><backup><duration>6</duration></backup><note><rest/><duration>4</duration><voice>2</voice><type>half</type><staff>2</staff></note><note><pitch><step>B</step><octave>2</octave></pitch><duration>2</duration><voice>2</voice><type>quarter</type><staff>2</staff></note><note><chord/><pitch><step>D</step><alter>1</alter><octave>3</octave></pitch><duration>2</duration><voice>2</voice><type>quarter</type><accidental>sharp</accidental><staff>2</staff></note><note><chord/><pitch><step>F</step><alter>1</alter><octave>3</octave></pitch><duration>2</duration><voice>2</voice><type>quarter</type><staff>2</staff></note><note><chord/><pitch><step>A</step><octave>3</octave></pitch><duration>2</duration><voice>2</voice><type>quarter</type><staff>2</staff></note></measure><measure number="43"><attributes/><note><rest/><duration>2</duration><voice>1</voice><type>quarter</type><staff>1</staff></note><note><pitch><step>G</step><octave>4</octave></pitch><duration>2</duration><voice>1</voice><type>quarter</type><staff>1</staff><lyric number="1"><syllabic>single</syllabic><text>When</text></lyric></note><note><pitch><step>G</step><octave>4</octave></pitch><duration>2</duration><voice>1</voice><type>quarter</type><staff>1</staff><lyric number="1"><syllabic>single</syllabic><text>I'm</text></lyric></note><backup><duration>6</duration></backup><note><rest/><duration>2</duration><voice>2</voice><type>quarter</type><staff>2</staff></note><note><pitch><step>E</step><octave>3</octave></pitch><duration>2</duration><voice>2</voice><type>quarter</type><staff>2</staff></note><note><chord/><pitch><step>G</step><octave>3</octave></pitch><duration>2</duration><voice>2</voice><type>quarter</type><staff>2</staff></note><note><chord/><pitch><step>B</step><octave>3</octave></pitch><duration>2</duration><voice>2</voice><type>quarter</type><staff>2</staff></note><note><pitch><step>D</step><octave>3</octave></pitch><duration>2</duration><voice>2</voice><type>quarter</type><staff>2</staff></note><note><chord/><pitch><step>F</step><alter>1</alter><octave>3</octave></pitch><duration>2</duration><voice>2</voice><type>quarter</type><staff>2</staff></note><note><chord/><pitch><step>B</step><octave>3</octave></pitch><duration>2</duration><voice>2</voice><type>quarter</type><staff>2</staff></note></measure><measure number="44"><attributes/><note><pitch><step>G</step><octave>4</octave></pitch><duration>4</duration><voice>1</voice><type>half</type><staff>1</staff><lyric number="1"><syllabic>begin</syllabic><text>feel</text></lyric></note><note><pitch><step>B</step><octave>3</octave></pitch><duration>2</duration><voice>1</voice><type>quarter</type><staff>1</staff><lyric number="1"><syllabic>end</syllabic><text>ing</text></lyric></note><backup><duration>6</duration></backup><note><pitch><step>E</step><octave>3</octave></pitch><duration>4</duration><voice>2</voice><type>half</type><staff>2</staff></note><note><chord/><pitch><step>G</step><octave>3</octave></pitch><duration>4</duration><voice>2</voice><type>half</type><staff>2</staff></note><note><chord/><pitch><step>B</step><octave>3</octave></pitch><duration>4</duration><voice>2</voice><type>half</type><staff>2</staff></note><note><pitch><step>B</step><octave>3</octave></pitch><duration>2</duration><voice>2</voice><type>quarter</type><staff>2</staff></note><note><chord/><pitch><step>G</step><octave>3</octave></pitch><duration>2</duration><voice>2</voice><type>quarter</type><staff>2</staff></note><note><chord/><pitch><step>E</step><octave>3</octave></pitch><duration>2</duration><voice>2</voice><type>quarter</type><staff>2</staff></note></measure><measure number="45"><attributes/><note><pitch><step>E</step><octave>4</octave></pitch><duration>6</duration><tie type="start"/><voice>1</voice><type>half</type><dot/><staff>1</staff><notations><tied type="start"/></notations><lyric number="1"><syllabic>single</syllabic><text>sad</text></lyric></note><backup><duration>6</duration></backup><note><pitch><step>E</step><octave>3</octave></pitch><duration>6</duration><voice>2</voice><type>half</type><dot/><staff>2</staff></note><note><chord/><pitch><step>G</step><octave>3</octave></pitch><duration>6</duration><voice>2</voice><type>half</type><dot/><staff>2</staff></note><note><chord/><pitch><step>B</step><octave>3</octave></pitch><duration>6</duration><voice>2</voice><type>half</type><dot/><staff>2</staff></note></measure><measure number="46"><attributes/><note><pitch><step>E</step><octave>4</octave></pitch><duration>4</duration><tie type="stop"/><voice>1</voice><type>half</type><staff>1</staff><notations><tied type="stop"/></notations></note><note><pitch><step>E</step><octave>4</octave></pitch><duration>2</duration><voice>1</voice><type>quarter</type><staff>1</staff><lyric number="1"><syllabic>single</syllabic><text>I</text></lyric></note><backup><duration>6</duration></backup><note><rest/><duration>4</duration><voice>2</voice><type>half</type><staff>2</staff></note><note><rest/><duration>2</duration><voice>2</voice><type>quarter</type><staff>2</staff></note></measure><measure number="47"><attributes/><note><pitch><step>E</step><octave>4</octave></pitch><duration>2</duration><voice>1</voice><type>quarter</type><staff>1</staff><lyric number="1"><syllabic>begin</syllabic><text>sim</text></lyric></note><note><pitch><step>F</step><alter>1</alter><octave>4</octave></pitch><duration>2</duration><voice>1</voice><type>quarter</type><staff>1</staff><lyric number="1"><syllabic>end</syllabic><text>ply</text></lyric></note><note><pitch><step>E</step><octave>4</octave></pitch><duration>2</duration><voice>1</voice><type>quarter</type><staff>1</staff><lyric number="1"><syllabic>begin</syllabic><text>rem</text></lyric></note><backup><duration>6</duration></backup><note><pitch><step>E</step><octave>3</octave></pitch><duration>6</duration><voice>2</voice><type>half</type><dot/><staff>2</staff></note><note><chord/><pitch><step>G</step><octave>3</octave></pitch><duration>6</duration><voice>2</voice><type>half</type><dot/><staff>2</staff></note><note><chord/><pitch><step>B</step><octave>3</octave></pitch><duration>6</duration><voice>2</voice><type>half</type><dot/><staff>2</staff></note></measure><measure number="48"><attributes/><note><pitch><step>F</step><alter>1</alter><octave>4</octave></pitch><duration>2</duration><voice>1</voice><type>quarter</type><staff>1</staff><lyric number="1"><syllabic>middle</syllabic><text>emb</text></lyric></note><note><pitch><step>E</step><octave>4</octave></pitch><duration>2</duration><voice>1</voice><type>quarter</type><staff>1</staff><lyric number="1"><syllabic>end</syllabic><text>er</text></lyric></note><note><pitch><step>F</step><alter>1</alter><octave>4</octave></pitch><duration>2</duration><voice>1</voice><type>quarter</type><staff>1</staff><lyric number="1"><syllabic>single</syllabic><text>my</text></lyric></note><backup><duration>6</duration></backup><note><pitch><step>E</step><octave>3</octave></pitch><duration>6</duration><voice>2</voice><type>half</type><dot/><staff>2</staff></note><note><chord/><pitch><step>G</step><octave>3</octave></pitch><duration>6</duration><voice>2</voice><type>half</type><dot/><staff>2</staff></note><note><chord/><pitch><step>B</step><octave>3</octave></pitch><duration>6</duration><voice>2</voice><type>half</type><dot/><staff>2</staff></note></measure><measure number="49"><attributes/><note><pitch><step>G</step><octave>4</octave></pitch><duration>2</duration><voice>1</voice><type>quarter</type><staff>1</staff><lyric number="1"><syllabic>begin</syllabic><text>fav</text></lyric></note><note><pitch><step>A</step><octave>4</octave></pitch><duration>2</duration><voice>1</voice><type>quarter</type><staff>1</staff><lyric number="1"><syllabic>middle</syllabic><text>our</text></lyric></note><note><pitch><step>G</step><octave>4</octave></pitch><duration>2</duration><voice>1</voice><type>quarter</type><staff>1</staff><lyric number="1"><syllabic>end</syllabic><text>ite</text></lyric></note><backup><duration>6</duration></backup><note><pitch><step>C</step><alter>1</alter><octave>3</octave></pitch><duration>6</duration><voice>2</voice><type>half</type><dot/><accidental>sharp</accidental><staff>2</staff></note><note><chord/><pitch><step>E</step><octave>3</octave></pitch><duration>6</duration><voice>2</voice><type>half</type><dot/><staff>2</staff></note><note><chord/><pitch><step>G</step><octave>3</octave></pitch><duration>6</duration><voice>2</voice><type>half</type><dot/><staff>2</staff></note><note><chord/><pitch><step>A</step><octave>3</octave></pitch><duration>6</duration><voice>2</voice><type>half</type><dot/><staff>2</staff></note></measure><measure number="50"><attributes/><note><pitch><step>A</step><octave>4</octave></pitch><duration>4</duration><voice>1</voice><type>half</type><staff>1</staff><lyric number="1"><syllabic>single</syllabic><text>things</text></lyric></note><note><pitch><step>G</step><octave>4</octave></pitch><duration>2</duration><voice>1</voice><type>quarter</type><staff>1</staff><lyric number="1"><syllabic>single</syllabic><text>and</text></lyric></note><backup><duration>6</duration></backup><note><rest/><duration>6</duration><voice>2</voice><type>half</type><dot/><staff>2</staff></note></measure><measure number="51"><attributes/><note><pitch><step>B</step><octave>4</octave></pitch><duration>2</duration><voice>1</voice><type>quarter</type><staff>1</staff><lyric number="1"><syllabic>single</syllabic><text>then</text></lyric></note><note><pitch><step>C</step><octave>5</octave></pitch><duration>2</duration><voice>1</voice><type>quarter</type><staff>1</staff><lyric number="1"><syllabic>single</syllabic><text>I</text></lyric></note><note><pitch><step>B</step><octave>4</octave></pitch><duration>2</duration><voice>1</voice><type>quarter</type><staff>1</staff><lyric number="1"><syllabic>single</syllabic><text>don't</text></lyric></note><backup><duration>6</duration></backup><note><pitch><step>B</step><octave>2</octave></pitch><duration>6</duration><voice>2</voice><type>half</type><dot/><staff>2</staff></note><note><chord/><pitch><step>D</step><octave>3</octave></pitch><duration>6</duration><voice>2</voice><type>half</type><dot/><staff>2</staff></note><note><chord/><pitch><step>G</step><octave>3</octave></pitch><duration>6</duration><voice>2</voice><type>half</type><dot/><staff>2</staff></note></measure><measure number="52"><attributes/><note><pitch><step>C</step><octave>5</octave></pitch><duration>2</duration><voice>1</voice><type>quarter</type><staff>1</staff><lyric number="1"><syllabic>single</syllabic><text>feel</text></lyric></note><note><rest/><duration>4</duration><voice>1</voice><type>half</type><staff>1</staff></note><backup><duration>6</duration></backup><note><rest/><duration>6</duration><voice>2</voice><type>half</type><dot/><staff>2</staff></note></measure><measure number="53"><attributes/><note><rest/><duration>6</duration><voice>1</voice><type>half</type><dot/><staff>1</staff></note><backup><duration>6</duration></backup><note><pitch><step>D</step><octave>3</octave></pitch><duration>6</duration><voice>2</voice><type>half</type><dot/><staff>2</staff></note><note><chord/><pitch><step>E</step><octave>3</octave></pitch><duration>6</duration><voice>2</voice><type>half</type><dot/><staff>2</staff></note><note><chord/><pitch><step>F</step><alter>1</alter><octave>3</octave></pitch><duration>6</duration><voice>2</voice><type>half</type><dot/><staff>2</staff></note><note><chord/><pitch><step>A</step><octave>3</octave></pitch><duration>6</duration><voice>2</voice><type>half</type><dot/><staff>2</staff></note><note><chord/><pitch><step>C</step><octave>4</octave></pitch><duration>6</duration><voice>2</voice><type>half</type><dot/><staff>2</staff></note></measure><measure number="54"><attributes/><note><pitch><step>B</step><octave>4</octave></pitch><duration>6</duration><voice>1</voice><type>half</type><dot/><staff>1</staff><lyric number="1"><syllabic>single</syllabic><text>so</text></lyric></note><backup><duration>6</duration></backup><note><pitch><step>B</step><octave>2</octave></pitch><duration>6</duration><voice>2</voice><type>half</type><dot/><staff>2</staff></note><note><chord/><pitch><step>D</step><octave>3</octave></pitch><duration>6</duration><voice>2</voice><type>half</type><dot/><staff>2</staff></note><note><chord/><pitch><step>G</step><octave>3</octave></pitch><duration>6</duration><voice>2</voice><type>half</type><dot/><staff>2</staff></note></measure><measure number="55"><attributes/><note><pitch><step>G</step><octave>4</octave></pitch><duration>6</duration><tie type="start"/><voice>1</voice><type>half</type><dot/><staff>1</staff><notations><tied type="start"/></notations><lyric number="1"><syllabic>single</syllabic><text>bad</text></lyric></note><backup><duration>6</duration></backup><note><pitch><step>D</step><octave>3</octave></pitch><duration>6</duration><tie type="start"/><voice>2</voice><type>half</type><dot/><staff>2</staff><notations><tied type="start"/></notations></note><note><chord/><pitch><step>G</step><octave>3</octave></pitch><duration>6</duration><tie type="start"/><voice>2</voice><type>half</type><dot/><staff>2</staff><notations><tied type="start"/></notations></note><note><chord/><pitch><step>B</step><octave>3</octave></pitch><duration>6</duration><tie type="start"/><voice>2</voice><type>half</type><dot/><staff>2</staff><notations><tied type="start"/></notations></note></measure><measure number="56"><attributes/><note><pitch><step>G</step><octave>4</octave></pitch><duration>6</duration><tie type="stop"/><tie type="start"/><voice>1</voice><type>half</type><dot/><staff>1</staff><notations><tied type="stop"/><tied type="start"/></notations></note><backup><duration>6</duration></backup><note><pitch><step>D</step><octave>3</octave></pitch><duration>6</duration><tie type="stop"/><voice>2</voice><type>half</type><dot/><staff>2</staff><notations><tied type="stop"/></notations></note><note><chord/><pitch><step>G</step><octave>3</octave></pitch><duration>6</duration><tie type="stop"/><voice>2</voice><type>half</type><dot/><staff>2</staff><notations><tied type="stop"/></notations></note><note><chord/><pitch><step>B</step><octave>3</octave></pitch><duration>6</duration><tie type="stop"/><voice>2</voice><type>half</type><dot/><staff>2</staff><notations><tied type="stop"/></notations></note></measure><measure number="57"><attributes/><note><pitch><step>G</step><octave>4</octave></pitch><duration>6</duration><tie type="stop"/><tie type="start"/><voice>1</voice><type>half</type><dot/><staff>1</staff><notations><tied type="stop"/><tied type="start"/></notations></note><backup><duration>6</duration></backup><note><pitch><step>C</step><octave>3</octave></pitch><duration>6</duration><tie type="start"/><voice>2</voice><type>half</type><dot/><staff>2</staff><notations><tied type="start"/></notations></note><note><chord/><pitch><step>E</step><octave>3</octave></pitch><duration>6</duration><tie type="start"/><voice>2</voice><type>half</type><dot/><staff>2</staff><notations><tied type="start"/></notations></note><note><chord/><pitch><step>G</step><octave>3</octave></pitch><duration>6</duration><tie type="start"/><voice>2</voice><type>half</type><dot/><staff>2</staff><notations><tied type="start"/></notations></note></measure><measure number="58"><attributes/><note><pitch><step>G</step><octave>4</octave></pitch><duration>6</duration><tie type="stop"/><tie type="start"/><voice>1</voice><type>half</type><dot/><staff>1</staff><notations><tied type="stop"/><tied type="start"/></notations></note><backup><duration>6</duration></backup><note><pitch><step>C</step><octave>3</octave></pitch><duration>6</duration><tie type="stop"/><voice>2</voice><type>half</type><dot/><staff>2</staff><notations><tied type="stop"/></notations></note><note><chord/><pitch><step>E</step><octave>3</octave></pitch><duration>6</duration><tie type="stop"/><voice>2</voice><type>half</type><dot/><staff>2</staff><notations><tied type="stop"/></notations></note><note><chord/><pitch><step>G</step><octave>3</octave></pitch><duration>6</duration><tie type="stop"/><voice>2</voice><type>half</type><dot/><staff>2</staff><notations><tied type="stop"/></notations></note></measure><measure number="59"><attributes/><note><pitch><step>G</step><octave>4</octave></pitch><duration>6</duration><tie type="stop"/><tie type="start"/><voice>1</voice><type>half</type><dot/><staff>1</staff><notations><tied type="stop"/><tied type="start"/></notations></note><backup><duration>6</duration></backup><note><pitch><step>D</step><octave>3</octave></pitch><duration>6</duration><voice>2</voice><type>half</type><dot/><staff>2</staff></note><note><chord/><pitch><step>G</step><octave>3</octave></pitch><duration>6</duration><voice>2</voice><type>half</type><dot/><staff>2</staff></note><note><chord/><pitch><step>B</step><octave>3</octave></pitch><duration>6</duration><voice>2</voice><type>half</type><dot/><staff>2</staff></note></measure><measure number="60"><attributes/><note><pitch><step>G</step><octave>4</octave></pitch><duration>6</duration><tie type="stop"/><tie type="start"/><voice>1</voice><type>half</type><dot/><staff>1</staff><notations><tied type="stop"/><tied type="start"/></notations></note><backup><duration>6</duration></backup><note><pitch><step>D</step><octave>3</octave></pitch><duration>6</duration><voice>2</voice><type>half</type><dot/><staff>2</staff></note><note><chord/><pitch><step>F</step><alter>1</alter><octave>3</octave></pitch><duration>6</duration><voice>2</voice><type>half</type><dot/><staff>2</staff></note><note><chord/><pitch><step>A</step><octave>3</octave></pitch><duration>6</duration><voice>2</voice><type>half</type><dot/><staff>2</staff></note><note><chord/><pitch><step>C</step><octave>4</octave></pitch><duration>6</duration><voice>2</voice><type>half</type><dot/><staff>2</staff></note></measure><measure number="61"><attributes/><note><pitch><step>G</step><octave>4</octave></pitch><duration>6</duration><tie type="stop"/><tie type="start"/><voice>1</voice><type>half</type><dot/><staff>1</staff><notations><tied type="stop"/><tied type="start"/></notations></note><backup><duration>6</duration></backup><note><pitch><step>D</step><octave>3</octave></pitch><duration>6</duration><tie type="start"/><voice>2</voice><type>half</type><dot/><staff>2</staff><notations><tied type="start"/></notations></note><note><chord/><pitch><step>G</step><octave>3</octave></pitch><duration>6</duration><tie type="start"/><voice>2</voice><type>half</type><dot/><staff>2</staff><notations><tied type="start"/></notations></note><note><chord/><pitch><step>B</step><octave>3</octave></pitch><duration>6</duration><tie type="start"/><voice>2</voice><type>half</type><dot/><staff>2</staff><notations><tied type="start"/></notations></note></measure><measure number="62"><attributes/><note><pitch><step>G</step><octave>4</octave></pitch><duration>2</duration><tie type="stop"/><voice>1</voice><type>quarter</type><staff>1</staff><notations><tied type="stop"/></notations></note><note><rest/><duration>4</duration><voice>1</voice><type>half</type><staff>1</staff></note><backup><duration>6</duration></backup><note><pitch><step>D</step><octave>3</octave></pitch><duration>2</duration><tie type="stop"/><voice>2</voice><type>quarter</type><staff>2</staff><notations><tied type="stop"/></notations></note><note><chord/><pitch><step>G</step><octave>3</octave></pitch><duration>2</duration><tie type="stop"/><voice>2</voice><type>quarter</type><staff>2</staff><notations><tied type="stop"/></notations></note><note><chord/><pitch><step>B</step><octave>3</octave></pitch><duration>2</duration><tie type="stop"/><voice>2</voice><type>quarter</type><staff>2</staff><notations><tied type="stop"/></notations></note><note><rest/><duration>4</duration><voice>2</voice><type>half</type><staff>2</staff></note><barline location="right"><bar-style>light-heavy</bar-style></barline></measure></part></score-partwise>