<?xml version="1.0" encoding="UTF-8" standalone="no"?><!DOCTYPE score-partwise PUBLIC "-//Recordare//DTD MusicXML 3.1 Partwise//EN" "http://www.musicxml.org/dtds/partwise.dtd"><score-partwise version="3.1"><identification><creator type="lyricist">Ernst Anschütz 1824</creator><creator type="arranger">Aliese Watts</creator><rights>CC0 - Public Domain</rights><encoding><software>Flat</software><encoding-date>2020-05-04</encoding-date></encoding><source>https://flat.io/score/5d8a0aed3e9b887eae6232b0-o-christmas-tree</source></identification><defaults><scaling><millimeters>7</millimeters><tenths>40</tenths></scaling><page-layout><page-height>1697.142857142857</page-height><page-width>1200</page-width><page-margins type="both"><left-margin>98.28571428571429</left-margin><right-margin>98.28571428571429</right-margin><top-margin>98.28571428571429</top-margin><bottom-margin>98.28571428571429</bottom-margin></page-margins></page-layout><system-layout><system-distance>115.2</system-distance></system-layout><staff-layout><staff-distance>72.57142857142857</staff-distance></staff-layout></defaults><credit><credit-type>title</credit-type><credit-words>O Christmas Tree</credit-words></credit><credit><credit-type>subtitle</credit-type><credit-words>Arranged by Aliese Watts 2019</credit-words></credit><part-list><score-part id="P1"><part-name>Piano</part-name><part-abbreviation>Pno.</part-abbreviation><score-instrument id="P1-I1"><instrument-name>Piano</instrument-name></score-instrument><midi-instrument id="P1-I1"><midi-channel>1</midi-channel><midi-program>1</midi-program><volume>100</volume></midi-instrument></score-part></part-list><part id="P1"><measure number="1"><attributes><divisions>4</divisions><key><fifths>-1</fifths></key><time><beats>3</beats><beat-type>4</beat-type></time><staves>2</staves><clef number="1"><sign>G</sign><line>2</line></clef><clef number="2"><sign>F</sign><line>4</line></clef><staff-details><staff-lines>5</staff-lines></staff-details></attributes><sound tempo="100"/><sound/><direction placement="above"><direction-type><metronome><beat-unit>quarter</beat-unit><per-minute>100</per-minute></metronome></direction-type><staff>1</staff></direction><note><rest/><duration>8</duration><voice>1</voice><type>half</type><staff>1</staff></note><note><pitch><step>C</step><octave>4</octave></pitch><duration>4</duration><voice>1</voice><type>quarter</type><staff>1</staff><lyric number="1"><syllabic>single</syllabic><text>O</text></lyric></note><backup><duration>12</duration></backup><note><rest/><duration>12</duration><voice>2</voice><type>half</type><dot/><staff>2</staff></note></measure><measure number="2"><barline location="left"><bar-style>heavy-light</bar-style><repeat direction="forward" times="1" winged="none"/></barline><attributes/><note><pitch><step>F</step><octave>4</octave></pitch><duration>3</duration><voice>1</voice><type>eighth</type><dot/><staff>1</staff><beam number="1">begin</beam><lyric number="1"><syllabic>single</syllabic><text>Christ-</text></lyric></note><note><pitch><step>F</step><octave>4</octave></pitch><duration>1</duration><voice>1</voice><type>16th</type><staff>1</staff><beam number="1">end</beam><beam number="2">backward hook</beam><lyric number="1"><syllabic>single</syllabic><text>mas</text></lyric></note><note><pitch><step>F</step><octave>4</octave></pitch><duration>4</duration><voice>1</voice><type>quarter</type><staff>1</staff><lyric number="1"><syllabic>single</syllabic><text>Tree,</text></lyric></note><note><pitch><step>G</step><octave>4</octave></pitch><duration>4</duration><voice>1</voice><type>quarter</type><staff>1</staff><lyric number="1"><syllabic>single</syllabic><text>O</text></lyric></note><backup><duration>12</duration></backup><note><pitch><step>F</step><octave>3</octave></pitch><duration>4</duration><voice>2</voice><type>quarter</type><staff>2</staff></note><note><pitch><step>A</step><octave>3</octave></pitch><duration>4</duration><voice>2</voice><type>quarter</type><staff>2</staff></note><note><pitch><step>C</step><octave>4</octave></pitch><duration>4</duration><voice>2</voice><type>quarter</type><staff>2</staff></note></measure><measure number="3"><attributes/><note><pitch><step>A</step><octave>4</octave></pitch><duration>3</duration><voice>1</voice><type>eighth</type><dot/><staff>1</staff><beam number="1">begin</beam><lyric number="1"><syllabic>single</syllabic><text>Christ-</text></lyric></note><note><pitch><step>A</step><octave>4</octave></pitch><duration>1</duration><voice>1</voice><type>16th</type><staff>1</staff><beam number="1">end</beam><beam number="2">backward hook</beam><lyric number="1"><syllabic>single</syllabic><text>mas</text></lyric></note><note><pitch><step>A</step><octave>4</octave></pitch><duration>4</duration><voice>1</voice><type>quarter</type><staff>1</staff><lyric number="1"><syllabic>single</syllabic><text>Tree,</text></lyric></note><note><pitch><step>A</step><octave>4</octave></pitch><duration>4</duration><voice>1</voice><type>quarter</type><staff>1</staff><lyric number="1"><syllabic>single</syllabic><text>Thy</text></lyric><lyric number="2"><syllabic>single</syllabic><text>Such</text></lyric><lyric number="3"><syllabic>single</syllabic><text>You'll</text></lyric></note><backup><duration>12</duration></backup><note><pitch><step>F</step><octave>3</octave></pitch><duration>4</duration><voice>2</voice><type>quarter</type><staff>2</staff></note><note><pitch><step>A</step><octave>3</octave></pitch><duration>4</duration><voice>2</voice><type>quarter</type><staff>2</staff></note><note><pitch><step>C</step><octave>4</octave></pitch><duration>4</duration><voice>2</voice><type>quarter</type><staff>2</staff></note></measure><measure number="4"><attributes/><note><pitch><step>G</step><octave>4</octave></pitch><duration>2</duration><voice>1</voice><type>eighth</type><staff>1</staff><beam number="1">begin</beam><lyric number="1"><syllabic>single</syllabic><text>leaves</text></lyric><lyric number="2"><syllabic>begin</syllabic><text>plea</text></lyric><lyric number="3"><syllabic>begin</syllabic><text>ev</text></lyric></note><note><pitch><step>A</step><octave>4</octave></pitch><duration>2</duration><voice>1</voice><type>eighth</type><staff>1</staff><beam number="1">end</beam><lyric number="1"><syllabic>single</syllabic><text>are</text></lyric><lyric number="2"><syllabic>end</syllabic><text>sure</text></lyric><lyric number="3"><syllabic>end</syllabic><text>er</text></lyric></note><note><pitch><step>B</step><alter>-1</alter><octave>4</octave></pitch><duration>4</duration><voice>1</voice><type>quarter</type><staff>1</staff><lyric number="1"><syllabic>single</syllabic><text>so</text></lyric><lyric number="2"><syllabic>single</syllabic><text>do</text></lyric><lyric number="3"><syllabic>single</syllabic><text>be</text></lyric></note><note><pitch><step>E</step><octave>4</octave></pitch><duration>4</duration><voice>1</voice><type>quarter</type><staff>1</staff><lyric number="1"><syllabic>begin</syllabic><text>un</text></lyric><lyric number="2"><syllabic>single</syllabic><text>you</text></lyric><lyric number="3"><syllabic>begin</syllabic><text>un</text></lyric></note><backup><duration>12</duration></backup><note><pitch><step>C</step><octave>3</octave></pitch><duration>4</duration><voice>2</voice><type>quarter</type><staff>2</staff></note><note><pitch><step>E</step><octave>3</octave></pitch><duration>4</duration><voice>2</voice><type>quarter</type><staff>2</staff></note><note><pitch><step>G</step><octave>3</octave></pitch><duration>4</duration><voice>2</voice><type>quarter</type><staff>2</staff></note></measure><measure number="5"><attributes/><note><pitch><step>G</step><octave>4</octave></pitch><duration>4</duration><voice>1</voice><type>quarter</type><staff>1</staff><lyric number="1"><syllabic>end</syllabic><text>chang</text></lyric><lyric number="2"><syllabic>single</syllabic><text>bring</text></lyric><lyric number="3"><syllabic>middle</syllabic><text>chang</text></lyric></note><note><pitch><step>F</step><octave>4</octave></pitch><duration>4</duration><voice>1</voice><type>quarter</type><staff>1</staff><lyric number="1"><syllabic>single</syllabic><text>ing,</text></lyric><lyric number="2"><syllabic>single</syllabic><text>me,</text></lyric><lyric number="3"><syllabic>end</syllabic><text>ing,</text></lyric></note><note><pitch><step>C</step><octave>4</octave></pitch><duration>4</duration><voice>1</voice><type>quarter</type><staff>1</staff><lyric number="1"><syllabic>single</syllabic><text>O</text></lyric><lyric number="2"><syllabic>single</syllabic><text>O</text></lyric><lyric number="3"><syllabic>single</syllabic><text>A</text></lyric></note><backup><duration>12</duration></backup><note><pitch><step>C</step><octave>3</octave></pitch><duration>4</duration><voice>2</voice><type>quarter</type><staff>2</staff></note><note><pitch><step>F</step><octave>3</octave></pitch><duration>8</duration><voice>2</voice><type>half</type><staff>2</staff></note><note><chord/><pitch><step>A</step><octave>3</octave></pitch><duration>8</duration><voice>2</voice><type>half</type><staff>2</staff></note></measure><measure number="6"><attributes/><note><pitch><step>F</step><octave>4</octave></pitch><duration>3</duration><voice>1</voice><type>eighth</type><dot/><staff>1</staff><beam number="1">begin</beam><lyric number="1"><syllabic>single</syllabic><text>Christ-</text></lyric><lyric number="2"><syllabic>begin</syllabic><text>Christ</text></lyric><lyric number="3"><syllabic>begin</syllabic><text>sym</text></lyric></note><note><pitch><step>F</step><octave>4</octave></pitch><duration>1</duration><voice>1</voice><type>16th</type><staff>1</staff><beam number="1">end</beam><beam number="2">backward hook</beam><lyric number="1"><syllabic>single</syllabic><text>mas</text></lyric><lyric number="2"><syllabic>end</syllabic><text>mas</text></lyric><lyric number="3"><syllabic>end</syllabic><text>bol</text></lyric></note><note><pitch><step>F</step><octave>4</octave></pitch><duration>4</duration><voice>1</voice><type>quarter</type><staff>1</staff><lyric number="1"><syllabic>single</syllabic><text>Tree,</text></lyric><lyric number="2"><syllabic>single</syllabic><text>Tree,</text></lyric><lyric number="3"><syllabic>single</syllabic><text>of</text></lyric></note><note><pitch><step>G</step><octave>4</octave></pitch><duration>4</duration><voice>1</voice><type>quarter</type><staff>1</staff><lyric number="1"><syllabic>single</syllabic><text>O</text></lyric><lyric number="2"><syllabic>single</syllabic><text>O</text></lyric><lyric number="3"><syllabic>single</syllabic><text>good</text></lyric></note><backup><duration>12</duration></backup><note><pitch><step>F</step><octave>3</octave></pitch><duration>4</duration><voice>2</voice><type>quarter</type><staff>2</staff></note><note><pitch><step>A</step><octave>3</octave></pitch><duration>4</duration><voice>2</voice><type>quarter</type><staff>2</staff></note><note><pitch><step>C</step><octave>4</octave></pitch><duration>4</duration><voice>2</voice><type>quarter</type><staff>2</staff></note></measure><measure number="7"><attributes/><note><pitch><step>A</step><octave>4</octave></pitch><duration>3</duration><voice>1</voice><type>eighth</type><dot/><staff>1</staff><beam number="1">begin</beam><lyric number="1"><syllabic>single</syllabic><text>Christ-</text></lyric><lyric number="2"><syllabic>begin</syllabic><text>Christ</text></lyric><lyric number="3"><syllabic>single</syllabic><text>will</text></lyric></note><note><pitch><step>A</step><octave>4</octave></pitch><duration>1</duration><voice>1</voice><type>16th</type><staff>1</staff><beam number="1">end</beam><beam number="2">backward hook</beam><lyric number="1"><syllabic>single</syllabic><text>mas</text></lyric><lyric number="2"><syllabic>end</syllabic><text>mas</text></lyric><lyric number="3"><syllabic>single</syllabic><text>and</text></lyric></note><note><pitch><step>A</step><octave>4</octave></pitch><duration>4</duration><voice>1</voice><type>quarter</type><staff>1</staff><lyric number="1"><syllabic>single</syllabic><text>Tree,</text></lyric><lyric number="2"><syllabic>single</syllabic><text>Tree,</text></lyric><lyric number="3"><syllabic>single</syllabic><text>love,</text></lyric></note><note><pitch><step>A</step><octave>4</octave></pitch><duration>4</duration><voice>1</voice><type>quarter</type><staff>1</staff><lyric number="1"><syllabic>single</syllabic><text>Thy</text></lyric><lyric number="2"><syllabic>single</syllabic><text>Such</text></lyric><lyric number="3"><syllabic>single</syllabic><text>You'll</text></lyric></note><backup><duration>12</duration></backup><note><pitch><step>F</step><octave>3</octave></pitch><duration>4</duration><voice>2</voice><type>quarter</type><staff>2</staff></note><note><pitch><step>A</step><octave>3</octave></pitch><duration>4</duration><voice>2</voice><type>quarter</type><staff>2</staff></note><note><pitch><step>C</step><octave>4</octave></pitch><duration>4</duration><voice>2</voice><type>quarter</type><staff>2</staff></note></measure><measure number="8"><attributes/><note><pitch><step>G</step><octave>4</octave></pitch><duration>2</duration><voice>1</voice><type>eighth</type><staff>1</staff><beam number="1">begin</beam><lyric number="1"><syllabic>single</syllabic><text>leaves</text></lyric><lyric number="2"><syllabic>begin</syllabic><text>plea</text></lyric><lyric number="3"><syllabic>begin</syllabic><text>ev</text></lyric></note><note><pitch><step>A</step><octave>4</octave></pitch><duration>2</duration><voice>1</voice><type>eighth</type><staff>1</staff><beam number="1">end</beam><lyric number="1"><syllabic>single</syllabic><text>are</text></lyric><lyric number="2"><syllabic>end</syllabic><text>sure</text></lyric><lyric number="3"><syllabic>end</syllabic><text>er</text></lyric></note><note><pitch><step>B</step><alter>-1</alter><octave>4</octave></pitch><duration>4</duration><voice>1</voice><type>quarter</type><staff>1</staff><lyric number="1"><syllabic>single</syllabic><text>so</text></lyric><lyric number="2"><syllabic>single</syllabic><text>do</text></lyric><lyric number="3"><syllabic>single</syllabic><text>be</text></lyric></note><note><pitch><step>E</step><octave>4</octave></pitch><duration>4</duration><voice>1</voice><type>quarter</type><staff>1</staff><lyric number="1"><syllabic>begin</syllabic><text>un</text></lyric><lyric number="2"><syllabic>single</syllabic><text>you</text></lyric><lyric number="3"><syllabic>begin</syllabic><text>un</text></lyric></note><backup><duration>12</duration></backup><note><pitch><step>C</step><octave>3</octave></pitch><duration>4</duration><voice>2</voice><type>quarter</type><staff>2</staff></note><note><pitch><step>E</step><octave>3</octave></pitch><duration>4</duration><voice>2</voice><type>quarter</type><staff>2</staff></note><note><pitch><step>G</step><octave>3</octave></pitch><duration>4</duration><voice>2</voice><type>quarter</type><staff>2</staff></note></measure><measure number="9"><attributes/><note><pitch><step>G</step><octave>4</octave></pitch><duration>4</duration><voice>1</voice><type>quarter</type><staff>1</staff><lyric number="1"><syllabic>end</syllabic><text>chang</text></lyric><lyric number="2"><syllabic>single</syllabic><text>bring</text></lyric><lyric number="3"><syllabic>middle</syllabic><text>chang</text></lyric></note><note><pitch><step>F</step><octave>4</octave></pitch><duration>4</duration><voice>1</voice><type>quarter</type><staff>1</staff><lyric number="1"><syllabic>single</syllabic><text>ing,</text></lyric><lyric number="2"><syllabic>single</syllabic><text>me,</text></lyric><lyric number="3"><syllabic>end</syllabic><text>ing,</text></lyric></note><note><rest/><duration>2</duration><voice>1</voice><type>eighth</type><staff>1</staff></note><note><pitch><step>C</step><octave>5</octave></pitch><duration>2</duration><voice>1</voice><type>eighth</type><staff>1</staff><lyric number="1"><syllabic>single</syllabic><text>Not</text></lyric><lyric number="2"><syllabic>single</syllabic><text>For</text></lyric><lyric number="3"><syllabic>single</syllabic><text>Each</text></lyric></note><backup><duration>12</duration></backup><note><pitch><step>C</step><octave>3</octave></pitch><duration>4</duration><voice>2</voice><type>quarter</type><staff>2</staff></note><note><pitch><step>F</step><octave>3</octave></pitch><duration>6</duration><voice>2</voice><type>quarter</type><dot/><staff>2</staff></note><note><chord/><pitch><step>A</step><octave>3</octave></pitch><duration>6</duration><voice>2</voice><type>quarter</type><dot/><staff>2</staff></note><note><rest/><duration>2</duration><voice>2</voice><type>eighth</type><staff>2</staff></note></measure><measure number="10"><attributes/><note><pitch><step>C</step><octave>5</octave></pitch><duration>2</duration><voice>1</voice><type>eighth</type><staff>1</staff><beam number="1">begin</beam><lyric number="1"><syllabic>begin</syllabic><text>on</text></lyric><lyric number="2"><syllabic>begin</syllabic><text>ev</text></lyric><lyric number="3"><syllabic>begin</syllabic><text>shi</text></lyric></note><note><pitch><step>A</step><octave>4</octave></pitch><duration>2</duration><voice>1</voice><type>eighth</type><staff>1</staff><beam number="1">end</beam><lyric number="1"><syllabic>end</syllabic><text>ly</text></lyric><lyric number="2"><syllabic>end</syllabic><text>ery</text></lyric><lyric number="3"><syllabic>end</syllabic><text>ning</text></lyric></note><note><pitch><step>D</step><octave>5</octave></pitch><duration>6</duration><voice>1</voice><type>quarter</type><dot/><staff>1</staff><lyric number="1"><syllabic>single</syllabic><text>green</text></lyric><lyric number="2"><syllabic>single</syllabic><text>year</text></lyric><lyric number="3"><syllabic>single</syllabic><text>light,</text></lyric></note><note><pitch><step>C</step><octave>5</octave></pitch><duration>2</duration><voice>1</voice><type>eighth</type><staff>1</staff><lyric number="1"><syllabic>single</syllabic><text>when</text></lyric><lyric number="2"><syllabic>single</syllabic><text>this</text></lyric><lyric number="3"><syllabic>single</syllabic><text>Each</text></lyric></note><backup><duration>12</duration></backup><note><pitch><step>F</step><octave>3</octave></pitch><duration>4</duration><voice>2</voice><type>quarter</type><staff>2</staff></note><note><pitch><step>A</step><octave>3</octave></pitch><duration>4</duration><voice>2</voice><type>quarter</type><staff>2</staff></note><note><pitch><step>C</step><octave>4</octave></pitch><duration>4</duration><voice>2</voice><type>quarter</type><staff>2</staff></note></measure><measure number="11"><attributes/><note><pitch><step>C</step><octave>5</octave></pitch><duration>2</duration><voice>1</voice><type>eighth</type><staff>1</staff><beam number="1">begin</beam><lyric number="1"><syllabic>begin</syllabic><text>sum</text></lyric><lyric number="2"><syllabic>begin</syllabic><text>Christ</text></lyric><lyric number="3"><syllabic>begin</syllabic><text>sil</text></lyric></note><note><pitch><step>B</step><alter>-1</alter><octave>4</octave></pitch><duration>2</duration><voice>1</voice><type>eighth</type><staff>1</staff><beam number="1">end</beam><lyric number="1"><syllabic>end</syllabic><text>mers</text></lyric><lyric number="2"><syllabic>end</syllabic><text>mas</text></lyric><lyric number="3"><syllabic>end</syllabic><text>ver</text></lyric></note><note><pitch><step>B</step><alter>-1</alter><octave>4</octave></pitch><duration>6</duration><voice>1</voice><type>quarter</type><dot/><staff>1</staff><lyric number="1"><syllabic>single</syllabic><text>here,</text></lyric><lyric number="2"><syllabic>single</syllabic><text>Tree,</text></lyric><lyric number="3"><syllabic>single</syllabic><text>bell,</text></lyric></note><note><pitch><step>B</step><alter>-1</alter><octave>4</octave></pitch><duration>2</duration><voice>1</voice><type>eighth</type><staff>1</staff><lyric number="1"><syllabic>single</syllabic><text>But</text></lyric><lyric number="2"><syllabic>single</syllabic><text>Bring</text></lyric><lyric number="3"><syllabic>single</syllabic><text>No</text></lyric></note><backup><duration>12</duration></backup><note><pitch><step>C</step><octave>3</octave></pitch><duration>4</duration><voice>2</voice><type>quarter</type><staff>2</staff></note><note><pitch><step>E</step><octave>3</octave></pitch><duration>4</duration><voice>2</voice><type>quarter</type><staff>2</staff></note><note><pitch><step>G</step><octave>3</octave></pitch><duration>4</duration><voice>2</voice><type>quarter</type><staff>2</staff></note></measure><measure number="12"><attributes/><note><pitch><step>B</step><alter>-1</alter><octave>4</octave></pitch><duration>2</duration><voice>1</voice><type>eighth</type><staff>1</staff><beam number="1">begin</beam><lyric number="1"><syllabic>begin</syllabic><text>al</text></lyric><lyric number="2"><syllabic>single</syllabic><text>to</text></lyric><lyric number="3"><syllabic>single</syllabic><text>one</text></lyric></note><note><pitch><step>G</step><octave>4</octave></pitch><duration>2</duration><voice>1</voice><type>eighth</type><staff>1</staff><beam number="1">end</beam><lyric number="1"><syllabic>end</syllabic><text>so</text></lyric><lyric number="2"><syllabic>single</syllabic><text>us</text></lyric><lyric number="3"><syllabic>begin</syllabic><text>a</text></lyric></note><note><pitch><step>C</step><octave>5</octave></pitch><duration>6</duration><voice>1</voice><type>quarter</type><dot/><staff>1</staff><lyric number="1"><syllabic>begin</syllabic><text>when</text></lyric><lyric number="2"><syllabic>single</syllabic><text>such</text></lyric><lyric number="3"><syllabic>end</syllabic><text>live</text></lyric></note><note><pitch><step>B</step><alter>-1</alter><octave>4</octave></pitch><duration>2</duration><voice>1</voice><type>eighth</type><staff>1</staff><lyric number="1"><syllabic>end</syllabic><text>it's</text></lyric><lyric number="2"><syllabic>single</syllabic><text>joy</text></lyric><lyric number="3"><syllabic>single</syllabic><text>spreads</text></lyric></note><backup><duration>12</duration></backup><note><pitch><step>C</step><octave>3</octave></pitch><duration>4</duration><voice>2</voice><type>quarter</type><staff>2</staff></note><note><pitch><step>E</step><octave>3</octave></pitch><duration>4</duration><voice>2</voice><type>quarter</type><staff>2</staff></note><note><pitch><step>G</step><octave>3</octave></pitch><duration>4</duration><voice>2</voice><type>quarter</type><staff>2</staff></note></measure><measure number="13"><attributes/><note><pitch><step>B</step><alter>-1</alter><octave>4</octave></pitch><duration>2</duration><voice>1</voice><type>eighth</type><staff>1</staff><beam number="1">begin</beam><lyric number="1"><syllabic>single</syllabic><text>cold</text></lyric><lyric number="2"><syllabic>begin</syllabic><text>and</text></lyric><lyric number="3"><syllabic>single</syllabic><text>cheer</text></lyric></note><note><pitch><step>A</step><octave>4</octave></pitch><duration>2</duration><voice>1</voice><type>eighth</type><staff>1</staff><beam number="1">end</beam><lyric number="1"><syllabic>single</syllabic><text>and</text></lyric><lyric number="3"><syllabic>single</syllabic><text>so</text></lyric></note><note><pitch><step>A</step><octave>4</octave></pitch><duration>4</duration><voice>1</voice><type>quarter</type><staff>1</staff><lyric number="1"><syllabic>single</syllabic><text>drear,</text></lyric><lyric number="2"><syllabic>single</syllabic><text>glee,</text></lyric><lyric number="3"><syllabic>single</syllabic><text>well,</text></lyric></note><note><pitch><step>C</step><octave>4</octave></pitch><duration>4</duration><voice>1</voice><type>quarter</type><staff>1</staff><lyric number="1"><syllabic>single</syllabic><text>Oh</text></lyric></note><backup><duration>12</duration></backup><note><pitch><step>F</step><octave>3</octave></pitch><duration>4</duration><voice>2</voice><type>quarter</type><staff>2</staff></note><note><pitch><step>A</step><octave>3</octave></pitch><duration>4</duration><voice>2</voice><type>quarter</type><staff>2</staff></note><note><pitch><step>C</step><octave>3</octave></pitch><duration>4</duration><voice>2</voice><type>quarter</type><staff>2</staff></note></measure><measure number="14"><attributes/><note><pitch><step>F</step><octave>4</octave></pitch><duration>3</duration><voice>1</voice><type>eighth</type><dot/><staff>1</staff><beam number="1">begin</beam><lyric number="1"><syllabic>begin</syllabic><text>Christ</text></lyric></note><note><pitch><step>F</step><octave>4</octave></pitch><duration>1</duration><voice>1</voice><type>16th</type><staff>1</staff><beam number="1">end</beam><beam number="2">backward hook</beam><lyric number="1"><syllabic>end</syllabic><text>mas</text></lyric></note><note><pitch><step>F</step><octave>4</octave></pitch><duration>4</duration><voice>1</voice><type>quarter</type><staff>1</staff><lyric number="1"><syllabic>single</syllabic><text>Tree,</text></lyric></note><note><pitch><step>G</step><octave>4</octave></pitch><duration>4</duration><voice>1</voice><type>quarter</type><staff>1</staff><lyric number="1"><syllabic>single</syllabic><text>Oh</text></lyric></note><backup><duration>12</duration></backup><note><pitch><step>F</step><octave>3</octave></pitch><duration>4</duration><voice>2</voice><type>quarter</type><staff>2</staff></note><note><pitch><step>A</step><octave>3</octave></pitch><duration>4</duration><voice>2</voice><type>quarter</type><staff>2</staff></note><note><pitch><step>C</step><octave>4</octave></pitch><duration>4</duration><voice>2</voice><type>quarter</type><staff>2</staff></note></measure><measure number="15"><attributes/><note><pitch><step>A</step><octave>4</octave></pitch><duration>3</duration><voice>1</voice><type>eighth</type><dot/><staff>1</staff><beam number="1">begin</beam><lyric number="1"><syllabic>begin</syllabic><text>Christ</text></lyric></note><note><pitch><step>A</step><octave>4</octave></pitch><duration>1</duration><voice>1</voice><type>16th</type><staff>1</staff><beam number="1">end</beam><beam number="2">backward hook</beam><lyric number="1"><syllabic>end</syllabic><text>mas</text></lyric></note><note><pitch><step>A</step><octave>4</octave></pitch><duration>4</duration><voice>1</voice><type>quarter</type><staff>1</staff><lyric number="1"><syllabic>single</syllabic><text>Tree,</text></lyric></note><note><pitch><step>A</step><octave>4</octave></pitch><duration>4</duration><voice>1</voice><type>quarter</type><staff>1</staff><lyric number="1"><syllabic>single</syllabic><text>Thy</text></lyric><lyric number="2"><syllabic>single</syllabic><text>Such</text></lyric><lyric number="3"><syllabic>single</syllabic><text>you'll</text></lyric></note><backup><duration>12</duration></backup><note><pitch><step>F</step><octave>3</octave></pitch><duration>4</duration><voice>2</voice><type>quarter</type><staff>2</staff></note><note><pitch><step>A</step><octave>3</octave></pitch><duration>4</duration><voice>2</voice><type>quarter</type><staff>2</staff></note><note><pitch><step>C</step><octave>4</octave></pitch><duration>4</duration><voice>2</voice><type>quarter</type><staff>2</staff></note></measure><measure number="16"><attributes/><note><pitch><step>G</step><octave>4</octave></pitch><duration>2</duration><voice>1</voice><type>eighth</type><staff>1</staff><beam number="1">begin</beam><lyric number="1"><syllabic>single</syllabic><text>leaves</text></lyric><lyric number="2"><syllabic>begin</syllabic><text>plea</text></lyric><lyric number="3"><syllabic>begin</syllabic><text>ev</text></lyric></note><note><pitch><step>A</step><octave>4</octave></pitch><duration>2</duration><voice>1</voice><type>eighth</type><staff>1</staff><beam number="1">end</beam><lyric number="1"><syllabic>single</syllabic><text>are</text></lyric><lyric number="2"><syllabic>end</syllabic><text>sure</text></lyric><lyric number="3"><syllabic>end</syllabic><text>er</text></lyric></note><note><pitch><step>B</step><alter>-1</alter><octave>4</octave></pitch><duration>4</duration><voice>1</voice><type>quarter</type><staff>1</staff><lyric number="1"><syllabic>single</syllabic><text>so</text></lyric><lyric number="2"><syllabic>single</syllabic><text>do</text></lyric><lyric number="3"><syllabic>single</syllabic><text>be</text></lyric></note><note><pitch><step>E</step><octave>4</octave></pitch><duration>4</duration><voice>1</voice><type>quarter</type><staff>1</staff><lyric number="1"><syllabic>begin</syllabic><text>un</text></lyric><lyric number="2"><syllabic>single</syllabic><text>you</text></lyric><lyric number="3"><syllabic>begin</syllabic><text>un</text></lyric></note><backup><duration>12</duration></backup><note><pitch><step>C</step><octave>3</octave></pitch><duration>4</duration><voice>2</voice><type>quarter</type><staff>2</staff></note><note><pitch><step>E</step><octave>3</octave></pitch><duration>4</duration><voice>2</voice><type>quarter</type><staff>2</staff></note><note><pitch><step>G</step><octave>3</octave></pitch><duration>4</duration><voice>2</voice><type>quarter</type><staff>2</staff></note></measure><measure number="17"><barline location="left"><bar-style>regular</bar-style><ending number="1" type="start"/></barline><attributes/><note><pitch><step>G</step><octave>4</octave></pitch><duration>4</duration><voice>1</voice><type>quarter</type><staff>1</staff><lyric number="1"><syllabic>middle</syllabic><text>chang</text></lyric><lyric number="2"><syllabic>single</syllabic><text>bring</text></lyric></note><note><pitch><step>F</step><octave>4</octave></pitch><duration>4</duration><voice>1</voice><type>quarter</type><staff>1</staff><lyric number="1"><syllabic>end</syllabic><text>ing,</text></lyric><lyric number="2"><syllabic>single</syllabic><text>me,</text></lyric></note><note><pitch><step>C</step><octave>4</octave></pitch><duration>4</duration><voice>1</voice><type>quarter</type><staff>1</staff><lyric number="1"><syllabic>single</syllabic><text>O</text></lyric></note><backup><duration>12</duration></backup><note><pitch><step>C</step><octave>3</octave></pitch><duration>4</duration><voice>2</voice><type>quarter</type><staff>2</staff></note><note><pitch><step>F</step><octave>3</octave></pitch><duration>4</duration><voice>2</voice><type>quarter</type><staff>2</staff></note><note><chord/><pitch><step>A</step><octave>3</octave></pitch><duration>4</duration><voice>2</voice><type>quarter</type><staff>2</staff></note><note><rest/><duration>4</duration><voice>2</voice><type>quarter</type><staff>2</staff></note><barline location="right"><bar-style>light-heavy</bar-style><ending number="1" type="stop"/><repeat direction="backward" times="1" winged="none"/></barline></measure><measure number="18"><barline location="left"><bar-style>regular</bar-style><ending number="2" type="start"/></barline><attributes/><note><pitch><step>G</step><octave>4</octave></pitch><duration>4</duration><voice>1</voice><type>quarter</type><staff>1</staff><lyric number="3"><syllabic>begin</syllabic><text>chang</text></lyric></note><note><pitch><step>F</step><octave>4</octave></pitch><duration>8</duration><voice>1</voice><type>half</type><staff>1</staff><lyric number="3"><syllabic>end</syllabic><text>ing.</text></lyric></note><backup><duration>12</duration></backup><note><pitch><step>C</step><octave>3</octave></pitch><duration>4</duration><voice>2</voice><type>quarter</type><staff>2</staff></note><note><pitch><step>A</step><octave>3</octave></pitch><duration>8</duration><voice>2</voice><type>half</type><staff>2</staff></note><note><chord/><pitch><step>F</step><octave>3</octave></pitch><duration>8</duration><voice>2</voice><type>half</type><staff>2</staff></note><note><chord/><pitch><step>C</step><octave>3</octave></pitch><duration>8</duration><voice>2</voice><type>half</type><staff>2</staff></note><barline location="right"><bar-style>regular</bar-style><ending number="2" type="discontinue"/></barline></measure></part></score-partwise>