<?xml version="1.0" encoding="UTF-8" standalone="no"?><!DOCTYPE score-partwise PUBLIC "-//Recordare//DTD MusicXML 3.1 Partwise//EN" "http://www.musicxml.org/dtds/partwise.dtd"><score-partwise version="3.1"><identification><rights>Transcrito por Juan Montero</rights><encoding><software>Flat</software><encoding-date>2020-05-21</encoding-date></encoding><source>https://flat.io/score/5bc94a1ef76f9d672832b5d9-oh-what-a-beautiful-morning</source></identification><defaults><scaling><millimeters>7</millimeters><tenths>40</tenths></scaling><page-layout><page-height>1596.5714285714287</page-height><page-width>1233.7142857142858</page-width><page-margins type="both"><left-margin>72.57142857142857</left-margin><right-margin>72.57142857142857</right-margin><top-margin>72.57142857142857</top-margin><bottom-margin>72.57142857142857</bottom-margin></page-margins></page-layout><system-layout><system-distance>115.2</system-distance></system-layout><staff-layout><staff-distance>72.57142857142857</staff-distance></staff-layout></defaults><credit><credit-type>title</credit-type><credit-words>Oh what a beautiful morning</credit-words></credit><credit><credit-type>subtitle</credit-type><credit-words>Oklahoma</credit-words></credit><part-list><score-part id="P1"><part-name/><part-abbreviation>Ten.</part-abbreviation><score-instrument id="P1-I1"><instrument-name>Choir Tenor</instrument-name></score-instrument><midi-instrument id="P1-I1"><midi-channel>2</midi-channel><midi-program>53</midi-program><volume>100</volume></midi-instrument></score-part><score-part id="P2"><part-name/><part-abbreviation>Pno.</part-abbreviation><score-instrument id="P2-I1"><instrument-name>Grand Piano</instrument-name></score-instrument><midi-instrument id="P2-I1"><midi-channel>1</midi-channel><midi-program>1</midi-program><volume>100</volume></midi-instrument></score-part></part-list><part id="P1"><measure number="1"><attributes><divisions>1</divisions><key><fifths>-3</fifths></key><time><beats>3</beats><beat-type>4</beat-type></time><clef><sign>G</sign><line>2</line><clef-octave-change>-1</clef-octave-change></clef><staff-details><staff-lines>5</staff-lines></staff-details></attributes><sound tempo="123"/><sound/><direction placement="above"><direction-type><metronome><beat-unit>quarter</beat-unit><per-minute>123</per-minute></metronome></direction-type><staff>1</staff></direction><note><rest/><duration>3</duration><voice>1</voice><type>half</type><dot/><staff>1</staff></note></measure><measure number="2"><attributes/><note><rest/><duration>3</duration><voice>1</voice><type>half</type><dot/><staff>1</staff></note></measure><measure number="3"><attributes/><note><rest/><duration>3</duration><voice>1</voice><type>half</type><dot/><staff>1</staff></note></measure><measure number="4"><attributes/><note><rest/><duration>1</duration><voice>1</voice><type>quarter</type><staff>1</staff></note><note><pitch><step>B</step><alter>-1</alter><octave>3</octave></pitch><duration>1</duration><voice>1</voice><type>quarter</type><staff>1</staff></note><note><pitch><step>A</step><alter>-1</alter><octave>3</octave></pitch><duration>1</duration><voice>1</voice><type>quarter</type><staff>1</staff></note><barline location="right"><bar-style>light-light</bar-style></barline></measure><measure number="5"><barline location="left"><bar-style>heavy-light</bar-style><repeat direction="forward" times="1" winged="none"/></barline><attributes/><note><pitch><step>G</step><octave>3</octave></pitch><duration>1</duration><voice>1</voice><type>quarter</type><staff>1</staff></note><note><pitch><step>F</step><octave>3</octave></pitch><duration>1</duration><voice>1</voice><type>quarter</type><staff>1</staff></note><note><pitch><step>E</step><alter>-1</alter><octave>3</octave></pitch><duration>1</duration><voice>1</voice><type>quarter</type><staff>1</staff></note></measure><measure number="6"><attributes/><note><pitch><step>F</step><octave>3</octave></pitch><duration>1</duration><voice>1</voice><type>quarter</type><staff>1</staff></note><note><pitch><step>G</step><octave>3</octave></pitch><duration>1</duration><voice>1</voice><type>quarter</type><staff>1</staff></note><note><pitch><step>A</step><alter>-1</alter><octave>3</octave></pitch><duration>1</duration><voice>1</voice><type>quarter</type><staff>1</staff></note></measure><measure number="7"><attributes/><note><pitch><step>G</step><octave>3</octave></pitch><duration>1</duration><voice>1</voice><type>quarter</type><staff>1</staff></note><note><pitch><step>B</step><alter>-1</alter><octave>3</octave></pitch><duration>2</duration><tie type="start"/><voice>1</voice><type>half</type><staff>1</staff><notations><tied type="start"/></notations></note></measure><measure number="8"><attributes/><note><pitch><step>B</step><alter>-1</alter><octave>3</octave></pitch><duration>1</duration><tie type="stop"/><voice>1</voice><type>quarter</type><staff>1</staff><notations><tied type="stop"/></notations></note><note><pitch><step>B</step><alter>-1</alter><octave>3</octave></pitch><duration>1</duration><voice>1</voice><type>quarter</type><staff>1</staff></note><note><pitch><step>A</step><alter>-1</alter><octave>3</octave></pitch><duration>1</duration><voice>1</voice><type>quarter</type><staff>1</staff></note></measure><measure number="9"><attributes/><note><pitch><step>G</step><octave>3</octave></pitch><duration>1</duration><voice>1</voice><type>quarter</type><staff>1</staff></note><note><pitch><step>F</step><octave>3</octave></pitch><duration>1</duration><voice>1</voice><type>quarter</type><staff>1</staff></note><note><pitch><step>E</step><alter>-1</alter><octave>3</octave></pitch><duration>1</duration><voice>1</voice><type>quarter</type><staff>1</staff></note></measure><measure number="10"><attributes/><note><pitch><step>F</step><octave>3</octave></pitch><duration>1</duration><voice>1</voice><type>quarter</type><staff>1</staff></note><note><pitch><step>G</step><octave>3</octave></pitch><duration>1</duration><voice>1</voice><type>quarter</type><staff>1</staff></note><note><pitch><step>A</step><alter>-1</alter><octave>3</octave></pitch><duration>1</duration><voice>1</voice><type>quarter</type><staff>1</staff></note></measure><measure number="11"><attributes/><note><pitch><step>G</step><octave>3</octave></pitch><duration>1</duration><voice>1</voice><type>quarter</type><staff>1</staff></note><note><pitch><step>E</step><alter>-1</alter><octave>3</octave></pitch><duration>2</duration><tie type="start"/><voice>1</voice><type>half</type><staff>1</staff><notations><tied type="start"/></notations></note></measure><measure number="12"><attributes/><note><pitch><step>E</step><alter>-1</alter><octave>3</octave></pitch><duration>2</duration><tie type="stop"/><voice>1</voice><type>half</type><staff>1</staff><notations><tied type="stop"/></notations></note><note><pitch><step>F</step><octave>3</octave></pitch><duration>1</duration><voice>1</voice><type>quarter</type><staff>1</staff></note></measure><measure number="13"><attributes/><note><pitch><step>G</step><octave>3</octave></pitch><duration>1</duration><voice>1</voice><type>quarter</type><staff>1</staff></note><note><pitch><step>F</step><octave>3</octave></pitch><duration>1</duration><voice>1</voice><type>quarter</type><staff>1</staff></note><note><pitch><step>E</step><alter>-1</alter><octave>3</octave></pitch><duration>1</duration><voice>1</voice><type>quarter</type><staff>1</staff></note></measure><measure number="14"><attributes/><note><pitch><step>F</step><octave>3</octave></pitch><duration>1</duration><voice>1</voice><type>quarter</type><staff>1</staff></note><note><pitch><step>G</step><octave>3</octave></pitch><duration>1</duration><voice>1</voice><type>quarter</type><staff>1</staff></note><note><pitch><step>A</step><alter>-1</alter><octave>3</octave></pitch><duration>1</duration><voice>1</voice><type>quarter</type><staff>1</staff></note></measure><measure number="15"><attributes/><note><pitch><step>B</step><alter>-1</alter><octave>3</octave></pitch><duration>1</duration><voice>1</voice><type>quarter</type><staff>1</staff></note><note><pitch><step>A</step><alter>-1</alter><octave>3</octave></pitch><duration>1</duration><voice>1</voice><type>quarter</type><staff>1</staff></note><note><pitch><step>G</step><octave>3</octave></pitch><duration>1</duration><voice>1</voice><type>quarter</type><staff>1</staff></note></measure><measure number="16"><attributes><divisions>2</divisions></attributes><note><pitch><step>C</step><octave>4</octave></pitch><duration>4</duration><voice>1</voice><type>half</type><staff>1</staff></note><note><pitch><step>C</step><octave>4</octave></pitch><duration>1</duration><voice>1</voice><type>eighth</type><staff>1</staff><beam number="1">begin</beam></note><note><pitch><step>C</step><octave>4</octave></pitch><duration>1</duration><voice>1</voice><type>eighth</type><staff>1</staff><beam number="1">end</beam></note></measure><measure number="17"><attributes/><note><pitch><step>B</step><alter>-1</alter><octave>3</octave></pitch><duration>2</duration><voice>1</voice><type>quarter</type><staff>1</staff></note><note><pitch><step>B</step><alter>-1</alter><octave>3</octave></pitch><duration>2</duration><voice>1</voice><type>quarter</type><staff>1</staff></note><note><pitch><step>B</step><alter>-1</alter><octave>3</octave></pitch><duration>2</duration><voice>1</voice><type>quarter</type><staff>1</staff></note></measure><measure number="18"><attributes/><note><pitch><step>B</step><alter>-1</alter><octave>3</octave></pitch><duration>2</duration><voice>1</voice><type>quarter</type><staff>1</staff></note><note><pitch><step>B</step><alter>-1</alter><octave>3</octave></pitch><duration>2</duration><voice>1</voice><type>quarter</type><staff>1</staff></note><note><pitch><step>B</step><alter>-1</alter><octave>3</octave></pitch><duration>2</duration><voice>1</voice><type>quarter</type><staff>1</staff></note></measure><measure number="19"><attributes/><note><pitch><step>B</step><alter>-1</alter><octave>3</octave></pitch><duration>2</duration><voice>1</voice><type>quarter</type><staff>1</staff></note><note><pitch><step>B</step><alter>-1</alter><octave>3</octave></pitch><duration>2</duration><voice>1</voice><type>quarter</type><staff>1</staff></note><note><pitch><step>B</step><alter>-1</alter><octave>3</octave></pitch><duration>2</duration><voice>1</voice><type>quarter</type><staff>1</staff></note></measure><measure number="20"><attributes/><note><pitch><step>B</step><alter>-1</alter><octave>3</octave></pitch><duration>6</duration><voice>1</voice><type>half</type><dot/><staff>1</staff></note><barline location="right"><bar-style>light-light</bar-style></barline></measure><measure number="21"><attributes/><note><pitch><step>B</step><alter>-1</alter><octave>3</octave></pitch><duration>2</duration><voice>1</voice><type>quarter</type><staff>1</staff></note><note><pitch><step>G</step><octave>3</octave></pitch><duration>2</duration><voice>1</voice><type>quarter</type><staff>1</staff></note><note><pitch><step>D</step><octave>3</octave></pitch><duration>2</duration><voice>1</voice><type>quarter</type><staff>1</staff></note></measure><measure number="22"><attributes/><note><pitch><step>E</step><alter>-1</alter><octave>3</octave></pitch><duration>2</duration><voice>1</voice><type>quarter</type><staff>1</staff></note><note><pitch><step>G</step><octave>3</octave></pitch><duration>2</duration><voice>1</voice><type>quarter</type><staff>1</staff></note><note><pitch><step>B</step><alter>-1</alter><octave>3</octave></pitch><duration>2</duration><voice>1</voice><type>quarter</type><staff>1</staff></note></measure><measure number="23"><attributes/><note><pitch><step>D</step><alter>-1</alter><octave>4</octave></pitch><duration>6</duration><voice>1</voice><type>half</type><dot/><accidental>flat</accidental><staff>1</staff></note></measure><measure number="24"><attributes/><note><pitch><step>C</step><octave>4</octave></pitch><duration>6</duration><voice>1</voice><type>half</type><dot/><staff>1</staff></note></measure><measure number="25"><attributes/><note><pitch><step>B</step><alter>-1</alter><octave>3</octave></pitch><duration>2</duration><voice>1</voice><type>quarter</type><staff>1</staff></note><note><pitch><step>G</step><octave>3</octave></pitch><duration>2</duration><voice>1</voice><type>quarter</type><staff>1</staff></note><note><pitch><step>D</step><octave>3</octave></pitch><duration>2</duration><voice>1</voice><type>quarter</type><staff>1</staff></note></measure><measure number="26"><attributes/><note><pitch><step>E</step><alter>-1</alter><octave>3</octave></pitch><duration>2</duration><voice>1</voice><type>quarter</type><staff>1</staff></note><note><pitch><step>G</step><octave>3</octave></pitch><duration>2</duration><voice>1</voice><type>quarter</type><staff>1</staff></note><note><pitch><step>B</step><alter>-1</alter><octave>3</octave></pitch><duration>2</duration><voice>1</voice><type>quarter</type><staff>1</staff></note></measure><measure number="27"><attributes/><note><pitch><step>F</step><octave>3</octave></pitch><duration>6</duration><tie type="start"/><voice>1</voice><type>half</type><dot/><staff>1</staff><notations><tied type="start"/></notations></note></measure><measure number="28"><attributes/><note><pitch><step>F</step><octave>3</octave></pitch><duration>6</duration><tie type="stop"/><voice>1</voice><type>half</type><dot/><staff>1</staff><notations><tied type="stop"/></notations></note></measure><measure number="29"><attributes/><note><pitch><step>B</step><alter>-1</alter><octave>3</octave></pitch><duration>2</duration><voice>1</voice><type>quarter</type><staff>1</staff></note><note><pitch><step>G</step><octave>3</octave></pitch><duration>2</duration><voice>1</voice><type>quarter</type><staff>1</staff></note><note><pitch><step>D</step><octave>3</octave></pitch><duration>2</duration><voice>1</voice><type>quarter</type><staff>1</staff></note></measure><measure number="30"><attributes/><note><pitch><step>E</step><alter>-1</alter><octave>3</octave></pitch><duration>2</duration><voice>1</voice><type>quarter</type><staff>1</staff></note><note><pitch><step>G</step><octave>3</octave></pitch><duration>2</duration><voice>1</voice><type>quarter</type><staff>1</staff></note><note><pitch><step>B</step><alter>-1</alter><octave>3</octave></pitch><duration>2</duration><voice>1</voice><type>quarter</type><staff>1</staff></note></measure><measure number="31"><attributes/><note><pitch><step>D</step><octave>4</octave></pitch><duration>6</duration><voice>1</voice><type>half</type><dot/><staff>1</staff></note></measure><measure number="32"><attributes/><note><pitch><step>E</step><alter>-1</alter><octave>4</octave></pitch><duration>6</duration><voice>1</voice><type>half</type><dot/><staff>1</staff></note></measure><measure number="33"><attributes/><note><pitch><step>E</step><alter>-1</alter><octave>4</octave></pitch><duration>2</duration><voice>1</voice><type>quarter</type><staff>1</staff></note><note><pitch><step>B</step><alter>-1</alter><octave>3</octave></pitch><duration>2</duration><voice>1</voice><type>quarter</type><staff>1</staff></note><note><pitch><step>G</step><octave>3</octave></pitch><duration>2</duration><voice>1</voice><type>quarter</type><staff>1</staff></note></measure><measure number="34"><attributes/><note><pitch><step>D</step><octave>4</octave></pitch><duration>2</duration><voice>1</voice><type>quarter</type><staff>1</staff></note><note><pitch><step>A</step><alter>-1</alter><octave>3</octave></pitch><duration>2</duration><voice>1</voice><type>quarter</type><staff>1</staff></note><note><pitch><step>F</step><octave>3</octave></pitch><duration>2</duration><voice>1</voice><type>quarter</type><staff>1</staff></note></measure><measure number="35"><attributes/><note><pitch><step>E</step><alter>-1</alter><octave>3</octave></pitch><duration>6</duration><tie type="start"/><voice>1</voice><type>half</type><dot/><staff>1</staff><notations><tied type="start"/></notations></note></measure><measure number="36"><barline location="left"><bar-style>regular</bar-style><ending number="1" type="start"/></barline><attributes/><note><pitch><step>E</step><alter>-1</alter><octave>3</octave></pitch><duration>2</duration><tie type="stop"/><voice>1</voice><type>quarter</type><staff>1</staff><notations><tied type="stop"/></notations></note><note><pitch><step>B</step><alter>-1</alter><octave>3</octave></pitch><duration>2</duration><voice>1</voice><type>quarter</type><staff>1</staff></note><note><pitch><step>A</step><alter>-1</alter><octave>3</octave></pitch><duration>2</duration><voice>1</voice><type>quarter</type><staff>1</staff></note><barline location="right"><bar-style>light-heavy</bar-style><ending number="1" type="stop"/><repeat direction="backward" times="1" winged="none"/></barline></measure><measure number="37"><barline location="left"><bar-style>regular</bar-style><ending number="2" type="start"/></barline><attributes/><note><pitch><step>E</step><alter>-1</alter><octave>3</octave></pitch><duration>6</duration><voice>1</voice><type>half</type><dot/><staff>1</staff><notations><slur type="start" number="1"/></notations></note><barline location="right"><bar-style>regular</bar-style><ending number="2" type="discontinue"/></barline></measure><measure number="38"><attributes/><note><pitch><step>F</step><octave>3</octave></pitch><duration>6</duration><voice>1</voice><type>half</type><dot/><staff>1</staff><notations><slur type="stop" number="1"/></notations></note></measure><measure number="39"><attributes/><note><pitch><step>E</step><alter>-1</alter><octave>4</octave></pitch><duration>2</duration><voice>1</voice><type>quarter</type><staff>1</staff></note><note><pitch><step>B</step><alter>-1</alter><octave>3</octave></pitch><duration>2</duration><voice>1</voice><type>quarter</type><staff>1</staff></note><note><pitch><step>G</step><octave>3</octave></pitch><duration>2</duration><voice>1</voice><type>quarter</type><staff>1</staff></note></measure><measure number="40"><attributes/><note><pitch><step>D</step><octave>4</octave></pitch><duration>2</duration><voice>1</voice><type>quarter</type><staff>1</staff></note><note><pitch><step>A</step><alter>-1</alter><octave>3</octave></pitch><duration>2</duration><voice>1</voice><type>quarter</type><staff>1</staff></note><note><pitch><step>F</step><octave>3</octave></pitch><duration>2</duration><voice>1</voice><type>quarter</type><staff>1</staff></note></measure><measure number="41"><attributes/><note><pitch><step>E</step><alter>-1</alter><octave>3</octave></pitch><duration>6</duration><tie type="start"/><voice>1</voice><type>half</type><dot/><staff>1</staff><notations><tied type="start"/></notations></note></measure><measure number="42"><attributes/><note><pitch><step>E</step><alter>-1</alter><octave>3</octave></pitch><duration>2</duration><tie type="stop"/><voice>1</voice><type>quarter</type><staff>1</staff><notations><tied type="stop"/></notations></note><note><rest/><duration>2</duration><voice>1</voice><type>quarter</type><staff>1</staff></note><note><rest/><duration>2</duration><voice>1</voice><type>quarter</type><staff>1</staff></note><barline location="right"><bar-style>light-heavy</bar-style></barline></measure></part><part id="P2"><measure number="1"><attributes><divisions>1</divisions><key><fifths>-3</fifths></key><time><beats>3</beats><beat-type>4</beat-type></time><staves>2</staves><clef number="1"><sign>G</sign><line>2</line></clef><clef number="2"><sign>F</sign><line>4</line></clef><staff-details><staff-lines>5</staff-lines></staff-details></attributes><direction placement="below"><direction-type><dynamics><mf/></dynamics></direction-type><staff>1</staff><sound dynamics="84"/></direction><note><pitch><step>B</step><alter>-1</alter><octave>4</octave></pitch><duration>1</duration><voice>1</voice><type>quarter</type><staff>1</staff></note><note><pitch><step>C</step><octave>5</octave></pitch><duration>1</duration><voice>1</voice><type>quarter</type><staff>1</staff></note><note><pitch><step>B</step><alter>-1</alter><octave>4</octave></pitch><duration>1</duration><voice>1</voice><type>quarter</type><staff>1</staff></note><backup><duration>3</duration></backup><note><pitch><step>B</step><alter>-1</alter><octave>3</octave></pitch><duration>3</duration><voice>2</voice><type>half</type><dot/><staff>2</staff></note><note><chord/><pitch><step>G</step><octave>3</octave></pitch><duration>3</duration><voice>2</voice><type>half</type><dot/><staff>2</staff></note><backup><duration>3</duration></backup><note><pitch><step>E</step><alter>-1</alter><octave>4</octave></pitch><duration>3</duration><voice>3</voice><type>half</type><dot/><staff>1</staff></note></measure><measure number="2"><attributes/><note><pitch><step>C</step><octave>5</octave></pitch><duration>1</duration><voice>1</voice><type>quarter</type><staff>1</staff></note><note><pitch><step>B</step><alter>-1</alter><octave>4</octave></pitch><duration>1</duration><voice>1</voice><type>quarter</type><staff>1</staff></note><note><pitch><step>C</step><octave>5</octave></pitch><duration>1</duration><voice>1</voice><type>quarter</type><staff>1</staff></note><backup><duration>3</duration></backup><note><pitch><step>G</step><octave>3</octave></pitch><duration>3</duration><voice>2</voice><type>half</type><dot/><staff>2</staff></note><note><chord/><pitch><step>E</step><octave>3</octave></pitch><duration>3</duration><voice>2</voice><type>half</type><dot/><accidental>natural</accidental><staff>2</staff></note><backup><duration>3</duration></backup><note><pitch><step>D</step><alter>-1</alter><octave>4</octave></pitch><duration>3</duration><voice>3</voice><type>half</type><dot/><accidental>flat</accidental><staff>1</staff></note></measure><measure number="3"><attributes/><note><pitch><step>B</step><alter>-1</alter><octave>4</octave></pitch><duration>1</duration><voice>1</voice><type>quarter</type><staff>1</staff></note><note><pitch><step>C</step><octave>5</octave></pitch><duration>1</duration><voice>1</voice><type>quarter</type><staff>1</staff></note><note><pitch><step>B</step><alter>-1</alter><octave>4</octave></pitch><duration>1</duration><voice>1</voice><type>quarter</type><staff>1</staff></note><backup><duration>3</duration></backup><note><pitch><step>A</step><alter>-1</alter><octave>3</octave></pitch><duration>3</duration><voice>2</voice><type>half</type><dot/><staff>2</staff></note><note><chord/><pitch><step>F</step><octave>3</octave></pitch><duration>3</duration><voice>2</voice><type>half</type><dot/><staff>2</staff></note><backup><duration>3</duration></backup><note><pitch><step>D</step><octave>4</octave></pitch><duration>3</duration><voice>3</voice><type>half</type><dot/><staff>1</staff></note></measure><measure number="4"><attributes/><note><pitch><step>C</step><octave>5</octave></pitch><duration>1</duration><voice>1</voice><type>quarter</type><staff>1</staff></note><note><chord/><pitch><step>D</step><octave>4</octave></pitch><duration>1</duration><voice>1</voice><type>quarter</type><staff>1</staff></note><direction placement="below"><direction-type><dynamics><p/></dynamics></direction-type><staff>1</staff><sound dynamics="49"/></direction><note><pitch><step>B</step><alter>-1</alter><octave>4</octave></pitch><duration>1</duration><voice>1</voice><type>quarter</type><staff>1</staff></note><note><pitch><step>A</step><alter>-1</alter><octave>4</octave></pitch><duration>1</duration><voice>1</voice><type>quarter</type><staff>1</staff></note><backup><duration>3</duration></backup><note><pitch><step>A</step><alter>-1</alter><octave>3</octave></pitch><duration>1</duration><voice>2</voice><type>quarter</type><staff>2</staff></note><note><chord/><pitch><step>B</step><alter>-1</alter><octave>2</octave></pitch><duration>1</duration><voice>2</voice><type>quarter</type><staff>2</staff></note><note><rest/><duration>1</duration><voice>2</voice><type>quarter</type><staff>2</staff></note><note><rest/><duration>1</duration><voice>2</voice><type>quarter</type><staff>2</staff></note><barline location="right"><bar-style>light-light</bar-style></barline></measure><measure number="5"><barline location="left"><bar-style>heavy-light</bar-style><repeat direction="forward" times="1" winged="none"/></barline><attributes/><note><pitch><step>G</step><octave>4</octave></pitch><duration>1</duration><voice>1</voice><type>quarter</type><staff>1</staff></note><note><pitch><step>F</step><octave>4</octave></pitch><duration>1</duration><voice>1</voice><type>quarter</type><staff>1</staff></note><note><pitch><step>E</step><alter>-1</alter><octave>4</octave></pitch><duration>1</duration><voice>1</voice><type>quarter</type><staff>1</staff></note><backup><duration>3</duration></backup><note><pitch><step>E</step><alter>-1</alter><octave>2</octave></pitch><duration>1</duration><voice>2</voice><type>quarter</type><staff>2</staff></note><note><rest/><duration>1</duration><voice>2</voice><type>quarter</type><staff>2</staff></note><note><rest/><duration>1</duration><voice>2</voice><type>quarter</type><staff>2</staff></note><backup><duration>3</duration></backup><note><rest/><duration>1</duration><voice>3</voice><type>quarter</type><staff>1</staff></note><note><pitch><step>B</step><alter>-1</alter><octave>3</octave></pitch><duration>2</duration><voice>3</voice><type>half</type><staff>1</staff></note><note><chord/><pitch><step>G</step><octave>3</octave></pitch><duration>2</duration><voice>3</voice><type>half</type><staff>1</staff></note></measure><measure number="6"><attributes/><note><pitch><step>F</step><octave>4</octave></pitch><duration>1</duration><voice>1</voice><type>quarter</type><staff>1</staff></note><note><pitch><step>G</step><octave>4</octave></pitch><duration>1</duration><voice>1</voice><type>quarter</type><staff>1</staff></note><note><pitch><step>A</step><alter>-1</alter><octave>4</octave></pitch><duration>1</duration><voice>1</voice><type>quarter</type><staff>1</staff></note><backup><duration>3</duration></backup><note><pitch><step>B</step><alter>-1</alter><octave>2</octave></pitch><duration>1</duration><voice>2</voice><type>quarter</type><staff>2</staff></note><note><chord/><pitch><step>B</step><alter>-1</alter><octave>1</octave></pitch><duration>1</duration><voice>2</voice><type>quarter</type><staff>2</staff></note><note><rest/><duration>1</duration><voice>2</voice><type>quarter</type><staff>2</staff></note><note><rest/><duration>1</duration><voice>2</voice><type>quarter</type><staff>2</staff></note><backup><duration>3</duration></backup><note><rest/><duration>1</duration><voice>3</voice><type>quarter</type><staff>1</staff></note><note><pitch><step>D</step><octave>4</octave></pitch><duration>2</duration><voice>3</voice><type>half</type><staff>1</staff></note><note><chord/><pitch><step>A</step><alter>-1</alter><octave>3</octave></pitch><duration>2</duration><voice>3</voice><type>half</type><staff>1</staff></note></measure><measure number="7"><attributes/><note><pitch><step>G</step><octave>4</octave></pitch><duration>1</duration><voice>1</voice><type>quarter</type><staff>1</staff></note><note><pitch><step>B</step><alter>-1</alter><octave>4</octave></pitch><duration>2</duration><tie type="start"/><voice>1</voice><type>half</type><staff>1</staff><notations><tied type="start"/></notations></note><note><chord/><pitch><step>G</step><octave>4</octave></pitch><duration>2</duration><tie type="start"/><voice>1</voice><type>half</type><staff>1</staff><notations><tied type="start"/></notations></note><backup><duration>3</duration></backup><note><pitch><step>E</step><alter>-1</alter><octave>2</octave></pitch><duration>1</duration><voice>2</voice><type>quarter</type><staff>2</staff></note><note><rest/><duration>1</duration><voice>2</voice><type>quarter</type><staff>2</staff></note><note><rest/><duration>1</duration><voice>2</voice><type>quarter</type><staff>2</staff></note><backup><duration>3</duration></backup><note><rest/><duration>1</duration><voice>3</voice><type>quarter</type><staff>1</staff></note><note><pitch><step>E</step><alter>-1</alter><octave>4</octave></pitch><duration>1</duration><voice>3</voice><type>quarter</type><staff>1</staff></note><note><pitch><step>C</step><octave>4</octave></pitch><duration>1</duration><voice>3</voice><type>quarter</type><staff>1</staff></note></measure><measure number="8"><attributes/><note><pitch><step>B</step><alter>-1</alter><octave>4</octave></pitch><duration>1</duration><tie type="stop"/><voice>1</voice><type>quarter</type><staff>1</staff><notations><tied type="stop"/></notations></note><note><chord/><pitch><step>G</step><octave>4</octave></pitch><duration>1</duration><tie type="stop"/><voice>1</voice><type>quarter</type><staff>1</staff><notations><tied type="stop"/></notations></note><note><chord/><pitch><step>B</step><alter>-1</alter><octave>3</octave></pitch><duration>1</duration><voice>1</voice><type>quarter</type><staff>1</staff></note><note><pitch><step>B</step><alter>-1</alter><octave>4</octave></pitch><duration>1</duration><voice>1</voice><type>quarter</type><staff>1</staff></note><note><chord/><pitch><step>D</step><octave>4</octave></pitch><duration>1</duration><voice>1</voice><type>quarter</type><staff>1</staff></note><note><pitch><step>A</step><alter>-1</alter><octave>4</octave></pitch><duration>1</duration><voice>1</voice><type>quarter</type><staff>1</staff></note><note><chord/><pitch><step>C</step><octave>4</octave></pitch><duration>1</duration><voice>1</voice><type>quarter</type><staff>1</staff></note><backup><duration>3</duration></backup><note><pitch><step>B</step><alter>-1</alter><octave>1</octave></pitch><duration>1</duration><voice>2</voice><type>quarter</type><staff>2</staff></note><note><pitch><step>B</step><alter>-1</alter><octave>2</octave></pitch><duration>2</duration><voice>2</voice><type>half</type><staff>2</staff></note></measure><measure number="9"><attributes/><note><pitch><step>G</step><octave>4</octave></pitch><duration>1</duration><voice>1</voice><type>quarter</type><staff>1</staff></note><note><pitch><step>F</step><octave>4</octave></pitch><duration>1</duration><voice>1</voice><type>quarter</type><staff>1</staff></note><note><pitch><step>E</step><alter>-1</alter><octave>4</octave></pitch><duration>1</duration><voice>1</voice><type>quarter</type><staff>1</staff></note><backup><duration>3</duration></backup><note><pitch><step>E</step><alter>-1</alter><octave>2</octave></pitch><duration>1</duration><voice>2</voice><type>quarter</type><staff>2</staff></note><note><rest/><duration>1</duration><voice>2</voice><type>quarter</type><staff>2</staff></note><note><rest/><duration>1</duration><voice>2</voice><type>quarter</type><staff>2</staff></note><backup><duration>3</duration></backup><note><rest/><duration>1</duration><voice>3</voice><type>quarter</type><staff>1</staff></note><note><pitch><step>B</step><alter>-1</alter><octave>3</octave></pitch><duration>2</duration><voice>3</voice><type>half</type><staff>1</staff></note><note><chord/><pitch><step>G</step><octave>3</octave></pitch><duration>2</duration><voice>3</voice><type>half</type><staff>1</staff></note></measure><measure number="10"><attributes/><note><pitch><step>F</step><octave>4</octave></pitch><duration>1</duration><voice>1</voice><type>quarter</type><staff>1</staff></note><note><pitch><step>G</step><octave>4</octave></pitch><duration>1</duration><voice>1</voice><type>quarter</type><staff>1</staff></note><note><pitch><step>A</step><alter>-1</alter><octave>4</octave></pitch><duration>1</duration><voice>1</voice><type>quarter</type><staff>1</staff></note><backup><duration>3</duration></backup><note><pitch><step>B</step><alter>-1</alter><octave>2</octave></pitch><duration>1</duration><voice>2</voice><type>quarter</type><staff>2</staff></note><note><chord/><pitch><step>B</step><alter>-1</alter><octave>1</octave></pitch><duration>1</duration><voice>2</voice><type>quarter</type><staff>2</staff></note><note><rest/><duration>1</duration><voice>2</voice><type>quarter</type><staff>2</staff></note><note><rest/><duration>1</duration><voice>2</voice><type>quarter</type><staff>2</staff></note><backup><duration>3</duration></backup><note><rest/><duration>1</duration><voice>3</voice><type>quarter</type><staff>1</staff></note><note><pitch><step>D</step><octave>4</octave></pitch><duration>2</duration><voice>3</voice><type>half</type><staff>1</staff></note><note><chord/><pitch><step>A</step><alter>-1</alter><octave>3</octave></pitch><duration>2</duration><voice>3</voice><type>half</type><staff>1</staff></note></measure><measure number="11"><attributes/><note><pitch><step>G</step><octave>4</octave></pitch><duration>1</duration><voice>1</voice><type>quarter</type><staff>1</staff></note><note><pitch><step>E</step><alter>-1</alter><octave>4</octave></pitch><duration>2</duration><tie type="start"/><voice>1</voice><type>half</type><staff>1</staff><notations><tied type="start"/></notations></note><backup><duration>3</duration></backup><note><pitch><step>C</step><octave>3</octave></pitch><duration>1</duration><voice>2</voice><type>quarter</type><staff>2</staff></note><note><chord/><pitch><step>C</step><octave>2</octave></pitch><duration>1</duration><voice>2</voice><type>quarter</type><staff>2</staff></note><note><rest/><duration>1</duration><voice>2</voice><type>quarter</type><staff>2</staff></note><note><rest/><duration>1</duration><voice>2</voice><type>quarter</type><staff>2</staff></note><backup><duration>3</duration></backup><note><rest/><duration>1</duration><voice>3</voice><type>quarter</type><staff>1</staff></note><note><pitch><step>C</step><octave>4</octave></pitch><duration>1</duration><voice>3</voice><type>quarter</type><staff>1</staff></note><note><chord/><pitch><step>G</step><octave>3</octave></pitch><duration>1</duration><voice>3</voice><type>quarter</type><staff>1</staff></note><note><pitch><step>C</step><octave>4</octave></pitch><duration>1</duration><voice>3</voice><type>quarter</type><staff>1</staff></note><note><chord/><pitch><step>G</step><octave>3</octave></pitch><duration>1</duration><voice>3</voice><type>quarter</type><staff>1</staff></note></measure><measure number="12"><attributes><divisions>4</divisions></attributes><note><pitch><step>E</step><alter>-1</alter><octave>4</octave></pitch><duration>8</duration><tie type="stop"/><voice>1</voice><type>half</type><staff>1</staff><notations><tied type="stop"/></notations></note><note><pitch><step>F</step><octave>4</octave></pitch><duration>4</duration><voice>1</voice><type>quarter</type><staff>1</staff></note><backup><duration>12</duration></backup><note><pitch><step>C</step><alter>-1</alter><octave>3</octave></pitch><duration>12</duration><voice>2</voice><type>half</type><dot/><accidental>flat</accidental><staff>2</staff></note><backup><duration>12</duration></backup><note><rest/><duration>4</duration><voice>3</voice><type>quarter</type><staff>1</staff></note><note><pitch><step>A</step><alter>-1</alter><octave>3</octave></pitch><duration>8</duration><voice>3</voice><type>half</type><staff>1</staff></note></measure><measure number="13"><attributes><divisions>1</divisions></attributes><note><pitch><step>G</step><octave>4</octave></pitch><duration>1</duration><voice>1</voice><type>quarter</type><staff>1</staff></note><note><pitch><step>F</step><octave>4</octave></pitch><duration>1</duration><voice>1</voice><type>quarter</type><staff>1</staff></note><note><pitch><step>E</step><alter>-1</alter><octave>4</octave></pitch><duration>1</duration><voice>1</voice><type>quarter</type><staff>1</staff></note><backup><duration>3</duration></backup><note><pitch><step>B</step><alter>-1</alter><octave>2</octave></pitch><duration>3</duration><voice>2</voice><type>half</type><dot/><staff>2</staff></note><backup><duration>3</duration></backup><note><rest/><duration>1</duration><voice>3</voice><type>quarter</type><staff>1</staff></note><note><pitch><step>B</step><alter>-1</alter><octave>3</octave></pitch><duration>2</duration><voice>3</voice><type>half</type><staff>1</staff></note><note><chord/><pitch><step>G</step><octave>3</octave></pitch><duration>2</duration><voice>3</voice><type>half</type><staff>1</staff></note></measure><measure number="14"><attributes/><note><pitch><step>F</step><octave>4</octave></pitch><duration>1</duration><voice>1</voice><type>quarter</type><staff>1</staff></note><note><pitch><step>G</step><octave>4</octave></pitch><duration>1</duration><voice>1</voice><type>quarter</type><staff>1</staff></note><note><pitch><step>A</step><alter>-1</alter><octave>4</octave></pitch><duration>1</duration><voice>1</voice><type>quarter</type><staff>1</staff></note><backup><duration>3</duration></backup><note><pitch><step>A</step><alter>-1</alter><octave>2</octave></pitch><duration>3</duration><voice>2</voice><type>half</type><dot/><staff>2</staff></note><backup><duration>3</duration></backup><note><rest/><duration>1</duration><voice>3</voice><type>quarter</type><staff>1</staff></note><note><pitch><step>D</step><octave>4</octave></pitch><duration>2</duration><voice>3</voice><type>half</type><staff>1</staff></note><note><chord/><pitch><step>B</step><alter>-1</alter><octave>3</octave></pitch><duration>2</duration><voice>3</voice><type>half</type><staff>1</staff></note></measure><measure number="15"><attributes/><note><pitch><step>B</step><alter>-1</alter><octave>4</octave></pitch><duration>1</duration><voice>1</voice><type>quarter</type><staff>1</staff></note><note><pitch><step>A</step><alter>-1</alter><octave>4</octave></pitch><duration>1</duration><voice>1</voice><type>quarter</type><staff>1</staff></note><note><pitch><step>G</step><octave>4</octave></pitch><duration>1</duration><voice>1</voice><type>quarter</type><staff>1</staff></note><backup><duration>3</duration></backup><note><pitch><step>G</step><octave>2</octave></pitch><duration>3</duration><voice>2</voice><type>half</type><dot/><staff>2</staff></note><backup><duration>3</duration></backup><note><rest/><duration>1</duration><voice>3</voice><type>quarter</type><staff>1</staff></note><note><pitch><step>E</step><alter>-1</alter><octave>4</octave></pitch><duration>2</duration><voice>3</voice><type>half</type><staff>1</staff></note><note><chord/><pitch><step>B</step><alter>-1</alter><octave>3</octave></pitch><duration>2</duration><voice>3</voice><type>half</type><staff>1</staff></note></measure><measure number="16"><attributes><divisions>2</divisions></attributes><note><pitch><step>C</step><octave>5</octave></pitch><duration>4</duration><voice>1</voice><type>half</type><staff>1</staff></note><note><chord/><pitch><step>C</step><octave>4</octave></pitch><duration>4</duration><voice>1</voice><type>half</type><staff>1</staff></note><note><pitch><step>C</step><octave>5</octave></pitch><duration>1</duration><voice>1</voice><type>eighth</type><staff>1</staff><beam number="1">begin</beam></note><note><pitch><step>C</step><octave>5</octave></pitch><duration>1</duration><voice>1</voice><type>eighth</type><staff>1</staff><beam number="1">end</beam></note><backup><duration>6</duration></backup><note><pitch><step>E</step><alter>-1</alter><octave>3</octave></pitch><duration>6</duration><voice>2</voice><type>half</type><dot/><staff>2</staff></note><note><chord/><pitch><step>A</step><alter>-1</alter><octave>2</octave></pitch><duration>6</duration><voice>2</voice><type>half</type><dot/><staff>2</staff></note><backup><duration>6</duration></backup><note><pitch><step>G</step><octave>4</octave></pitch><duration>2</duration><voice>3</voice><type>quarter</type><staff>1</staff><notations><slur type="start" number="3"/></notations></note><note><pitch><step>D</step><octave>4</octave></pitch><duration>2</duration><voice>3</voice><type>quarter</type><staff>1</staff></note><note><pitch><step>E</step><alter>-1</alter><octave>4</octave></pitch><duration>2</duration><voice>3</voice><type>quarter</type><staff>1</staff><notations><slur type="stop" number="3"/></notations></note></measure><measure number="17"><attributes/><direction placement="below"><direction-type><dynamics><mf/></dynamics></direction-type><staff>1</staff><sound dynamics="84"/></direction><note><pitch><step>B</step><alter>-1</alter><octave>4</octave></pitch><duration>2</duration><voice>1</voice><type>quarter</type><staff>1</staff></note><note><pitch><step>B</step><alter>-1</alter><octave>4</octave></pitch><duration>2</duration><voice>1</voice><type>quarter</type><staff>1</staff><notations><arpeggiate/></notations></note><note><chord/><pitch><step>B</step><alter>-1</alter><octave>3</octave></pitch><duration>2</duration><voice>1</voice><type>quarter</type><staff>1</staff><notations><arpeggiate/></notations></note><note><chord/><pitch><step>G</step><octave>4</octave></pitch><duration>2</duration><voice>1</voice><type>quarter</type><staff>1</staff><notations><arpeggiate/></notations></note><note><chord/><pitch><step>E</step><alter>-1</alter><octave>4</octave></pitch><duration>2</duration><voice>1</voice><type>quarter</type><staff>1</staff><notations><arpeggiate/></notations></note><note><pitch><step>B</step><alter>-1</alter><octave>4</octave></pitch><duration>2</duration><voice>1</voice><type>quarter</type><staff>1</staff><notations><arpeggiate/></notations></note><note><chord/><pitch><step>G</step><octave>4</octave></pitch><duration>2</duration><voice>1</voice><type>quarter</type><staff>1</staff><notations><arpeggiate/></notations></note><note><chord/><pitch><step>E</step><alter>-1</alter><octave>4</octave></pitch><duration>2</duration><voice>1</voice><type>quarter</type><staff>1</staff><notations><arpeggiate/></notations></note><note><chord/><pitch><step>B</step><alter>-1</alter><octave>3</octave></pitch><duration>2</duration><voice>1</voice><type>quarter</type><staff>1</staff><notations><arpeggiate/></notations></note><backup><duration>6</duration></backup><note><pitch><step>G</step><octave>3</octave></pitch><duration>2</duration><voice>2</voice><type>quarter</type><staff>2</staff></note><note><chord/><pitch><step>B</step><alter>-1</alter><octave>2</octave></pitch><duration>2</duration><voice>2</voice><type>quarter</type><staff>2</staff></note><note><rest/><duration>2</duration><voice>2</voice><type>quarter</type><staff>2</staff></note><note><rest/><duration>2</duration><voice>2</voice><type>quarter</type><staff>2</staff></note></measure><measure number="18"><attributes/><note><pitch><step>B</step><alter>-1</alter><octave>4</octave></pitch><duration>2</duration><voice>1</voice><type>quarter</type><staff>1</staff></note><note><pitch><step>B</step><alter>-1</alter><octave>4</octave></pitch><duration>2</duration><voice>1</voice><type>quarter</type><staff>1</staff><notations><arpeggiate/></notations></note><note><chord/><pitch><step>G</step><octave>4</octave></pitch><duration>2</duration><voice>1</voice><type>quarter</type><staff>1</staff><notations><arpeggiate/></notations></note><note><chord/><pitch><step>E</step><alter>-1</alter><octave>4</octave></pitch><duration>2</duration><voice>1</voice><type>quarter</type><staff>1</staff><notations><arpeggiate/></notations></note><note><chord/><pitch><step>B</step><alter>-1</alter><octave>3</octave></pitch><duration>2</duration><voice>1</voice><type>quarter</type><staff>1</staff><notations><arpeggiate/></notations></note><note><pitch><step>B</step><alter>-1</alter><octave>4</octave></pitch><duration>2</duration><voice>1</voice><type>quarter</type><staff>1</staff><notations><arpeggiate/></notations></note><note><chord/><pitch><step>G</step><octave>4</octave></pitch><duration>2</duration><voice>1</voice><type>quarter</type><staff>1</staff><notations><arpeggiate/></notations></note><note><chord/><pitch><step>E</step><alter>-1</alter><octave>4</octave></pitch><duration>2</duration><voice>1</voice><type>quarter</type><staff>1</staff><notations><arpeggiate/></notations></note><note><chord/><pitch><step>B</step><alter>-1</alter><octave>3</octave></pitch><duration>2</duration><voice>1</voice><type>quarter</type><staff>1</staff><notations><arpeggiate/></notations></note><backup><duration>6</duration></backup><note><pitch><step>B</step><alter>-1</alter><octave>1</octave></pitch><duration>2</duration><voice>2</voice><type>quarter</type><staff>2</staff></note><note><rest/><duration>2</duration><voice>2</voice><type>quarter</type><staff>2</staff></note><note><rest/><duration>2</duration><voice>2</voice><type>quarter</type><staff>2</staff></note></measure><measure number="19"><attributes/><note><pitch><step>B</step><alter>-1</alter><octave>4</octave></pitch><duration>2</duration><voice>1</voice><type>quarter</type><staff>1</staff></note><note><pitch><step>B</step><alter>-1</alter><octave>4</octave></pitch><duration>2</duration><voice>1</voice><type>quarter</type><staff>1</staff><notations><arpeggiate/></notations></note><note><chord/><pitch><step>G</step><octave>4</octave></pitch><duration>2</duration><voice>1</voice><type>quarter</type><staff>1</staff><notations><arpeggiate/></notations></note><note><chord/><pitch><step>E</step><octave>4</octave></pitch><duration>2</duration><voice>1</voice><type>quarter</type><accidental>natural</accidental><staff>1</staff><notations><arpeggiate/></notations></note><note><chord/><pitch><step>C</step><alter>1</alter><octave>4</octave></pitch><duration>2</duration><voice>1</voice><type>quarter</type><accidental>sharp</accidental><staff>1</staff><notations><arpeggiate/></notations></note><note><pitch><step>B</step><alter>-1</alter><octave>4</octave></pitch><duration>2</duration><voice>1</voice><type>quarter</type><staff>1</staff><notations><arpeggiate/></notations></note><note><chord/><pitch><step>G</step><octave>4</octave></pitch><duration>2</duration><voice>1</voice><type>quarter</type><staff>1</staff><notations><arpeggiate/></notations></note><note><chord/><pitch><step>E</step><octave>4</octave></pitch><duration>2</duration><voice>1</voice><type>quarter</type><staff>1</staff><notations><arpeggiate/></notations></note><note><chord/><pitch><step>C</step><alter>1</alter><octave>4</octave></pitch><duration>2</duration><voice>1</voice><type>quarter</type><staff>1</staff><notations><arpeggiate/></notations></note><backup><duration>6</duration></backup><note><pitch><step>B</step><alter>-1</alter><octave>2</octave></pitch><duration>2</duration><voice>2</voice><type>quarter</type><staff>2</staff></note><note><rest/><duration>2</duration><voice>2</voice><type>quarter</type><staff>2</staff></note><note><rest/><duration>2</duration><voice>2</voice><type>quarter</type><staff>2</staff></note></measure><measure number="20"><attributes/><note><pitch><step>B</step><alter>-1</alter><octave>4</octave></pitch><duration>6</duration><voice>1</voice><type>half</type><dot/><staff>1</staff></note><note><chord/><pitch><step>A</step><alter>-1</alter><octave>4</octave></pitch><duration>6</duration><voice>1</voice><type>half</type><dot/><staff>1</staff></note><note><chord/><pitch><step>D</step><octave>4</octave></pitch><duration>6</duration><voice>1</voice><type>half</type><dot/><staff>1</staff></note><backup><duration>6</duration></backup><note><rest/><duration>2</duration><voice>2</voice><type>quarter</type><staff>2</staff></note><note><pitch><step>G</step><octave>3</octave></pitch><duration>2</duration><voice>2</voice><type>quarter</type><staff>2</staff></note><note><pitch><step>F</step><octave>3</octave></pitch><duration>2</duration><voice>2</voice><type>quarter</type><staff>2</staff></note><backup><duration>6</duration></backup><note><pitch><step>B</step><alter>-1</alter><octave>2</octave></pitch><duration>6</duration><voice>4</voice><type>half</type><dot/><staff>2</staff></note><barline location="right"><bar-style>light-light</bar-style></barline></measure><measure number="21"><attributes/><direction placement="below"><direction-type><dynamics><mp/></dynamics></direction-type><staff>1</staff><sound dynamics="64"/></direction><note><pitch><step>B</step><alter>-1</alter><octave>4</octave></pitch><duration>2</duration><voice>1</voice><type>quarter</type><staff>1</staff></note><note><pitch><step>G</step><octave>4</octave></pitch><duration>2</duration><voice>1</voice><type>quarter</type><staff>1</staff></note><note><chord/><pitch><step>E</step><alter>-1</alter><octave>4</octave></pitch><duration>2</duration><voice>1</voice><type>quarter</type><staff>1</staff></note><note><chord/><pitch><step>B</step><alter>-1</alter><octave>3</octave></pitch><duration>2</duration><voice>1</voice><type>quarter</type><staff>1</staff></note><note><pitch><step>D</step><octave>4</octave></pitch><duration>2</duration><voice>1</voice><type>quarter</type><staff>1</staff></note><note><chord/><pitch><step>B</step><alter>-1</alter><octave>3</octave></pitch><duration>2</duration><voice>1</voice><type>quarter</type><staff>1</staff></note><note><chord/><pitch><step>G</step><octave>3</octave></pitch><duration>2</duration><voice>1</voice><type>quarter</type><staff>1</staff></note><backup><duration>6</duration></backup><note><pitch><step>E</step><alter>-1</alter><octave>2</octave></pitch><duration>2</duration><voice>2</voice><type>quarter</type><staff>2</staff></note><note><rest/><duration>2</duration><voice>2</voice><type>quarter</type><staff>2</staff></note><note><rest/><duration>2</duration><voice>2</voice><type>quarter</type><staff>2</staff></note></measure><measure number="22"><attributes/><note><pitch><step>E</step><alter>-1</alter><octave>4</octave></pitch><duration>2</duration><voice>1</voice><type>quarter</type><staff>1</staff></note><note><pitch><step>G</step><octave>4</octave></pitch><duration>2</duration><voice>1</voice><type>quarter</type><staff>1</staff></note><note><chord/><pitch><step>E</step><alter>-1</alter><octave>4</octave></pitch><duration>2</duration><voice>1</voice><type>quarter</type><staff>1</staff></note><note><chord/><pitch><step>B</step><alter>-1</alter><octave>3</octave></pitch><duration>2</duration><voice>1</voice><type>quarter</type><staff>1</staff></note><note><pitch><step>B</step><alter>-1</alter><octave>4</octave></pitch><duration>2</duration><voice>1</voice><type>quarter</type><staff>1</staff></note><note><chord/><pitch><step>G</step><octave>4</octave></pitch><duration>2</duration><voice>1</voice><type>quarter</type><staff>1</staff></note><note><chord/><pitch><step>E</step><alter>-1</alter><octave>4</octave></pitch><duration>2</duration><voice>1</voice><type>quarter</type><staff>1</staff></note><backup><duration>6</duration></backup><note><pitch><step>B</step><alter>-1</alter><octave>2</octave></pitch><duration>2</duration><voice>2</voice><type>quarter</type><staff>2</staff></note><note><chord/><pitch><step>B</step><alter>-1</alter><octave>1</octave></pitch><duration>2</duration><voice>2</voice><type>quarter</type><staff>2</staff></note><note><rest/><duration>2</duration><voice>2</voice><type>quarter</type><staff>2</staff></note><note><rest/><duration>2</duration><voice>2</voice><type>quarter</type><staff>2</staff></note></measure><measure number="23"><attributes/><note><pitch><step>D</step><alter>-1</alter><octave>5</octave></pitch><duration>6</duration><voice>1</voice><type>half</type><dot/><accidental>flat</accidental><staff>1</staff></note><note><chord/><pitch><step>D</step><alter>-1</alter><octave>4</octave></pitch><duration>6</duration><voice>1</voice><type>half</type><dot/><accidental>flat</accidental><staff>1</staff></note><backup><duration>6</duration></backup><note><pitch><step>A</step><alter>-1</alter><octave>2</octave></pitch><duration>2</duration><voice>2</voice><type>quarter</type><staff>2</staff></note><note><rest/><duration>2</duration><voice>2</voice><type>quarter</type><staff>2</staff></note><note><rest/><duration>2</duration><voice>2</voice><type>quarter</type><staff>2</staff></note><backup><duration>6</duration></backup><note><rest/><duration>2</duration><voice>3</voice><type>quarter</type><staff>1</staff></note><note><pitch><step>A</step><alter>-1</alter><octave>4</octave></pitch><duration>2</duration><voice>3</voice><type>quarter</type><staff>1</staff></note><note><chord/><pitch><step>E</step><alter>-1</alter><octave>4</octave></pitch><duration>2</duration><voice>3</voice><type>quarter</type><staff>1</staff></note><note><pitch><step>A</step><alter>-1</alter><octave>4</octave></pitch><duration>2</duration><voice>3</voice><type>quarter</type><staff>1</staff></note><note><chord/><pitch><step>E</step><alter>-1</alter><octave>4</octave></pitch><duration>2</duration><voice>3</voice><type>quarter</type><staff>1</staff></note></measure><measure number="24"><attributes/><note><pitch><step>C</step><octave>5</octave></pitch><duration>6</duration><voice>1</voice><type>half</type><dot/><staff>1</staff></note><note><chord/><pitch><step>C</step><octave>4</octave></pitch><duration>6</duration><voice>1</voice><type>half</type><dot/><staff>1</staff></note><backup><duration>6</duration></backup><note><pitch><step>E</step><alter>-1</alter><octave>2</octave></pitch><duration>2</duration><voice>2</voice><type>quarter</type><staff>2</staff></note><note><rest/><duration>2</duration><voice>2</voice><type>quarter</type><staff>2</staff></note><note><rest/><duration>2</duration><voice>2</voice><type>quarter</type><staff>2</staff></note><backup><duration>6</duration></backup><note><rest/><duration>2</duration><voice>3</voice><type>quarter</type><staff>1</staff></note><note><pitch><step>A</step><alter>-1</alter><octave>4</octave></pitch><duration>2</duration><voice>3</voice><type>quarter</type><staff>1</staff></note><note><chord/><pitch><step>E</step><alter>-1</alter><octave>4</octave></pitch><duration>2</duration><voice>3</voice><type>quarter</type><staff>1</staff></note><note><pitch><step>A</step><alter>-1</alter><octave>4</octave></pitch><duration>2</duration><voice>3</voice><type>quarter</type><staff>1</staff></note><note><chord/><pitch><step>E</step><alter>-1</alter><octave>4</octave></pitch><duration>2</duration><voice>3</voice><type>quarter</type><staff>1</staff></note></measure><measure number="25"><attributes/><note><pitch><step>B</step><alter>-1</alter><octave>4</octave></pitch><duration>2</duration><voice>1</voice><type>quarter</type><staff>1</staff></note><note><pitch><step>G</step><octave>4</octave></pitch><duration>2</duration><voice>1</voice><type>quarter</type><staff>1</staff></note><note><chord/><pitch><step>E</step><alter>-1</alter><octave>4</octave></pitch><duration>2</duration><voice>1</voice><type>quarter</type><staff>1</staff></note><note><chord/><pitch><step>B</step><alter>-1</alter><octave>3</octave></pitch><duration>2</duration><voice>1</voice><type>quarter</type><staff>1</staff></note><note><pitch><step>D</step><octave>4</octave></pitch><duration>2</duration><voice>1</voice><type>quarter</type><staff>1</staff></note><note><chord/><pitch><step>B</step><alter>-1</alter><octave>3</octave></pitch><duration>2</duration><voice>1</voice><type>quarter</type><staff>1</staff></note><note><chord/><pitch><step>G</step><octave>3</octave></pitch><duration>2</duration><voice>1</voice><type>quarter</type><staff>1</staff></note><backup><duration>6</duration></backup><note><pitch><step>E</step><alter>-1</alter><octave>2</octave></pitch><duration>2</duration><voice>2</voice><type>quarter</type><staff>2</staff></note><note><rest/><duration>2</duration><voice>2</voice><type>quarter</type><staff>2</staff></note><note><rest/><duration>2</duration><voice>2</voice><type>quarter</type><staff>2</staff></note></measure><measure number="26"><attributes/><note><pitch><step>D</step><octave>4</octave></pitch><duration>2</duration><voice>1</voice><type>quarter</type><staff>1</staff></note><note><pitch><step>G</step><octave>4</octave></pitch><duration>2</duration><voice>1</voice><type>quarter</type><staff>1</staff></note><note><chord/><pitch><step>E</step><alter>-1</alter><octave>4</octave></pitch><duration>2</duration><voice>1</voice><type>quarter</type><staff>1</staff></note><note><chord/><pitch><step>B</step><alter>-1</alter><octave>3</octave></pitch><duration>2</duration><voice>1</voice><type>quarter</type><staff>1</staff></note><note><pitch><step>B</step><alter>-1</alter><octave>4</octave></pitch><duration>2</duration><voice>1</voice><type>quarter</type><staff>1</staff></note><note><chord/><pitch><step>G</step><octave>4</octave></pitch><duration>2</duration><voice>1</voice><type>quarter</type><staff>1</staff></note><note><chord/><pitch><step>E</step><alter>-1</alter><octave>4</octave></pitch><duration>2</duration><voice>1</voice><type>quarter</type><staff>1</staff></note><backup><duration>6</duration></backup><note><pitch><step>B</step><alter>-1</alter><octave>1</octave></pitch><duration>2</duration><voice>2</voice><type>quarter</type><staff>2</staff></note><note><rest/><duration>2</duration><voice>2</voice><type>quarter</type><staff>2</staff></note><note><rest/><duration>2</duration><voice>2</voice><type>quarter</type><staff>2</staff></note></measure><measure number="27"><attributes/><note><pitch><step>F</step><octave>4</octave></pitch><duration>6</duration><tie type="start"/><voice>1</voice><type>half</type><dot/><staff>1</staff><notations><tied type="start"/></notations></note><backup><duration>6</duration></backup><note><pitch><step>D</step><octave>2</octave></pitch><duration>2</duration><voice>2</voice><type>quarter</type><staff>2</staff></note><note><rest/><duration>2</duration><voice>2</voice><type>quarter</type><staff>2</staff></note><note><rest/><duration>2</duration><voice>2</voice><type>quarter</type><staff>2</staff></note><backup><duration>6</duration></backup><note><rest/><duration>2</duration><voice>3</voice><type>quarter</type><staff>1</staff></note><note><pitch><step>C</step><octave>4</octave></pitch><duration>2</duration><voice>3</voice><type>quarter</type><staff>1</staff></note><note><chord/><pitch><step>A</step><alter>-1</alter><octave>3</octave></pitch><duration>2</duration><voice>3</voice><type>quarter</type><staff>1</staff></note><note><pitch><step>C</step><alter>-1</alter><octave>4</octave></pitch><duration>2</duration><voice>3</voice><type>quarter</type><accidental>flat</accidental><staff>1</staff></note><note><chord/><pitch><step>A</step><alter>-1</alter><octave>3</octave></pitch><duration>2</duration><voice>3</voice><type>quarter</type><staff>1</staff></note></measure><measure number="28"><attributes/><note><pitch><step>F</step><octave>4</octave></pitch><duration>6</duration><tie type="stop"/><voice>1</voice><type>half</type><dot/><staff>1</staff><notations><tied type="stop"/></notations></note><backup><duration>6</duration></backup><note><pitch><step>B</step><alter>-1</alter><octave>2</octave></pitch><duration>2</duration><voice>2</voice><type>quarter</type><staff>2</staff></note><note><chord/><pitch><step>B</step><alter>-1</alter><octave>1</octave></pitch><duration>2</duration><voice>2</voice><type>quarter</type><staff>2</staff></note><note><rest/><duration>2</duration><voice>2</voice><type>quarter</type><staff>2</staff></note><note><rest/><duration>2</duration><voice>2</voice><type>quarter</type><staff>2</staff></note><backup><duration>6</duration></backup><note><rest/><duration>2</duration><voice>3</voice><type>quarter</type><staff>1</staff></note><note><pitch><step>C</step><octave>4</octave></pitch><duration>2</duration><voice>3</voice><type>quarter</type><staff>1</staff></note><note><chord/><pitch><step>A</step><alter>-1</alter><octave>3</octave></pitch><duration>2</duration><voice>3</voice><type>quarter</type><staff>1</staff></note><note><pitch><step>B</step><alter>-1</alter><octave>3</octave></pitch><duration>2</duration><voice>3</voice><type>quarter</type><staff>1</staff></note><note><chord/><pitch><step>A</step><alter>-1</alter><octave>3</octave></pitch><duration>2</duration><voice>3</voice><type>quarter</type><staff>1</staff></note></measure><measure number="29"><attributes/><note><pitch><step>B</step><alter>-1</alter><octave>4</octave></pitch><duration>2</duration><voice>1</voice><type>quarter</type><staff>1</staff></note><note><pitch><step>G</step><octave>4</octave></pitch><duration>2</duration><voice>1</voice><type>quarter</type><staff>1</staff></note><note><chord/><pitch><step>E</step><alter>-1</alter><octave>4</octave></pitch><duration>2</duration><voice>1</voice><type>quarter</type><staff>1</staff></note><note><chord/><pitch><step>B</step><alter>-1</alter><octave>3</octave></pitch><duration>2</duration><voice>1</voice><type>quarter</type><staff>1</staff></note><note><pitch><step>D</step><octave>4</octave></pitch><duration>2</duration><voice>1</voice><type>quarter</type><staff>1</staff></note><note><chord/><pitch><step>B</step><alter>-1</alter><octave>3</octave></pitch><duration>2</duration><voice>1</voice><type>quarter</type><staff>1</staff></note><note><chord/><pitch><step>G</step><octave>3</octave></pitch><duration>2</duration><voice>1</voice><type>quarter</type><staff>1</staff></note><backup><duration>6</duration></backup><note><pitch><step>E</step><alter>-1</alter><octave>2</octave></pitch><duration>2</duration><voice>2</voice><type>quarter</type><staff>2</staff></note><note><rest/><duration>2</duration><voice>2</voice><type>quarter</type><staff>2</staff></note><note><rest/><duration>2</duration><voice>2</voice><type>quarter</type><staff>2</staff></note></measure><measure number="30"><attributes/><note><pitch><step>E</step><alter>-1</alter><octave>4</octave></pitch><duration>2</duration><voice>1</voice><type>quarter</type><staff>1</staff></note><note><pitch><step>G</step><octave>4</octave></pitch><duration>2</duration><voice>1</voice><type>quarter</type><staff>1</staff></note><note><chord/><pitch><step>E</step><alter>-1</alter><octave>4</octave></pitch><duration>2</duration><voice>1</voice><type>quarter</type><staff>1</staff></note><note><chord/><pitch><step>B</step><alter>-1</alter><octave>3</octave></pitch><duration>2</duration><voice>1</voice><type>quarter</type><staff>1</staff></note><note><pitch><step>B</step><alter>-1</alter><octave>4</octave></pitch><duration>2</duration><voice>1</voice><type>quarter</type><staff>1</staff></note><note><chord/><pitch><step>G</step><octave>4</octave></pitch><duration>2</duration><voice>1</voice><type>quarter</type><staff>1</staff></note><note><chord/><pitch><step>E</step><alter>-1</alter><octave>4</octave></pitch><duration>2</duration><voice>1</voice><type>quarter</type><staff>1</staff></note><backup><duration>6</duration></backup><note><pitch><step>B</step><alter>-1</alter><octave>2</octave></pitch><duration>2</duration><voice>2</voice><type>quarter</type><staff>2</staff></note><note><chord/><pitch><step>B</step><alter>-1</alter><octave>1</octave></pitch><duration>2</duration><voice>2</voice><type>quarter</type><staff>2</staff></note><note><rest/><duration>2</duration><voice>2</voice><type>quarter</type><staff>2</staff></note><note><rest/><duration>2</duration><voice>2</voice><type>quarter</type><staff>2</staff></note></measure><measure number="31"><attributes/><note><pitch><step>D</step><octave>5</octave></pitch><duration>6</duration><voice>1</voice><type>half</type><dot/><staff>1</staff></note><note><chord/><pitch><step>D</step><octave>4</octave></pitch><duration>6</duration><voice>1</voice><type>half</type><dot/><staff>1</staff></note><backup><duration>6</duration></backup><note><pitch><step>A</step><alter>-1</alter><octave>2</octave></pitch><duration>2</duration><voice>2</voice><type>quarter</type><staff>2</staff></note><note><rest/><duration>2</duration><voice>2</voice><type>quarter</type><staff>2</staff></note><note><rest/><duration>2</duration><voice>2</voice><type>quarter</type><staff>2</staff></note><backup><duration>6</duration></backup><note><rest/><duration>2</duration><voice>3</voice><type>quarter</type><staff>1</staff></note><note><pitch><step>A</step><alter>-1</alter><octave>4</octave></pitch><duration>2</duration><voice>3</voice><type>quarter</type><staff>1</staff></note><note><chord/><pitch><step>E</step><alter>-1</alter><octave>4</octave></pitch><duration>2</duration><voice>3</voice><type>quarter</type><staff>1</staff></note><note><pitch><step>A</step><alter>-1</alter><octave>4</octave></pitch><duration>2</duration><voice>3</voice><type>quarter</type><staff>1</staff></note><note><chord/><pitch><step>E</step><alter>-1</alter><octave>4</octave></pitch><duration>2</duration><voice>3</voice><type>quarter</type><staff>1</staff></note></measure><measure number="32"><attributes/><note><pitch><step>E</step><alter>-1</alter><octave>5</octave></pitch><duration>6</duration><voice>1</voice><type>half</type><dot/><staff>1</staff></note><note><chord/><pitch><step>E</step><alter>-1</alter><octave>4</octave></pitch><duration>6</duration><voice>1</voice><type>half</type><dot/><staff>1</staff></note><backup><duration>6</duration></backup><note><pitch><step>A</step><octave>2</octave></pitch><duration>2</duration><voice>2</voice><type>quarter</type><accidental>natural</accidental><staff>2</staff></note><note><rest/><duration>2</duration><voice>2</voice><type>quarter</type><staff>2</staff></note><note><rest/><duration>2</duration><voice>2</voice><type>quarter</type><staff>2</staff></note><backup><duration>6</duration></backup><note><rest/><duration>2</duration><voice>3</voice><type>quarter</type><staff>1</staff></note><note><pitch><step>C</step><octave>5</octave></pitch><duration>2</duration><voice>3</voice><type>quarter</type><staff>1</staff></note><note><chord/><pitch><step>F</step><alter>1</alter><octave>4</octave></pitch><duration>2</duration><voice>3</voice><type>quarter</type><accidental>sharp</accidental><staff>1</staff></note><note><pitch><step>C</step><octave>5</octave></pitch><duration>2</duration><voice>3</voice><type>quarter</type><staff>1</staff></note><note><chord/><pitch><step>F</step><alter>1</alter><octave>4</octave></pitch><duration>2</duration><voice>3</voice><type>quarter</type><staff>1</staff></note></measure><measure number="33"><attributes/><note><pitch><step>E</step><alter>-1</alter><octave>5</octave></pitch><duration>2</duration><voice>1</voice><type>quarter</type><staff>1</staff></note><note><pitch><step>B</step><alter>-1</alter><octave>4</octave></pitch><duration>2</duration><voice>1</voice><type>quarter</type><staff>1</staff></note><note><pitch><step>G</step><octave>4</octave></pitch><duration>2</duration><voice>1</voice><type>quarter</type><staff>1</staff></note><backup><duration>6</duration></backup><note><pitch><step>G</step><octave>3</octave></pitch><duration>6</duration><voice>2</voice><type>half</type><dot/><staff>2</staff></note><note><chord/><pitch><step>B</step><alter>-1</alter><octave>2</octave></pitch><duration>6</duration><voice>2</voice><type>half</type><dot/><staff>2</staff></note><backup><duration>6</duration></backup><note><pitch><step>E</step><alter>-1</alter><octave>4</octave></pitch><duration>6</duration><voice>3</voice><type>half</type><dot/><staff>1</staff></note></measure><measure number="34"><attributes/><note><pitch><step>D</step><octave>5</octave></pitch><duration>2</duration><voice>1</voice><type>quarter</type><staff>1</staff></note><note><pitch><step>A</step><alter>-1</alter><octave>4</octave></pitch><duration>2</duration><voice>1</voice><type>quarter</type><staff>1</staff></note><note><pitch><step>F</step><octave>4</octave></pitch><duration>2</duration><voice>1</voice><type>quarter</type><staff>1</staff></note><backup><duration>6</duration></backup><note><pitch><step>A</step><alter>-1</alter><octave>3</octave></pitch><duration>6</duration><voice>2</voice><type>half</type><dot/><staff>2</staff></note><note><chord/><pitch><step>B</step><alter>-1</alter><octave>2</octave></pitch><duration>6</duration><voice>2</voice><type>half</type><dot/><staff>2</staff></note><backup><duration>6</duration></backup><note><pitch><step>D</step><octave>4</octave></pitch><duration>6</duration><voice>3</voice><type>half</type><dot/><staff>1</staff></note></measure><measure number="35"><attributes/><note><pitch><step>E</step><alter>-1</alter><octave>4</octave></pitch><duration>6</duration><tie type="start"/><voice>1</voice><type>half</type><dot/><staff>1</staff><notations><tied type="start"/></notations></note><note><chord/><pitch><step>B</step><alter>-1</alter><octave>3</octave></pitch><duration>6</duration><tie type="start"/><voice>1</voice><type>half</type><dot/><staff>1</staff><notations><tied type="start"/></notations></note><note><chord/><pitch><step>G</step><octave>3</octave></pitch><duration>6</duration><tie type="start"/><voice>1</voice><type>half</type><dot/><staff>1</staff><notations><tied type="start"/></notations></note><backup><duration>6</duration></backup><note><rest/><duration>2</duration><voice>2</voice><type>quarter</type><staff>2</staff></note><note><pitch><step>C</step><octave>3</octave></pitch><duration>2</duration><voice>2</voice><type>quarter</type><staff>2</staff></note><note><pitch><step>C</step><alter>-1</alter><octave>3</octave></pitch><duration>2</duration><voice>2</voice><type>quarter</type><accidental>flat</accidental><staff>2</staff></note><backup><duration>6</duration></backup><note><pitch><step>E</step><alter>-1</alter><octave>2</octave></pitch><duration>6</duration><voice>4</voice><type>half</type><dot/><staff>2</staff></note></measure><measure number="36"><barline location="left"><bar-style>regular</bar-style><ending number="1" type="start"/></barline><attributes/><note><pitch><step>G</step><octave>3</octave></pitch><duration>2</duration><tie type="stop"/><voice>1</voice><type>quarter</type><staff>1</staff><notations><tied type="stop"/></notations></note><note><chord/><pitch><step>B</step><alter>-1</alter><octave>3</octave></pitch><duration>2</duration><tie type="stop"/><voice>1</voice><type>quarter</type><staff>1</staff><notations><tied type="stop"/></notations></note><note><chord/><pitch><step>E</step><alter>-1</alter><octave>4</octave></pitch><duration>2</duration><tie type="stop"/><voice>1</voice><type>quarter</type><staff>1</staff><notations><tied type="stop"/></notations></note><direction placement="below"><direction-type><dynamics><p/></dynamics></direction-type><staff>1</staff><sound dynamics="49"/></direction><note><pitch><step>B</step><alter>-1</alter><octave>4</octave></pitch><duration>2</duration><voice>1</voice><type>quarter</type><staff>1</staff></note><note><pitch><step>A</step><alter>-1</alter><octave>4</octave></pitch><duration>2</duration><voice>1</voice><type>quarter</type><staff>1</staff></note><backup><duration>6</duration></backup><note><pitch><step>E</step><alter>-1</alter><octave>2</octave></pitch><duration>2</duration><voice>2</voice><type>quarter</type><staff>2</staff></note><note><chord/><pitch><step>B</step><alter>-1</alter><octave>2</octave></pitch><duration>2</duration><voice>2</voice><type>quarter</type><staff>2</staff></note><note><rest/><duration>2</duration><voice>2</voice><type>quarter</type><staff>2</staff></note><note><rest/><duration>2</duration><voice>2</voice><type>quarter</type><staff>2</staff></note><barline location="right"><bar-style>light-heavy</bar-style><ending number="1" type="stop"/><repeat direction="backward" times="1" winged="none"/></barline></measure><measure number="37"><barline location="left"><bar-style>regular</bar-style><ending number="2" type="start"/></barline><attributes/><note><pitch><step>E</step><alter>-1</alter><octave>4</octave></pitch><duration>6</duration><voice>1</voice><type>half</type><dot/><staff>1</staff></note><backup><duration>6</duration></backup><note><pitch><step>B</step><alter>-1</alter><octave>2</octave></pitch><duration>2</duration><voice>2</voice><type>quarter</type><staff>2</staff></note><note><chord/><pitch><step>B</step><alter>-1</alter><octave>1</octave></pitch><duration>2</duration><voice>2</voice><type>quarter</type><staff>2</staff></note><note><rest/><duration>2</duration><voice>2</voice><type>quarter</type><staff>2</staff></note><note><rest/><duration>2</duration><voice>2</voice><type>quarter</type><staff>2</staff></note><backup><duration>6</duration></backup><note><rest/><duration>2</duration><voice>3</voice><type>quarter</type><staff>1</staff></note><note><pitch><step>C</step><octave>4</octave></pitch><duration>2</duration><voice>3</voice><type>quarter</type><staff>1</staff></note><note><chord/><pitch><step>G</step><octave>3</octave></pitch><duration>2</duration><voice>3</voice><type>quarter</type><staff>1</staff></note><note><pitch><step>B</step><alter>-1</alter><octave>3</octave></pitch><duration>2</duration><voice>3</voice><type>quarter</type><staff>1</staff></note><note><chord/><pitch><step>G</step><octave>3</octave></pitch><duration>2</duration><voice>3</voice><type>quarter</type><staff>1</staff></note><barline location="right"><bar-style>regular</bar-style><ending number="2" type="discontinue"/></barline></measure><measure number="38"><attributes/><note><pitch><step>F</step><octave>4</octave></pitch><duration>6</duration><voice>1</voice><type>half</type><dot/><staff>1</staff></note><backup><duration>6</duration></backup><note><pitch><step>B</step><alter>-1</alter><octave>2</octave></pitch><duration>2</duration><voice>2</voice><type>quarter</type><staff>2</staff></note><note><chord/><pitch><step>B</step><alter>-1</alter><octave>1</octave></pitch><duration>2</duration><voice>2</voice><type>quarter</type><staff>2</staff></note><note><rest/><duration>2</duration><voice>2</voice><type>quarter</type><staff>2</staff></note><note><rest/><duration>2</duration><voice>2</voice><type>quarter</type><staff>2</staff></note><backup><duration>6</duration></backup><note><rest/><duration>2</duration><voice>3</voice><type>quarter</type><staff>1</staff></note><note><pitch><step>E</step><alter>-1</alter><octave>4</octave></pitch><duration>2</duration><voice>3</voice><type>quarter</type><staff>1</staff></note><note><chord/><pitch><step>C</step><octave>4</octave></pitch><duration>2</duration><voice>3</voice><type>quarter</type><staff>1</staff></note><note><chord/><pitch><step>A</step><alter>-1</alter><octave>3</octave></pitch><duration>2</duration><voice>3</voice><type>quarter</type><staff>1</staff></note><note><pitch><step>D</step><octave>4</octave></pitch><duration>2</duration><voice>3</voice><type>quarter</type><staff>1</staff></note><note><chord/><pitch><step>B</step><alter>-1</alter><octave>3</octave></pitch><duration>2</duration><voice>3</voice><type>quarter</type><staff>1</staff></note><note><chord/><pitch><step>A</step><alter>-1</alter><octave>3</octave></pitch><duration>2</duration><voice>3</voice><type>quarter</type><staff>1</staff></note></measure><measure number="39"><attributes/><note><pitch><step>E</step><alter>-1</alter><octave>5</octave></pitch><duration>2</duration><voice>1</voice><type>quarter</type><staff>1</staff></note><note><pitch><step>B</step><alter>-1</alter><octave>4</octave></pitch><duration>2</duration><voice>1</voice><type>quarter</type><staff>1</staff></note><note><pitch><step>G</step><octave>4</octave></pitch><duration>2</duration><voice>1</voice><type>quarter</type><staff>1</staff></note><backup><duration>6</duration></backup><note><pitch><step>E</step><alter>-1</alter><octave>3</octave></pitch><duration>6</duration><voice>2</voice><type>half</type><dot/><staff>2</staff></note><note><chord/><pitch><step>G</step><octave>2</octave></pitch><duration>6</duration><voice>2</voice><type>half</type><dot/><staff>2</staff></note><backup><duration>6</duration></backup><note><pitch><step>E</step><alter>-1</alter><octave>4</octave></pitch><duration>6</duration><voice>3</voice><type>half</type><dot/><staff>1</staff></note></measure><measure number="40"><attributes/><note><pitch><step>D</step><octave>5</octave></pitch><duration>2</duration><voice>1</voice><type>quarter</type><staff>1</staff></note><note><pitch><step>A</step><alter>-1</alter><octave>4</octave></pitch><duration>2</duration><voice>1</voice><type>quarter</type><staff>1</staff></note><note><pitch><step>F</step><octave>4</octave></pitch><duration>2</duration><voice>1</voice><type>quarter</type><staff>1</staff></note><backup><duration>6</duration></backup><note><pitch><step>A</step><alter>-1</alter><octave>3</octave></pitch><duration>6</duration><voice>2</voice><type>half</type><dot/><staff>2</staff></note><note><chord/><pitch><step>B</step><alter>-1</alter><octave>2</octave></pitch><duration>6</duration><voice>2</voice><type>half</type><dot/><staff>2</staff></note><backup><duration>6</duration></backup><note><pitch><step>D</step><octave>4</octave></pitch><duration>6</duration><voice>3</voice><type>half</type><dot/><staff>1</staff></note></measure><measure number="41"><attributes/><note><pitch><step>E</step><alter>-1</alter><octave>4</octave></pitch><duration>6</duration><voice>1</voice><type>half</type><dot/><staff>1</staff></note><note><chord/><pitch><step>B</step><alter>-1</alter><octave>3</octave></pitch><duration>6</duration><voice>1</voice><type>half</type><dot/><staff>1</staff></note><note><chord/><pitch><step>G</step><octave>3</octave></pitch><duration>6</duration><voice>1</voice><type>half</type><dot/><staff>1</staff></note><backup><duration>6</duration></backup><note><rest/><duration>2</duration><voice>2</voice><type>quarter</type><staff>2</staff></note><note><pitch><step>C</step><octave>3</octave></pitch><duration>2</duration><voice>2</voice><type>quarter</type><staff>2</staff></note><note><pitch><step>B</step><alter>-1</alter><octave>2</octave></pitch><duration>2</duration><voice>2</voice><type>quarter</type><staff>2</staff></note><backup><duration>6</duration></backup><note><pitch><step>E</step><alter>-1</alter><octave>2</octave></pitch><duration>6</duration><voice>4</voice><type>half</type><dot/><staff>2</staff></note></measure><measure number="42"><attributes/><note><pitch><step>G</step><octave>5</octave></pitch><duration>2</duration><voice>1</voice><type>quarter</type><staff>1</staff></note><note><chord/><pitch><step>E</step><alter>-1</alter><octave>5</octave></pitch><duration>2</duration><voice>1</voice><type>quarter</type><staff>1</staff></note><note><chord/><pitch><step>G</step><octave>4</octave></pitch><duration>2</duration><voice>1</voice><type>quarter</type><staff>1</staff></note><note><rest/><duration>2</duration><voice>1</voice><type>quarter</type><staff>1</staff></note><note><rest/><duration>2</duration><voice>1</voice><type>quarter</type><staff>1</staff></note><backup><duration>6</duration></backup><note><pitch><step>B</step><alter>-1</alter><octave>3</octave></pitch><duration>2</duration><voice>2</voice><type>quarter</type><staff>2</staff></note><note><chord/><pitch><step>E</step><alter>-1</alter><octave>3</octave></pitch><duration>2</duration><voice>2</voice><type>quarter</type><staff>2</staff></note><note><rest/><duration>2</duration><voice>2</voice><type>quarter</type><staff>2</staff></note><note><rest/><duration>2</duration><voice>2</voice><type>quarter</type><staff>2</staff></note><barline location="right"><bar-style>light-heavy</bar-style></barline></measure></part></score-partwise>