<?xml version="1.0" encoding="UTF-8" standalone="no"?><!DOCTYPE score-partwise PUBLIC "-//Recordare//DTD MusicXML 3.1 Partwise//EN" "http://www.musicxml.org/dtds/partwise.dtd"><score-partwise version="3.1"><identification><creator type="composer">W.C Handy</creator><rights>Public Domain. Arranged by Aliese Watts 2018</rights><encoding><software>Flat</software><encoding-date>2020-05-04</encoding-date></encoding><source>https://flat.io/score/5bf7f1a8560d7978035fc328-st-louis-blues</source></identification><defaults><scaling><millimeters>7</millimeters><tenths>40</tenths></scaling><page-layout><page-height>1697.142857142857</page-height><page-width>1200</page-width><page-margins type="both"><left-margin>98.28571428571429</left-margin><right-margin>98.28571428571429</right-margin><top-margin>98.28571428571429</top-margin><bottom-margin>98.28571428571429</bottom-margin></page-margins></page-layout><system-layout><system-distance>115.2</system-distance></system-layout><staff-layout><staff-distance>72.57142857142857</staff-distance></staff-layout></defaults><credit><credit-type>title</credit-type><credit-words>St. Louis Blues</credit-words></credit><part-list><score-part id="P1"><part-name>Grand Piano</part-name><part-abbreviation>Pno.</part-abbreviation><score-instrument id="P1-I1"><instrument-name>Grand Piano</instrument-name></score-instrument><midi-instrument id="P1-I1"><midi-channel>1</midi-channel><midi-program>1</midi-program></midi-instrument></score-part></part-list><part id="P1"><measure number="1"><attributes><divisions>2</divisions><key><fifths>1</fifths></key><time><beats>4</beats><beat-type>4</beat-type></time><clef><sign>G</sign><line>2</line></clef><staff-details><staff-lines>5</staff-lines></staff-details></attributes><sound tempo="100"/><sound/><direction placement="above"><direction-type><metronome><beat-unit>quarter</beat-unit><per-minute>100</per-minute></metronome></direction-type><staff>1</staff></direction><harmony placement="above"><root><root-step>G</root-step></root><kind>dominant</kind><staff>1</staff></harmony><note><pitch><step>B</step><octave>4</octave></pitch><duration>1</duration><voice>1</voice><type>eighth</type><staff>1</staff><beam number="1">begin</beam><lyric number="1"><syllabic>single</syllabic><text>I</text></lyric></note><note><pitch><step>D</step><octave>5</octave></pitch><duration>1</duration><voice>1</voice><type>eighth</type><staff>1</staff><beam number="1">end</beam><lyric number="1"><syllabic>single</syllabic><text>hate</text></lyric></note><note><pitch><step>B</step><octave>4</octave></pitch><duration>1</duration><voice>1</voice><type>eighth</type><staff>1</staff><beam number="1">begin</beam><lyric number="1"><syllabic>single</syllabic><text>to</text></lyric></note><note><pitch><step>G</step><octave>4</octave></pitch><duration>1</duration><tie type="start"/><voice>1</voice><type>eighth</type><staff>1</staff><beam number="1">end</beam><notations><tied type="start"/></notations><lyric number="1"><syllabic>begin</syllabic><text>see</text></lyric></note><note><pitch><step>G</step><octave>4</octave></pitch><duration>4</duration><tie type="stop"/><voice>1</voice><type>half</type><staff>1</staff><notations><tied type="stop"/></notations></note></measure><measure number="2"><attributes/><harmony placement="above"><root><root-step>C</root-step></root><kind>dominant</kind><staff>1</staff></harmony><note><rest/><duration>1</duration><voice>1</voice><type>eighth</type><staff>1</staff></note><note><pitch><step>D</step><alter>1</alter><octave>4</octave></pitch><duration>1</duration><voice>1</voice><type>eighth</type><accidental>sharp</accidental><staff>1</staff><lyric number="1"><syllabic>single</syllabic><text>the</text></lyric></note><note><pitch><step>E</step><octave>4</octave></pitch><duration>1</duration><voice>1</voice><type>eighth</type><staff>1</staff><beam number="1">begin</beam><lyric number="1"><syllabic>begin</syllabic><text>eve</text></lyric></note><note><pitch><step>G</step><octave>4</octave></pitch><duration>1</duration><voice>1</voice><type>eighth</type><staff>1</staff><beam number="1">end</beam><lyric number="1"><syllabic>end</syllabic><text>nin</text></lyric></note><note><pitch><step>B</step><alter>-1</alter><octave>4</octave></pitch><duration>3</duration><voice>1</voice><type>quarter</type><dot/><accidental>flat</accidental><staff>1</staff><lyric number="1"><syllabic>single</syllabic><text>sun</text></lyric></note><note><pitch><step>A</step><octave>4</octave></pitch><duration>1</duration><voice>1</voice><type>eighth</type><staff>1</staff><lyric number="1"><syllabic>single</syllabic><text>go</text></lyric></note></measure><measure number="3"><attributes/><harmony placement="above"><root><root-step>G</root-step></root><kind>major</kind><staff>1</staff></harmony><note><pitch><step>G</step><octave>4</octave></pitch><duration>8</duration><voice>1</voice><type>whole</type><staff>1</staff><lyric number="1"><syllabic>single</syllabic><text>down,</text></lyric></note></measure><measure number="4"><attributes/><harmony placement="above"><root><root-step>G</root-step></root><kind>dominant</kind><staff>1</staff></harmony><note><rest/><duration>8</duration><voice>1</voice><type>whole</type><staff>1</staff></note></measure><measure number="5"><attributes/><harmony placement="above"><root><root-step>C</root-step></root><kind>major</kind><staff>1</staff></harmony><note><rest/><duration>1</duration><voice>1</voice><type>eighth</type><staff>1</staff></note><note><pitch><step>E</step><octave>4</octave></pitch><duration>1</duration><voice>1</voice><type>eighth</type><staff>1</staff><lyric number="1"><syllabic>single</syllabic><text>Hate</text></lyric></note><note><pitch><step>G</step><octave>4</octave></pitch><duration>1</duration><voice>1</voice><type>eighth</type><staff>1</staff><beam number="1">begin</beam><lyric number="1"><syllabic>single</syllabic><text>to</text></lyric></note><note><pitch><step>A</step><octave>4</octave></pitch><duration>1</duration><tie type="start"/><voice>1</voice><type>eighth</type><staff>1</staff><beam number="1">end</beam><notations><tied type="start"/></notations><lyric number="1"><syllabic>begin</syllabic><text>see</text></lyric></note><note><pitch><step>A</step><octave>4</octave></pitch><duration>4</duration><tie type="stop"/><voice>1</voice><type>half</type><staff>1</staff><notations><tied type="stop"/></notations></note></measure><measure number="6"><attributes><divisions>4</divisions></attributes><harmony placement="above"><root><root-step>C</root-step></root><kind>dominant</kind><staff>1</staff></harmony><note><rest/><duration>2</duration><voice>1</voice><type>eighth</type><staff>1</staff></note><note><pitch><step>E</step><octave>4</octave></pitch><duration>2</duration><voice>1</voice><type>eighth</type><staff>1</staff><lyric number="1"><syllabic>single</syllabic><text>the</text></lyric></note><note><pitch><step>G</step><octave>4</octave></pitch><duration>2</duration><voice>1</voice><type>eighth</type><staff>1</staff><beam number="1">begin</beam><lyric number="1"><syllabic>begin</syllabic><text>eve</text></lyric></note><note><pitch><step>A</step><octave>4</octave></pitch><duration>2</duration><voice>1</voice><type>eighth</type><staff>1</staff><beam number="1">end</beam><lyric number="1"><syllabic>end</syllabic><text>nin</text></lyric></note><note><pitch><step>B</step><alter>-1</alter><octave>4</octave></pitch><duration>6</duration><voice>1</voice><type>quarter</type><dot/><accidental>flat</accidental><staff>1</staff><lyric number="1"><syllabic>single</syllabic><text>sun</text></lyric></note><note><pitch><step>A</step><octave>4</octave></pitch><duration>2</duration><voice>1</voice><type>eighth</type><staff>1</staff><lyric number="1"><syllabic>single</syllabic><text>go</text></lyric></note></measure><measure number="7"><attributes/><harmony placement="above"><root><root-step>G</root-step></root><kind>major</kind><staff>1</staff></harmony><note><pitch><step>G</step><octave>4</octave></pitch><duration>16</duration><voice>1</voice><type>whole</type><staff>1</staff><lyric number="1"><syllabic>single</syllabic><text>down,</text></lyric></note></measure><measure number="8"><attributes/><harmony placement="above"><root><root-step>G</root-step></root><kind>major</kind><staff>1</staff></harmony><note><rest/><duration>16</duration><voice>1</voice><type>whole</type><staff>1</staff></note></measure><measure number="9"><attributes/><harmony placement="above"><root><root-step>D</root-step></root><kind>dominant</kind><staff>1</staff></harmony><note><rest/><duration>4</duration><voice>1</voice><type>quarter</type><staff>1</staff></note><note><pitch><step>F</step><alter>1</alter><octave>4</octave></pitch><duration>2</duration><voice>1</voice><type>eighth</type><staff>1</staff><beam number="1">begin</beam><lyric number="1"><syllabic>single</syllabic><text>Ba</text></lyric></note><note><pitch><step>D</step><octave>4</octave></pitch><duration>2</duration><tie type="start"/><voice>1</voice><type>eighth</type><staff>1</staff><beam number="1">end</beam><notations><tied type="start"/></notations><lyric number="1"><syllabic>begin</syllabic><text>by</text></lyric></note><note><pitch><step>D</step><octave>4</octave></pitch><duration>8</duration><tie type="stop"/><voice>1</voice><type>half</type><staff>1</staff><notations><tied type="stop"/></notations></note></measure><measure number="10"><attributes/><note><rest/><duration>4</duration><voice>1</voice><type>quarter</type><staff>1</staff></note><note><pitch><step>B</step><alter>-1</alter><octave>4</octave></pitch><duration>2</duration><voice>1</voice><type>eighth</type><accidental>flat</accidental><staff>1</staff><beam number="1">begin</beam><lyric number="1"><syllabic>single</syllabic><text>he</text></lyric></note><note><pitch><step>B</step><alter>-1</alter><octave>4</octave></pitch><duration>2</duration><voice>1</voice><type>eighth</type><staff>1</staff><beam number="1">end</beam><lyric number="1"><syllabic>single</syllabic><text>done</text></lyric></note><note><pitch><step>B</step><alter>-1</alter><octave>4</octave></pitch><duration>6</duration><voice>1</voice><type>quarter</type><dot/><staff>1</staff><lyric number="1"><syllabic>single</syllabic><text>left</text></lyric></note><note><pitch><step>A</step><octave>4</octave></pitch><duration>2</duration><voice>1</voice><type>eighth</type><staff>1</staff><lyric number="1"><syllabic>single</syllabic><text>this</text></lyric></note></measure><measure number="11"><attributes/><harmony placement="above"><root><root-step>G</root-step></root><kind>major</kind><staff>1</staff></harmony><note><pitch><step>G</step><octave>4</octave></pitch><duration>16</duration><voice>1</voice><type>whole</type><staff>1</staff><lyric number="1"><syllabic>single</syllabic><text>town,</text></lyric></note></measure><measure number="12"><attributes/><harmony placement="above"><root><root-step>D</root-step></root><kind>dominant</kind><staff>1</staff></harmony><note><rest/><duration>16</duration><voice>1</voice><type>whole</type><staff>1</staff></note></measure><measure number="13"><attributes/><harmony placement="above"><root><root-step>G</root-step></root><kind>dominant</kind><staff>1</staff></harmony><note><pitch><step>B</step><octave>4</octave></pitch><duration>2</duration><voice>1</voice><type>eighth</type><staff>1</staff><beam number="1">begin</beam><lyric number="1"><syllabic>begin</syllabic><text>Feel</text></lyric></note><note><pitch><step>D</step><octave>5</octave></pitch><duration>2</duration><voice>1</voice><type>eighth</type><staff>1</staff><beam number="1">end</beam><lyric number="1"><syllabic>end</syllabic><text>in</text></lyric></note><note><pitch><step>B</step><octave>4</octave></pitch><duration>2</duration><voice>1</voice><type>eighth</type><staff>1</staff><beam number="1">begin</beam><lyric number="1"><syllabic>single</syllabic><text>to</text></lyric></note><note><pitch><step>G</step><octave>4</octave></pitch><duration>2</duration><tie type="start"/><voice>1</voice><type>eighth</type><staff>1</staff><beam number="1">end</beam><notations><tied type="start"/></notations><lyric number="1"><syllabic>single</syllabic><text>mor</text></lyric></note><note><pitch><step>G</step><octave>4</octave></pitch><duration>2</duration><tie type="stop"/><voice>1</voice><type>eighth</type><staff>1</staff><notations><tied type="stop"/></notations></note><note><pitch><step>G</step><octave>4</octave></pitch><duration>6</duration><voice>1</voice><type>quarter</type><dot/><staff>1</staff><lyric number="1"><syllabic>single</syllabic><text>ow</text></lyric></note></measure><measure number="14"><attributes/><harmony placement="above"><root><root-step>C</root-step></root><kind>dominant</kind><staff>1</staff></harmony><note><rest/><duration>2</duration><voice>1</voice><type>eighth</type><staff>1</staff></note><note><pitch><step>D</step><alter>1</alter><octave>4</octave></pitch><duration>2</duration><voice>1</voice><type>eighth</type><accidental>sharp</accidental><staff>1</staff><lyric number="1"><syllabic>begin</syllabic><text>like</text></lyric></note><note><pitch><step>E</step><octave>4</octave></pitch><duration>2</duration><voice>1</voice><type>eighth</type><staff>1</staff><beam number="1">begin</beam></note><note><pitch><step>G</step><octave>4</octave></pitch><duration>2</duration><voice>1</voice><type>eighth</type><staff>1</staff><beam number="1">end</beam><lyric number="1"><syllabic>single</syllabic><text>I</text></lyric></note><note><pitch><step>B</step><alter>-1</alter><octave>4</octave></pitch><duration>6</duration><voice>1</voice><type>quarter</type><dot/><accidental>flat</accidental><staff>1</staff><lyric number="1"><syllabic>single</syllabic><text>feel</text></lyric></note><note><pitch><step>A</step><octave>4</octave></pitch><duration>2</duration><voice>1</voice><type>eighth</type><staff>1</staff><lyric number="1"><syllabic>begin</syllabic><text>to</text></lyric></note></measure><measure number="15"><attributes/><harmony placement="above"><root><root-step>G</root-step></root><kind>dominant</kind><staff>1</staff></harmony><note><pitch><step>G</step><octave>4</octave></pitch><duration>16</duration><voice>1</voice><type>whole</type><staff>1</staff><lyric number="1"><syllabic>end</syllabic><text>day</text></lyric></note></measure><measure number="16"><attributes/><harmony placement="above"><root><root-step>G</root-step></root><kind>major</kind><staff>1</staff></harmony><note><rest/><duration>16</duration><voice>1</voice><type>whole</type><staff>1</staff></note></measure><measure number="17"><attributes/><harmony placement="above"><root><root-step>C</root-step></root><kind>dominant</kind><staff>1</staff></harmony><note><rest/><duration>2</duration><voice>1</voice><type>eighth</type><staff>1</staff></note><note><pitch><step>E</step><octave>4</octave></pitch><duration>2</duration><voice>1</voice><type>eighth</type><staff>1</staff><lyric number="1"><syllabic>single</syllabic><text>Feel</text></lyric></note><note><pitch><step>G</step><octave>4</octave></pitch><duration>2</duration><voice>1</voice><type>eighth</type><staff>1</staff><beam number="1">begin</beam><lyric number="1"><syllabic>begin</syllabic><text>to</text></lyric></note><note><pitch><step>A</step><octave>4</octave></pitch><duration>2</duration><tie type="start"/><voice>1</voice><type>eighth</type><staff>1</staff><beam number="1">end</beam><notations><tied type="start"/></notations><lyric number="1"><syllabic>end</syllabic><text>mor</text></lyric></note><note><pitch><step>A</step><octave>4</octave></pitch><duration>2</duration><tie type="stop"/><voice>1</voice><type>eighth</type><staff>1</staff><notations><tied type="stop"/></notations></note><note><pitch><step>A</step><octave>4</octave></pitch><duration>6</duration><voice>1</voice><type>quarter</type><dot/><staff>1</staff><lyric number="1"><syllabic>single</syllabic><text>ow</text></lyric></note></measure><measure number="18"><attributes/><note><rest/><duration>2</duration><voice>1</voice><type>eighth</type><staff>1</staff></note><note><pitch><step>E</step><octave>4</octave></pitch><duration>2</duration><voice>1</voice><type>eighth</type><staff>1</staff><notations><slur type="start" number="1"/></notations><lyric number="1"><syllabic>single</syllabic><text>like</text></lyric></note><note><pitch><step>G</step><octave>4</octave></pitch><duration>2</duration><voice>1</voice><type>eighth</type><staff>1</staff><beam number="1">begin</beam><notations><slur type="stop" number="1"/></notations></note><note><pitch><step>A</step><octave>4</octave></pitch><duration>2</duration><voice>1</voice><type>eighth</type><staff>1</staff><beam number="1">end</beam><lyric number="1"><syllabic>single</syllabic><text>I</text></lyric></note><note><pitch><step>B</step><alter>-1</alter><octave>4</octave></pitch><duration>6</duration><voice>1</voice><type>quarter</type><dot/><accidental>flat</accidental><staff>1</staff><lyric number="1"><syllabic>single</syllabic><text>feel</text></lyric></note><note><pitch><step>A</step><octave>4</octave></pitch><duration>2</duration><voice>1</voice><type>eighth</type><staff>1</staff><lyric number="1"><syllabic>single</syllabic><text>to</text></lyric></note></measure><measure number="19"><attributes/><harmony placement="above"><root><root-step>G</root-step></root><kind>major</kind><staff>1</staff></harmony><note><pitch><step>G</step><octave>4</octave></pitch><duration>16</duration><voice>1</voice><type>whole</type><staff>1</staff><lyric number="1"><syllabic>single</syllabic><text>day,</text></lyric></note></measure><measure number="20"><attributes/><harmony placement="above"><root><root-step>G</root-step></root><kind>major</kind><staff>1</staff></harmony><note><rest/><duration>16</duration><voice>1</voice><type>whole</type><staff>1</staff></note></measure><measure number="21"><attributes/><harmony placement="above"><root><root-step>D</root-step></root><kind>dominant</kind><staff>1</staff></harmony><note><pitch><step>F</step><alter>1</alter><octave>4</octave></pitch><duration>2</duration><voice>1</voice><type>eighth</type><staff>1</staff><beam number="1">begin</beam><lyric number="1"><syllabic>single</syllabic><text>I'll</text></lyric></note><note><pitch><step>A</step><octave>4</octave></pitch><duration>2</duration><voice>1</voice><type>eighth</type><staff>1</staff><beam number="1">end</beam><lyric number="1"><syllabic>single</syllabic><text>pack</text></lyric></note><note><pitch><step>F</step><alter>1</alter><octave>4</octave></pitch><duration>2</duration><voice>1</voice><type>eighth</type><staff>1</staff><beam number="1">begin</beam><lyric number="1"><syllabic>single</syllabic><text>my</text></lyric></note><note><pitch><step>D</step><octave>4</octave></pitch><duration>2</duration><tie type="start"/><voice>1</voice><type>eighth</type><staff>1</staff><beam number="1">end</beam><notations><tied type="start"/></notations><lyric number="1"><syllabic>begin</syllabic><text>trunk</text></lyric></note><note><pitch><step>D</step><octave>4</octave></pitch><duration>8</duration><tie type="stop"/><voice>1</voice><type>half</type><staff>1</staff><notations><tied type="stop"/></notations></note></measure><measure number="22"><attributes/><note><rest/><duration>4</duration><voice>1</voice><type>quarter</type><staff>1</staff></note><note><pitch><step>B</step><alter>-1</alter><octave>4</octave></pitch><duration>2</duration><voice>1</voice><type>eighth</type><accidental>flat</accidental><staff>1</staff><beam number="1">begin</beam><lyric number="1"><syllabic>single</syllabic><text>make</text></lyric></note><note><pitch><step>B</step><alter>-1</alter><octave>4</octave></pitch><duration>2</duration><voice>1</voice><type>eighth</type><staff>1</staff><beam number="1">end</beam><lyric number="1"><syllabic>single</syllabic><text>my</text></lyric></note><note><pitch><step>B</step><alter>-1</alter><octave>4</octave></pitch><duration>6</duration><voice>1</voice><type>quarter</type><dot/><staff>1</staff><lyric number="1"><syllabic>single</syllabic><text>get</text></lyric></note><note><pitch><step>A</step><octave>4</octave></pitch><duration>2</duration><voice>1</voice><type>eighth</type><staff>1</staff><lyric number="1"><syllabic>begin</syllabic><text>a</text></lyric></note></measure><measure number="23"><attributes/><harmony placement="above"><root><root-step>G</root-step></root><kind>major</kind><staff>1</staff></harmony><note><pitch><step>G</step><octave>4</octave></pitch><duration>16</duration><voice>1</voice><type>whole</type><staff>1</staff><lyric number="1"><syllabic>end</syllabic><text>way</text></lyric></note></measure><measure number="24"><attributes/><harmony placement="above"><root><root-step>G</root-step></root><kind>major</kind><staff>1</staff></harmony><note><rest/><duration>8</duration><voice>1</voice><type>half</type><staff>1</staff></note><note><rest/><duration>2</duration><voice>1</voice><type>eighth</type><staff>1</staff></note><note><pitch><step>D</step><octave>5</octave></pitch><duration>2</duration><voice>1</voice><type>eighth</type><staff>1</staff><lyric number="1"><syllabic>single</syllabic><text>St.</text></lyric></note><note><pitch><step>D</step><octave>5</octave></pitch><duration>2</duration><voice>1</voice><type>eighth</type><staff>1</staff><beam number="1">begin</beam><lyric number="1"><syllabic>begin</syllabic><text>Lou</text></lyric></note><note><pitch><step>D</step><octave>5</octave></pitch><duration>2</duration><voice>1</voice><type>eighth</type><staff>1</staff><beam number="1">end</beam><lyric number="1"><syllabic>end</syllabic><text>is</text></lyric></note></measure><measure number="25"><attributes/><harmony placement="above"><root><root-step>G</root-step></root><kind>minor</kind><staff>1</staff></harmony><note><pitch><step>D</step><octave>5</octave></pitch><duration>2</duration><voice>1</voice><type>eighth</type><staff>1</staff><lyric number="1"><syllabic>begin</syllabic><text>wo</text></lyric></note><note><pitch><step>D</step><octave>5</octave></pitch><duration>6</duration><tie type="start"/><voice>1</voice><type>quarter</type><dot/><staff>1</staff><notations><tied type="start"/></notations><lyric number="1"><syllabic>middle</syllabic><text>man</text></lyric></note><note><pitch><step>D</step><octave>5</octave></pitch><duration>8</duration><tie type="stop"/><voice>1</voice><type>half</type><staff>1</staff><notations><tied type="stop"/></notations></note></measure><measure number="26"><attributes/><harmony placement="above"><root><root-step>C</root-step></root><kind>minor</kind><staff>1</staff></harmony><note><rest/><duration>2</duration><voice>1</voice><type>eighth</type><staff>1</staff></note><note><pitch><step>C</step><octave>5</octave></pitch><duration>2</duration><voice>1</voice><type>eighth</type><staff>1</staff><lyric number="1"><syllabic>single</syllabic><text>with</text></lyric></note><note><pitch><step>C</step><octave>5</octave></pitch><duration>2</duration><voice>1</voice><type>eighth</type><staff>1</staff><beam number="1">begin</beam><lyric number="1"><syllabic>single</syllabic><text>her</text></lyric></note><note><pitch><step>C</step><alter>1</alter><octave>5</octave></pitch><duration>2</duration><voice>1</voice><type>eighth</type><accidental>sharp</accidental><staff>1</staff><beam number="1">end</beam><lyric number="1"><syllabic>begin</syllabic><text>di</text></lyric></note><note><pitch><step>D</step><octave>5</octave></pitch><duration>2</duration><voice>1</voice><type>eighth</type><staff>1</staff><lyric number="1"><syllabic>middle</syllabic><text>a</text></lyric></note><note><pitch><step>B</step><alter>-1</alter><octave>4</octave></pitch><duration>6</duration><voice>1</voice><type>quarter</type><dot/><accidental>flat</accidental><staff>1</staff><lyric number="1"><syllabic>end</syllabic><text>mond</text></lyric></note></measure><measure number="27"><attributes/><harmony placement="above"><root><root-step>D</root-step></root><kind>dominant</kind><staff>1</staff></harmony><note><pitch><step>A</step><octave>4</octave></pitch><duration>16</duration><voice>1</voice><type>whole</type><staff>1</staff><lyric number="1"><syllabic>single</syllabic><text>rings,</text></lyric></note></measure><measure number="28"><attributes/><harmony placement="above"><root><root-step>D</root-step></root><kind>dominant</kind><staff>1</staff></harmony><note><rest/><duration>8</duration><voice>1</voice><type>half</type><staff>1</staff></note><note><rest/><duration>2</duration><voice>1</voice><type>eighth</type><staff>1</staff></note><note><pitch><step>C</step><octave>5</octave></pitch><duration>2</duration><voice>1</voice><type>eighth</type><staff>1</staff><lyric number="1"><syllabic>single</syllabic><text>Pulls</text></lyric></note><note><pitch><step>C</step><octave>5</octave></pitch><duration>4</duration><voice>1</voice><type>quarter</type><staff>1</staff><lyric number="1"><syllabic>single</syllabic><text>that</text></lyric></note></measure><measure number="29"><attributes/><harmony placement="above"><root><root-step>D</root-step></root><kind>dominant</kind><staff>1</staff></harmony><note><pitch><step>C</step><octave>5</octave></pitch><duration>2</duration><voice>1</voice><type>eighth</type><staff>1</staff><lyric number="1"><syllabic>single</syllabic><text>man</text></lyric></note><note><pitch><step>C</step><octave>5</octave></pitch><duration>6</duration><tie type="start"/><voice>1</voice><type>quarter</type><dot/><staff>1</staff><notations><tied type="start"/></notations><lyric number="1"><syllabic>begin</syllabic><text>round</text></lyric></note><note><pitch><step>C</step><octave>5</octave></pitch><duration>8</duration><tie type="stop"/><voice>1</voice><type>half</type><staff>1</staff><notations><tied type="stop"/></notations></note></measure><measure number="30"><attributes/><harmony placement="above"><root><root-step>D</root-step></root><kind>dominant</kind><staff>1</staff></harmony><note><rest/><duration>4</duration><voice>1</voice><type>quarter</type><staff>1</staff></note><note><pitch><step>C</step><octave>5</octave></pitch><duration>2</duration><voice>1</voice><type>eighth</type><staff>1</staff><beam number="1">begin</beam><lyric number="1"><syllabic>single</syllabic><text>by</text></lyric></note><note><pitch><step>C</step><alter>1</alter><octave>5</octave></pitch><duration>2</duration><voice>1</voice><type>eighth</type><accidental>sharp</accidental><staff>1</staff><beam number="1">end</beam><lyric number="1"><syllabic>single</syllabic><text>her</text></lyric></note><note><pitch><step>D</step><octave>5</octave></pitch><duration>2</duration><voice>1</voice><type>eighth</type><staff>1</staff><lyric number="1"><syllabic>begin</syllabic><text>a</text></lyric></note><note><pitch><step>A</step><octave>4</octave></pitch><duration>6</duration><voice>1</voice><type>quarter</type><dot/><staff>1</staff><lyric number="1"><syllabic>end</syllabic><text>pron</text></lyric></note></measure><measure number="31"><attributes/><harmony placement="above"><root><root-step>G</root-step></root><kind>minor-seventh</kind><staff>1</staff></harmony><note><pitch><step>G</step><octave>4</octave></pitch><duration>16</duration><voice>1</voice><type>whole</type><staff>1</staff><lyric number="1"><syllabic>single</syllabic><text>strings,</text></lyric></note></measure><measure number="32"><attributes/><harmony placement="above"><root><root-step>D</root-step></root><kind>dominant</kind><staff>1</staff></harmony><note><rest/><duration>8</duration><voice>1</voice><type>half</type><staff>1</staff></note><note><rest/><duration>4</duration><voice>1</voice><type>quarter</type><staff>1</staff></note><note><pitch><step>D</step><octave>5</octave></pitch><duration>2</duration><voice>1</voice><type>eighth</type><staff>1</staff><beam number="1">begin</beam><lyric number="1"><syllabic>single</syllabic><text>Twant</text></lyric></note><note><pitch><step>D</step><octave>5</octave></pitch><duration>2</duration><voice>1</voice><type>eighth</type><staff>1</staff><beam number="1">end</beam><lyric number="1"><syllabic>single</syllabic><text>for</text></lyric></note></measure><measure number="33"><attributes/><harmony placement="above"><root><root-step>G</root-step></root><kind>minor</kind><staff>1</staff></harmony><note><pitch><step>D</step><octave>5</octave></pitch><duration>2</duration><voice>1</voice><type>eighth</type><staff>1</staff><lyric number="1"><syllabic>begin</syllabic><text>pow</text></lyric></note><note><pitch><step>D</step><octave>5</octave></pitch><duration>6</duration><tie type="start"/><voice>1</voice><type>quarter</type><dot/><staff>1</staff><notations><tied type="start"/></notations><lyric number="1"><syllabic>middle</syllabic><text>der,</text></lyric></note><note><pitch><step>D</step><octave>5</octave></pitch><duration>8</duration><tie type="stop"/><voice>1</voice><type>half</type><staff>1</staff><notations><tied type="stop"/></notations></note></measure><measure number="34"><attributes/><harmony placement="above"><root><root-step>C</root-step></root><kind>minor</kind><staff>1</staff></harmony><note><rest/><duration>2</duration><voice>1</voice><type>eighth</type><staff>1</staff></note><note><pitch><step>C</step><octave>5</octave></pitch><duration>2</duration><voice>1</voice><type>eighth</type><staff>1</staff><lyric number="1"><syllabic>single</syllabic><text>And</text></lyric></note><note><pitch><step>C</step><octave>5</octave></pitch><duration>2</duration><voice>1</voice><type>eighth</type><staff>1</staff><beam number="1">begin</beam><lyric number="1"><syllabic>begin</syllabic><text>for</text></lyric></note><note><pitch><step>C</step><alter>1</alter><octave>5</octave></pitch><duration>2</duration><voice>1</voice><type>eighth</type><accidental>sharp</accidental><staff>1</staff><beam number="1">end</beam></note><note><pitch><step>D</step><octave>5</octave></pitch><duration>2</duration><voice>1</voice><type>eighth</type><staff>1</staff><lyric number="1"><syllabic>single</syllabic><text>store</text></lyric></note><note><pitch><step>B</step><alter>-1</alter><octave>4</octave></pitch><duration>6</duration><voice>1</voice><type>quarter</type><dot/><accidental>flat</accidental><staff>1</staff><lyric number="1"><syllabic>single</syllabic><text>bought</text></lyric></note></measure><measure number="35"><attributes/><harmony placement="above"><root><root-step>D</root-step></root><kind>dominant</kind><staff>1</staff></harmony><note><pitch><step>A</step><octave>4</octave></pitch><duration>16</duration><voice>1</voice><type>whole</type><staff>1</staff><lyric number="1"><syllabic>single</syllabic><text>hair,</text></lyric></note></measure><measure number="36"><attributes/><harmony placement="above"><root><root-step>D</root-step></root><kind>dominant</kind><staff>1</staff></harmony><note><rest/><duration>8</duration><voice>1</voice><type>half</type><staff>1</staff></note><note><rest/><duration>4</duration><voice>1</voice><type>quarter</type><staff>1</staff></note><note><pitch><step>C</step><octave>5</octave></pitch><duration>4</duration><voice>1</voice><type>quarter</type><staff>1</staff><lyric number="1"><syllabic>single</syllabic><text>The</text></lyric></note></measure><measure number="37"><attributes/><note><pitch><step>C</step><octave>5</octave></pitch><duration>2</duration><voice>1</voice><type>eighth</type><staff>1</staff><lyric number="1"><syllabic>single</syllabic><text>man</text></lyric></note><note><pitch><step>C</step><octave>5</octave></pitch><duration>4</duration><voice>1</voice><type>quarter</type><staff>1</staff><lyric number="1"><syllabic>single</syllabic><text>I</text></lyric></note><note><pitch><step>C</step><octave>5</octave></pitch><duration>2</duration><tie type="start"/><voice>1</voice><type>eighth</type><staff>1</staff><notations><tied type="start"/></notations><lyric number="1"><syllabic>begin</syllabic><text>love</text></lyric></note><note><pitch><step>C</step><octave>5</octave></pitch><duration>8</duration><tie type="stop"/><voice>1</voice><type>half</type><staff>1</staff><notations><tied type="stop"/></notations></note></measure><measure number="38"><attributes/><harmony placement="above"><root><root-step>D</root-step></root><kind>dominant</kind><staff>1</staff></harmony><note><rest/><duration>4</duration><voice>1</voice><type>quarter</type><staff>1</staff></note><note><pitch><step>C</step><octave>5</octave></pitch><duration>2</duration><voice>1</voice><type>eighth</type><staff>1</staff><beam number="1">begin</beam><lyric number="1"><syllabic>single</syllabic><text>would</text></lyric></note><note><pitch><step>C</step><alter>1</alter><octave>5</octave></pitch><duration>2</duration><voice>1</voice><type>eighth</type><accidental>sharp</accidental><staff>1</staff><beam number="1">end</beam><lyric number="1"><syllabic>single</syllabic><text>not</text></lyric></note><note><pitch><step>D</step><octave>5</octave></pitch><duration>4</duration><voice>1</voice><type>quarter</type><staff>1</staff><lyric number="1"><syllabic>single</syllabic><text>gone</text></lyric></note><note><pitch><step>A</step><octave>4</octave></pitch><duration>4</duration><voice>1</voice><type>quarter</type><staff>1</staff><lyric number="1"><syllabic>single</syllabic><text>no-</text></lyric></note></measure><measure number="39"><attributes/><harmony placement="above"><root><root-step>G</root-step></root><kind>minor</kind><staff>1</staff></harmony><note><pitch><step>G</step><octave>4</octave></pitch><duration>8</duration><voice>1</voice><type>half</type><staff>1</staff><lyric number="1"><syllabic>single</syllabic><text>where,</text></lyric></note><harmony placement="above"><root><root-step>A</root-step></root><kind>dominant</kind><staff>1</staff></harmony><note><pitch><step>A</step><octave>4</octave></pitch><duration>8</duration><voice>1</voice><type>half</type><staff>1</staff><lyric number="1"><syllabic>single</syllabic><text>no-</text></lyric></note></measure><measure number="40"><attributes/><harmony placement="above"><root><root-step>D</root-step></root><kind>dominant</kind><staff>1</staff></harmony><note><pitch><step>D</step><octave>5</octave></pitch><duration>8</duration><voice>1</voice><type>half</type><staff>1</staff><lyric number="1"><syllabic>single</syllabic><text>where,</text></lyric></note><note><rest/><duration>4</duration><voice>1</voice><type>quarter</type><staff>1</staff></note><note><pitch><step>A</step><alter>1</alter><octave>4</octave></pitch><duration>2</duration><voice>1</voice><type>eighth</type><accidental>sharp</accidental><staff>1</staff><beam number="1">begin</beam><lyric number="1"><syllabic>single</syllabic><text>Got</text></lyric></note><note><pitch><step>B</step><octave>4</octave></pitch><duration>2</duration><voice>1</voice><type>eighth</type><staff>1</staff><beam number="1">end</beam><lyric number="1"><syllabic>single</syllabic><text>the</text></lyric></note></measure><measure number="41"><attributes/><harmony placement="above"><root><root-step>G</root-step></root><kind>major</kind><staff>1</staff></harmony><note><pitch><step>G</step><octave>4</octave></pitch><duration>4</duration><voice>1</voice><type>quarter</type><staff>1</staff><lyric number="1"><syllabic>single</syllabic><text>St.</text></lyric></note><note><pitch><step>A</step><alter>1</alter><octave>4</octave></pitch><duration>2</duration><voice>1</voice><type>eighth</type><accidental>sharp</accidental><staff>1</staff><beam number="1">begin</beam><lyric number="1"><syllabic>begin</syllabic><text>Lou</text></lyric></note><note><pitch><step>B</step><octave>4</octave></pitch><duration>2</duration><voice>1</voice><type>eighth</type><staff>1</staff><beam number="1">end</beam><lyric number="1"><syllabic>end</syllabic><text>is</text></lyric></note><note><pitch><step>G</step><octave>4</octave></pitch><duration>4</duration><voice>1</voice><type>quarter</type><staff>1</staff><lyric number="1"><syllabic>single</syllabic><text>blues</text></lyric></note><note><pitch><step>A</step><alter>1</alter><octave>4</octave></pitch><duration>2</duration><voice>1</voice><type>eighth</type><staff>1</staff><beam number="1">begin</beam><lyric number="1"><syllabic>single</syllabic><text>just</text></lyric></note><note><pitch><step>B</step><octave>4</octave></pitch><duration>2</duration><voice>1</voice><type>eighth</type><staff>1</staff><beam number="1">end</beam><lyric number="1"><syllabic>single</syllabic><text>as</text></lyric></note></measure><measure number="42"><attributes/><harmony placement="above"><root><root-step>G</root-step></root><kind>major</kind><staff>1</staff></harmony><note><pitch><step>G</step><octave>4</octave></pitch><duration>4</duration><voice>1</voice><type>quarter</type><staff>1</staff><lyric number="1"><syllabic>single</syllabic><text>blue</text></lyric></note><note><pitch><step>A</step><alter>1</alter><octave>4</octave></pitch><duration>2</duration><voice>1</voice><type>eighth</type><accidental>sharp</accidental><staff>1</staff><beam number="1">begin</beam><notations><slur type="start" number="1"/></notations><lyric number="1"><syllabic>single</syllabic><text>as</text></lyric></note><note><pitch><step>B</step><octave>4</octave></pitch><duration>2</duration><voice>1</voice><type>eighth</type><staff>1</staff><beam number="1">end</beam><notations><slur type="stop" number="1"/></notations></note><note><pitch><step>G</step><octave>4</octave></pitch><duration>2</duration><voice>1</voice><type>eighth</type><staff>1</staff><beam number="1">begin</beam><notations><slur type="start" number="1"/></notations><lyric number="1"><syllabic>single</syllabic><text>I</text></lyric></note><note><pitch><step>A</step><octave>4</octave></pitch><duration>2</duration><voice>1</voice><type>eighth</type><accidental>natural</accidental><staff>1</staff><beam number="1">end</beam><notations><slur type="stop" number="1"/></notations></note><note><pitch><step>B</step><octave>4</octave></pitch><duration>2</duration><voice>1</voice><type>eighth</type><staff>1</staff><beam number="1">begin</beam><lyric number="1"><syllabic>single</syllabic><text>can</text></lyric></note><note><pitch><step>G</step><octave>4</octave></pitch><duration>2</duration><tie type="start"/><voice>1</voice><type>eighth</type><staff>1</staff><beam number="1">end</beam><notations><tied type="start"/></notations><lyric number="1"><syllabic>begin</syllabic><text>be</text></lyric></note></measure><measure number="43"><attributes/><direction placement="above"><direction-type><words>C G C</words></direction-type><staff>1</staff></direction><note><pitch><step>G</step><octave>4</octave></pitch><duration>16</duration><tie type="stop"/><voice>1</voice><type>whole</type><staff>1</staff><notations><tied type="stop"/></notations></note></measure><measure number="44"><attributes/><direction placement="above"><direction-type><words>G C G7</words></direction-type><staff>1</staff></direction><note><rest/><duration>8</duration><voice>1</voice><type>half</type><staff>1</staff></note><note><rest/><duration>4</duration><voice>1</voice><type>quarter</type><staff>1</staff></note><note><pitch><step>A</step><alter>1</alter><octave>4</octave></pitch><duration>2</duration><voice>1</voice><type>eighth</type><accidental>sharp</accidental><staff>1</staff><beam number="1">begin</beam><notations><slur type="start" number="1"/></notations><lyric number="1"><syllabic>single</syllabic><text>That</text></lyric></note><note><pitch><step>B</step><octave>4</octave></pitch><duration>2</duration><voice>1</voice><type>eighth</type><staff>1</staff><beam number="1">end</beam><notations><slur type="stop" number="1"/></notations></note></measure><measure number="45"><attributes/><harmony placement="above"><root><root-step>C</root-step></root><kind>dominant</kind><staff>1</staff></harmony><note><pitch><step>A</step><octave>4</octave></pitch><duration>4</duration><voice>1</voice><type>quarter</type><staff>1</staff><lyric number="1"><syllabic>single</syllabic><text>man</text></lyric></note><note><pitch><step>G</step><octave>4</octave></pitch><duration>2</duration><voice>1</voice><type>eighth</type><staff>1</staff><beam number="1">begin</beam><lyric number="1"><syllabic>single</syllabic><text>got</text></lyric></note><note><pitch><step>E</step><octave>4</octave></pitch><duration>2</duration><voice>1</voice><type>eighth</type><staff>1</staff><beam number="1">end</beam><lyric number="1"><syllabic>single</syllabic><text>a</text></lyric></note><note><pitch><step>G</step><octave>4</octave></pitch><duration>4</duration><voice>1</voice><type>quarter</type><staff>1</staff><lyric number="1"><syllabic>single</syllabic><text>heart</text></lyric></note><note><pitch><step>A</step><octave>4</octave></pitch><duration>2</duration><voice>1</voice><type>eighth</type><staff>1</staff><beam number="1">begin</beam><lyric number="1"><syllabic>single</syllabic><text>like</text></lyric></note><note><pitch><step>B</step><alter>-1</alter><octave>4</octave></pitch><duration>2</duration><voice>1</voice><type>eighth</type><accidental>flat</accidental><staff>1</staff><beam number="1">end</beam><lyric number="1"><syllabic>single</syllabic><text>a</text></lyric></note></measure><measure number="46"><attributes/><harmony placement="above"><root><root-step>C</root-step></root><kind>dominant</kind><staff>1</staff></harmony><note><pitch><step>A</step><octave>4</octave></pitch><duration>4</duration><voice>1</voice><type>quarter</type><staff>1</staff><lyric number="1"><syllabic>single</syllabic><text>rock</text></lyric></note><note><pitch><step>G</step><octave>4</octave></pitch><duration>2</duration><voice>1</voice><type>eighth</type><staff>1</staff><beam number="1">begin</beam><notations><slur type="start" number="1"/></notations><lyric number="1"><syllabic>single</syllabic><text>cast</text></lyric></note><note><pitch><step>E</step><octave>4</octave></pitch><duration>2</duration><voice>1</voice><type>eighth</type><staff>1</staff><beam number="1">end</beam><notations><slur type="stop" number="1"/></notations></note><note><pitch><step>G</step><octave>4</octave></pitch><duration>2</duration><voice>1</voice><type>eighth</type><staff>1</staff><beam number="1">begin</beam><lyric number="1"><syllabic>single</syllabic><text>in</text></lyric></note><note><pitch><step>G</step><alter>1</alter><octave>4</octave></pitch><duration>2</duration><voice>1</voice><type>eighth</type><accidental>sharp</accidental><staff>1</staff><beam number="1">end</beam><notations><slur type="start" number="1"/></notations><lyric number="1"><syllabic>begin</syllabic><text>the</text></lyric></note><note><pitch><step>B</step><octave>4</octave></pitch><duration>2</duration><voice>1</voice><type>eighth</type><staff>1</staff><beam number="1">begin</beam><notations><slur type="stop" number="1"/></notations></note><note><pitch><step>G</step><alter>1</alter><octave>4</octave></pitch><duration>2</duration><voice>1</voice><type>eighth</type><staff>1</staff><beam number="1">end</beam><notations><slur type="start" number="1"/></notations><lyric number="1"><syllabic>begin</syllabic><text>sea</text></lyric></note></measure><measure number="47"><attributes/><harmony placement="above"><root><root-step>G</root-step></root><kind>major</kind><staff>1</staff></harmony><note><pitch><step>G</step><octave>4</octave></pitch><duration>16</duration><voice>1</voice><type>whole</type><staff>1</staff><notations><slur type="stop" number="1"/></notations></note></measure><measure number="48"><attributes/><harmony placement="above"><root><root-step>G</root-step></root><kind>major</kind><staff>1</staff></harmony><note><rest/><duration>8</duration><voice>1</voice><type>half</type><staff>1</staff></note><note><rest/><duration>4</duration><voice>1</voice><type>quarter</type><staff>1</staff></note><note><pitch><step>A</step><alter>1</alter><octave>4</octave></pitch><duration>2</duration><voice>1</voice><type>eighth</type><accidental>sharp</accidental><staff>1</staff><beam number="1">begin</beam><notations><slur type="start" number="1"/></notations><lyric number="1"><syllabic>begin</syllabic><text>Or</text></lyric></note><note><pitch><step>B</step><octave>4</octave></pitch><duration>2</duration><voice>1</voice><type>eighth</type><staff>1</staff><beam number="1">end</beam><notations><slur type="stop" number="1"/></notations></note></measure><measure number="49"><attributes/><harmony placement="above"><root><root-step>D</root-step></root><kind>dominant</kind><staff>1</staff></harmony><note><pitch><step>D</step><octave>5</octave></pitch><duration>4</duration><voice>1</voice><type>quarter</type><staff>1</staff><lyric number="1"><syllabic>single</syllabic><text>else</text></lyric></note><note><pitch><step>A</step><alter>1</alter><octave>4</octave></pitch><duration>2</duration><voice>1</voice><type>eighth</type><accidental>sharp</accidental><staff>1</staff><beam number="1">begin</beam><notations><slur type="start" number="1"/></notations><lyric number="1"><syllabic>single</syllabic><text>he</text></lyric></note><note><pitch><step>B</step><octave>4</octave></pitch><duration>2</duration><voice>1</voice><type>eighth</type><staff>1</staff><beam number="1">end</beam><notations><slur type="stop" number="1"/></notations></note><note><pitch><step>D</step><octave>4</octave></pitch><duration>2</duration><voice>1</voice><type>eighth</type><staff>1</staff><beam number="1">begin</beam><lyric number="1"><syllabic>begin</syllabic><text>would</text></lyric></note><note><pitch><step>A</step><octave>4</octave></pitch><duration>2</duration><voice>1</voice><type>eighth</type><accidental>natural</accidental><staff>1</staff><beam number="1">end</beam><lyric number="1"><syllabic>end</syllabic><text>n't</text></lyric></note><note><pitch><step>B</step><octave>4</octave></pitch><duration>2</duration><voice>1</voice><type>eighth</type><staff>1</staff><beam number="1">begin</beam><lyric number="1"><syllabic>single</syllabic><text>have</text></lyric></note><note><pitch><step>C</step><octave>4</octave></pitch><duration>2</duration><tie type="start"/><voice>1</voice><type>eighth</type><staff>1</staff><beam number="1">end</beam><notations><tied type="start"/></notations><lyric number="1"><syllabic>begin</syllabic><text>gone</text></lyric></note></measure><measure number="50"><attributes/><harmony placement="above"><root><root-step>D</root-step></root><kind>dominant</kind><staff>1</staff></harmony><note><pitch><step>C</step><octave>4</octave></pitch><duration>2</duration><tie type="stop"/><voice>1</voice><type>eighth</type><staff>1</staff><beam number="1">begin</beam><notations><tied type="stop"/></notations></note><note><pitch><step>A</step><alter>1</alter><octave>4</octave></pitch><duration>2</duration><voice>1</voice><type>eighth</type><accidental>sharp</accidental><staff>1</staff><beam number="1">end</beam><notations><slur type="start" number="1"/></notations><lyric number="1"><syllabic>begin</syllabic><text>so</text></lyric></note><note><pitch><step>B</step><octave>4</octave></pitch><duration>2</duration><voice>1</voice><type>eighth</type><staff>1</staff><beam number="1">begin</beam><notations><slur type="stop" number="1"/></notations></note><note><pitch><step>D</step><octave>4</octave></pitch><duration>2</duration><tie type="start"/><voice>1</voice><type>eighth</type><staff>1</staff><beam number="1">end</beam><notations><tied type="start"/></notations><lyric number="1"><syllabic>begin</syllabic><text>far</text></lyric></note><note><pitch><step>D</step><octave>4</octave></pitch><duration>2</duration><tie type="stop"/><voice>1</voice><type>eighth</type><staff>1</staff><beam number="1">begin</beam><notations><tied type="stop"/></notations></note><note><pitch><step>A</step><octave>4</octave></pitch><duration>2</duration><voice>1</voice><type>eighth</type><accidental>natural</accidental><staff>1</staff><beam number="1">end</beam><notations><slur type="start" number="1"/></notations><lyric number="1"><syllabic>single</syllabic><text>from</text></lyric></note><note><pitch><step>B</step><octave>4</octave></pitch><duration>2</duration><voice>1</voice><type>eighth</type><staff>1</staff><beam number="1">begin</beam><notations><slur type="stop" number="1"/></notations></note><note><pitch><step>G</step><octave>4</octave></pitch><duration>2</duration><tie type="start"/><voice>1</voice><type>eighth</type><staff>1</staff><beam number="1">end</beam><notations><tied type="start"/></notations><lyric number="1"><syllabic>single</syllabic><text>me.</text></lyric></note></measure><measure number="51"><attributes/><harmony placement="above"><root><root-step>G</root-step></root><kind>major</kind><staff>1</staff></harmony><note><pitch><step>G</step><octave>4</octave></pitch><duration>16</duration><tie type="stop"/><voice>1</voice><type>whole</type><staff>1</staff><notations><tied type="stop"/></notations></note><barline location="right"><bar-style>light-heavy</bar-style></barline></measure></part></score-partwise>